<?xml version="1.0" encoding="UTF-8" standalone="no"?>
<?xml-stylesheet href="./db.css" type="text/css"?>
<!DOCTYPE svg PUBLIC "-//W3C//DTD SVG 1.1//EN"
 "http://www.w3.org/Graphics/SVG/1.1/DTD/svg11.dtd">
<!-- Generated by graphviz version 2.40.1 (20161225.0304)
 -->
<!-- Title: g Pages: 1 -->
<svg width="1213pt" height="322pt"
 viewBox="0.00 0.00 1213.00 321.50" xmlns="http://www.w3.org/2000/svg" xmlns:xlink="http://www.w3.org/1999/xlink">
<g id="graph0" class="graph" transform="scale(1 1) rotate(0) translate(4 317.5)">
<title>g</title>
<polygon fill="#ffffff" stroke="transparent" points="-4,4 -4,-317.5 1209,-317.5 1209,4 -4,4"/>
<!-- sn_browser -->
<g id="node1" class="node">
<title>sn_browser</title>
<polygon fill="none" stroke="#000000" points="23,-139 23,-175 136,-175 136,-139 23,-139"/>
<text text-anchor="middle" x="79.5" y="-153.9" font-family="verdana" font-size="12.00" fill="#000000">sn_browser</text>
</g>
<!-- sn_nodejs -->
<g id="node6" class="node">
<title>sn_nodejs</title>
<polygon fill="none" stroke="#000000" points="303.5,-125 303.5,-167 406.5,-167 406.5,-125 303.5,-125"/>
<text text-anchor="middle" x="355" y="-153.4" font-family="verdana" font-size="12.00" fill="#000000">sn_nodejs</text>
<polyline fill="none" stroke="#000000" points="303.5,-146 406.5,-146 "/>
<text text-anchor="middle" x="355" y="-132.4" font-family="verdana" font-size="12.00" fill="#000000">native</text>
</g>
<!-- sn_browser&#45;&gt;sn_nodejs -->
<g id="edge6" class="edge">
<title>sn_browser:K_sn_browser&#45;&gt;sn_nodejs:K_sn_nodejs</title>
<path fill="none" stroke="#006400" d="M136.4544,-157C180.2093,-157 242.3225,-157 297.6661,-157"/>
<polygon fill="#006400" stroke="#006400" points="303,-157 298,-159.2501 300.5,-157 298,-157.0001 298,-157.0001 298,-157.0001 300.5,-157 298,-154.7501 303,-157 303,-157"/>
</g>
<!-- bls_dkg -->
<g id="node2" class="node">
<title>bls_dkg</title>
<polygon fill="none" stroke="#000000" points="1093,-277 1093,-313 1182,-313 1182,-277 1093,-277"/>
<text text-anchor="middle" x="1137.5" y="-291.9" font-family="verdana" font-size="12.00" fill="#000000">bls_dkg</text>
</g>
<!-- sn_routing -->
<g id="node3" class="node">
<title>sn_routing</title>
<polygon fill="none" stroke="#000000" points="853,-248 853,-284 960,-284 960,-248 853,-248"/>
<text text-anchor="middle" x="906.5" y="-262.9" font-family="verdana" font-size="12.00" fill="#000000">sn_routing</text>
</g>
<!-- sn_routing&#45;&gt;bls_dkg -->
<g id="edge13" class="edge">
<title>sn_routing:K_sn_routing&#45;&gt;bls_dkg:K_bls_dkg</title>
<path fill="none" stroke="#006400" d="M960.0767,-272.7261C998.5979,-277.5621 1050.1663,-284.036 1087.7765,-288.7577"/>
<polygon fill="#006400" stroke="#006400" points="1092.7555,-289.3827 1087.5141,-290.9923 1090.275,-289.0713 1087.7944,-288.7598 1087.7944,-288.7598 1087.7944,-288.7598 1090.275,-289.0713 1088.0748,-286.5273 1092.7555,-289.3827 1092.7555,-289.3827"/>
</g>
<!-- qp2p -->
<g id="node4" class="node">
<title>qp2p</title>
<polygon fill="none" stroke="#000000" points="1100,-216 1100,-252 1175,-252 1175,-216 1100,-216"/>
<text text-anchor="middle" x="1137.5" y="-230.9" font-family="verdana" font-size="12.00" fill="#000000">qp2p</text>
</g>
<!-- sn_routing&#45;&gt;qp2p -->
<g id="edge14" class="edge">
<title>sn_routing:K_sn_routing&#45;&gt;qp2p:K_qp2p</title>
<path fill="none" stroke="#006400" d="M960.0767,-258.5781C1001.0214,-252.9061 1056.7067,-245.1921 1094.7026,-239.9286"/>
<polygon fill="#006400" stroke="#006400" points="1099.7106,-239.2349 1095.0666,-242.1498 1097.2342,-239.578 1094.7578,-239.9211 1094.7578,-239.9211 1094.7578,-239.9211 1097.2342,-239.578 1094.4491,-237.6924 1099.7106,-239.2349 1099.7106,-239.2349"/>
</g>
<!-- sn_client -->
<g id="node5" class="node">
<title>sn_client</title>
<polygon fill="none" stroke="#000000" points="858.5,-125 858.5,-161 954.5,-161 954.5,-125 858.5,-125"/>
<text text-anchor="middle" x="906.5" y="-139.9" font-family="verdana" font-size="12.00" fill="#000000">sn_client</text>
</g>
<!-- sn_client&#45;&gt;qp2p -->
<g id="edge15" class="edge">
<title>sn_client:K_sn_client&#45;&gt;qp2p:K_qp2p</title>
<path fill="none" stroke="#006400" d="M954.9787,-161.1853C1003.1672,-179.8347 1058.1084,-201.8571 1095.0128,-216.7613"/>
<polygon fill="#006400" stroke="#006400" points="1099.8723,-218.7248 1094.3934,-218.9377 1097.5543,-217.7882 1095.2364,-216.8516 1095.2364,-216.8516 1095.2364,-216.8516 1097.5543,-217.7882 1096.0793,-214.7654 1099.8723,-218.7248 1099.8723,-218.7248"/>
</g>
<!-- sn_data_types -->
<g id="node7" class="node">
<title>sn_data_types</title>
<polygon fill="none" stroke="#000000" points="1073,-149 1073,-185 1202,-185 1202,-149 1073,-149"/>
<text text-anchor="middle" x="1137.5" y="-163.9" font-family="verdana" font-size="12.00" fill="#000000">sn_data_types</text>
</g>
<!-- sn_client&#45;&gt;sn_data_types -->
<g id="edge17" class="edge">
<title>sn_client:K_sn_client&#45;&gt;sn_data_types:K_sn_data_types</title>
<path fill="none" stroke="#006400" d="M954.644,-148.002C987.2851,-151.3933 1030.9584,-155.9307 1067.4376,-159.7208"/>
<polygon fill="#006400" stroke="#006400" points="1072.7654,-160.2743 1067.5596,-161.9955 1070.2788,-160.0159 1067.7922,-159.7575 1067.7922,-159.7575 1067.7922,-159.7575 1070.2788,-160.0159 1068.0247,-157.5196 1072.7654,-160.2743 1072.7654,-160.2743"/>
</g>
<!-- self_encryption -->
<g id="node14" class="node">
<title>self_encryption</title>
<polygon fill="none" stroke="#000000" points="1070,-87 1070,-123 1205,-123 1205,-87 1070,-87"/>
<text text-anchor="middle" x="1137.5" y="-101.9" font-family="verdana" font-size="12.00" fill="#000000">self_encryption</text>
</g>
<!-- sn_client&#45;&gt;self_encryption -->
<g id="edge16" class="edge">
<title>sn_client:K_sn_client&#45;&gt;self_encryption:K_self_encryption</title>
<path fill="none" stroke="#006400" d="M954.644,-135.0802C986.4029,-129.8558 1028.6057,-122.9133 1064.4644,-117.0145"/>
<polygon fill="#006400" stroke="#006400" points="1069.707,-116.1521 1065.1386,-119.1839 1067.2402,-116.5579 1064.7733,-116.9638 1064.7733,-116.9638 1064.7733,-116.9638 1067.2402,-116.5579 1064.4081,-114.7436 1069.707,-116.1521 1069.707,-116.1521"/>
</g>
<!-- sn_api -->
<g id="node13" class="node">
<title>sn_api</title>
<polygon fill="none" stroke="#000000" points="597.5,-18 597.5,-144 696.5,-144 696.5,-18 597.5,-18"/>
<text text-anchor="middle" x="647" y="-130.4" font-family="verdana" font-size="12.00" fill="#000000">sn_api</text>
<polyline fill="none" stroke="#000000" points="597.5,-123 696.5,-123 "/>
<text text-anchor="middle" x="647" y="-109.4" font-family="verdana" font-size="12.00" fill="#000000">sn_cli</text>
<polyline fill="none" stroke="#000000" points="597.5,-102 696.5,-102 "/>
<text text-anchor="middle" x="647" y="-88.4" font-family="verdana" font-size="12.00" fill="#000000">sn_api</text>
<polyline fill="none" stroke="#000000" points="597.5,-81 696.5,-81 "/>
<text text-anchor="middle" x="647" y="-67.4" font-family="verdana" font-size="12.00" fill="#000000">sn_ffi</text>
<polyline fill="none" stroke="#000000" points="597.5,-60 696.5,-60 "/>
<text text-anchor="middle" x="647" y="-46.4" font-family="verdana" font-size="12.00" fill="#000000">sn_authd</text>
<polyline fill="none" stroke="#000000" points="597.5,-39 696.5,-39 "/>
<text text-anchor="middle" x="647" y="-25.4" font-family="verdana" font-size="12.00" fill="#000000">qjsonrpc</text>
</g>
<!-- sn_nodejs&#45;&gt;sn_api -->
<g id="edge20" class="edge">
<title>sn_nodejs:K_native&#45;&gt;sn_api:K_sn_api</title>
<path fill="none" stroke="#006400" d="M407,-135C491.7199,-135 509.6642,-93.8278 591.5148,-92.0587"/>
<polygon fill="#006400" stroke="#006400" points="597,-92 592.0244,-94.3035 594.5001,-92.0268 592.0003,-92.0536 592.0003,-92.0536 592.0003,-92.0536 594.5001,-92.0268 591.9762,-89.8037 597,-92 597,-92"/>
</g>
<!-- sn_mobile_browser -->
<g id="node8" class="node">
<title>sn_mobile_browser</title>
<polygon fill="none" stroke="#000000" points="0,-77 0,-113 159,-113 159,-77 0,-77"/>
<text text-anchor="middle" x="79.5" y="-91.9" font-family="verdana" font-size="12.00" fill="#000000">sn_mobile_browser</text>
</g>
<!-- sn_csharp -->
<g id="node9" class="node">
<title>sn_csharp</title>
<polygon fill="none" stroke="#000000" points="269,-.5 269,-105.5 441,-105.5 441,-.5 269,-.5"/>
<text text-anchor="middle" x="355" y="-91.9" font-family="verdana" font-size="12.00" fill="#000000">sn_csharp</text>
<polyline fill="none" stroke="#000000" points="269,-84.5 441,-84.5 "/>
<text text-anchor="middle" x="355" y="-70.9" font-family="verdana" font-size="12.00" fill="#000000">SafeApp</text>
<polyline fill="none" stroke="#000000" points="269,-63.5 441,-63.5 "/>
<text text-anchor="middle" x="355" y="-49.9" font-family="verdana" font-size="12.00" fill="#000000">SafeApp.AppBindings</text>
<polyline fill="none" stroke="#000000" points="269,-42.5 441,-42.5 "/>
<text text-anchor="middle" x="355" y="-28.9" font-family="verdana" font-size="12.00" fill="#000000">SafeAuthenticator</text>
<polyline fill="none" stroke="#000000" points="269,-21.5 441,-21.5 "/>
<text text-anchor="middle" x="355" y="-7.9" font-family="verdana" font-size="12.00" fill="#000000">SafeApp.Core</text>
</g>
<!-- sn_mobile_browser&#45;&gt;sn_csharp -->
<g id="edge19" class="edge">
<title>sn_mobile_browser:K_sn_mobile_browser&#45;&gt;sn_csharp:K_sn_csharp</title>
<path fill="none" stroke="#006400" d="M159.2555,-95C191.5119,-95 229.2501,-95 263.9096,-95"/>
<polygon fill="#006400" stroke="#006400" points="269,-95 264,-97.2501 266.5,-95 264,-95.0001 264,-95.0001 264,-95.0001 266.5,-95 264,-92.7501 269,-95 269,-95"/>
</g>
<!-- sn_csharp&#45;&gt;sn_csharp -->
<g id="edge1" class="edge">
<title>sn_csharp:K_SafeApp.AppBindings&#45;&gt;sn_csharp:K_SafeApp.Core</title>
<path fill="none" stroke="#c0c0c0" d="M268.9345,-57.5607C235.6582,-55.4082 208,-47.9375 208,-32 208,-16.8718 232.9205,-9.3724 263.9114,-6.8088"/>
<polygon fill="#c0c0c0" stroke="#c0c0c0" points="268.9345,-6.4393 264.113,-9.0501 266.4412,-6.6227 263.9479,-6.8062 263.9479,-6.8062 263.9479,-6.8062 266.4412,-6.6227 263.7829,-4.5622 268.9345,-6.4393 268.9345,-6.4393"/>
</g>
<!-- sn_csharp&#45;&gt;sn_csharp -->
<g id="edge9" class="edge">
<title>sn_csharp:K_SafeAuthenticator&#45;&gt;sn_csharp:K_SafeApp.Core</title>
<path fill="none" stroke="#c0c0c0" d="M268.9345,-37.6422C235.6582,-36.7153 208,-31.8594 208,-21.5 208,-11.6667 232.9205,-6.792 263.9114,-5.5296"/>
<polygon fill="#c0c0c0" stroke="#c0c0c0" points="268.9345,-5.3578 264.0144,-7.7775 266.4359,-5.4433 263.9374,-5.5288 263.9374,-5.5288 263.9374,-5.5288 266.4359,-5.4433 263.8604,-3.2802 268.9345,-5.3578 268.9345,-5.3578"/>
</g>
<!-- sn_csharp&#45;&gt;sn_csharp -->
<g id="edge11" class="edge">
<title>sn_csharp:K_SafeApp&#45;&gt;sn_csharp:K_SafeApp.AppBindings</title>
<path fill="none" stroke="#c0c0c0" d="M268.9345,-79.6422C235.6582,-78.7153 208,-73.8594 208,-63.5 208,-53.6667 232.9205,-48.792 263.9114,-47.5296"/>
<polygon fill="#c0c0c0" stroke="#c0c0c0" points="268.9345,-47.3578 264.0144,-49.7775 266.4359,-47.4433 263.9374,-47.5288 263.9374,-47.5288 263.9374,-47.5288 266.4359,-47.4433 263.8604,-45.2802 268.9345,-47.3578 268.9345,-47.3578"/>
</g>
<!-- sn_csharp&#45;&gt;sn_csharp -->
<g id="edge12" class="edge">
<title>sn_csharp:K_SafeApp&#45;&gt;sn_csharp:K_SafeApp.Core</title>
<path fill="none" stroke="#c0c0c0" d="M268.9345,-77.4792C235.6582,-74.1011 208,-64.0156 208,-42.5 208,-22.077 232.9205,-11.9527 263.9114,-8.0879"/>
<polygon fill="#c0c0c0" stroke="#c0c0c0" points="268.9345,-7.5208 264.2185,-10.3176 266.4503,-7.8013 263.966,-8.0818 263.966,-8.0818 263.966,-8.0818 266.4503,-7.8013 263.7136,-5.846 268.9345,-7.5208 268.9345,-7.5208"/>
</g>
<!-- sn_csharp&#45;&gt;sn_api -->
<g id="edge2" class="edge">
<title>sn_csharp:K_SafeApp.AppBindings&#45;&gt;sn_api:K_sn_ffi</title>
<path fill="none" stroke="#006400" d="M441,-53C508.973,-53 526.3834,-69.1477 591.7887,-69.9677"/>
<polygon fill="#006400" stroke="#006400" points="597,-70 591.9861,-72.2189 594.5,-69.9844 592.0001,-69.9689 592.0001,-69.9689 592.0001,-69.9689 594.5,-69.9844 592.0141,-67.7189 597,-70 597,-70"/>
</g>
<!-- sn_csharp&#45;&gt;sn_api -->
<g id="edge10" class="edge">
<title>sn_csharp:K_SafeAuthenticator&#45;&gt;sn_api:K_sn_ffi</title>
<path fill="none" stroke="#006400" d="M441,-32C510.5488,-32 524.9276,-68.0948 591.6748,-69.9278"/>
<polygon fill="#006400" stroke="#006400" points="597,-70 591.9699,-72.1819 594.5002,-69.966 592.0005,-69.9321 592.0005,-69.9321 592.0005,-69.9321 594.5002,-69.966 592.031,-67.6823 597,-70 597,-70"/>
</g>
<!-- sn_ffi_utils -->
<g id="node10" class="node">
<title>sn_ffi_utils</title>
<polygon fill="none" stroke="#000000" points="854,-49 854,-85 959,-85 959,-49 854,-49"/>
<text text-anchor="middle" x="906.5" y="-63.9" font-family="verdana" font-size="12.00" fill="#000000">sn_ffi_utils</text>
</g>
<!-- sn_authenticator_mobile -->
<g id="node11" class="node">
<title>sn_authenticator_mobile</title>
<polygon fill="none" stroke="#000000" points="551,-163 551,-199 743,-199 743,-163 551,-163"/>
<text text-anchor="middle" x="647" y="-177.9" font-family="verdana" font-size="12.00" fill="#000000">sn_authenticator_mobile</text>
</g>
<!-- sn_authenticator_mobile&#45;&gt;sn_client -->
<g id="edge21" class="edge">
<title>sn_authenticator_mobile:K_sn_authenticator_mobile&#45;&gt;sn_client:K_sn_client</title>
<path fill="none" stroke="#006400" d="M743.2344,-167.6689C767.3318,-164.2606 793.1196,-160.5532 817,-157 828.7058,-155.2583 841.263,-153.3308 853.1597,-151.4774"/>
<polygon fill="#006400" stroke="#006400" points="858.2134,-150.6883 853.6204,-153.6828 855.7433,-151.074 853.2733,-151.4597 853.2733,-151.4597 853.2733,-151.4597 855.7433,-151.074 852.9261,-149.2366 858.2134,-150.6883 858.2134,-150.6883"/>
</g>
<!-- sn_node -->
<g id="node12" class="node">
<title>sn_node</title>
<polygon fill="none" stroke="#000000" points="600,-233 600,-269 694,-269 694,-233 600,-233"/>
<text text-anchor="middle" x="647" y="-247.9" font-family="verdana" font-size="12.00" fill="#000000">sn_node</text>
</g>
<!-- sn_node&#45;&gt;sn_routing -->
<g id="edge25" class="edge">
<title>sn_node:K_sn_node&#45;&gt;sn_routing:K_sn_routing</title>
<path fill="none" stroke="#006400" d="M694.2946,-253.7338C737.4557,-256.2287 801.4019,-259.925 847.8101,-262.6075"/>
<polygon fill="#006400" stroke="#006400" points="852.8114,-262.8966 847.6898,-264.8542 850.3155,-262.7523 847.8197,-262.608 847.8197,-262.608 847.8197,-262.608 850.3155,-262.7523 847.9496,-260.3617 852.8114,-262.8966 852.8114,-262.8966"/>
</g>
<!-- sn_node&#45;&gt;sn_data_types -->
<g id="edge24" class="edge">
<title>sn_node:K_sn_node&#45;&gt;sn_data_types:K_sn_data_types</title>
<path fill="none" stroke="#006400" d="M694.0421,-237.2434C727.8121,-228.5703 774.5743,-219 816.5,-219 816.5,-219 816.5,-219 996.5,-219 1031.8242,-219 1037.4704,-199.7015 1067.9131,-186.9749"/>
<polygon fill="#006400" stroke="#006400" points="1072.5911,-185.1479 1068.7522,-189.0628 1070.2624,-186.0574 1067.9337,-186.9669 1067.9337,-186.9669 1067.9337,-186.9669 1070.2624,-186.0574 1067.1151,-184.8711 1072.5911,-185.1479 1072.5911,-185.1479"/>
</g>
<!-- sn_api&#45;&gt;sn_client -->
<g id="edge4" class="edge">
<title>sn_api:K_sn_ffi&#45;&gt;sn_client:K_sn_client</title>
<path fill="none" stroke="#006400" d="M697,-70C705.1482,-70 794.0861,-101.9051 853.432,-123.5302"/>
<polygon fill="#006400" stroke="#006400" points="858.3644,-125.3287 852.8962,-125.7297 856.0157,-124.4723 853.667,-123.6159 853.667,-123.6159 853.667,-123.6159 856.0157,-124.4723 854.4377,-121.502 858.3644,-125.3287 858.3644,-125.3287"/>
</g>
<!-- sn_api&#45;&gt;sn_client -->
<g id="edge23" class="edge">
<title>sn_api:K_sn_api&#45;&gt;sn_client:K_sn_client</title>
<path fill="none" stroke="#006400" d="M697,-92C751.7677,-92 762.7352,-111.2575 816,-124 828.0226,-126.8762 841.0003,-129.741 853.2709,-132.3412"/>
<polygon fill="#006400" stroke="#006400" points="858.4816,-133.4387 853.1252,-134.6098 856.0353,-132.9234 853.589,-132.4081 853.589,-132.4081 853.589,-132.4081 856.0353,-132.9234 854.0527,-130.2064 858.4816,-133.4387 858.4816,-133.4387"/>
</g>
<!-- sn_api&#45;&gt;sn_ffi_utils -->
<g id="edge5" class="edge">
<title>sn_api:K_sn_ffi&#45;&gt;sn_ffi_utils:K_sn_ffi_utils</title>
<path fill="none" stroke="#006400" d="M697,-70C748.3829,-70 806.8474,-69.0866 848.9338,-68.2678"/>
<polygon fill="#006400" stroke="#006400" points="853.9835,-68.1685 849.0288,-70.5165 851.484,-68.2177 848.9845,-68.2669 848.9845,-68.2669 848.9845,-68.2669 851.484,-68.2177 848.9402,-66.0173 853.9835,-68.1685 853.9835,-68.1685"/>
</g>
<!-- sn_api&#45;&gt;sn_api -->
<g id="edge3" class="edge">
<title>sn_api:K_sn_ffi&#45;&gt;sn_api:K_sn_api</title>
<path fill="none" stroke="#c0c0c0" d="M597.4384,-64.3307C564.0716,-63.4445 531.5,-67.9922 531.5,-81 531.5,-93.3473 560.8476,-98.0718 592.3655,-97.7619"/>
<polygon fill="#c0c0c0" stroke="#c0c0c0" points="597.4384,-97.6693 592.4804,-100.0102 594.9388,-97.7149 592.4393,-97.7606 592.4393,-97.7606 592.4393,-97.7606 594.9388,-97.7149 592.3982,-95.511 597.4384,-97.6693 597.4384,-97.6693"/>
</g>
<!-- sn_api&#45;&gt;sn_api -->
<g id="edge7" class="edge">
<title>sn_api:K_sn_authd&#45;&gt;sn_api:K_qjsonrpc</title>
<path fill="none" stroke="#c0c0c0" d="M597.4384,-54.6906C564.0716,-55.6166 531.5,-51.1826 531.5,-38.5 531.5,-26.4614 560.8476,-21.855 592.3655,-22.2101"/>
<polygon fill="#c0c0c0" stroke="#c0c0c0" points="597.4384,-22.3094 592.3953,-24.4611 594.9389,-22.2604 592.4394,-22.2115 592.4394,-22.2115 592.4394,-22.2115 594.9389,-22.2604 592.4834,-19.9619 597.4384,-22.3094 597.4384,-22.3094"/>
</g>
<!-- sn_api&#45;&gt;sn_api -->
<g id="edge8" class="edge">
<title>sn_api:K_sn_authd&#45;&gt;sn_api:K_sn_api</title>
<path fill="none" stroke="#c0c0c0" d="M597.4384,-43.7794C564.0716,-43.7279 531.5,-50.6631 531.5,-70.5 531.5,-89.3296 560.8476,-96.5345 592.3655,-97.1736"/>
<polygon fill="#c0c0c0" stroke="#c0c0c0" points="597.4384,-97.2206 592.4178,-99.4241 594.9385,-97.1974 592.4386,-97.1742 592.4386,-97.1742 592.4386,-97.1742 594.9385,-97.1974 592.4595,-94.9243 597.4384,-97.2206 597.4384,-97.2206"/>
</g>
<!-- sn_api&#45;&gt;sn_api -->
<g id="edge18" class="edge">
<title>sn_api:K_sn_cli&#45;&gt;sn_api:K_sn_api</title>
<path fill="none" stroke="#c0c0c0" d="M597.4384,-118.6906C564.0716,-119.6166 531.5,-115.1826 531.5,-102.5 531.5,-90.4614 560.8476,-85.855 592.3655,-86.2101"/>
<polygon fill="#c0c0c0" stroke="#c0c0c0" points="597.4384,-86.3094 592.3953,-88.4611 594.9389,-86.2604 592.4394,-86.2115 592.4394,-86.2115 592.4394,-86.2115 594.9389,-86.2604 592.4834,-83.9619 597.4384,-86.3094 597.4384,-86.3094"/>
</g>
<!-- sn_api&#45;&gt;sn_api -->
<g id="edge22" class="edge">
<title>sn_api:K_sn_api&#45;&gt;sn_api:K_qjsonrpc</title>
<path fill="none" stroke="#c0c0c0" d="M597.4384,-96.7719C564.0716,-95.9887 531.5,-86.666 531.5,-60 531.5,-34.6881 560.8476,-25.0029 592.3655,-23.4146"/>
<polygon fill="#c0c0c0" stroke="#c0c0c0" points="597.4384,-23.2281 592.5245,-25.6604 594.9401,-23.32 592.4418,-23.4119 592.4418,-23.4119 592.4418,-23.4119 594.9401,-23.32 592.3591,-21.1634 597.4384,-23.2281 597.4384,-23.2281"/>
</g>
</g>
</svg>
