<?xml version="1.0" encoding="UTF-8" standalone="no"?>
<?xml-stylesheet href="./db.css" type="text/css"?>
<!DOCTYPE svg PUBLIC "-//W3C//DTD SVG 1.1//EN"
 "http://www.w3.org/Graphics/SVG/1.1/DTD/svg11.dtd">
<!-- Generated by graphviz version 2.40.1 (20161225.0304)
 -->
<!-- Title: g Pages: 1 -->
<svg width="1182pt" height="294pt"
 viewBox="0.00 0.00 1182.00 294.00" xmlns="http://www.w3.org/2000/svg" xmlns:xlink="http://www.w3.org/1999/xlink">
<g id="graph0" class="graph" transform="scale(1 1) rotate(0) translate(4 290)">
<title>g</title>
<polygon fill="#ffffff" stroke="transparent" points="-4,4 -4,-290 1178,-290 1178,4 -4,4"/>
<!-- safe&#45;mobile&#45;browser -->
<g id="node1" class="node">
<title>safe&#45;mobile&#45;browser</title>
<polygon fill="none" stroke="#000000" points="16,-133.5 16,-169.5 184,-169.5 184,-133.5 16,-133.5"/>
<text text-anchor="middle" x="100" y="-148.4" font-family="verdana" font-size="12.00" fill="#000000">safe&#45;mobile&#45;browser</text>
</g>
<!-- safe&#45;app&#45;csharp -->
<g id="node9" class="node">
<title>safe&#45;app&#45;csharp</title>
<polygon fill="none" stroke="#000000" points="310,-77.5 310,-161.5 482,-161.5 482,-77.5 310,-77.5"/>
<text text-anchor="middle" x="396" y="-147.9" font-family="verdana" font-size="12.00" fill="#000000">safe&#45;app&#45;csharp</text>
<polyline fill="none" stroke="#000000" points="310,-140.5 482,-140.5 "/>
<text text-anchor="middle" x="396" y="-126.9" font-family="verdana" font-size="12.00" fill="#000000">SafeApp</text>
<polyline fill="none" stroke="#000000" points="310,-119.5 482,-119.5 "/>
<text text-anchor="middle" x="396" y="-105.9" font-family="verdana" font-size="12.00" fill="#000000">SafeApp.AppBindings</text>
<polyline fill="none" stroke="#000000" points="310,-98.5 482,-98.5 "/>
<text text-anchor="middle" x="396" y="-84.9" font-family="verdana" font-size="12.00" fill="#000000">SafeApp.Core</text>
</g>
<!-- safe&#45;mobile&#45;browser&#45;&gt;safe&#45;app&#45;csharp -->
<g id="edge3" class="edge">
<title>safe&#45;mobile&#45;browser:K_safe&#45;mobile&#45;browser&#45;&gt;safe&#45;app&#45;csharp:K_safe&#45;app&#45;csharp</title>
<path fill="none" stroke="#006400" d="M184.0473,-151.5C220.8004,-151.5 264.583,-151.5 304.6295,-151.5"/>
<polygon fill="#006400" stroke="#006400" points="310,-151.5 305,-153.7501 307.5,-151.5 305,-151.5001 305,-151.5001 305,-151.5001 307.5,-151.5 305,-149.2501 310,-151.5 310,-151.5"/>
</g>
<!-- parsec -->
<g id="node2" class="node">
<title>parsec</title>
<polygon fill="none" stroke="#000000" points="1083.5,-222.5 1083.5,-258.5 1168.5,-258.5 1168.5,-222.5 1083.5,-222.5"/>
<text text-anchor="middle" x="1126" y="-237.4" font-family="verdana" font-size="12.00" fill="#000000">parsec</text>
</g>
<!-- routing -->
<g id="node3" class="node">
<title>routing</title>
<polygon fill="none" stroke="#000000" points="857,-222.5 857,-258.5 944,-258.5 944,-222.5 857,-222.5"/>
<text text-anchor="middle" x="900.5" y="-237.4" font-family="verdana" font-size="12.00" fill="#000000">routing</text>
</g>
<!-- routing&#45;&gt;parsec -->
<g id="edge4" class="edge">
<title>routing:K_routing&#45;&gt;parsec:K_parsec</title>
<path fill="none" stroke="#006400" d="M944.246,-240.5C982.6123,-240.5 1038.299,-240.5 1077.9065,-240.5"/>
<polygon fill="#006400" stroke="#006400" points="1083.1411,-240.5 1078.1412,-242.7501 1080.6411,-240.5 1078.1411,-240.5001 1078.1411,-240.5001 1078.1411,-240.5001 1080.6411,-240.5 1078.1411,-238.2501 1083.1411,-240.5 1083.1411,-240.5"/>
</g>
<!-- quic&#45;p2p -->
<g id="node7" class="node">
<title>quic&#45;p2p</title>
<polygon fill="none" stroke="#000000" points="1078,-115.5 1078,-151.5 1174,-151.5 1174,-115.5 1078,-115.5"/>
<text text-anchor="middle" x="1126" y="-130.4" font-family="verdana" font-size="12.00" fill="#000000">quic&#45;p2p</text>
</g>
<!-- routing&#45;&gt;quic&#45;p2p -->
<g id="edge5" class="edge">
<title>routing:K_routing&#45;&gt;quic&#45;p2p:K_quic&#45;p2p</title>
<path fill="none" stroke="#006400" d="M944.3568,-222.332C1003.3746,-194.5278 1015.9903,-179.9227 1073.0866,-153.7326"/>
<polygon fill="#006400" stroke="#006400" points="1077.6412,-151.6616 1074.0209,-155.7795 1075.3654,-152.6965 1073.0896,-153.7313 1073.0896,-153.7313 1073.0896,-153.7313 1075.3654,-152.6965 1072.1582,-151.6831 1077.6412,-151.6616 1077.6412,-151.6616"/>
</g>
<!-- safe&#45;client&#45;libs -->
<g id="node4" class="node">
<title>safe&#45;client&#45;libs</title>
<polygon fill="none" stroke="#000000" points="592,-37.5 592,-73.5 723,-73.5 723,-37.5 592,-37.5"/>
<text text-anchor="middle" x="657.5" y="-52.4" font-family="verdana" font-size="12.00" fill="#000000">safe&#45;client&#45;libs</text>
</g>
<!-- safe&#45;nd -->
<g id="node6" class="node">
<title>safe&#45;nd</title>
<polygon fill="none" stroke="#000000" points="855.5,-138.5 855.5,-174.5 945.5,-174.5 945.5,-138.5 855.5,-138.5"/>
<text text-anchor="middle" x="900.5" y="-153.4" font-family="verdana" font-size="12.00" fill="#000000">safe&#45;nd</text>
</g>
<!-- safe&#45;client&#45;libs&#45;&gt;safe&#45;nd -->
<g id="edge7" class="edge">
<title>safe&#45;client&#45;libs:K_safe&#45;client&#45;libs&#45;&gt;safe&#45;nd:K_safe&#45;nd</title>
<path fill="none" stroke="#006400" d="M723.3588,-73.6361C782.5986,-96.1193 794.9758,-111.0175 850.3739,-136.1961"/>
<polygon fill="#006400" stroke="#006400" points="855.15,-138.3443 849.6671,-138.3452 852.8701,-137.3188 850.5901,-136.2932 850.5901,-136.2932 850.5901,-136.2932 852.8701,-137.3188 851.5131,-134.2412 855.15,-138.3443 855.15,-138.3443"/>
</g>
<!-- safe&#45;client&#45;libs&#45;&gt;quic&#45;p2p -->
<g id="edge6" class="edge">
<title>safe&#45;client&#45;libs:K_safe&#45;client&#45;libs&#45;&gt;quic&#45;p2p:K_quic&#45;p2p</title>
<path fill="none" stroke="#006400" d="M723.1886,-62.1701C746.3333,-64.0045 772.5476,-65.5 796.5,-65.5 796.5,-65.5 796.5,-65.5 1004.5,-65.5 1042.0096,-65.5 1042.9269,-94.1845 1072.943,-112.642"/>
<polygon fill="#006400" stroke="#006400" points="1077.5906,-115.2864 1072.132,-114.7692 1075.4177,-114.05 1073.2448,-112.8136 1073.2448,-112.8136 1073.2448,-112.8136 1075.4177,-114.05 1074.3575,-110.858 1077.5906,-115.2864 1077.5906,-115.2864"/>
</g>
<!-- self_encryption -->
<g id="node10" class="node">
<title>self_encryption</title>
<polygon fill="none" stroke="#000000" points="833,-.5 833,-36.5 968,-36.5 968,-.5 833,-.5"/>
<text text-anchor="middle" x="900.5" y="-15.4" font-family="verdana" font-size="12.00" fill="#000000">self_encryption</text>
</g>
<!-- safe&#45;client&#45;libs&#45;&gt;self_encryption -->
<g id="edge8" class="edge">
<title>safe&#45;client&#45;libs:K_safe&#45;client&#45;libs&#45;&gt;self_encryption:K_self_encryption</title>
<path fill="none" stroke="#006400" d="M723.2593,-45.4873C755.5469,-40.571 794.5395,-34.6339 827.7214,-29.5815"/>
<polygon fill="#006400" stroke="#006400" points="832.995,-28.7785 828.3907,-31.7556 830.5235,-29.1549 828.052,-29.5313 828.052,-29.5313 828.052,-29.5313 830.5235,-29.1549 827.7133,-27.3069 832.995,-28.7785 832.995,-28.7785"/>
</g>
<!-- safe&#45;vault -->
<g id="node5" class="node">
<title>safe&#45;vault</title>
<polygon fill="none" stroke="#000000" points="605.5,-237.5 605.5,-273.5 709.5,-273.5 709.5,-237.5 605.5,-237.5"/>
<text text-anchor="middle" x="657.5" y="-252.4" font-family="verdana" font-size="12.00" fill="#000000">safe&#45;vault</text>
</g>
<!-- safe&#45;vault&#45;&gt;routing -->
<g id="edge13" class="edge">
<title>safe&#45;vault:K_safe&#45;vault&#45;&gt;routing:K_routing</title>
<path fill="none" stroke="#006400" d="M709.6296,-252.2821C751.7564,-249.6817 810.6156,-246.0484 851.7986,-243.5063"/>
<polygon fill="#006400" stroke="#006400" points="856.9831,-243.1862 852.1312,-245.7401 854.4878,-243.3403 851.9926,-243.4944 851.9926,-243.4944 851.9926,-243.4944 854.4878,-243.3403 851.8539,-241.2486 856.9831,-243.1862 856.9831,-243.1862"/>
</g>
<!-- safe&#45;vault&#45;&gt;safe&#45;nd -->
<g id="edge14" class="edge">
<title>safe&#45;vault:K_safe&#45;vault&#45;&gt;safe&#45;nd:K_safe&#45;nd</title>
<path fill="none" stroke="#006400" d="M709.8854,-237.3503C773.6508,-212.5784 789.5157,-202.1471 850.277,-176.68"/>
<polygon fill="#006400" stroke="#006400" points="855.1189,-174.6584 851.3718,-178.6612 852.8119,-175.6217 850.5049,-176.5849 850.5049,-176.5849 850.5049,-176.5849 852.8119,-175.6217 849.638,-174.5086 855.1189,-174.6584 855.1189,-174.6584"/>
</g>
<!-- safe&#45;nodejs -->
<g id="node8" class="node">
<title>safe&#45;nodejs</title>
<polygon fill="none" stroke="#000000" points="339,-180.5 339,-222.5 453,-222.5 453,-180.5 339,-180.5"/>
<text text-anchor="middle" x="396" y="-208.9" font-family="verdana" font-size="12.00" fill="#000000">safe&#45;nodejs</text>
<polyline fill="none" stroke="#000000" points="339,-201.5 453,-201.5 "/>
<text text-anchor="middle" x="396" y="-187.9" font-family="verdana" font-size="12.00" fill="#000000">native</text>
</g>
<!-- safe&#45;api -->
<g id="node12" class="node">
<title>safe&#45;api</title>
<polygon fill="none" stroke="#000000" points="599,-92.5 599,-218.5 716,-218.5 716,-92.5 599,-92.5"/>
<text text-anchor="middle" x="657.5" y="-204.9" font-family="verdana" font-size="12.00" fill="#000000">safe&#45;api</text>
<polyline fill="none" stroke="#000000" points="599,-197.5 716,-197.5 "/>
<text text-anchor="middle" x="657.5" y="-183.9" font-family="verdana" font-size="12.00" fill="#000000">safe&#45;cli</text>
<polyline fill="none" stroke="#000000" points="599,-176.5 716,-176.5 "/>
<text text-anchor="middle" x="657.5" y="-162.9" font-family="verdana" font-size="12.00" fill="#000000">safe&#45;api</text>
<polyline fill="none" stroke="#000000" points="599,-155.5 716,-155.5 "/>
<text text-anchor="middle" x="657.5" y="-141.9" font-family="verdana" font-size="12.00" fill="#000000">safe&#45;ffi</text>
<polyline fill="none" stroke="#000000" points="599,-134.5 716,-134.5 "/>
<text text-anchor="middle" x="657.5" y="-120.9" font-family="verdana" font-size="12.00" fill="#000000">safe&#45;authd</text>
<polyline fill="none" stroke="#000000" points="599,-113.5 716,-113.5 "/>
<text text-anchor="middle" x="657.5" y="-99.9" font-family="verdana" font-size="12.00" fill="#000000">jsonrpc&#45;quic</text>
</g>
<!-- safe&#45;nodejs&#45;&gt;safe&#45;api -->
<g id="edge17" class="edge">
<title>safe&#45;nodejs:K_native&#45;&gt;safe&#45;api:K_safe&#45;api</title>
<path fill="none" stroke="#006400" d="M453,-190.5C516.7484,-190.5 532.1327,-167.7946 593.2362,-166.5529"/>
<polygon fill="#006400" stroke="#006400" points="598.5,-166.5 593.5229,-168.8002 596.0001,-166.5251 593.5003,-166.5503 593.5003,-166.5503 593.5003,-166.5503 596.0001,-166.5251 593.4776,-164.3004 598.5,-166.5 598.5,-166.5"/>
</g>
<!-- safe&#45;app&#45;csharp&#45;&gt;safe&#45;app&#45;csharp -->
<g id="edge1" class="edge">
<title>safe&#45;app&#45;csharp:K_SafeApp.AppBindings&#45;&gt;safe&#45;app&#45;csharp:K_SafeApp.Core</title>
<path fill="none" stroke="#c0c0c0" d="M309.9345,-114.1422C276.6582,-113.2153 249,-108.3594 249,-98 249,-88.1667 273.9205,-83.292 304.9114,-82.0296"/>
<polygon fill="#c0c0c0" stroke="#c0c0c0" points="309.9345,-81.8578 305.0144,-84.2775 307.4359,-81.9433 304.9374,-82.0288 304.9374,-82.0288 304.9374,-82.0288 307.4359,-81.9433 304.8604,-79.7802 309.9345,-81.8578 309.9345,-81.8578"/>
</g>
<!-- safe&#45;app&#45;csharp&#45;&gt;safe&#45;app&#45;csharp -->
<g id="edge11" class="edge">
<title>safe&#45;app&#45;csharp:K_SafeApp&#45;&gt;safe&#45;app&#45;csharp:K_SafeApp.AppBindings</title>
<path fill="none" stroke="#c0c0c0" d="M309.9345,-136.0907C276.6582,-135.1055 249,-130.125 249,-119.5 249,-109.4146 273.9205,-104.4149 304.9114,-103.0905"/>
<polygon fill="#c0c0c0" stroke="#c0c0c0" points="309.9345,-102.9093 305.0189,-105.3382 307.4361,-102.9995 304.9377,-103.0897 304.9377,-103.0897 304.9377,-103.0897 307.4361,-102.9995 304.8566,-100.8412 309.9345,-102.9093 309.9345,-102.9093"/>
</g>
<!-- safe&#45;app&#45;csharp&#45;&gt;safe&#45;app&#45;csharp -->
<g id="edge12" class="edge">
<title>safe&#45;app&#45;csharp:K_SafeApp&#45;&gt;safe&#45;app&#45;csharp:K_SafeApp.Core</title>
<path fill="none" stroke="#c0c0c0" d="M309.9345,-135.0092C276.6582,-132.7983 249,-125.2031 249,-109 249,-93.6197 273.9205,-85.9952 304.9114,-83.3697"/>
<polygon fill="#c0c0c0" stroke="#c0c0c0" points="309.9345,-82.9908 305.1179,-85.6106 307.4416,-83.1789 304.9486,-83.367 304.9486,-83.367 304.9486,-83.367 307.4416,-83.1789 304.7794,-81.1233 309.9345,-82.9908 309.9345,-82.9908"/>
</g>
<!-- safe&#45;app&#45;csharp&#45;&gt;safe&#45;api -->
<g id="edge2" class="edge">
<title>safe&#45;app&#45;csharp:K_SafeApp.AppBindings&#45;&gt;safe&#45;api:K_safe&#45;ffi</title>
<path fill="none" stroke="#006400" d="M482,-108.5C534.3941,-108.5 543.7169,-142.1491 593.2508,-144.3836"/>
<polygon fill="#006400" stroke="#006400" points="598.5,-144.5 593.4513,-146.6385 596.0006,-144.4445 593.5012,-144.389 593.5012,-144.389 593.5012,-144.389 596.0006,-144.4445 593.5512,-142.1396 598.5,-144.5 598.5,-144.5"/>
</g>
<!-- safe&#45;authenticator&#45;mobile -->
<g id="node11" class="node">
<title>safe&#45;authenticator&#45;mobile</title>
<polygon fill="none" stroke="#000000" points="0,-249.5 0,-285.5 200,-285.5 200,-249.5 0,-249.5"/>
<text text-anchor="middle" x="100" y="-264.4" font-family="verdana" font-size="12.00" fill="#000000">safe&#45;authenticator&#45;mobile</text>
</g>
<!-- safe&#45;api&#45;&gt;safe&#45;nd -->
<g id="edge16" class="edge">
<title>safe&#45;api:K_safe&#45;ffi&#45;&gt;safe&#45;nd:K_safe&#45;nd</title>
<path fill="none" stroke="#006400" d="M716.5,-144.5C761.6574,-144.5 812.9167,-148.1435 849.8423,-151.4153"/>
<polygon fill="#006400" stroke="#006400" points="855.1839,-151.8948 850.0027,-153.6886 852.694,-151.6712 850.204,-151.4476 850.204,-151.4476 850.204,-151.4476 852.694,-151.6712 850.4052,-149.2067 855.1839,-151.8948 855.1839,-151.8948"/>
</g>
<!-- safe&#45;api&#45;&gt;safe&#45;nd -->
<g id="edge20" class="edge">
<title>safe&#45;api:K_safe&#45;api&#45;&gt;safe&#45;nd:K_safe&#45;nd</title>
<path fill="none" stroke="#006400" d="M716.5,-166.5C761.6281,-166.5 812.8905,-163.4637 849.8247,-160.7373"/>
<polygon fill="#006400" stroke="#006400" points="855.1676,-160.3377 850.3493,-162.9544 852.6745,-160.5242 850.1815,-160.7107 850.1815,-160.7107 850.1815,-160.7107 852.6745,-160.5242 850.0136,-158.4669 855.1676,-160.3377 855.1676,-160.3377"/>
</g>
<!-- safe&#45;api&#45;&gt;safe&#45;api -->
<g id="edge9" class="edge">
<title>safe&#45;api:K_safe&#45;authd&#45;&gt;safe&#45;api:K_jsonrpc&#45;quic</title>
<path fill="none" stroke="#c0c0c0" d="M598.9191,-129.2835C571.7437,-128.8997 548,-124.1211 548,-113 548,-102.574 568.8685,-97.7224 593.8689,-96.8404"/>
<polygon fill="#c0c0c0" stroke="#c0c0c0" points="598.9191,-96.7165 593.9759,-99.0886 596.4199,-96.7779 593.9206,-96.8393 593.9206,-96.8393 593.9206,-96.8393 596.4199,-96.7779 593.8654,-94.5899 598.9191,-96.7165 598.9191,-96.7165"/>
</g>
<!-- safe&#45;api&#45;&gt;safe&#45;api -->
<g id="edge10" class="edge">
<title>safe&#45;api:K_safe&#45;authd&#45;&gt;safe&#45;api:K_safe&#45;api</title>
<path fill="none" stroke="#c0c0c0" d="M598.9191,-118.5892C571.7437,-120.1313 548,-127.6055 548,-145 548,-161.3074 568.8685,-168.8957 593.8689,-171.0512"/>
<polygon fill="#c0c0c0" stroke="#c0c0c0" points="598.9191,-171.4108 593.7719,-173.2999 596.4255,-171.2332 593.9318,-171.0556 593.9318,-171.0556 593.9318,-171.0556 596.4255,-171.2332 594.0916,-168.8113 598.9191,-171.4108 598.9191,-171.4108"/>
</g>
<!-- safe&#45;api&#45;&gt;safe&#45;api -->
<g id="edge15" class="edge">
<title>safe&#45;api:K_safe&#45;ffi&#45;&gt;safe&#45;api:K_safe&#45;api</title>
<path fill="none" stroke="#c0c0c0" d="M598.9191,-138.7562C571.7437,-139.1926 548,-144.0938 548,-155.5 548,-166.1934 568.8685,-171.1693 593.8689,-172.1092"/>
<polygon fill="#c0c0c0" stroke="#c0c0c0" points="598.9191,-172.2438 593.8609,-174.3597 596.42,-172.1772 593.9209,-172.1105 593.9209,-172.1105 593.9209,-172.1105 596.42,-172.1772 593.9809,-169.8613 598.9191,-172.2438 598.9191,-172.2438"/>
</g>
<!-- safe&#45;api&#45;&gt;safe&#45;api -->
<g id="edge18" class="edge">
<title>safe&#45;api:K_safe&#45;cli&#45;&gt;safe&#45;api:K_safe&#45;api</title>
<path fill="none" stroke="#c0c0c0" d="M598.9191,-193.2835C571.7437,-192.8997 548,-188.1211 548,-177 548,-166.574 568.8685,-161.7224 593.8689,-160.8404"/>
<polygon fill="#c0c0c0" stroke="#c0c0c0" points="598.9191,-160.7165 593.9759,-163.0886 596.4199,-160.7779 593.9206,-160.8393 593.9206,-160.8393 593.9206,-160.8393 596.4199,-160.7779 593.8654,-158.5899 598.9191,-160.7165 598.9191,-160.7165"/>
</g>
<!-- safe&#45;api&#45;&gt;safe&#45;api -->
<g id="edge19" class="edge">
<title>safe&#45;api:K_safe&#45;api&#45;&gt;safe&#45;api:K_jsonrpc&#45;quic</title>
<path fill="none" stroke="#c0c0c0" d="M598.9191,-170.5778C571.7437,-167.9301 548,-157.8828 548,-134.5 548,-112.5786 568.8685,-102.3779 593.8689,-99.0068"/>
<polygon fill="#c0c0c0" stroke="#c0c0c0" points="598.9191,-98.4222 594.2111,-101.2323 596.4357,-98.7097 593.9523,-98.9972 593.9523,-98.9972 593.9523,-98.9972 596.4357,-98.7097 593.6935,-96.7621 598.9191,-98.4222 598.9191,-98.4222"/>
</g>
<!-- safe&#45;browser -->
<g id="node13" class="node">
<title>safe&#45;browser</title>
<polygon fill="none" stroke="#000000" points="38.5,-194.5 38.5,-230.5 161.5,-230.5 161.5,-194.5 38.5,-194.5"/>
<text text-anchor="middle" x="100" y="-209.4" font-family="verdana" font-size="12.00" fill="#000000">safe&#45;browser</text>
</g>
<!-- safe&#45;browser&#45;&gt;safe&#45;nodejs -->
<g id="edge21" class="edge">
<title>safe&#45;browser:K_safe&#45;browser&#45;&gt;safe&#45;nodejs:K_safe&#45;nodejs</title>
<path fill="none" stroke="#006400" d="M161.8997,-212.5C208.7371,-212.5 274.8281,-212.5 333.6909,-212.5"/>
<polygon fill="#006400" stroke="#006400" points="339,-212.5 334,-214.7501 336.5,-212.5 334,-212.5001 334,-212.5001 334,-212.5001 336.5,-212.5 334,-210.2501 339,-212.5 339,-212.5"/>
</g>
</g>
</svg>
