<?xml version="1.0" encoding="UTF-8" standalone="no"?>
<?xml-stylesheet href="./db.css" type="text/css"?>
<!DOCTYPE svg PUBLIC "-//W3C//DTD SVG 1.1//EN"
 "http://www.w3.org/Graphics/SVG/1.1/DTD/svg11.dtd">
<!-- Generated by graphviz version 2.40.1 (20161225.0304)
 -->
<!-- Title: g Pages: 1 -->
<svg width="1297pt" height="444pt"
 viewBox="0.00 0.00 1297.00 444.00" xmlns="http://www.w3.org/2000/svg" xmlns:xlink="http://www.w3.org/1999/xlink">
<g id="graph0" class="graph" transform="scale(1 1) rotate(0) translate(4 440)">
<title>g</title>
<polygon fill="#ffffff" stroke="transparent" points="-4,4 -4,-440 1293,-440 1293,4 -4,4"/>
<!-- safe&#45;mobile&#45;browser -->
<g id="node1" class="node">
<title>safe&#45;mobile&#45;browser</title>
<polygon fill="none" stroke="#000000" points="0,-251.5 0,-287.5 168,-287.5 168,-251.5 0,-251.5"/>
<text text-anchor="middle" x="84" y="-266.4" font-family="verdana" font-size="12.00" fill="#000000">safe&#45;mobile&#45;browser</text>
</g>
<!-- safe_app_csharp -->
<g id="node9" class="node">
<title>safe_app_csharp</title>
<polygon fill="none" stroke="#000000" points="278,-195.5 278,-279.5 450,-279.5 450,-195.5 278,-195.5"/>
<text text-anchor="middle" x="364" y="-265.9" font-family="verdana" font-size="12.00" fill="#000000">safe_app_csharp</text>
<polyline fill="none" stroke="#000000" points="278,-258.5 450,-258.5 "/>
<text text-anchor="middle" x="364" y="-244.9" font-family="verdana" font-size="12.00" fill="#000000">SafeApp</text>
<polyline fill="none" stroke="#000000" points="278,-237.5 450,-237.5 "/>
<text text-anchor="middle" x="364" y="-223.9" font-family="verdana" font-size="12.00" fill="#000000">SafeApp.AppBindings</text>
<polyline fill="none" stroke="#000000" points="278,-216.5 450,-216.5 "/>
<text text-anchor="middle" x="364" y="-202.9" font-family="verdana" font-size="12.00" fill="#000000">SafeApp.Core</text>
</g>
<!-- safe&#45;mobile&#45;browser&#45;&gt;safe_app_csharp -->
<g id="edge3" class="edge">
<title>safe&#45;mobile&#45;browser:K_safe&#45;mobile&#45;browser&#45;&gt;safe_app_csharp:K_safe_app_csharp</title>
<path fill="none" stroke="#006400" d="M168.032,-269.5C200.5582,-269.5 238.2427,-269.5 272.9083,-269.5"/>
<polygon fill="#006400" stroke="#006400" points="278,-269.5 273,-271.7501 275.5,-269.5 273,-269.5001 273,-269.5001 273,-269.5001 275.5,-269.5 273,-267.2501 278,-269.5 278,-269.5"/>
</g>
<!-- parsec -->
<g id="node2" class="node">
<title>parsec</title>
<polygon fill="none" stroke="#000000" points="1179,-.5 1179,-36.5 1264,-36.5 1264,-.5 1179,-.5"/>
<text text-anchor="middle" x="1221.5" y="-15.4" font-family="verdana" font-size="12.00" fill="#000000">parsec</text>
</g>
<!-- routing -->
<g id="node3" class="node">
<title>routing</title>
<polygon fill="none" stroke="#000000" points="913.5,-29.5 913.5,-65.5 1000.5,-65.5 1000.5,-29.5 913.5,-29.5"/>
<text text-anchor="middle" x="957" y="-44.4" font-family="verdana" font-size="12.00" fill="#000000">routing</text>
</g>
<!-- routing&#45;&gt;parsec -->
<g id="edge11" class="edge">
<title>routing:K_routing&#45;&gt;parsec:K_parsec</title>
<path fill="none" stroke="#006400" d="M1000.6768,-42.7112C1048.3409,-37.4853 1124.4132,-29.1447 1173.6593,-23.7453"/>
<polygon fill="#006400" stroke="#006400" points="1178.6359,-23.1997 1173.911,-25.9813 1176.1508,-23.4722 1173.6657,-23.7447 1173.6657,-23.7447 1173.6657,-23.7447 1176.1508,-23.4722 1173.4204,-21.5081 1178.6359,-23.1997 1178.6359,-23.1997"/>
</g>
<!-- quic&#45;p2p -->
<g id="node7" class="node">
<title>quic&#45;p2p</title>
<polygon fill="none" stroke="#000000" points="1173.5,-123.5 1173.5,-159.5 1269.5,-159.5 1269.5,-123.5 1173.5,-123.5"/>
<text text-anchor="middle" x="1221.5" y="-138.4" font-family="verdana" font-size="12.00" fill="#000000">quic&#45;p2p</text>
</g>
<!-- routing&#45;&gt;quic&#45;p2p -->
<g id="edge12" class="edge">
<title>routing:K_routing&#45;&gt;quic&#45;p2p:K_quic&#45;p2p</title>
<path fill="none" stroke="#006400" d="M1000.6995,-51.0316C1034.069,-54.9923 1080.5353,-63.2876 1118,-80.5 1144.5888,-92.7157 1146.1538,-106.4626 1168.7143,-120.6649"/>
<polygon fill="#006400" stroke="#006400" points="1173.1819,-123.3218 1167.7343,-122.6999 1171.0332,-122.0439 1168.8844,-120.7661 1168.8844,-120.7661 1168.8844,-120.7661 1171.0332,-122.0439 1170.0345,-118.8322 1173.1819,-123.3218 1173.1819,-123.3218"/>
</g>
<!-- safe&#45;nd -->
<g id="node4" class="node">
<title>safe&#45;nd</title>
<polygon fill="none" stroke="#000000" points="1176.5,-266.5 1176.5,-302.5 1266.5,-302.5 1266.5,-266.5 1176.5,-266.5"/>
<text text-anchor="middle" x="1221.5" y="-281.4" font-family="verdana" font-size="12.00" fill="#000000">safe&#45;nd</text>
</g>
<!-- safe_vault -->
<g id="node5" class="node">
<title>safe_vault</title>
<polygon fill="none" stroke="#000000" points="607.5,-46.5 607.5,-82.5 712.5,-82.5 712.5,-46.5 607.5,-46.5"/>
<text text-anchor="middle" x="660" y="-61.4" font-family="verdana" font-size="12.00" fill="#000000">safe_vault</text>
</g>
<!-- safe_vault&#45;&gt;routing -->
<g id="edge18" class="edge">
<title>safe_vault:K_safe_vault&#45;&gt;routing:K_routing</title>
<path fill="none" stroke="#006400" d="M712.7554,-61.4803C768.1438,-58.31 854.5114,-53.3664 908.3193,-50.2864"/>
<polygon fill="#006400" stroke="#006400" points="913.4228,-49.9943 908.5596,-52.5265 910.9269,-50.1372 908.4309,-50.2801 908.4309,-50.2801 908.4309,-50.2801 910.9269,-50.1372 908.3023,-48.0338 913.4228,-49.9943 913.4228,-49.9943"/>
</g>
<!-- safe_vault&#45;&gt;safe&#45;nd -->
<g id="edge19" class="edge">
<title>safe_vault:K_safe_vault&#45;&gt;safe&#45;nd:K_safe&#45;nd</title>
<path fill="none" stroke="#006400" d="M712.7461,-78.4461C746.9216,-86.2804 792.5382,-94.5 833.5,-94.5 833.5,-94.5 833.5,-94.5 1080.5,-94.5 1166.1679,-94.5 1113.1384,-203.8547 1172.4367,-262.7051"/>
<polygon fill="#006400" stroke="#006400" points="1176.1161,-266.1607 1170.9311,-264.3778 1174.2938,-264.4492 1172.4714,-262.7377 1172.4714,-262.7377 1172.4714,-262.7377 1174.2938,-264.4492 1174.0118,-261.0976 1176.1161,-266.1607 1176.1161,-266.1607"/>
</g>
<!-- safe_browser -->
<g id="node6" class="node">
<title>safe_browser</title>
<polygon fill="none" stroke="#000000" points="21.5,-312.5 21.5,-348.5 146.5,-348.5 146.5,-312.5 21.5,-312.5"/>
<text text-anchor="middle" x="84" y="-327.4" font-family="verdana" font-size="12.00" fill="#000000">safe_browser</text>
</g>
<!-- safe&#45;nodejs -->
<g id="node8" class="node">
<title>safe&#45;nodejs</title>
<polygon fill="none" stroke="#000000" points="307,-298.5 307,-340.5 421,-340.5 421,-298.5 307,-298.5"/>
<text text-anchor="middle" x="364" y="-326.9" font-family="verdana" font-size="12.00" fill="#000000">safe&#45;nodejs</text>
<polyline fill="none" stroke="#000000" points="307,-319.5 421,-319.5 "/>
<text text-anchor="middle" x="364" y="-305.9" font-family="verdana" font-size="12.00" fill="#000000">native</text>
</g>
<!-- safe_browser&#45;&gt;safe&#45;nodejs -->
<g id="edge17" class="edge">
<title>safe_browser:K_safe_browser&#45;&gt;safe&#45;nodejs:K_safe&#45;nodejs</title>
<path fill="none" stroke="#006400" d="M146.9596,-330.5C190.231,-330.5 249.1732,-330.5 301.9159,-330.5"/>
<polygon fill="#006400" stroke="#006400" points="307,-330.5 302,-332.7501 304.5,-330.5 302,-330.5001 302,-330.5001 302,-330.5001 304.5,-330.5 302,-328.2501 307,-330.5 307,-330.5"/>
</g>
<!-- safe&#45;api -->
<g id="node13" class="node">
<title>safe&#45;api</title>
<polygon fill="none" stroke="#000000" points="601.5,-210.5 601.5,-336.5 718.5,-336.5 718.5,-210.5 601.5,-210.5"/>
<text text-anchor="middle" x="660" y="-322.9" font-family="verdana" font-size="12.00" fill="#000000">safe&#45;api</text>
<polyline fill="none" stroke="#000000" points="601.5,-315.5 718.5,-315.5 "/>
<text text-anchor="middle" x="660" y="-301.9" font-family="verdana" font-size="12.00" fill="#000000">safe&#45;cli</text>
<polyline fill="none" stroke="#000000" points="601.5,-294.5 718.5,-294.5 "/>
<text text-anchor="middle" x="660" y="-280.9" font-family="verdana" font-size="12.00" fill="#000000">safe&#45;api</text>
<polyline fill="none" stroke="#000000" points="601.5,-273.5 718.5,-273.5 "/>
<text text-anchor="middle" x="660" y="-259.9" font-family="verdana" font-size="12.00" fill="#000000">safe&#45;ffi</text>
<polyline fill="none" stroke="#000000" points="601.5,-252.5 718.5,-252.5 "/>
<text text-anchor="middle" x="660" y="-238.9" font-family="verdana" font-size="12.00" fill="#000000">safe&#45;authd</text>
<polyline fill="none" stroke="#000000" points="601.5,-231.5 718.5,-231.5 "/>
<text text-anchor="middle" x="660" y="-217.9" font-family="verdana" font-size="12.00" fill="#000000">jsonrpc&#45;quic</text>
</g>
<!-- safe&#45;nodejs&#45;&gt;safe&#45;api -->
<g id="edge24" class="edge">
<title>safe&#45;nodejs:K_native&#45;&gt;safe&#45;api:K_safe&#45;api</title>
<path fill="none" stroke="#006400" d="M421,-308.5C499.974,-308.5 519.4648,-285.5202 595.8829,-284.5328"/>
<polygon fill="#006400" stroke="#006400" points="601,-284.5 596.0145,-286.7821 598.5001,-284.5161 596.0001,-284.5321 596.0001,-284.5321 596.0001,-284.5321 598.5001,-284.5161 595.9857,-282.2822 601,-284.5 601,-284.5"/>
</g>
<!-- safe_app_csharp&#45;&gt;safe_app_csharp -->
<g id="edge1" class="edge">
<title>safe_app_csharp:K_SafeApp.AppBindings&#45;&gt;safe_app_csharp:K_SafeApp.Core</title>
<path fill="none" stroke="#c0c0c0" d="M277.9345,-232.1422C244.6582,-231.2153 217,-226.3594 217,-216 217,-206.1667 241.9205,-201.292 272.9114,-200.0296"/>
<polygon fill="#c0c0c0" stroke="#c0c0c0" points="277.9345,-199.8578 273.0144,-202.2775 275.4359,-199.9433 272.9374,-200.0288 272.9374,-200.0288 272.9374,-200.0288 275.4359,-199.9433 272.8604,-197.7802 277.9345,-199.8578 277.9345,-199.8578"/>
</g>
<!-- safe_app_csharp&#45;&gt;safe_app_csharp -->
<g id="edge15" class="edge">
<title>safe_app_csharp:K_SafeApp&#45;&gt;safe_app_csharp:K_SafeApp.AppBindings</title>
<path fill="none" stroke="#c0c0c0" d="M277.9345,-254.0907C244.6582,-253.1055 217,-248.125 217,-237.5 217,-227.4146 241.9205,-222.4149 272.9114,-221.0905"/>
<polygon fill="#c0c0c0" stroke="#c0c0c0" points="277.9345,-220.9093 273.0189,-223.3382 275.4361,-220.9995 272.9377,-221.0897 272.9377,-221.0897 272.9377,-221.0897 275.4361,-220.9995 272.8566,-218.8412 277.9345,-220.9093 277.9345,-220.9093"/>
</g>
<!-- safe_app_csharp&#45;&gt;safe_app_csharp -->
<g id="edge16" class="edge">
<title>safe_app_csharp:K_SafeApp&#45;&gt;safe_app_csharp:K_SafeApp.Core</title>
<path fill="none" stroke="#c0c0c0" d="M277.9345,-253.0092C244.6582,-250.7983 217,-243.2031 217,-227 217,-211.6197 241.9205,-203.9952 272.9114,-201.3697"/>
<polygon fill="#c0c0c0" stroke="#c0c0c0" points="277.9345,-200.9908 273.1179,-203.6106 275.4416,-201.1789 272.9486,-201.367 272.9486,-201.367 272.9486,-201.367 275.4416,-201.1789 272.7794,-199.1233 277.9345,-200.9908 277.9345,-200.9908"/>
</g>
<!-- safe_app_csharp&#45;&gt;safe&#45;api -->
<g id="edge2" class="edge">
<title>safe_app_csharp:K_SafeApp.AppBindings&#45;&gt;safe&#45;api:K_safe&#45;ffi</title>
<path fill="none" stroke="#006400" d="M450,-226.5C517.2403,-226.5 531.3109,-260.6951 595.8512,-262.4316"/>
<polygon fill="#006400" stroke="#006400" points="601,-262.5 595.9705,-264.6832 598.5002,-262.4667 596.0004,-262.4334 596.0004,-262.4334 596.0004,-262.4334 598.5002,-262.4667 596.0304,-260.1836 601,-262.5 601,-262.5"/>
</g>
<!-- safe_client_libs -->
<g id="node10" class="node">
<title>safe_client_libs</title>
<polygon fill="none" stroke="#000000" points="870,-291 870,-396 1044,-396 1044,-291 870,-291"/>
<text text-anchor="middle" x="957" y="-382.4" font-family="verdana" font-size="12.00" fill="#000000">safe_client_libs</text>
<polyline fill="none" stroke="#000000" points="870,-375 1044,-375 "/>
<text text-anchor="middle" x="957" y="-361.4" font-family="verdana" font-size="12.00" fill="#000000">safe_app</text>
<polyline fill="none" stroke="#000000" points="870,-354 1044,-354 "/>
<text text-anchor="middle" x="957" y="-340.4" font-family="verdana" font-size="12.00" fill="#000000">safe_authenticator</text>
<polyline fill="none" stroke="#000000" points="870,-333 1044,-333 "/>
<text text-anchor="middle" x="957" y="-319.4" font-family="verdana" font-size="12.00" fill="#000000">safe_authenticator_ffi</text>
<polyline fill="none" stroke="#000000" points="870,-312 1044,-312 "/>
<text text-anchor="middle" x="957" y="-298.4" font-family="verdana" font-size="12.00" fill="#000000">safe_core</text>
</g>
<!-- safe_client_libs&#45;&gt;safe&#45;nd -->
<g id="edge4" class="edge">
<title>safe_client_libs:K_safe_app&#45;&gt;safe&#45;nd:K_safe&#45;nd</title>
<path fill="none" stroke="#006400" d="M1044,-364.5C1070.6667,-364.5 1056.1486,-400.5743 1080,-412.5 1095.1059,-420.0529 1103.523,-421.1978 1118,-412.5 1163.8019,-384.9821 1137.3038,-342.5771 1172.4246,-306.4132"/>
<polygon fill="#006400" stroke="#006400" points="1176.0203,-302.9337 1173.9919,-308.0277 1174.2237,-304.6722 1172.4272,-306.4108 1172.4272,-306.4108 1172.4272,-306.4108 1174.2237,-304.6722 1170.8625,-304.7939 1176.0203,-302.9337 1176.0203,-302.9337"/>
</g>
<!-- safe_client_libs&#45;&gt;safe&#45;nd -->
<g id="edge9" class="edge">
<title>safe_client_libs:K_safe_core&#45;&gt;safe&#45;nd:K_safe&#45;nd</title>
<path fill="none" stroke="#006400" d="M1044,-301.5C1087.0786,-301.5 1135.7713,-296.4769 1171.2459,-291.8915"/>
<polygon fill="#006400" stroke="#006400" points="1176.3818,-291.2189 1171.7164,-294.0992 1173.9029,-291.5436 1171.4241,-291.8683 1171.4241,-291.8683 1171.4241,-291.8683 1173.9029,-291.5436 1171.1319,-289.6374 1176.3818,-291.2189 1176.3818,-291.2189"/>
</g>
<!-- safe_client_libs&#45;&gt;safe&#45;nd -->
<g id="edge25" class="edge">
<title>safe_client_libs:K_safe_authenticator&#45;&gt;safe&#45;nd:K_safe&#45;nd</title>
<path fill="none" stroke="#006400" d="M1044,-343.5C1077.0357,-343.5 1086.543,-346.5903 1118,-336.5 1144.8521,-327.8868 1149.0145,-317.1151 1171.7194,-304.9432"/>
<polygon fill="#006400" stroke="#006400" points="1176.1843,-302.6543 1172.7613,-306.9375 1173.9596,-303.7948 1171.7349,-304.9353 1171.7349,-304.9353 1171.7349,-304.9353 1173.9596,-303.7948 1170.7084,-302.933 1176.1843,-302.6543 1176.1843,-302.6543"/>
</g>
<!-- safe_client_libs&#45;&gt;safe&#45;nd -->
<g id="edge27" class="edge">
<title>safe_client_libs:K_safe_authenticator_ffi&#45;&gt;safe&#45;nd:K_safe&#45;nd</title>
<path fill="none" stroke="#006400" d="M1044,-322.5C1087.7039,-322.5 1136.1462,-311.3486 1171.3679,-301.1276"/>
<polygon fill="#006400" stroke="#006400" points="1176.4665,-299.6278 1172.3048,-303.1974 1174.0681,-300.3333 1171.6698,-301.0389 1171.6698,-301.0389 1171.6698,-301.0389 1174.0681,-300.3333 1171.0348,-298.8804 1176.4665,-299.6278 1176.4665,-299.6278"/>
</g>
<!-- safe_client_libs&#45;&gt;quic&#45;p2p -->
<g id="edge8" class="edge">
<title>safe_client_libs:K_safe_core&#45;&gt;quic&#45;p2p:K_quic&#45;p2p</title>
<path fill="none" stroke="#006400" d="M1044,-301.5C1127.4163,-301.5 1103.9537,-211.7343 1168.6928,-162.9348"/>
<polygon fill="#006400" stroke="#006400" points="1173.0867,-159.7811 1170.3366,-164.5245 1171.0557,-161.2389 1169.0247,-162.6966 1169.0247,-162.6966 1169.0247,-162.6966 1171.0557,-161.2389 1167.7127,-160.8687 1173.0867,-159.7811 1173.0867,-159.7811"/>
</g>
<!-- safe_client_libs&#45;&gt;safe_client_libs -->
<g id="edge5" class="edge">
<title>safe_client_libs:K_safe_app&#45;&gt;safe_client_libs:K_safe_authenticator</title>
<path fill="none" stroke="#c0c0c0" d="M869.9797,-370.1318C836.642,-369.1796 809,-364.3213 809,-354 809,-344.2028 833.9059,-339.328 864.9479,-338.0437"/>
<polygon fill="#c0c0c0" stroke="#c0c0c0" points="869.9797,-337.8682 865.0612,-340.2912 867.4812,-337.9554 864.9828,-338.0426 864.9828,-338.0426 864.9828,-338.0426 867.4812,-337.9554 864.9043,-335.7939 869.9797,-337.8682 869.9797,-337.8682"/>
</g>
<!-- safe_client_libs&#45;&gt;safe_client_libs -->
<g id="edge6" class="edge">
<title>safe_client_libs:K_safe_app&#45;&gt;safe_client_libs:K_safe_core</title>
<path fill="none" stroke="#c0c0c0" d="M869.9797,-367.9417C836.642,-364.5268 809,-354.4365 809,-333 809,-312.6521 833.9059,-302.5273 864.9479,-298.6308"/>
<polygon fill="#c0c0c0" stroke="#c0c0c0" points="869.9797,-298.0583 865.2662,-300.8592 867.4957,-298.341 865.0118,-298.6236 865.0118,-298.6236 865.0118,-298.6236 867.4957,-298.341 864.7574,-296.388 869.9797,-298.0583 869.9797,-298.0583"/>
</g>
<!-- safe_client_libs&#45;&gt;safe_client_libs -->
<g id="edge26" class="edge">
<title>safe_client_libs:K_safe_authenticator&#45;&gt;safe_client_libs:K_safe_core</title>
<path fill="none" stroke="#c0c0c0" d="M869.9797,-348.0367C836.642,-345.8532 809,-338.3789 809,-322.5 809,-307.4274 833.9059,-299.9276 864.9479,-297.3373"/>
<polygon fill="#c0c0c0" stroke="#c0c0c0" points="869.9797,-296.9633 865.1603,-299.5778 867.4866,-297.1486 864.9935,-297.334 864.9935,-297.334 864.9935,-297.334 867.4866,-297.1486 864.8267,-295.0901 869.9797,-296.9633 869.9797,-296.9633"/>
</g>
<!-- safe_client_libs&#45;&gt;safe_client_libs -->
<g id="edge28" class="edge">
<title>safe_client_libs:K_safe_authenticator_ffi&#45;&gt;safe_client_libs:K_safe_authenticator</title>
<path fill="none" stroke="#c0c0c0" d="M869.9797,-316.8682C836.642,-317.8204 809,-322.6787 809,-333 809,-342.7972 833.9059,-347.672 864.9479,-348.9563"/>
<polygon fill="#c0c0c0" stroke="#c0c0c0" points="869.9797,-349.1318 864.9043,-351.2061 867.4812,-349.0446 864.9828,-348.9574 864.9828,-348.9574 864.9828,-348.9574 867.4812,-349.0446 865.0612,-346.7088 869.9797,-349.1318 869.9797,-349.1318"/>
</g>
<!-- safe_client_libs&#45;&gt;safe_client_libs -->
<g id="edge29" class="edge">
<title>safe_client_libs:K_safe_authenticator_ffi&#45;&gt;safe_client_libs:K_safe_core</title>
<path fill="none" stroke="#c0c0c0" d="M869.9797,-328.1318C836.642,-327.1796 809,-322.3213 809,-312 809,-302.2028 833.9059,-297.328 864.9479,-296.0437"/>
<polygon fill="#c0c0c0" stroke="#c0c0c0" points="869.9797,-295.8682 865.0612,-298.2912 867.4812,-295.9554 864.9828,-296.0426 864.9828,-296.0426 864.9828,-296.0426 867.4812,-295.9554 864.9043,-293.7939 869.9797,-295.8682 869.9797,-295.8682"/>
</g>
<!-- self_encryption -->
<g id="node11" class="node">
<title>self_encryption</title>
<polygon fill="none" stroke="#000000" points="1154,-399.5 1154,-435.5 1289,-435.5 1289,-399.5 1154,-399.5"/>
<text text-anchor="middle" x="1221.5" y="-414.4" font-family="verdana" font-size="12.00" fill="#000000">self_encryption</text>
</g>
<!-- safe_client_libs&#45;&gt;self_encryption -->
<g id="edge7" class="edge">
<title>safe_client_libs:K_safe_app&#45;&gt;self_encryption:K_self_encryption</title>
<path fill="none" stroke="#006400" d="M1044,-364.5C1075.8639,-364.5 1052.3854,-410.6021 1080,-426.5 1091.8991,-433.3504 1120.2977,-432.5214 1148.5563,-429.405"/>
<polygon fill="#006400" stroke="#006400" points="1153.8272,-428.7978 1149.1176,-431.6053 1151.3436,-429.084 1148.86,-429.3701 1148.86,-429.3701 1148.86,-429.3701 1151.3436,-429.084 1148.6025,-427.1349 1153.8272,-428.7978 1153.8272,-428.7978"/>
</g>
<!-- safe_client_libs&#45;&gt;self_encryption -->
<g id="edge10" class="edge">
<title>safe_client_libs:K_safe_core&#45;&gt;self_encryption:K_self_encryption</title>
<path fill="none" stroke="#006400" d="M1044,-301.5C1065.7051,-301.5 1063.8454,-320.0038 1080,-334.5 1111.059,-362.3705 1115.0624,-377.4277 1148.8175,-396.6436"/>
<polygon fill="#006400" stroke="#006400" points="1153.5492,-399.2585 1148.0846,-398.8093 1151.3611,-398.0493 1149.173,-396.84 1149.173,-396.84 1149.173,-396.84 1151.3611,-398.0493 1150.2613,-394.8707 1153.5492,-399.2585 1153.5492,-399.2585"/>
</g>
<!-- safe&#45;authenticator&#45;mobile -->
<g id="node12" class="node">
<title>safe&#45;authenticator&#45;mobile</title>
<polygon fill="none" stroke="#000000" points="560,-114.5 560,-150.5 760,-150.5 760,-114.5 560,-114.5"/>
<text text-anchor="middle" x="660" y="-129.4" font-family="verdana" font-size="12.00" fill="#000000">safe&#45;authenticator&#45;mobile</text>
</g>
<!-- safe&#45;authenticator&#45;mobile&#45;&gt;safe_client_libs -->
<g id="edge36" class="edge">
<title>safe&#45;authenticator&#45;mobile:K_safe&#45;authenticator&#45;mobile&#45;&gt;safe_client_libs:K_safe_authenticator_ffi</title>
<path fill="none" stroke="#006400" d="M760.0929,-150.6336C763.3343,-155.4977 849.9309,-291.5214 867.0698,-318.0422"/>
<polygon fill="#006400" stroke="#006400" points="870,-322.5 865.3734,-319.5577 868.6268,-320.4109 867.2535,-318.3218 867.2535,-318.3218 867.2535,-318.3218 868.6268,-320.4109 869.1337,-317.0859 870,-322.5 870,-322.5"/>
</g>
<!-- safe&#45;api&#45;&gt;safe&#45;nd -->
<g id="edge21" class="edge">
<title>safe&#45;api:K_safe&#45;ffi&#45;&gt;safe&#45;nd:K_safe&#45;nd</title>
<path fill="none" stroke="#006400" d="M719,-262.5C784.2808,-262.5 768.2192,-170.5 833.5,-170.5 833.5,-170.5 833.5,-170.5 1080.5,-170.5 1138.9576,-170.5 1126.9708,-229.4278 1171.9718,-263.3082"/>
<polygon fill="#006400" stroke="#006400" points="1176.2056,-266.305 1170.8245,-265.2527 1174.165,-264.8606 1172.1245,-263.4162 1172.1245,-263.4162 1172.1245,-263.4162 1174.165,-264.8606 1173.4245,-261.5797 1176.2056,-266.305 1176.2056,-266.305"/>
</g>
<!-- safe&#45;api&#45;&gt;safe&#45;nd -->
<g id="edge32" class="edge">
<title>safe&#45;api:K_safe&#45;api&#45;&gt;safe&#45;nd:K_safe&#45;nd</title>
<path fill="none" stroke="#006400" d="M719,-284.5C786.1244,-284.5 802.879,-282.1667 870,-281.5 947.3295,-280.7319 966.6694,-280.8465 1044,-281.5 1086.8869,-281.8624 1135.5964,-282.7172 1171.1262,-283.4221"/>
<polygon fill="#006400" stroke="#006400" points="1176.2704,-283.5249 1171.2264,-285.6745 1173.7709,-283.4749 1171.2714,-283.4249 1171.2714,-283.4249 1171.2714,-283.4249 1173.7709,-283.4749 1171.3164,-281.1754 1176.2704,-283.5249 1176.2704,-283.5249"/>
</g>
<!-- safe&#45;api&#45;&gt;safe_client_libs -->
<g id="edge22" class="edge">
<title>safe&#45;api:K_safe&#45;ffi&#45;&gt;safe_client_libs:K_safe_authenticator_ffi</title>
<path fill="none" stroke="#006400" d="M719,-262.5C789.3815,-262.5 797.409,-319.4918 864.6241,-322.3859"/>
<polygon fill="#006400" stroke="#006400" points="870,-322.5 864.9533,-324.6433 867.5006,-322.4469 865.0011,-322.3938 865.0011,-322.3938 865.0011,-322.3938 867.5006,-322.4469 865.0489,-320.1443 870,-322.5 870,-322.5"/>
</g>
<!-- safe&#45;api&#45;&gt;safe_client_libs -->
<g id="edge23" class="edge">
<title>safe&#45;api:K_safe&#45;ffi&#45;&gt;safe_client_libs:K_safe_core</title>
<path fill="none" stroke="#006400" d="M719,-262.5C770.2346,-262.5 786.6162,-251.0126 834,-270.5 851.6969,-277.7782 849.5434,-297.3246 864.6995,-300.9256"/>
<polygon fill="#006400" stroke="#006400" points="870,-301.5 864.7867,-303.1981 867.5146,-301.2306 865.0291,-300.9612 865.0291,-300.9612 865.0291,-300.9612 867.5146,-301.2306 865.2715,-298.7243 870,-301.5 870,-301.5"/>
</g>
<!-- safe&#45;api&#45;&gt;safe_client_libs -->
<g id="edge33" class="edge">
<title>safe&#45;api:K_safe&#45;api&#45;&gt;safe_client_libs:K_safe_app</title>
<path fill="none" stroke="#006400" d="M719,-284.5C771.6418,-284.5 748.1843,-352.4814 796,-374.5 811.3405,-381.5642 817.2659,-376.781 834,-374.5 848.654,-372.5025 852.5893,-366.1309 865.0061,-364.761"/>
<polygon fill="#006400" stroke="#006400" points="870,-364.5 865.1243,-367.008 867.5034,-364.6305 865.0068,-364.7611 865.0068,-364.7611 865.0068,-364.7611 867.5034,-364.6305 864.8893,-362.5142 870,-364.5 870,-364.5"/>
</g>
<!-- safe&#45;api&#45;&gt;safe_client_libs -->
<g id="edge34" class="edge">
<title>safe&#45;api:K_safe&#45;api&#45;&gt;safe_client_libs:K_safe_authenticator</title>
<path fill="none" stroke="#006400" d="M719,-284.5C760.2951,-284.5 757.1263,-322.5674 796,-336.5 825.3979,-347.0364 835.8217,-343.9077 864.7807,-343.534"/>
<polygon fill="#006400" stroke="#006400" points="870,-343.5 865.0148,-345.7826 867.5001,-343.5163 865.0001,-343.5327 865.0001,-343.5327 865.0001,-343.5327 867.5001,-343.5163 864.9854,-341.2827 870,-343.5 870,-343.5"/>
</g>
<!-- safe&#45;api&#45;&gt;safe_client_libs -->
<g id="edge35" class="edge">
<title>safe&#45;api:K_safe&#45;api&#45;&gt;safe_client_libs:K_safe_core</title>
<path fill="none" stroke="#006400" d="M719,-284.5C753.7833,-284.5 761.4277,-294.6751 796,-298.5 826.9271,-301.9216 836.096,-301.5551 864.812,-301.5048"/>
<polygon fill="#006400" stroke="#006400" points="870,-301.5 865.0021,-303.7547 867.5,-301.5023 865,-301.5047 865,-301.5047 865,-301.5047 867.5,-301.5023 864.9979,-299.2547 870,-301.5 870,-301.5"/>
</g>
<!-- safe&#45;api&#45;&gt;safe&#45;api -->
<g id="edge13" class="edge">
<title>safe&#45;api:K_safe&#45;authd&#45;&gt;safe&#45;api:K_jsonrpc&#45;quic</title>
<path fill="none" stroke="#c0c0c0" d="M601.4443,-247.2744C566.4427,-247.7578 533.5,-243.1875 533.5,-231 533.5,-219.4314 563.1819,-214.726 596.132,-214.6914"/>
<polygon fill="#c0c0c0" stroke="#c0c0c0" points="601.4443,-214.7256 596.4299,-216.9432 598.9444,-214.7094 596.4444,-214.6933 596.4444,-214.6933 596.4444,-214.6933 598.9444,-214.7094 596.459,-212.4433 601.4443,-214.7256 601.4443,-214.7256"/>
</g>
<!-- safe&#45;api&#45;&gt;safe&#45;api -->
<g id="edge14" class="edge">
<title>safe&#45;api:K_safe&#45;authd&#45;&gt;safe&#45;api:K_safe&#45;api</title>
<path fill="none" stroke="#c0c0c0" d="M601.4443,-236.3057C566.4427,-236.7891 533.5,-243.9375 533.5,-263 533.5,-281.0945 563.1819,-288.4542 596.132,-289.5684"/>
<polygon fill="#c0c0c0" stroke="#c0c0c0" points="601.4443,-289.6943 596.3924,-291.8252 598.945,-289.6351 596.4457,-289.5758 596.4457,-289.5758 596.4457,-289.5758 598.945,-289.6351 596.4991,-287.3264 601.4443,-289.6943 601.4443,-289.6943"/>
</g>
<!-- safe&#45;api&#45;&gt;safe&#45;api -->
<g id="edge20" class="edge">
<title>safe&#45;api:K_safe&#45;ffi&#45;&gt;safe&#45;api:K_safe&#45;api</title>
<path fill="none" stroke="#c0c0c0" d="M601.4443,-256.752C566.4427,-256.3125 533.5,-261 533.5,-273.5 533.5,-285.3652 563.1819,-290.1913 596.132,-290.275"/>
<polygon fill="#c0c0c0" stroke="#c0c0c0" points="601.4443,-290.248 596.4558,-292.5235 598.9444,-290.2608 596.4444,-290.2735 596.4444,-290.2735 596.4444,-290.2735 598.9444,-290.2608 596.433,-288.0235 601.4443,-290.248 601.4443,-290.248"/>
</g>
<!-- safe&#45;api&#45;&gt;safe&#45;api -->
<g id="edge30" class="edge">
<title>safe&#45;api:K_safe&#45;cli&#45;&gt;safe&#45;api:K_safe&#45;api</title>
<path fill="none" stroke="#c0c0c0" d="M601.4443,-311.2744C566.4427,-311.7578 533.5,-307.1875 533.5,-295 533.5,-283.4314 563.1819,-278.726 596.132,-278.6914"/>
<polygon fill="#c0c0c0" stroke="#c0c0c0" points="601.4443,-278.7256 596.4299,-280.9432 598.9444,-278.7094 596.4444,-278.6933 596.4444,-278.6933 596.4444,-278.6933 598.9444,-278.7094 596.459,-276.4433 601.4443,-278.7256 601.4443,-278.7256"/>
</g>
<!-- safe&#45;api&#45;&gt;safe&#45;api -->
<g id="edge31" class="edge">
<title>safe&#45;api:K_safe&#45;api&#45;&gt;safe&#45;api:K_jsonrpc&#45;quic</title>
<path fill="none" stroke="#c0c0c0" d="M601.4443,-289.1406C566.4427,-287.7344 533.5,-278.125 533.5,-252.5 533.5,-228.1763 563.1819,-218.2829 596.132,-216.1381"/>
<polygon fill="#c0c0c0" stroke="#c0c0c0" points="601.4443,-215.8594 596.5691,-218.3683 598.9478,-215.9904 596.4512,-216.1214 596.4512,-216.1214 596.4512,-216.1214 598.9478,-215.9904 596.3333,-213.8745 601.4443,-215.8594 601.4443,-215.8594"/>
</g>
</g>
</svg>
