<?xml version="1.0" encoding="UTF-8" standalone="no"?>
<?xml-stylesheet href="./db.css" type="text/css"?>
<!DOCTYPE svg PUBLIC "-//W3C//DTD SVG 1.1//EN"
 "http://www.w3.org/Graphics/SVG/1.1/DTD/svg11.dtd">
<!-- Generated by graphviz version 2.40.1 (20161225.0304)
 -->
<!-- Title: g Pages: 1 -->
<svg width="1153pt" height="376pt"
 viewBox="0.00 0.00 1153.00 376.00" xmlns="http://www.w3.org/2000/svg" xmlns:xlink="http://www.w3.org/1999/xlink">
<g id="graph0" class="graph" transform="scale(1 1) rotate(0) translate(4 372)">
<title>g</title>
<polygon fill="#ffffff" stroke="transparent" points="-4,4 -4,-372 1149,-372 1149,4 -4,4"/>
<!-- sn_browser -->
<g id="node1" class="node">
<title>sn_browser</title>
<polygon fill="none" stroke="#000000" points="39.5,-125.5 39.5,-161.5 152.5,-161.5 152.5,-125.5 39.5,-125.5"/>
<text text-anchor="middle" x="96" y="-140.4" font-family="verdana" font-size="12.00" fill="#000000">sn_browser</text>
</g>
<!-- sn_nodejs -->
<g id="node6" class="node">
<title>sn_nodejs</title>
<polygon fill="none" stroke="#000000" points="336.5,-111.5 336.5,-153.5 439.5,-153.5 439.5,-111.5 336.5,-111.5"/>
<text text-anchor="middle" x="388" y="-139.9" font-family="verdana" font-size="12.00" fill="#000000">sn_nodejs</text>
<polyline fill="none" stroke="#000000" points="336.5,-132.5 439.5,-132.5 "/>
<text text-anchor="middle" x="388" y="-118.9" font-family="verdana" font-size="12.00" fill="#000000">native</text>
</g>
<!-- sn_browser&#45;&gt;sn_nodejs -->
<g id="edge2" class="edge">
<title>sn_browser:K_sn_browser&#45;&gt;sn_nodejs:K_sn_nodejs</title>
<path fill="none" stroke="#006400" d="M152.7352,-143.5C200.0371,-143.5 269.3757,-143.5 330.8359,-143.5"/>
<polygon fill="#006400" stroke="#006400" points="336,-143.5 331,-145.7501 333.5,-143.5 331,-143.5001 331,-143.5001 331,-143.5001 333.5,-143.5 331,-141.2501 336,-143.5 336,-143.5"/>
</g>
<!-- bls_dkg -->
<g id="node2" class="node">
<title>bls_dkg</title>
<polygon fill="none" stroke="#000000" points="1033,-190.5 1033,-226.5 1122,-226.5 1122,-190.5 1033,-190.5"/>
<text text-anchor="middle" x="1077.5" y="-205.4" font-family="verdana" font-size="12.00" fill="#000000">bls_dkg</text>
</g>
<!-- sn_routing -->
<g id="node3" class="node">
<title>sn_routing</title>
<polygon fill="none" stroke="#000000" points="793,-181.5 793,-217.5 900,-217.5 900,-181.5 793,-181.5"/>
<text text-anchor="middle" x="846.5" y="-196.4" font-family="verdana" font-size="12.00" fill="#000000">sn_routing</text>
</g>
<!-- sn_routing&#45;&gt;bls_dkg -->
<g id="edge8" class="edge">
<title>sn_routing:K_sn_routing&#45;&gt;bls_dkg:K_bls_dkg</title>
<path fill="none" stroke="#006400" d="M900.0767,-201.5874C938.4407,-203.0821 989.7456,-205.081 1027.3153,-206.5448"/>
<polygon fill="#006400" stroke="#006400" points="1032.7555,-206.7567 1027.6717,-208.8103 1030.2574,-206.6593 1027.7593,-206.562 1027.7593,-206.562 1027.7593,-206.562 1030.2574,-206.6593 1027.8469,-204.3137 1032.7555,-206.7567 1032.7555,-206.7567"/>
</g>
<!-- qp2p -->
<g id="node4" class="node">
<title>qp2p</title>
<polygon fill="none" stroke="#000000" points="1040,-57.5 1040,-93.5 1115,-93.5 1115,-57.5 1040,-57.5"/>
<text text-anchor="middle" x="1077.5" y="-72.4" font-family="verdana" font-size="12.00" fill="#000000">qp2p</text>
</g>
<!-- sn_routing&#45;&gt;qp2p -->
<g id="edge9" class="edge">
<title>sn_routing:K_sn_routing&#45;&gt;qp2p:K_qp2p</title>
<path fill="none" stroke="#006400" d="M900.3116,-181.3424C953.2875,-154.5168 957.9688,-133.4851 1010,-104.5 1017.8971,-100.1008 1026.5953,-95.9146 1035.0457,-92.1608"/>
<polygon fill="#006400" stroke="#006400" points="1039.7082,-90.1211 1036.0291,-94.1865 1037.4178,-91.1231 1035.1273,-92.1251 1035.1273,-92.1251 1035.1273,-92.1251 1037.4178,-91.1231 1034.2255,-90.0637 1039.7082,-90.1211 1039.7082,-90.1211"/>
</g>
<!-- sn_client -->
<g id="node5" class="node">
<title>sn_client</title>
<polygon fill="none" stroke="#000000" points="798.5,-53.5 798.5,-89.5 894.5,-89.5 894.5,-53.5 798.5,-53.5"/>
<text text-anchor="middle" x="846.5" y="-68.4" font-family="verdana" font-size="12.00" fill="#000000">sn_client</text>
</g>
<!-- sn_client&#45;&gt;qp2p -->
<g id="edge10" class="edge">
<title>sn_client:K_sn_client&#45;&gt;qp2p:K_qp2p</title>
<path fill="none" stroke="#006400" d="M894.644,-72.3337C935.8973,-73.048 994.7724,-74.0675 1034.4751,-74.755"/>
<polygon fill="#006400" stroke="#006400" points="1039.7035,-74.8455 1034.6652,-77.0085 1037.2039,-74.8022 1034.7042,-74.7589 1034.7042,-74.7589 1034.7042,-74.7589 1037.2039,-74.8022 1034.7432,-72.5092 1039.7035,-74.8455 1039.7035,-74.8455"/>
</g>
<!-- sn_data_types -->
<g id="node7" class="node">
<title>sn_data_types</title>
<polygon fill="none" stroke="#000000" points="1013,-114.5 1013,-150.5 1142,-150.5 1142,-114.5 1013,-114.5"/>
<text text-anchor="middle" x="1077.5" y="-129.4" font-family="verdana" font-size="12.00" fill="#000000">sn_data_types</text>
</g>
<!-- sn_client&#45;&gt;sn_data_types -->
<g id="edge12" class="edge">
<title>sn_client:K_sn_client&#45;&gt;sn_data_types:K_sn_data_types</title>
<path fill="none" stroke="#006400" d="M894.644,-84.2133C927.4189,-92.8682 971.3165,-104.4602 1007.8857,-114.117"/>
<polygon fill="#006400" stroke="#006400" points="1012.7654,-115.4056 1007.3566,-116.3044 1010.3483,-114.7673 1007.9311,-114.1289 1007.9311,-114.1289 1007.9311,-114.1289 1010.3483,-114.7673 1008.5056,-111.9535 1012.7654,-115.4056 1012.7654,-115.4056"/>
</g>
<!-- self_encryption -->
<g id="node14" class="node">
<title>self_encryption</title>
<polygon fill="none" stroke="#000000" points="1010,-.5 1010,-36.5 1145,-36.5 1145,-.5 1010,-.5"/>
<text text-anchor="middle" x="1077.5" y="-15.4" font-family="verdana" font-size="12.00" fill="#000000">self_encryption</text>
</g>
<!-- sn_client&#45;&gt;self_encryption -->
<g id="edge11" class="edge">
<title>sn_client:K_sn_client&#45;&gt;self_encryption:K_self_encryption</title>
<path fill="none" stroke="#006400" d="M894.644,-60.454C926.4029,-53.1673 968.6057,-43.4844 1004.4644,-35.2571"/>
<polygon fill="#006400" stroke="#006400" points="1009.707,-34.0542 1005.3368,-37.3655 1007.2703,-34.6133 1004.8336,-35.1724 1004.8336,-35.1724 1004.8336,-35.1724 1007.2703,-34.6133 1004.3304,-32.9794 1009.707,-34.0542 1009.707,-34.0542"/>
</g>
<!-- sn_api -->
<g id="node13" class="node">
<title>sn_api</title>
<polygon fill="none" stroke="#000000" points="584,-69 584,-174 683,-174 683,-69 584,-69"/>
<text text-anchor="middle" x="633.5" y="-160.4" font-family="verdana" font-size="12.00" fill="#000000">sn_api</text>
<polyline fill="none" stroke="#000000" points="584,-153 683,-153 "/>
<text text-anchor="middle" x="633.5" y="-139.4" font-family="verdana" font-size="12.00" fill="#000000">sn_cli</text>
<polyline fill="none" stroke="#000000" points="584,-132 683,-132 "/>
<text text-anchor="middle" x="633.5" y="-118.4" font-family="verdana" font-size="12.00" fill="#000000">sn_api</text>
<polyline fill="none" stroke="#000000" points="584,-111 683,-111 "/>
<text text-anchor="middle" x="633.5" y="-97.4" font-family="verdana" font-size="12.00" fill="#000000">sn_authd</text>
<polyline fill="none" stroke="#000000" points="584,-90 683,-90 "/>
<text text-anchor="middle" x="633.5" y="-76.4" font-family="verdana" font-size="12.00" fill="#000000">qjsonrpc</text>
</g>
<!-- sn_nodejs&#45;&gt;sn_api -->
<g id="edge15" class="edge">
<title>sn_nodejs:K_native&#45;&gt;sn_api:K_sn_api</title>
<path fill="none" stroke="#006400" d="M440,-121.5C502.25,-121.5 519.0891,-121.5 578.8557,-121.5"/>
<polygon fill="#006400" stroke="#006400" points="584,-121.5 579,-123.7501 581.5,-121.5 579,-121.5001 579,-121.5001 579,-121.5001 581.5,-121.5 579,-119.2501 584,-121.5 584,-121.5"/>
</g>
<!-- sn_mobile_browser -->
<g id="node8" class="node">
<title>sn_mobile_browser</title>
<polygon fill="none" stroke="#000000" points="16.5,-276.5 16.5,-312.5 175.5,-312.5 175.5,-276.5 16.5,-276.5"/>
<text text-anchor="middle" x="96" y="-291.4" font-family="verdana" font-size="12.00" fill="#000000">sn_mobile_browser</text>
</g>
<!-- sn_csharp -->
<g id="node9" class="node">
<title>sn_csharp</title>
<polygon fill="none" stroke="#000000" points="302,-173 302,-278 474,-278 474,-173 302,-173"/>
<text text-anchor="middle" x="388" y="-264.4" font-family="verdana" font-size="12.00" fill="#000000">sn_csharp</text>
<polyline fill="none" stroke="#000000" points="302,-257 474,-257 "/>
<text text-anchor="middle" x="388" y="-243.4" font-family="verdana" font-size="12.00" fill="#000000">SafeApp</text>
<polyline fill="none" stroke="#000000" points="302,-236 474,-236 "/>
<text text-anchor="middle" x="388" y="-222.4" font-family="verdana" font-size="12.00" fill="#000000">SafeApp.AppBindings</text>
<polyline fill="none" stroke="#000000" points="302,-215 474,-215 "/>
<text text-anchor="middle" x="388" y="-201.4" font-family="verdana" font-size="12.00" fill="#000000">SafeAuthenticator</text>
<polyline fill="none" stroke="#000000" points="302,-194 474,-194 "/>
<text text-anchor="middle" x="388" y="-180.4" font-family="verdana" font-size="12.00" fill="#000000">SafeApp.Core</text>
</g>
<!-- sn_mobile_browser&#45;&gt;sn_csharp -->
<g id="edge14" class="edge">
<title>sn_mobile_browser:K_sn_mobile_browser&#45;&gt;sn_csharp:K_sn_csharp</title>
<path fill="none" stroke="#006400" d="M175.6205,-290.3576C204.294,-287.9858 236.7732,-284.2785 266,-278.5 280.6174,-275.61 284.4826,-269.1425 296.9724,-267.7623"/>
<polygon fill="#006400" stroke="#006400" points="302,-267.5 297.124,-270.0075 299.5034,-267.6303 297.0068,-267.7606 297.0068,-267.7606 297.0068,-267.7606 299.5034,-267.6303 296.8895,-265.5136 302,-267.5 302,-267.5"/>
</g>
<!-- sn_csharp&#45;&gt;sn_csharp -->
<g id="edge1" class="edge">
<title>sn_csharp:K_SafeApp.AppBindings&#45;&gt;sn_csharp:K_SafeApp.Core</title>
<path fill="none" stroke="#c0c0c0" d="M301.9345,-230.0607C268.6582,-227.9082 241,-220.4375 241,-204.5 241,-189.3718 265.9205,-181.8724 296.9114,-179.3088"/>
<polygon fill="#c0c0c0" stroke="#c0c0c0" points="301.9345,-178.9393 297.113,-181.5501 299.4412,-179.1227 296.9479,-179.3062 296.9479,-179.3062 296.9479,-179.3062 299.4412,-179.1227 296.7829,-177.0622 301.9345,-178.9393 301.9345,-178.9393"/>
</g>
<!-- sn_csharp&#45;&gt;sn_csharp -->
<g id="edge5" class="edge">
<title>sn_csharp:K_SafeAuthenticator&#45;&gt;sn_csharp:K_SafeApp.Core</title>
<path fill="none" stroke="#c0c0c0" d="M301.9345,-210.1422C268.6582,-209.2153 241,-204.3594 241,-194 241,-184.1667 265.9205,-179.292 296.9114,-178.0296"/>
<polygon fill="#c0c0c0" stroke="#c0c0c0" points="301.9345,-177.8578 297.0144,-180.2775 299.4359,-177.9433 296.9374,-178.0288 296.9374,-178.0288 296.9374,-178.0288 299.4359,-177.9433 296.8604,-175.7802 301.9345,-177.8578 301.9345,-177.8578"/>
</g>
<!-- sn_csharp&#45;&gt;sn_csharp -->
<g id="edge6" class="edge">
<title>sn_csharp:K_SafeApp&#45;&gt;sn_csharp:K_SafeApp.AppBindings</title>
<path fill="none" stroke="#c0c0c0" d="M301.9345,-252.1422C268.6582,-251.2153 241,-246.3594 241,-236 241,-226.1667 265.9205,-221.292 296.9114,-220.0296"/>
<polygon fill="#c0c0c0" stroke="#c0c0c0" points="301.9345,-219.8578 297.0144,-222.2775 299.4359,-219.9433 296.9374,-220.0288 296.9374,-220.0288 296.9374,-220.0288 299.4359,-219.9433 296.8604,-217.7802 301.9345,-219.8578 301.9345,-219.8578"/>
</g>
<!-- sn_csharp&#45;&gt;sn_csharp -->
<g id="edge7" class="edge">
<title>sn_csharp:K_SafeApp&#45;&gt;sn_csharp:K_SafeApp.Core</title>
<path fill="none" stroke="#c0c0c0" d="M301.9345,-249.9792C268.6582,-246.6011 241,-236.5156 241,-215 241,-194.577 265.9205,-184.4527 296.9114,-180.5879"/>
<polygon fill="#c0c0c0" stroke="#c0c0c0" points="301.9345,-180.0208 297.2185,-182.8176 299.4503,-180.3013 296.966,-180.5818 296.966,-180.5818 296.966,-180.5818 299.4503,-180.3013 296.7136,-178.346 301.9345,-180.0208 301.9345,-180.0208"/>
</g>
<!-- sn_ffi_utils -->
<g id="node10" class="node">
<title>sn_ffi_utils</title>
<polygon fill="none" stroke="#000000" points="43.5,-331.5 43.5,-367.5 148.5,-367.5 148.5,-331.5 43.5,-331.5"/>
<text text-anchor="middle" x="96" y="-346.4" font-family="verdana" font-size="12.00" fill="#000000">sn_ffi_utils</text>
</g>
<!-- sn_authenticator_mobile -->
<g id="node11" class="node">
<title>sn_authenticator_mobile</title>
<polygon fill="none" stroke="#000000" points="0,-221.5 0,-257.5 192,-257.5 192,-221.5 0,-221.5"/>
<text text-anchor="middle" x="96" y="-236.4" font-family="verdana" font-size="12.00" fill="#000000">sn_authenticator_mobile</text>
</g>
<!-- sn_authenticator_mobile&#45;&gt;sn_csharp -->
<g id="edge16" class="edge">
<title>sn_authenticator_mobile:K_sn_authenticator_mobile&#45;&gt;sn_csharp:K_sn_csharp</title>
<path fill="none" stroke="#006400" d="M192.2098,-255.0965C231.8997,-261.0486 273.9095,-266.6107 296.859,-267.4035"/>
<polygon fill="#006400" stroke="#006400" points="302,-267.5 296.9586,-269.6557 299.5004,-267.453 297.0009,-267.4061 297.0009,-267.4061 297.0009,-267.4061 299.5004,-267.453 297.0431,-265.1565 302,-267.5 302,-267.5"/>
</g>
<!-- sn_node -->
<g id="node12" class="node">
<title>sn_node</title>
<polygon fill="none" stroke="#000000" points="586.5,-200.5 586.5,-236.5 680.5,-236.5 680.5,-200.5 586.5,-200.5"/>
<text text-anchor="middle" x="633.5" y="-215.4" font-family="verdana" font-size="12.00" fill="#000000">sn_node</text>
</g>
<!-- sn_node&#45;&gt;sn_routing -->
<g id="edge21" class="edge">
<title>sn_node:K_sn_node&#45;&gt;sn_routing:K_sn_routing</title>
<path fill="none" stroke="#006400" d="M680.5074,-214.3068C712.0223,-211.4957 753.7704,-207.7717 787.5139,-204.7617"/>
<polygon fill="#006400" stroke="#006400" points="792.858,-204.285 788.0777,-206.9704 790.3679,-204.5071 787.8778,-204.7293 787.8778,-204.7293 787.8778,-204.7293 790.3679,-204.5071 787.6778,-202.4882 792.858,-204.285 792.858,-204.285"/>
</g>
<!-- sn_node&#45;&gt;sn_data_types -->
<g id="edge20" class="edge">
<title>sn_node:K_sn_node&#45;&gt;sn_data_types:K_sn_data_types</title>
<path fill="none" stroke="#006400" d="M680.5374,-234.3816C703.2208,-240.7013 730.9859,-246.5 756.5,-246.5 756.5,-246.5 756.5,-246.5 936.5,-246.5 989.036,-246.5 969.1537,-185.4182 1008.2225,-153.9899"/>
<polygon fill="#006400" stroke="#006400" points="1012.7343,-150.6769 1010.0358,-155.4499 1010.7192,-152.1566 1008.7041,-153.6363 1008.7041,-153.6363 1008.7041,-153.6363 1010.7192,-152.1566 1007.3724,-151.8227 1012.7343,-150.6769 1012.7343,-150.6769"/>
</g>
<!-- sn_api&#45;&gt;sn_client -->
<g id="edge18" class="edge">
<title>sn_api:K_sn_api&#45;&gt;sn_client:K_sn_client</title>
<path fill="none" stroke="#006400" d="M683,-121.5C694.2897,-121.5 749.9047,-103.8413 793.1741,-89.5125"/>
<polygon fill="#006400" stroke="#006400" points="798.1186,-87.8719 794.0817,-91.5821 795.7458,-88.6592 793.3731,-89.4466 793.3731,-89.4466 793.3731,-89.4466 795.7458,-88.6592 792.6644,-87.3111 798.1186,-87.8719 798.1186,-87.8719"/>
</g>
<!-- sn_api&#45;&gt;sn_data_types -->
<g id="edge19" class="edge">
<title>sn_api:K_sn_api&#45;&gt;sn_data_types:K_sn_data_types</title>
<path fill="none" stroke="#006400" d="M683,-121.5C716.0305,-121.5 723.4695,-132.5 756.5,-132.5 756.5,-132.5 756.5,-132.5 936.5,-132.5 959.7131,-132.5 985.0759,-132.5 1007.8107,-132.5"/>
<polygon fill="#006400" stroke="#006400" points="1012.9218,-132.5 1007.9219,-134.7501 1010.4218,-132.5 1007.9218,-132.5001 1007.9218,-132.5001 1007.9218,-132.5001 1010.4218,-132.5 1007.9218,-130.2501 1012.9218,-132.5 1012.9218,-132.5"/>
</g>
<!-- sn_api&#45;&gt;sn_api -->
<g id="edge3" class="edge">
<title>sn_api:K_sn_authd&#45;&gt;sn_api:K_qjsonrpc</title>
<path fill="none" stroke="#c0c0c0" d="M583.5426,-106.275C560.7837,-105.8339 541,-101.0449 541,-90 541,-79.7748 557.956,-74.9114 578.5312,-73.8958"/>
<polygon fill="#c0c0c0" stroke="#c0c0c0" points="583.5426,-73.725 578.6222,-76.1441 581.044,-73.8102 578.5455,-73.8954 578.5455,-73.8954 578.5455,-73.8954 581.044,-73.8102 578.4688,-71.6467 583.5426,-73.725 583.5426,-73.725"/>
</g>
<!-- sn_api&#45;&gt;sn_api -->
<g id="edge4" class="edge">
<title>sn_api:K_sn_authd&#45;&gt;sn_api:K_sn_api</title>
<path fill="none" stroke="#c0c0c0" d="M583.5426,-94.725C560.7837,-95.1661 541,-99.9551 541,-111 541,-121.2252 557.956,-126.0886 578.5312,-127.1042"/>
<polygon fill="#c0c0c0" stroke="#c0c0c0" points="583.5426,-127.275 578.4688,-129.3533 581.044,-127.1898 578.5455,-127.1046 578.5455,-127.1046 578.5455,-127.1046 581.044,-127.1898 578.6222,-124.8559 583.5426,-127.275 583.5426,-127.275"/>
</g>
<!-- sn_api&#45;&gt;sn_api -->
<g id="edge13" class="edge">
<title>sn_api:K_sn_cli&#45;&gt;sn_api:K_sn_api</title>
<path fill="none" stroke="#c0c0c0" d="M583.5426,-148.275C560.7837,-147.8339 541,-143.0449 541,-132 541,-121.7748 557.956,-116.9114 578.5312,-115.8958"/>
<polygon fill="#c0c0c0" stroke="#c0c0c0" points="583.5426,-115.725 578.6222,-118.1441 581.044,-115.8102 578.5455,-115.8954 578.5455,-115.8954 578.5455,-115.8954 581.044,-115.8102 578.4688,-113.6467 583.5426,-115.725 583.5426,-115.725"/>
</g>
<!-- sn_api&#45;&gt;sn_api -->
<g id="edge17" class="edge">
<title>sn_api:K_sn_api&#45;&gt;sn_api:K_qjsonrpc</title>
<path fill="none" stroke="#c0c0c0" d="M583.5426,-126.4191C560.7837,-124.8599 541,-117.4922 541,-100.5 541,-84.769 557.956,-77.2868 578.5312,-75.0256"/>
<polygon fill="#c0c0c0" stroke="#c0c0c0" points="583.5426,-74.5809 578.7611,-77.2642 581.0524,-74.802 578.5622,-75.023 578.5622,-75.023 578.5622,-75.023 581.0524,-74.802 578.3632,-72.7818 583.5426,-74.5809 583.5426,-74.5809"/>
</g>
</g>
</svg>
