<?xml version="1.0" encoding="UTF-8" standalone="no"?>
<?xml-stylesheet href="./db.css" type="text/css"?>
<!DOCTYPE svg PUBLIC "-//W3C//DTD SVG 1.1//EN"
 "http://www.w3.org/Graphics/SVG/1.1/DTD/svg11.dtd">
<!-- Generated by graphviz version 2.40.1 (20161225.0304)
 -->
<!-- Title: g Pages: 1 -->
<svg width="1297pt" height="425pt"
 viewBox="0.00 0.00 1297.00 425.29" xmlns="http://www.w3.org/2000/svg" xmlns:xlink="http://www.w3.org/1999/xlink">
<g id="graph0" class="graph" transform="scale(1 1) rotate(0) translate(4 421.2863)">
<title>g</title>
<polygon fill="#ffffff" stroke="transparent" points="-4,4 -4,-421.2863 1293,-421.2863 1293,4 -4,4"/>
<!-- safe&#45;mobile&#45;browser -->
<g id="node1" class="node">
<title>safe&#45;mobile&#45;browser</title>
<polygon fill="none" stroke="#000000" points="0,-235.5 0,-271.5 168,-271.5 168,-235.5 0,-235.5"/>
<text text-anchor="middle" x="84" y="-250.4" font-family="verdana" font-size="12.00" fill="#000000">safe&#45;mobile&#45;browser</text>
</g>
<!-- safe&#45;app&#45;csharp -->
<g id="node9" class="node">
<title>safe&#45;app&#45;csharp</title>
<polygon fill="none" stroke="#000000" points="278,-179.5 278,-263.5 450,-263.5 450,-179.5 278,-179.5"/>
<text text-anchor="middle" x="364" y="-249.9" font-family="verdana" font-size="12.00" fill="#000000">safe&#45;app&#45;csharp</text>
<polyline fill="none" stroke="#000000" points="278,-242.5 450,-242.5 "/>
<text text-anchor="middle" x="364" y="-228.9" font-family="verdana" font-size="12.00" fill="#000000">SafeApp</text>
<polyline fill="none" stroke="#000000" points="278,-221.5 450,-221.5 "/>
<text text-anchor="middle" x="364" y="-207.9" font-family="verdana" font-size="12.00" fill="#000000">SafeApp.AppBindings</text>
<polyline fill="none" stroke="#000000" points="278,-200.5 450,-200.5 "/>
<text text-anchor="middle" x="364" y="-186.9" font-family="verdana" font-size="12.00" fill="#000000">SafeApp.Core</text>
</g>
<!-- safe&#45;mobile&#45;browser&#45;&gt;safe&#45;app&#45;csharp -->
<g id="edge3" class="edge">
<title>safe&#45;mobile&#45;browser:K_safe&#45;mobile&#45;browser&#45;&gt;safe&#45;app&#45;csharp:K_safe&#45;app&#45;csharp</title>
<path fill="none" stroke="#006400" d="M168.032,-253.5C200.5582,-253.5 238.2427,-253.5 272.9083,-253.5"/>
<polygon fill="#006400" stroke="#006400" points="278,-253.5 273,-255.7501 275.5,-253.5 273,-253.5001 273,-253.5001 273,-253.5001 275.5,-253.5 273,-251.2501 278,-253.5 278,-253.5"/>
</g>
<!-- parsec -->
<g id="node2" class="node">
<title>parsec</title>
<polygon fill="none" stroke="#000000" points="1179,-.5 1179,-36.5 1264,-36.5 1264,-.5 1179,-.5"/>
<text text-anchor="middle" x="1221.5" y="-15.4" font-family="verdana" font-size="12.00" fill="#000000">parsec</text>
</g>
<!-- routing -->
<g id="node3" class="node">
<title>routing</title>
<polygon fill="none" stroke="#000000" points="913.5,-29.5 913.5,-65.5 1000.5,-65.5 1000.5,-29.5 913.5,-29.5"/>
<text text-anchor="middle" x="957" y="-44.4" font-family="verdana" font-size="12.00" fill="#000000">routing</text>
</g>
<!-- routing&#45;&gt;parsec -->
<g id="edge11" class="edge">
<title>routing:K_routing&#45;&gt;parsec:K_parsec</title>
<path fill="none" stroke="#006400" d="M1000.6768,-42.7112C1048.3409,-37.4853 1124.4132,-29.1447 1173.6593,-23.7453"/>
<polygon fill="#006400" stroke="#006400" points="1178.6359,-23.1997 1173.911,-25.9813 1176.1508,-23.4722 1173.6657,-23.7447 1173.6657,-23.7447 1173.6657,-23.7447 1176.1508,-23.4722 1173.4204,-21.5081 1178.6359,-23.1997 1178.6359,-23.1997"/>
</g>
<!-- quic&#45;p2p -->
<g id="node7" class="node">
<title>quic&#45;p2p</title>
<polygon fill="none" stroke="#000000" points="1173.5,-104.5 1173.5,-140.5 1269.5,-140.5 1269.5,-104.5 1173.5,-104.5"/>
<text text-anchor="middle" x="1221.5" y="-119.4" font-family="verdana" font-size="12.00" fill="#000000">quic&#45;p2p</text>
</g>
<!-- routing&#45;&gt;quic&#45;p2p -->
<g id="edge12" class="edge">
<title>routing:K_routing&#45;&gt;quic&#45;p2p:K_quic&#45;p2p</title>
<path fill="none" stroke="#006400" d="M1000.667,-53.9475C1033.4078,-59.3811 1079.0836,-68.2414 1118,-80.5 1141.8369,-88.0086 1147.7832,-93.6121 1168.5424,-102.4463"/>
<polygon fill="#006400" stroke="#006400" points="1173.2089,-104.3824 1167.7283,-104.5445 1170.8997,-103.4243 1168.5905,-102.4662 1168.5905,-102.4662 1168.5905,-102.4662 1170.8997,-103.4243 1169.4528,-100.388 1173.2089,-104.3824 1173.2089,-104.3824"/>
</g>
<!-- safe&#45;client&#45;libs -->
<g id="node4" class="node">
<title>safe&#45;client&#45;libs</title>
<polygon fill="none" stroke="#000000" points="870,-274 870,-379 1044,-379 1044,-274 870,-274"/>
<text text-anchor="middle" x="957" y="-365.4" font-family="verdana" font-size="12.00" fill="#000000">safe&#45;client&#45;libs</text>
<polyline fill="none" stroke="#000000" points="870,-358 1044,-358 "/>
<text text-anchor="middle" x="957" y="-344.4" font-family="verdana" font-size="12.00" fill="#000000">safe_app</text>
<polyline fill="none" stroke="#000000" points="870,-337 1044,-337 "/>
<text text-anchor="middle" x="957" y="-323.4" font-family="verdana" font-size="12.00" fill="#000000">safe_authenticator</text>
<polyline fill="none" stroke="#000000" points="870,-316 1044,-316 "/>
<text text-anchor="middle" x="957" y="-302.4" font-family="verdana" font-size="12.00" fill="#000000">safe_authenticator_ffi</text>
<polyline fill="none" stroke="#000000" points="870,-295 1044,-295 "/>
<text text-anchor="middle" x="957" y="-281.4" font-family="verdana" font-size="12.00" fill="#000000">safe_core</text>
</g>
<!-- safe&#45;client&#45;libs&#45;&gt;safe&#45;client&#45;libs -->
<g id="edge5" class="edge">
<title>safe&#45;client&#45;libs:K_safe_app&#45;&gt;safe&#45;client&#45;libs:K_safe_authenticator</title>
<path fill="none" stroke="#c0c0c0" d="M869.9797,-353.1318C836.642,-352.1796 809,-347.3213 809,-337 809,-327.2028 833.9059,-322.328 864.9479,-321.0437"/>
<polygon fill="#c0c0c0" stroke="#c0c0c0" points="869.9797,-320.8682 865.0612,-323.2912 867.4812,-320.9554 864.9828,-321.0426 864.9828,-321.0426 864.9828,-321.0426 867.4812,-320.9554 864.9043,-318.7939 869.9797,-320.8682 869.9797,-320.8682"/>
</g>
<!-- safe&#45;client&#45;libs&#45;&gt;safe&#45;client&#45;libs -->
<g id="edge6" class="edge">
<title>safe&#45;client&#45;libs:K_safe_app&#45;&gt;safe&#45;client&#45;libs:K_safe_core</title>
<path fill="none" stroke="#c0c0c0" d="M869.9797,-350.9417C836.642,-347.5268 809,-337.4365 809,-316 809,-295.6521 833.9059,-285.5273 864.9479,-281.6308"/>
<polygon fill="#c0c0c0" stroke="#c0c0c0" points="869.9797,-281.0583 865.2662,-283.8592 867.4957,-281.341 865.0118,-281.6236 865.0118,-281.6236 865.0118,-281.6236 867.4957,-281.341 864.7574,-279.388 869.9797,-281.0583 869.9797,-281.0583"/>
</g>
<!-- safe&#45;client&#45;libs&#45;&gt;safe&#45;client&#45;libs -->
<g id="edge25" class="edge">
<title>safe&#45;client&#45;libs:K_safe_authenticator&#45;&gt;safe&#45;client&#45;libs:K_safe_core</title>
<path fill="none" stroke="#c0c0c0" d="M869.9797,-331.0367C836.642,-328.8532 809,-321.3789 809,-305.5 809,-290.4274 833.9059,-282.9276 864.9479,-280.3373"/>
<polygon fill="#c0c0c0" stroke="#c0c0c0" points="869.9797,-279.9633 865.1603,-282.5778 867.4866,-280.1486 864.9935,-280.334 864.9935,-280.334 864.9935,-280.334 867.4866,-280.1486 864.8267,-278.0901 869.9797,-279.9633 869.9797,-279.9633"/>
</g>
<!-- safe&#45;client&#45;libs&#45;&gt;safe&#45;client&#45;libs -->
<g id="edge27" class="edge">
<title>safe&#45;client&#45;libs:K_safe_authenticator_ffi&#45;&gt;safe&#45;client&#45;libs:K_safe_authenticator</title>
<path fill="none" stroke="#c0c0c0" d="M869.9797,-299.8682C836.642,-300.8204 809,-305.6787 809,-316 809,-325.7972 833.9059,-330.672 864.9479,-331.9563"/>
<polygon fill="#c0c0c0" stroke="#c0c0c0" points="869.9797,-332.1318 864.9043,-334.2061 867.4812,-332.0446 864.9828,-331.9574 864.9828,-331.9574 864.9828,-331.9574 867.4812,-332.0446 865.0612,-329.7088 869.9797,-332.1318 869.9797,-332.1318"/>
</g>
<!-- safe&#45;client&#45;libs&#45;&gt;safe&#45;client&#45;libs -->
<g id="edge28" class="edge">
<title>safe&#45;client&#45;libs:K_safe_authenticator_ffi&#45;&gt;safe&#45;client&#45;libs:K_safe_core</title>
<path fill="none" stroke="#c0c0c0" d="M869.9797,-311.1318C836.642,-310.1796 809,-305.3213 809,-295 809,-285.2028 833.9059,-280.328 864.9479,-279.0437"/>
<polygon fill="#c0c0c0" stroke="#c0c0c0" points="869.9797,-278.8682 865.0612,-281.2912 867.4812,-278.9554 864.9828,-279.0426 864.9828,-279.0426 864.9828,-279.0426 867.4812,-278.9554 864.9043,-276.7939 869.9797,-278.8682 869.9797,-278.8682"/>
</g>
<!-- safe&#45;nd -->
<g id="node6" class="node">
<title>safe&#45;nd</title>
<polygon fill="none" stroke="#000000" points="1176.5,-228.5 1176.5,-264.5 1266.5,-264.5 1266.5,-228.5 1176.5,-228.5"/>
<text text-anchor="middle" x="1221.5" y="-243.4" font-family="verdana" font-size="12.00" fill="#000000">safe&#45;nd</text>
</g>
<!-- safe&#45;client&#45;libs&#45;&gt;safe&#45;nd -->
<g id="edge4" class="edge">
<title>safe&#45;client&#45;libs:K_safe_app&#45;&gt;safe&#45;nd:K_safe&#45;nd</title>
<path fill="none" stroke="#006400" d="M1044,-347.5C1064,-347.5 1061.0263,-368.1754 1080,-374.5 1096.0222,-379.8407 1103.523,-383.1978 1118,-374.5 1163.8019,-346.9821 1137.3038,-304.5771 1172.4246,-268.4132"/>
<polygon fill="#006400" stroke="#006400" points="1176.0203,-264.9337 1173.9919,-270.0277 1174.2237,-266.6722 1172.4272,-268.4108 1172.4272,-268.4108 1172.4272,-268.4108 1174.2237,-266.6722 1170.8625,-266.7939 1176.0203,-264.9337 1176.0203,-264.9337"/>
</g>
<!-- safe&#45;client&#45;libs&#45;&gt;safe&#45;nd -->
<g id="edge9" class="edge">
<title>safe&#45;client&#45;libs:K_safe_core&#45;&gt;safe&#45;nd:K_safe&#45;nd</title>
<path fill="none" stroke="#006400" d="M1044,-284.5C1061.1673,-284.5 1063.4522,-275.07 1080,-270.5 1109.8458,-262.2575 1144.0575,-256.3621 1171.3642,-252.4772"/>
<polygon fill="#006400" stroke="#006400" points="1176.38,-251.7751 1171.7402,-254.6966 1173.9042,-252.1217 1171.4283,-252.4683 1171.4283,-252.4683 1171.4283,-252.4683 1173.9042,-252.1217 1171.1163,-250.24 1176.38,-251.7751 1176.38,-251.7751"/>
</g>
<!-- safe&#45;client&#45;libs&#45;&gt;safe&#45;nd -->
<g id="edge24" class="edge">
<title>safe&#45;client&#45;libs:K_safe_authenticator&#45;&gt;safe&#45;nd:K_safe&#45;nd</title>
<path fill="none" stroke="#006400" d="M1044,-326.5C1107.1157,-326.5 1117.4783,-294.916 1171.4967,-267.0109"/>
<polygon fill="#006400" stroke="#006400" points="1176.1581,-264.667 1172.7019,-268.9234 1173.9246,-265.7901 1171.691,-266.9132 1171.691,-266.9132 1171.691,-266.9132 1173.9246,-265.7901 1170.6802,-264.903 1176.1581,-264.667 1176.1581,-264.667"/>
</g>
<!-- safe&#45;client&#45;libs&#45;&gt;safe&#45;nd -->
<g id="edge26" class="edge">
<title>safe&#45;client&#45;libs:K_safe_authenticator_ffi&#45;&gt;safe&#45;nd:K_safe&#45;nd</title>
<path fill="none" stroke="#006400" d="M1044,-305.5C1057.0291,-305.5 1123.4819,-282.3122 1171.2544,-265.0099"/>
<polygon fill="#006400" stroke="#006400" points="1176.1074,-263.2492 1172.1745,-267.0696 1173.7573,-264.1019 1171.4071,-264.9545 1171.4071,-264.9545 1171.4071,-264.9545 1173.7573,-264.1019 1170.6398,-262.8394 1176.1074,-263.2492 1176.1074,-263.2492"/>
</g>
<!-- safe&#45;client&#45;libs&#45;&gt;quic&#45;p2p -->
<g id="edge8" class="edge">
<title>safe&#45;client&#45;libs:K_safe_core&#45;&gt;quic&#45;p2p:K_quic&#45;p2p</title>
<path fill="none" stroke="#006400" d="M1044,-284.5C1085.1941,-284.5 1133.6005,-174.7845 1168.8505,-144.1231"/>
<polygon fill="#006400" stroke="#006400" points="1173.0826,-140.7885 1170.5478,-145.6504 1171.1189,-142.3358 1169.1552,-143.883 1169.1552,-143.883 1169.1552,-143.883 1171.1189,-142.3358 1167.7627,-142.1157 1173.0826,-140.7885 1173.0826,-140.7885"/>
</g>
<!-- self_encryption -->
<g id="node10" class="node">
<title>self_encryption</title>
<polygon fill="none" stroke="#000000" points="1154,-361.5 1154,-397.5 1289,-397.5 1289,-361.5 1154,-361.5"/>
<text text-anchor="middle" x="1221.5" y="-376.4" font-family="verdana" font-size="12.00" fill="#000000">self_encryption</text>
</g>
<!-- safe&#45;client&#45;libs&#45;&gt;self_encryption -->
<g id="edge7" class="edge">
<title>safe&#45;client&#45;libs:K_safe_app&#45;&gt;self_encryption:K_self_encryption</title>
<path fill="none" stroke="#006400" d="M1044,-347.5C1077.0237,-347.5 1051.5487,-395.7341 1080,-412.5 1094.5504,-421.0743 1101.4391,-415.8122 1118,-412.5 1133.0195,-409.4961 1136.791,-404.4445 1148.7892,-399.4602"/>
<polygon fill="#006400" stroke="#006400" points="1153.6179,-397.6308 1149.7393,-401.5064 1151.28,-398.5166 1148.9422,-399.4023 1148.9422,-399.4023 1148.9422,-399.4023 1151.28,-398.5166 1148.145,-397.2982 1153.6179,-397.6308 1153.6179,-397.6308"/>
</g>
<!-- safe&#45;client&#45;libs&#45;&gt;self_encryption -->
<g id="edge10" class="edge">
<title>safe&#45;client&#45;libs:K_safe_core&#45;&gt;self_encryption:K_self_encryption</title>
<path fill="none" stroke="#006400" d="M1044,-284.5C1072.0963,-284.5 1120.827,-341.6071 1149.0056,-358.7879"/>
<polygon fill="#006400" stroke="#006400" points="1153.6818,-361.3501 1148.2157,-360.9207 1151.4893,-360.1488 1149.2969,-358.9475 1149.2969,-358.9475 1149.2969,-358.9475 1151.4893,-360.1488 1150.378,-356.9742 1153.6818,-361.3501 1153.6818,-361.3501"/>
</g>
<!-- safe&#45;vault -->
<g id="node5" class="node">
<title>safe&#45;vault</title>
<polygon fill="none" stroke="#000000" points="608,-55.5 608,-91.5 712,-91.5 712,-55.5 608,-55.5"/>
<text text-anchor="middle" x="660" y="-70.4" font-family="verdana" font-size="12.00" fill="#000000">safe&#45;vault</text>
</g>
<!-- safe&#45;vault&#45;&gt;routing -->
<g id="edge17" class="edge">
<title>safe&#45;vault:K_safe&#45;vault&#45;&gt;routing:K_routing</title>
<path fill="none" stroke="#006400" d="M712.0733,-68.9414C767.3529,-64.1021 854.0402,-56.5133 908.086,-51.782"/>
<polygon fill="#006400" stroke="#006400" points="913.2122,-51.3333 908.4275,-54.0108 910.7217,-51.5513 908.2312,-51.7694 908.2312,-51.7694 908.2312,-51.7694 910.7217,-51.5513 908.035,-49.528 913.2122,-51.3333 913.2122,-51.3333"/>
</g>
<!-- safe&#45;vault&#45;&gt;safe&#45;nd -->
<g id="edge18" class="edge">
<title>safe&#45;vault:K_safe&#45;vault&#45;&gt;safe&#45;nd:K_safe&#45;nd</title>
<path fill="none" stroke="#006400" d="M712.1884,-83.1395C746.5303,-88.6601 792.5392,-94.5 833.5,-94.5 833.5,-94.5 833.5,-94.5 1080.5,-94.5 1151.9051,-94.5 1121.0678,-178.196 1172.3311,-224.9312"/>
<polygon fill="#006400" stroke="#006400" points="1176.1664,-228.2306 1170.9086,-226.6755 1174.2712,-226.6002 1172.376,-224.9698 1172.376,-224.9698 1172.376,-224.9698 1174.2712,-226.6002 1173.8433,-223.2641 1176.1664,-228.2306 1176.1664,-228.2306"/>
</g>
<!-- safe&#45;nodejs -->
<g id="node8" class="node">
<title>safe&#45;nodejs</title>
<polygon fill="none" stroke="#000000" points="307,-282.5 307,-324.5 421,-324.5 421,-282.5 307,-282.5"/>
<text text-anchor="middle" x="364" y="-310.9" font-family="verdana" font-size="12.00" fill="#000000">safe&#45;nodejs</text>
<polyline fill="none" stroke="#000000" points="307,-303.5 421,-303.5 "/>
<text text-anchor="middle" x="364" y="-289.9" font-family="verdana" font-size="12.00" fill="#000000">native</text>
</g>
<!-- safe&#45;api -->
<g id="node12" class="node">
<title>safe&#45;api</title>
<polygon fill="none" stroke="#000000" points="601.5,-194.5 601.5,-320.5 718.5,-320.5 718.5,-194.5 601.5,-194.5"/>
<text text-anchor="middle" x="660" y="-306.9" font-family="verdana" font-size="12.00" fill="#000000">safe&#45;api</text>
<polyline fill="none" stroke="#000000" points="601.5,-299.5 718.5,-299.5 "/>
<text text-anchor="middle" x="660" y="-285.9" font-family="verdana" font-size="12.00" fill="#000000">safe&#45;cli</text>
<polyline fill="none" stroke="#000000" points="601.5,-278.5 718.5,-278.5 "/>
<text text-anchor="middle" x="660" y="-264.9" font-family="verdana" font-size="12.00" fill="#000000">safe&#45;api</text>
<polyline fill="none" stroke="#000000" points="601.5,-257.5 718.5,-257.5 "/>
<text text-anchor="middle" x="660" y="-243.9" font-family="verdana" font-size="12.00" fill="#000000">safe&#45;ffi</text>
<polyline fill="none" stroke="#000000" points="601.5,-236.5 718.5,-236.5 "/>
<text text-anchor="middle" x="660" y="-222.9" font-family="verdana" font-size="12.00" fill="#000000">safe&#45;authd</text>
<polyline fill="none" stroke="#000000" points="601.5,-215.5 718.5,-215.5 "/>
<text text-anchor="middle" x="660" y="-201.9" font-family="verdana" font-size="12.00" fill="#000000">jsonrpc&#45;quic</text>
</g>
<!-- safe&#45;nodejs&#45;&gt;safe&#45;api -->
<g id="edge23" class="edge">
<title>safe&#45;nodejs:K_native&#45;&gt;safe&#45;api:K_safe&#45;api</title>
<path fill="none" stroke="#006400" d="M421,-292.5C499.974,-292.5 519.4648,-269.5202 595.8829,-268.5328"/>
<polygon fill="#006400" stroke="#006400" points="601,-268.5 596.0145,-270.7821 598.5001,-268.5161 596.0001,-268.5321 596.0001,-268.5321 596.0001,-268.5321 598.5001,-268.5161 595.9857,-266.2822 601,-268.5 601,-268.5"/>
</g>
<!-- safe&#45;app&#45;csharp&#45;&gt;safe&#45;app&#45;csharp -->
<g id="edge1" class="edge">
<title>safe&#45;app&#45;csharp:K_SafeApp.AppBindings&#45;&gt;safe&#45;app&#45;csharp:K_SafeApp.Core</title>
<path fill="none" stroke="#c0c0c0" d="M277.9345,-216.1422C244.6582,-215.2153 217,-210.3594 217,-200 217,-190.1667 241.9205,-185.292 272.9114,-184.0296"/>
<polygon fill="#c0c0c0" stroke="#c0c0c0" points="277.9345,-183.8578 273.0144,-186.2775 275.4359,-183.9433 272.9374,-184.0288 272.9374,-184.0288 272.9374,-184.0288 275.4359,-183.9433 272.8604,-181.7802 277.9345,-183.8578 277.9345,-183.8578"/>
</g>
<!-- safe&#45;app&#45;csharp&#45;&gt;safe&#45;app&#45;csharp -->
<g id="edge15" class="edge">
<title>safe&#45;app&#45;csharp:K_SafeApp&#45;&gt;safe&#45;app&#45;csharp:K_SafeApp.AppBindings</title>
<path fill="none" stroke="#c0c0c0" d="M277.9345,-238.0907C244.6582,-237.1055 217,-232.125 217,-221.5 217,-211.4146 241.9205,-206.4149 272.9114,-205.0905"/>
<polygon fill="#c0c0c0" stroke="#c0c0c0" points="277.9345,-204.9093 273.0189,-207.3382 275.4361,-204.9995 272.9377,-205.0897 272.9377,-205.0897 272.9377,-205.0897 275.4361,-204.9995 272.8566,-202.8412 277.9345,-204.9093 277.9345,-204.9093"/>
</g>
<!-- safe&#45;app&#45;csharp&#45;&gt;safe&#45;app&#45;csharp -->
<g id="edge16" class="edge">
<title>safe&#45;app&#45;csharp:K_SafeApp&#45;&gt;safe&#45;app&#45;csharp:K_SafeApp.Core</title>
<path fill="none" stroke="#c0c0c0" d="M277.9345,-237.0092C244.6582,-234.7983 217,-227.2031 217,-211 217,-195.6197 241.9205,-187.9952 272.9114,-185.3697"/>
<polygon fill="#c0c0c0" stroke="#c0c0c0" points="277.9345,-184.9908 273.1179,-187.6106 275.4416,-185.1789 272.9486,-185.367 272.9486,-185.367 272.9486,-185.367 275.4416,-185.1789 272.7794,-183.1233 277.9345,-184.9908 277.9345,-184.9908"/>
</g>
<!-- safe&#45;app&#45;csharp&#45;&gt;safe&#45;api -->
<g id="edge2" class="edge">
<title>safe&#45;app&#45;csharp:K_SafeApp.AppBindings&#45;&gt;safe&#45;api:K_safe&#45;ffi</title>
<path fill="none" stroke="#006400" d="M450,-210.5C517.2403,-210.5 531.3109,-244.6951 595.8512,-246.4316"/>
<polygon fill="#006400" stroke="#006400" points="601,-246.5 595.9705,-248.6832 598.5002,-246.4667 596.0004,-246.4334 596.0004,-246.4334 596.0004,-246.4334 598.5002,-246.4667 596.0304,-244.1836 601,-246.5 601,-246.5"/>
</g>
<!-- safe&#45;authenticator&#45;mobile -->
<g id="node11" class="node">
<title>safe&#45;authenticator&#45;mobile</title>
<polygon fill="none" stroke="#000000" points="560,-380.5 560,-416.5 760,-416.5 760,-380.5 560,-380.5"/>
<text text-anchor="middle" x="660" y="-395.4" font-family="verdana" font-size="12.00" fill="#000000">safe&#45;authenticator&#45;mobile</text>
</g>
<!-- safe&#45;authenticator&#45;mobile&#45;&gt;safe&#45;client&#45;libs -->
<g id="edge35" class="edge">
<title>safe&#45;authenticator&#45;mobile:K_safe&#45;authenticator&#45;mobile&#45;&gt;safe&#45;client&#45;libs:K_safe_authenticator_ffi</title>
<path fill="none" stroke="#006400" d="M760.424,-380.3342C796.3434,-366.2576 802.2666,-355.8424 834,-333.5 849.0201,-322.9249 849.7353,-308.5211 864.8241,-305.9133"/>
<polygon fill="#006400" stroke="#006400" points="870,-305.5 865.195,-308.1409 867.5079,-305.699 865.0159,-305.8981 865.0159,-305.8981 865.0159,-305.8981 867.5079,-305.699 864.8367,-303.6552 870,-305.5 870,-305.5"/>
</g>
<!-- safe&#45;api&#45;&gt;safe&#45;client&#45;libs -->
<g id="edge21" class="edge">
<title>safe&#45;api:K_safe&#45;ffi&#45;&gt;safe&#45;client&#45;libs:K_safe_authenticator_ffi</title>
<path fill="none" stroke="#006400" d="M719,-246.5C771.2123,-246.5 787.8953,-245.9954 834,-270.5 852.0116,-280.0732 848.5294,-301.3882 864.8403,-304.9811"/>
<polygon fill="#006400" stroke="#006400" points="870,-305.5 864.7999,-307.2383 867.5125,-305.2498 865.0251,-304.9996 865.0251,-304.9996 865.0251,-304.9996 867.5125,-305.2498 865.2503,-302.7609 870,-305.5 870,-305.5"/>
</g>
<!-- safe&#45;api&#45;&gt;safe&#45;client&#45;libs -->
<g id="edge22" class="edge">
<title>safe&#45;api:K_safe&#45;ffi&#45;&gt;safe&#45;client&#45;libs:K_safe_core</title>
<path fill="none" stroke="#006400" d="M719,-246.5C753.7122,-246.5 763.1995,-242.5968 797,-250.5 814.4456,-254.5791 817.7592,-258.9354 834,-266.5 848.4422,-273.2269 851.5255,-282.2493 864.6646,-284.1425"/>
<polygon fill="#006400" stroke="#006400" points="870,-284.5 864.8607,-286.4106 867.5056,-284.3328 865.0112,-284.1657 865.0112,-284.1657 865.0112,-284.1657 867.5056,-284.3328 865.1616,-281.9207 870,-284.5 870,-284.5"/>
</g>
<!-- safe&#45;api&#45;&gt;safe&#45;client&#45;libs -->
<g id="edge32" class="edge">
<title>safe&#45;api:K_safe&#45;api&#45;&gt;safe&#45;client&#45;libs:K_safe_app</title>
<path fill="none" stroke="#006400" d="M719,-268.5C764.6568,-268.5 754.6046,-317.2395 796,-336.5 824.4982,-349.7596 835.5316,-347.78 864.7412,-347.5239"/>
<polygon fill="#006400" stroke="#006400" points="870,-347.5 865.0103,-349.7728 867.5,-347.5114 865.0001,-347.5228 865.0001,-347.5228 865.0001,-347.5228 867.5,-347.5114 864.9898,-345.2728 870,-347.5 870,-347.5"/>
</g>
<!-- safe&#45;api&#45;&gt;safe&#45;client&#45;libs -->
<g id="edge33" class="edge">
<title>safe&#45;api:K_safe&#45;api&#45;&gt;safe&#45;client&#45;libs:K_safe_authenticator</title>
<path fill="none" stroke="#006400" d="M719,-268.5C789.0662,-268.5 797.7003,-323.5921 864.6469,-326.3897"/>
<polygon fill="#006400" stroke="#006400" points="870,-326.5 864.9547,-328.6465 867.5005,-326.4485 865.0011,-326.3969 865.0011,-326.3969 865.0011,-326.3969 867.5005,-326.4485 865.0474,-324.1474 870,-326.5 870,-326.5"/>
</g>
<!-- safe&#45;api&#45;&gt;safe&#45;client&#45;libs -->
<g id="edge34" class="edge">
<title>safe&#45;api:K_safe&#45;api&#45;&gt;safe&#45;client&#45;libs:K_safe_core</title>
<path fill="none" stroke="#006400" d="M719,-268.5C784.7733,-268.5 801.6662,-283.6978 864.9572,-284.4696"/>
<polygon fill="#006400" stroke="#006400" points="870,-284.5 864.9865,-286.7197 867.5,-284.4849 865.0001,-284.4697 865.0001,-284.4697 865.0001,-284.4697 867.5,-284.4849 865.0137,-282.2198 870,-284.5 870,-284.5"/>
</g>
<!-- safe&#45;api&#45;&gt;safe&#45;nd -->
<g id="edge20" class="edge">
<title>safe&#45;api:K_safe&#45;ffi&#45;&gt;safe&#45;nd:K_safe&#45;nd</title>
<path fill="none" stroke="#006400" d="M719,-246.5C790.8108,-246.5 761.6892,-132.5 833.5,-132.5 833.5,-132.5 833.5,-132.5 1080.5,-132.5 1138.9576,-132.5 1126.9708,-191.4278 1171.9718,-225.3082"/>
<polygon fill="#006400" stroke="#006400" points="1176.2056,-228.305 1170.8245,-227.2527 1174.165,-226.8606 1172.1245,-225.4162 1172.1245,-225.4162 1172.1245,-225.4162 1174.165,-226.8606 1173.4245,-223.5797 1176.2056,-228.305 1176.2056,-228.305"/>
</g>
<!-- safe&#45;api&#45;&gt;safe&#45;nd -->
<g id="edge31" class="edge">
<title>safe&#45;api:K_safe&#45;api&#45;&gt;safe&#45;nd:K_safe&#45;nd</title>
<path fill="none" stroke="#006400" d="M719,-268.5C754.1449,-268.5 761.1059,-254.6906 796,-250.5 930.7518,-234.3171 1091.2332,-239.3012 1171.1164,-243.406"/>
<polygon fill="#006400" stroke="#006400" points="1176.2605,-243.6749 1171.1499,-245.6608 1173.7639,-243.5444 1171.2673,-243.4138 1171.2673,-243.4138 1171.2673,-243.4138 1173.7639,-243.5444 1171.3848,-241.1669 1176.2605,-243.6749 1176.2605,-243.6749"/>
</g>
<!-- safe&#45;api&#45;&gt;safe&#45;api -->
<g id="edge13" class="edge">
<title>safe&#45;api:K_safe&#45;authd&#45;&gt;safe&#45;api:K_jsonrpc&#45;quic</title>
<path fill="none" stroke="#c0c0c0" d="M601.4443,-231.2744C566.4427,-231.7578 533.5,-227.1875 533.5,-215 533.5,-203.4314 563.1819,-198.726 596.132,-198.6914"/>
<polygon fill="#c0c0c0" stroke="#c0c0c0" points="601.4443,-198.7256 596.4299,-200.9432 598.9444,-198.7094 596.4444,-198.6933 596.4444,-198.6933 596.4444,-198.6933 598.9444,-198.7094 596.459,-196.4433 601.4443,-198.7256 601.4443,-198.7256"/>
</g>
<!-- safe&#45;api&#45;&gt;safe&#45;api -->
<g id="edge14" class="edge">
<title>safe&#45;api:K_safe&#45;authd&#45;&gt;safe&#45;api:K_safe&#45;api</title>
<path fill="none" stroke="#c0c0c0" d="M601.4443,-220.3057C566.4427,-220.7891 533.5,-227.9375 533.5,-247 533.5,-265.0945 563.1819,-272.4542 596.132,-273.5684"/>
<polygon fill="#c0c0c0" stroke="#c0c0c0" points="601.4443,-273.6943 596.3924,-275.8252 598.945,-273.6351 596.4457,-273.5758 596.4457,-273.5758 596.4457,-273.5758 598.945,-273.6351 596.4991,-271.3264 601.4443,-273.6943 601.4443,-273.6943"/>
</g>
<!-- safe&#45;api&#45;&gt;safe&#45;api -->
<g id="edge19" class="edge">
<title>safe&#45;api:K_safe&#45;ffi&#45;&gt;safe&#45;api:K_safe&#45;api</title>
<path fill="none" stroke="#c0c0c0" d="M601.4443,-240.752C566.4427,-240.3125 533.5,-245 533.5,-257.5 533.5,-269.3652 563.1819,-274.1913 596.132,-274.275"/>
<polygon fill="#c0c0c0" stroke="#c0c0c0" points="601.4443,-274.248 596.4558,-276.5235 598.9444,-274.2608 596.4444,-274.2735 596.4444,-274.2735 596.4444,-274.2735 598.9444,-274.2608 596.433,-272.0235 601.4443,-274.248 601.4443,-274.248"/>
</g>
<!-- safe&#45;api&#45;&gt;safe&#45;api -->
<g id="edge29" class="edge">
<title>safe&#45;api:K_safe&#45;cli&#45;&gt;safe&#45;api:K_safe&#45;api</title>
<path fill="none" stroke="#c0c0c0" d="M601.4443,-295.2744C566.4427,-295.7578 533.5,-291.1875 533.5,-279 533.5,-267.4314 563.1819,-262.726 596.132,-262.6914"/>
<polygon fill="#c0c0c0" stroke="#c0c0c0" points="601.4443,-262.7256 596.4299,-264.9432 598.9444,-262.7094 596.4444,-262.6933 596.4444,-262.6933 596.4444,-262.6933 598.9444,-262.7094 596.459,-260.4433 601.4443,-262.7256 601.4443,-262.7256"/>
</g>
<!-- safe&#45;api&#45;&gt;safe&#45;api -->
<g id="edge30" class="edge">
<title>safe&#45;api:K_safe&#45;api&#45;&gt;safe&#45;api:K_jsonrpc&#45;quic</title>
<path fill="none" stroke="#c0c0c0" d="M601.4443,-273.1406C566.4427,-271.7344 533.5,-262.125 533.5,-236.5 533.5,-212.1763 563.1819,-202.2829 596.132,-200.1381"/>
<polygon fill="#c0c0c0" stroke="#c0c0c0" points="601.4443,-199.8594 596.5691,-202.3683 598.9478,-199.9904 596.4512,-200.1214 596.4512,-200.1214 596.4512,-200.1214 598.9478,-199.9904 596.3333,-197.8745 601.4443,-199.8594 601.4443,-199.8594"/>
</g>
<!-- safe&#45;browser -->
<g id="node13" class="node">
<title>safe&#45;browser</title>
<polygon fill="none" stroke="#000000" points="22.5,-296.5 22.5,-332.5 145.5,-332.5 145.5,-296.5 22.5,-296.5"/>
<text text-anchor="middle" x="84" y="-311.4" font-family="verdana" font-size="12.00" fill="#000000">safe&#45;browser</text>
</g>
<!-- safe&#45;browser&#45;&gt;safe&#45;nodejs -->
<g id="edge36" class="edge">
<title>safe&#45;browser:K_safe&#45;browser&#45;&gt;safe&#45;nodejs:K_safe&#45;nodejs</title>
<path fill="none" stroke="#006400" d="M145.5246,-314.5C188.9069,-314.5 248.5468,-314.5 301.8611,-314.5"/>
<polygon fill="#006400" stroke="#006400" points="307,-314.5 302,-316.7501 304.5,-314.5 302,-314.5001 302,-314.5001 302,-314.5001 304.5,-314.5 302,-312.2501 307,-314.5 307,-314.5"/>
</g>
</g>
</svg>
