<?xml version="1.0" encoding="UTF-8" standalone="no"?>
<?xml-stylesheet href="./db.css" type="text/css"?>
<!DOCTYPE svg PUBLIC "-//W3C//DTD SVG 1.1//EN"
 "http://www.w3.org/Graphics/SVG/1.1/DTD/svg11.dtd">
<!-- Generated by graphviz version 2.40.1 (20161225.0304)
 -->
<!-- Title: g Pages: 1 -->
<svg width="1312pt" height="461pt"
 viewBox="0.00 0.00 1312.00 461.00" xmlns="http://www.w3.org/2000/svg" xmlns:xlink="http://www.w3.org/1999/xlink">
<g id="graph0" class="graph" transform="scale(1 1) rotate(0) translate(4 457)">
<title>g</title>
<polygon fill="#ffffff" stroke="transparent" points="-4,4 -4,-457 1308,-457 1308,4 -4,4"/>
<!-- safe&#45;mobile&#45;browser -->
<g id="node1" class="node">
<title>safe&#45;mobile&#45;browser</title>
<polygon fill="none" stroke="#000000" points="0,-250.5 0,-287.5 171,-287.5 171,-250.5 0,-250.5"/>
<text text-anchor="middle" x="85.5" y="-265.3" font-family="verdana" font-size="14.00" fill="#000000">safe&#45;mobile&#45;browser</text>
</g>
<!-- safe_app_csharp -->
<g id="node9" class="node">
<title>safe_app_csharp</title>
<polygon fill="none" stroke="#000000" points="281,-139 281,-287 457,-287 457,-139 281,-139"/>
<text text-anchor="middle" x="369" y="-264.8" font-family="verdana" font-size="14.00" fill="#000000">safe_app_csharp</text>
<polyline fill="none" stroke="#000000" points="281,-250 457,-250 "/>
<text text-anchor="middle" x="369" y="-227.8" font-family="verdana" font-size="14.00" fill="#000000">SafeApp</text>
<polyline fill="none" stroke="#000000" points="281,-213 457,-213 "/>
<text text-anchor="middle" x="369" y="-190.8" font-family="verdana" font-size="14.00" fill="#000000">SafeApp.AppBindings</text>
<polyline fill="none" stroke="#000000" points="281,-176 457,-176 "/>
<text text-anchor="middle" x="369" y="-153.8" font-family="verdana" font-size="14.00" fill="#000000">SafeApp.Core</text>
</g>
<!-- safe&#45;mobile&#45;browser&#45;&gt;safe_app_csharp -->
<g id="edge3" class="edge">
<title>safe&#45;mobile&#45;browser:K_safe&#45;mobile&#45;browser&#45;&gt;safe_app_csharp:K_safe_app_csharp</title>
<path fill="none" stroke="#006400" d="M171.2491,-269C214.3389,-269 260.5872,-269 275.8165,-269"/>
<polygon fill="#006400" stroke="#006400" points="281,-269 276,-271.2501 278.5,-269 276,-269.0001 276,-269.0001 276,-269.0001 278.5,-269 276,-266.7501 281,-269 281,-269"/>
</g>
<!-- parsec -->
<g id="node2" class="node">
<title>parsec</title>
<polygon fill="none" stroke="#000000" points="1203,-.5 1203,-37.5 1274,-37.5 1274,-.5 1203,-.5"/>
<text text-anchor="middle" x="1238.5" y="-15.3" font-family="verdana" font-size="14.00" fill="#000000">parsec</text>
</g>
<!-- routing -->
<g id="node3" class="node">
<title>routing</title>
<polygon fill="none" stroke="#000000" points="937,-29.5 937,-66.5 1011,-66.5 1011,-29.5 937,-29.5"/>
<text text-anchor="middle" x="974" y="-44.3" font-family="verdana" font-size="14.00" fill="#000000">routing</text>
</g>
<!-- routing&#45;&gt;parsec -->
<g id="edge11" class="edge">
<title>routing:K_routing&#45;&gt;parsec:K_parsec</title>
<path fill="none" stroke="#006400" d="M1011.0561,-43.9371C1060.2651,-38.5418 1146.8805,-29.0452 1197.8411,-23.4579"/>
<polygon fill="#006400" stroke="#006400" points="1202.9625,-22.8964 1198.2375,-25.678 1200.4774,-23.1689 1197.9922,-23.4414 1197.9922,-23.4414 1197.9922,-23.4414 1200.4774,-23.1689 1197.747,-21.2048 1202.9625,-22.8964 1202.9625,-22.8964"/>
</g>
<!-- quic&#45;p2p -->
<g id="node7" class="node">
<title>quic&#45;p2p</title>
<polygon fill="none" stroke="#000000" points="1196.5,-123.5 1196.5,-160.5 1280.5,-160.5 1280.5,-123.5 1196.5,-123.5"/>
<text text-anchor="middle" x="1238.5" y="-138.3" font-family="verdana" font-size="14.00" fill="#000000">quic&#45;p2p</text>
</g>
<!-- routing&#45;&gt;quic&#45;p2p -->
<g id="edge12" class="edge">
<title>routing:K_routing&#45;&gt;quic&#45;p2p:K_quic&#45;p2p</title>
<path fill="none" stroke="#006400" d="M1011.3955,-55.5709C1059.5187,-65.3136 1137,-81 1137,-81 1137,-81 1178.2388,-110.4563 1192.0522,-120.323"/>
<polygon fill="#006400" stroke="#006400" points="1196.3293,-123.3781 1190.9528,-122.3028 1194.295,-121.925 1192.2606,-120.4719 1192.2606,-120.4719 1192.2606,-120.4719 1194.295,-121.925 1193.5684,-118.6409 1196.3293,-123.3781 1196.3293,-123.3781"/>
</g>
<!-- safe&#45;nd -->
<g id="node4" class="node">
<title>safe&#45;nd</title>
<polygon fill="none" stroke="#000000" points="1200,-266.5 1200,-303.5 1277,-303.5 1277,-266.5 1200,-266.5"/>
<text text-anchor="middle" x="1238.5" y="-281.3" font-family="verdana" font-size="14.00" fill="#000000">safe&#45;nd</text>
</g>
<!-- safe_vault -->
<g id="node5" class="node">
<title>safe_vault</title>
<polygon fill="none" stroke="#000000" points="623,-45.5 623,-82.5 719,-82.5 719,-45.5 623,-45.5"/>
<text text-anchor="middle" x="671" y="-60.3" font-family="verdana" font-size="14.00" fill="#000000">safe_vault</text>
</g>
<!-- safe_vault&#45;&gt;routing -->
<g id="edge18" class="edge">
<title>safe_vault:K_safe_vault&#45;&gt;routing:K_routing</title>
<path fill="none" stroke="#006400" d="M719.0113,-61.4648C777.5307,-58.3746 875.5109,-53.2007 931.4419,-50.2473"/>
<polygon fill="#006400" stroke="#006400" points="936.7205,-49.9686 931.8462,-52.4792 934.224,-50.1004 931.7275,-50.2323 931.7275,-50.2323 931.7275,-50.2323 934.224,-50.1004 931.6088,-47.9854 936.7205,-49.9686 936.7205,-49.9686"/>
</g>
<!-- safe_vault&#45;&gt;safe&#45;nd -->
<g id="edge19" class="edge">
<title>safe_vault:K_safe_vault&#45;&gt;safe&#45;nd:K_safe&#45;nd</title>
<path fill="none" stroke="#006400" d="M719.0341,-72.389C771.6014,-81.5698 848.5,-95 848.5,-95 848.5,-95 848.5,-95 1099.5,-95 1099.5,-95 1181.5622,-235.0364 1197.3796,-262.0283"/>
<polygon fill="#006400" stroke="#006400" points="1199.9272,-266.3757 1195.4579,-263.1994 1198.6632,-264.2188 1197.3992,-262.0618 1197.3992,-262.0618 1197.3992,-262.0618 1198.6632,-264.2188 1199.3404,-260.9242 1199.9272,-266.3757 1199.9272,-266.3757"/>
</g>
<!-- safe_browser -->
<g id="node6" class="node">
<title>safe_browser</title>
<polygon fill="none" stroke="#000000" points="26,-343.5 26,-380.5 145,-380.5 145,-343.5 26,-343.5"/>
<text text-anchor="middle" x="85.5" y="-358.3" font-family="verdana" font-size="14.00" fill="#000000">safe_browser</text>
</g>
<!-- safe&#45;nodejs -->
<g id="node8" class="node">
<title>safe&#45;nodejs</title>
<polygon fill="none" stroke="#000000" points="316,-306 316,-380 422,-380 422,-306 316,-306"/>
<text text-anchor="middle" x="369" y="-357.8" font-family="verdana" font-size="14.00" fill="#000000">safe&#45;nodejs</text>
<polyline fill="none" stroke="#000000" points="316,-343 422,-343 "/>
<text text-anchor="middle" x="369" y="-320.8" font-family="verdana" font-size="14.00" fill="#000000">native</text>
</g>
<!-- safe_browser&#45;&gt;safe&#45;nodejs -->
<g id="edge17" class="edge">
<title>safe_browser:K_safe_browser&#45;&gt;safe&#45;nodejs:K_safe&#45;nodejs</title>
<path fill="none" stroke="#006400" d="M145.1592,-362C204.3849,-362 289.3657,-362 310.8941,-362"/>
<polygon fill="#006400" stroke="#006400" points="316,-362 311,-364.2501 313.5,-362 311,-362.0001 311,-362.0001 311,-362.0001 313.5,-362 311,-359.7501 316,-362 316,-362"/>
</g>
<!-- safe&#45;api -->
<g id="node13" class="node">
<title>safe&#45;api</title>
<polygon fill="none" stroke="#000000" points="616.5,-171 616.5,-393 725.5,-393 725.5,-171 616.5,-171"/>
<text text-anchor="middle" x="671" y="-370.8" font-family="verdana" font-size="14.00" fill="#000000">safe&#45;api</text>
<polyline fill="none" stroke="#000000" points="616.5,-356 725.5,-356 "/>
<text text-anchor="middle" x="671" y="-333.8" font-family="verdana" font-size="14.00" fill="#000000">safe&#45;cli</text>
<polyline fill="none" stroke="#000000" points="616.5,-319 725.5,-319 "/>
<text text-anchor="middle" x="671" y="-296.8" font-family="verdana" font-size="14.00" fill="#000000">safe&#45;api</text>
<polyline fill="none" stroke="#000000" points="616.5,-282 725.5,-282 "/>
<text text-anchor="middle" x="671" y="-259.8" font-family="verdana" font-size="14.00" fill="#000000">safe&#45;ffi</text>
<polyline fill="none" stroke="#000000" points="616.5,-245 725.5,-245 "/>
<text text-anchor="middle" x="671" y="-222.8" font-family="verdana" font-size="14.00" fill="#000000">safe&#45;authd</text>
<polyline fill="none" stroke="#000000" points="616.5,-208 725.5,-208 "/>
<text text-anchor="middle" x="671" y="-185.8" font-family="verdana" font-size="14.00" fill="#000000">jsonrpc&#45;quic</text>
</g>
<!-- safe&#45;nodejs&#45;&gt;safe&#45;api -->
<g id="edge24" class="edge">
<title>safe&#45;nodejs:K_native&#45;&gt;safe&#45;api:K_safe&#45;api</title>
<path fill="none" stroke="#006400" d="M422,-324C422,-324 579.9595,-305.2728 610.811,-301.6152"/>
<polygon fill="#006400" stroke="#006400" points="616,-301 611.2997,-303.8231 613.5174,-301.2944 611.0348,-301.5887 611.0348,-301.5887 611.0348,-301.5887 613.5174,-301.2944 610.7698,-299.3544 616,-301 616,-301"/>
</g>
<!-- safe_app_csharp&#45;&gt;safe_app_csharp -->
<g id="edge1" class="edge">
<title>safe_app_csharp:K_SafeApp.AppBindings&#45;&gt;safe_app_csharp:K_SafeApp.Core</title>
<path fill="none" stroke="#c0c0c0" d="M280.8038,-198.7975C247.0155,-196.9071 219,-190.0557 219,-175.5 219,-161.6835 244.2424,-154.8087 275.7039,-152.5293"/>
<polygon fill="#c0c0c0" stroke="#c0c0c0" points="280.8038,-152.2025 275.9579,-154.7677 278.3089,-152.3624 275.814,-152.5223 275.814,-152.5223 275.814,-152.5223 278.3089,-152.3624 275.6701,-150.2769 280.8038,-152.2025 280.8038,-152.2025"/>
</g>
<!-- safe_app_csharp&#45;&gt;safe_app_csharp -->
<g id="edge15" class="edge">
<title>safe_app_csharp:K_SafeApp&#45;&gt;safe_app_csharp:K_SafeApp.AppBindings</title>
<path fill="none" stroke="#c0c0c0" d="M280.8038,-236.7453C247.0155,-234.7963 219,-227.8203 219,-213 219,-198.9323 244.2424,-191.9324 275.7039,-189.5909"/>
<polygon fill="#c0c0c0" stroke="#c0c0c0" points="280.8038,-189.2547 275.9626,-191.8288 278.3092,-189.4192 275.8146,-189.5837 275.8146,-189.5837 275.8146,-189.5837 278.3092,-189.4192 275.6666,-187.3385 280.8038,-189.2547 280.8038,-189.2547"/>
</g>
<!-- safe_app_csharp&#45;&gt;safe_app_csharp -->
<g id="edge16" class="edge">
<title>safe_app_csharp:K_SafeApp&#45;&gt;safe_app_csharp:K_SafeApp.Core</title>
<path fill="none" stroke="#c0c0c0" d="M280.8038,-234.816C247.0155,-230.6974 219,-219.1123 219,-194.5 219,-171.1375 244.2424,-159.5128 275.7039,-154.87"/>
<polygon fill="#c0c0c0" stroke="#c0c0c0" points="280.8038,-154.184 276.1483,-157.0805 278.3261,-154.5173 275.8484,-154.8506 275.8484,-154.8506 275.8484,-154.8506 278.3261,-154.5173 275.5484,-152.6207 280.8038,-154.184 280.8038,-154.184"/>
</g>
<!-- safe_app_csharp&#45;&gt;safe&#45;api -->
<g id="edge2" class="edge">
<title>safe_app_csharp:K_SafeApp.AppBindings&#45;&gt;safe&#45;api:K_safe&#45;ffi</title>
<path fill="none" stroke="#006400" d="M457,-194C457,-194 585.3432,-249.6961 611.4129,-261.0094"/>
<polygon fill="#006400" stroke="#006400" points="616,-263 610.5175,-263.0735 613.7066,-262.0047 611.4133,-261.0095 611.4133,-261.0095 611.4133,-261.0095 613.7066,-262.0047 612.309,-258.9454 616,-263 616,-263"/>
</g>
<!-- safe_client_libs -->
<g id="node10" class="node">
<title>safe_client_libs</title>
<polygon fill="none" stroke="#000000" points="885,-267.5 885,-452.5 1063,-452.5 1063,-267.5 885,-267.5"/>
<text text-anchor="middle" x="974" y="-430.3" font-family="verdana" font-size="14.00" fill="#000000">safe_client_libs</text>
<polyline fill="none" stroke="#000000" points="885,-415.5 1063,-415.5 "/>
<text text-anchor="middle" x="974" y="-393.3" font-family="verdana" font-size="14.00" fill="#000000">safe_app</text>
<polyline fill="none" stroke="#000000" points="885,-378.5 1063,-378.5 "/>
<text text-anchor="middle" x="974" y="-356.3" font-family="verdana" font-size="14.00" fill="#000000">safe_authenticator</text>
<polyline fill="none" stroke="#000000" points="885,-341.5 1063,-341.5 "/>
<text text-anchor="middle" x="974" y="-319.3" font-family="verdana" font-size="14.00" fill="#000000">safe_authenticator_ffi</text>
<polyline fill="none" stroke="#000000" points="885,-304.5 1063,-304.5 "/>
<text text-anchor="middle" x="974" y="-282.3" font-family="verdana" font-size="14.00" fill="#000000">safe_core</text>
</g>
<!-- safe_client_libs&#45;&gt;safe&#45;nd -->
<g id="edge4" class="edge">
<title>safe_client_libs:K_safe_app&#45;&gt;safe&#45;nd:K_safe&#45;nd</title>
<path fill="none" stroke="#006400" d="M1063,-397C1063,-397 1099,-413 1099,-413 1099,-413 1137,-413 1137,-413 1137,-413 1185.423,-328.8363 1197.3632,-308.083"/>
<polygon fill="#006400" stroke="#006400" points="1199.9543,-303.5794 1199.4111,-309.0354 1198.7076,-305.7463 1197.4608,-307.9133 1197.4608,-307.9133 1197.4608,-307.9133 1198.7076,-305.7463 1195.5106,-306.7912 1199.9543,-303.5794 1199.9543,-303.5794"/>
</g>
<!-- safe_client_libs&#45;&gt;safe&#45;nd -->
<g id="edge9" class="edge">
<title>safe_client_libs:K_safe_core&#45;&gt;safe&#45;nd:K_safe&#45;nd</title>
<path fill="none" stroke="#006400" d="M1063,-286C1063,-286 1142.7525,-285.5456 1194.7328,-285.2494"/>
<polygon fill="#006400" stroke="#006400" points="1199.9858,-285.2195 1194.9987,-287.498 1197.4858,-285.2337 1194.9859,-285.248 1194.9859,-285.248 1194.9859,-285.248 1197.4858,-285.2337 1194.973,-282.9981 1199.9858,-285.2195 1199.9858,-285.2195"/>
</g>
<!-- safe_client_libs&#45;&gt;safe&#45;nd -->
<g id="edge25" class="edge">
<title>safe_client_libs:K_safe_authenticator&#45;&gt;safe&#45;nd:K_safe&#45;nd</title>
<path fill="none" stroke="#006400" d="M1063,-360C1063,-360 1137,-337 1137,-337 1137,-337 1180.46,-313.8903 1195.1871,-306.0592"/>
<polygon fill="#006400" stroke="#006400" points="1199.9543,-303.5243 1196.596,-307.8584 1197.747,-304.698 1195.5397,-305.8718 1195.5397,-305.8718 1195.5397,-305.8718 1197.747,-304.698 1194.4833,-303.8852 1199.9543,-303.5243 1199.9543,-303.5243"/>
</g>
<!-- safe_client_libs&#45;&gt;safe&#45;nd -->
<g id="edge27" class="edge">
<title>safe_client_libs:K_safe_authenticator_ffi&#45;&gt;safe&#45;nd:K_safe&#45;nd</title>
<path fill="none" stroke="#006400" d="M1063,-323C1063,-323 1143.075,-305.6618 1195.0475,-294.4085"/>
<polygon fill="#006400" stroke="#006400" points="1199.9858,-293.3393 1195.5752,-296.5965 1197.5424,-293.8684 1195.099,-294.3974 1195.099,-294.3974 1195.099,-294.3974 1197.5424,-293.8684 1194.6228,-292.1984 1199.9858,-293.3393 1199.9858,-293.3393"/>
</g>
<!-- safe_client_libs&#45;&gt;quic&#45;p2p -->
<g id="edge8" class="edge">
<title>safe_client_libs:K_safe_core&#45;&gt;quic&#45;p2p:K_quic&#45;p2p</title>
<path fill="none" stroke="#006400" d="M1063,-286C1063,-286 1171.0822,-184.3946 1192.7461,-164.0289"/>
<polygon fill="#006400" stroke="#006400" points="1196.4032,-160.591 1194.3013,-165.6551 1194.5817,-162.3033 1192.7602,-164.0157 1192.7602,-164.0157 1192.7602,-164.0157 1194.5817,-162.3033 1191.2191,-162.3763 1196.4032,-160.591 1196.4032,-160.591"/>
</g>
<!-- safe_client_libs&#45;&gt;safe_client_libs -->
<g id="edge5" class="edge">
<title>safe_client_libs:K_safe_app&#45;&gt;safe_client_libs:K_safe_authenticator</title>
<path fill="none" stroke="#c0c0c0" d="M884.8395,-401.7763C850.9945,-399.8564 823,-393.002 823,-378.5 823,-364.7345 848.2235,-357.8595 879.7316,-355.5547"/>
<polygon fill="#c0c0c0" stroke="#c0c0c0" points="884.8395,-355.2237 879.9955,-357.7924 882.3447,-355.3854 879.85,-355.5471 879.85,-355.5471 879.85,-355.5471 882.3447,-355.3854 879.7044,-353.3018 884.8395,-355.2237 884.8395,-355.2237"/>
</g>
<!-- safe_client_libs&#45;&gt;safe_client_libs -->
<g id="edge6" class="edge">
<title>safe_client_libs:K_safe_app&#45;&gt;safe_client_libs:K_safe_core</title>
<path fill="none" stroke="#c0c0c0" d="M884.8395,-397.8694C850.9945,-391.5904 823,-375.5137 823,-341.5 823,-309.2136 848.2235,-293.0886 879.7316,-286.164"/>
<polygon fill="#c0c0c0" stroke="#c0c0c0" points="884.8395,-285.1306 880.385,-288.3275 882.3891,-285.6264 879.9388,-286.1222 879.9388,-286.1222 879.9388,-286.1222 882.3891,-285.6264 879.4926,-283.9169 884.8395,-285.1306 884.8395,-285.1306"/>
</g>
<!-- safe_client_libs&#45;&gt;safe_client_libs -->
<g id="edge26" class="edge">
<title>safe_client_libs:K_safe_authenticator&#45;&gt;safe_client_libs:K_safe_core</title>
<path fill="none" stroke="#c0c0c0" d="M884.8395,-362.8229C850.9945,-358.7234 823,-347.2578 823,-323 823,-299.974 848.2235,-288.474 879.7316,-283.8594"/>
<polygon fill="#c0c0c0" stroke="#c0c0c0" points="884.8395,-283.1771 880.1814,-286.0693 882.3615,-283.5081 879.8835,-283.8392 879.8835,-283.8392 879.8835,-283.8392 882.3615,-283.5081 879.5856,-281.609 884.8395,-283.1771 884.8395,-283.1771"/>
</g>
<!-- safe_client_libs&#45;&gt;safe_client_libs -->
<g id="edge28" class="edge">
<title>safe_client_libs:K_safe_authenticator_ffi&#45;&gt;safe_client_libs:K_safe_authenticator</title>
<path fill="none" stroke="#c0c0c0" d="M884.8395,-318.2237C850.9945,-320.1436 823,-326.998 823,-341.5 823,-355.2655 848.2235,-362.1405 879.7316,-364.4453"/>
<polygon fill="#c0c0c0" stroke="#c0c0c0" points="884.8395,-364.7763 879.7044,-366.6982 882.3447,-364.6146 879.85,-364.4529 879.85,-364.4529 879.85,-364.4529 882.3447,-364.6146 879.9955,-362.2076 884.8395,-364.7763 884.8395,-364.7763"/>
</g>
<!-- safe_client_libs&#45;&gt;safe_client_libs -->
<g id="edge29" class="edge">
<title>safe_client_libs:K_safe_authenticator_ffi&#45;&gt;safe_client_libs:K_safe_core</title>
<path fill="none" stroke="#c0c0c0" d="M884.8395,-327.7763C850.9945,-325.8564 823,-319.002 823,-304.5 823,-290.7345 848.2235,-283.8595 879.7316,-281.5547"/>
<polygon fill="#c0c0c0" stroke="#c0c0c0" points="884.8395,-281.2237 879.9955,-283.7924 882.3447,-281.3854 879.85,-281.5471 879.85,-281.5471 879.85,-281.5471 882.3447,-281.3854 879.7044,-279.3018 884.8395,-281.2237 884.8395,-281.2237"/>
</g>
<!-- self_encryption -->
<g id="node11" class="node">
<title>self_encryption</title>
<polygon fill="none" stroke="#000000" points="1173,-399.5 1173,-436.5 1304,-436.5 1304,-399.5 1173,-399.5"/>
<text text-anchor="middle" x="1238.5" y="-414.3" font-family="verdana" font-size="14.00" fill="#000000">self_encryption</text>
</g>
<!-- safe_client_libs&#45;&gt;self_encryption -->
<g id="edge7" class="edge">
<title>safe_client_libs:K_safe_app&#45;&gt;self_encryption:K_self_encryption</title>
<path fill="none" stroke="#006400" d="M1063,-397C1063,-397 1099,-451 1099,-451 1099,-451 1137,-451 1137,-451 1137,-451 1158.4539,-442.3588 1168.2381,-438.418"/>
<polygon fill="#006400" stroke="#006400" points="1172.8967,-436.5416 1169.0994,-440.4968 1170.5778,-437.4757 1168.2588,-438.4097 1168.2588,-438.4097 1168.2588,-438.4097 1170.5778,-437.4757 1167.4181,-436.3226 1172.8967,-436.5416 1172.8967,-436.5416"/>
</g>
<!-- safe_client_libs&#45;&gt;self_encryption -->
<g id="edge10" class="edge">
<title>safe_client_libs:K_safe_core&#45;&gt;self_encryption:K_self_encryption</title>
<path fill="none" stroke="#006400" d="M1063,-286C1063,-286 1099,-337 1099,-337 1099,-337 1153.8996,-383.3679 1169.1256,-396.2277"/>
<polygon fill="#006400" stroke="#006400" points="1172.9464,-399.4547 1167.6747,-397.9474 1171.0364,-397.8416 1169.1265,-396.2284 1169.1265,-396.2284 1169.1265,-396.2284 1171.0364,-397.8416 1170.5783,-394.5095 1172.9464,-399.4547 1172.9464,-399.4547"/>
</g>
<!-- safe&#45;authenticator&#45;mobile -->
<g id="node12" class="node">
<title>safe&#45;authenticator&#45;mobile</title>
<polygon fill="none" stroke="#000000" points="567,-114.5 567,-151.5 775,-151.5 775,-114.5 567,-114.5"/>
<text text-anchor="middle" x="671" y="-129.3" font-family="verdana" font-size="14.00" fill="#000000">safe&#45;authenticator&#45;mobile</text>
</g>
<!-- safe&#45;authenticator&#45;mobile&#45;&gt;safe_client_libs -->
<g id="edge36" class="edge">
<title>safe&#45;authenticator&#45;mobile:K_safe&#45;authenticator&#45;mobile&#45;&gt;safe_client_libs:K_safe_authenticator_ffi</title>
<path fill="none" stroke="#006400" d="M775.0797,-151.6243C778.0854,-156.3104 865.1665,-292.0778 882.1459,-318.5502"/>
<polygon fill="#006400" stroke="#006400" points="885,-323 880.4066,-320.0061 883.6503,-320.8957 882.3005,-318.7913 882.3005,-318.7913 882.3005,-318.7913 883.6503,-320.8957 884.1944,-317.5765 885,-323 885,-323"/>
</g>
<!-- safe&#45;api&#45;&gt;safe&#45;nd -->
<g id="edge21" class="edge">
<title>safe&#45;api:K_safe&#45;ffi&#45;&gt;safe&#45;nd:K_safe&#45;nd</title>
<path fill="none" stroke="#006400" d="M726,-263C726,-263 848.5,-171 848.5,-171 848.5,-171 848.5,-171 1099.5,-171 1099.5,-171 1178.1073,-245.6965 1196.2814,-262.9664"/>
<polygon fill="#006400" stroke="#006400" points="1199.9272,-266.4308 1194.7527,-264.6176 1198.1149,-264.7087 1196.3026,-262.9865 1196.3026,-262.9865 1196.3026,-262.9865 1198.1149,-264.7087 1197.8525,-261.3555 1199.9272,-266.4308 1199.9272,-266.4308"/>
</g>
<!-- safe&#45;api&#45;&gt;safe&#45;nd -->
<g id="edge32" class="edge">
<title>safe&#45;api:K_safe&#45;api&#45;&gt;safe&#45;nd:K_safe&#45;nd</title>
<path fill="none" stroke="#006400" d="M726,-301C726,-301 885,-258 885,-258 885,-258 1063,-258 1063,-258 1063,-258 1142.7525,-270.2696 1194.7328,-278.2666"/>
<polygon fill="#006400" stroke="#006400" points="1199.9858,-279.0747 1194.7018,-280.5382 1197.5149,-278.6946 1195.0439,-278.3144 1195.0439,-278.3144 1195.0439,-278.3144 1197.5149,-278.6946 1195.3861,-276.0905 1199.9858,-279.0747 1199.9858,-279.0747"/>
</g>
<!-- safe&#45;api&#45;&gt;safe_client_libs -->
<g id="edge22" class="edge">
<title>safe&#45;api:K_safe&#45;ffi&#45;&gt;safe_client_libs:K_safe_authenticator_ffi</title>
<path fill="none" stroke="#006400" d="M726,-263C726,-263 853.2296,-311.0112 880.0671,-321.1385"/>
<polygon fill="#006400" stroke="#006400" points="885,-323 879.5276,-323.3398 882.661,-322.1173 880.322,-321.2347 880.322,-321.2347 880.322,-321.2347 882.661,-322.1173 881.1164,-319.1295 885,-323 885,-323"/>
</g>
<!-- safe&#45;api&#45;&gt;safe_client_libs -->
<g id="edge23" class="edge">
<title>safe&#45;api:K_safe&#45;ffi&#45;&gt;safe_client_libs:K_safe_core</title>
<path fill="none" stroke="#006400" d="M726,-263C726,-263 849,-271 849,-271 849,-271 870.5354,-279.9731 880.2936,-284.039"/>
<polygon fill="#006400" stroke="#006400" points="885,-286 879.5192,-286.1538 882.6923,-285.0384 880.3846,-284.0769 880.3846,-284.0769 880.3846,-284.0769 882.6923,-285.0384 881.25,-281.9999 885,-286 885,-286"/>
</g>
<!-- safe&#45;api&#45;&gt;safe_client_libs -->
<g id="edge33" class="edge">
<title>safe&#45;api:K_safe&#45;api&#45;&gt;safe_client_libs:K_safe_app</title>
<path fill="none" stroke="#006400" d="M726,-301C726,-301 811,-375 811,-375 811,-375 863.6816,-390.6621 880.1447,-395.5565"/>
<polygon fill="#006400" stroke="#006400" points="885,-397 879.5661,-397.7318 882.6037,-396.2875 880.2073,-395.5751 880.2073,-395.5751 880.2073,-395.5751 882.6037,-396.2875 880.8485,-393.4184 885,-397 885,-397"/>
</g>
<!-- safe&#45;api&#45;&gt;safe_client_libs -->
<g id="edge34" class="edge">
<title>safe&#45;api:K_safe&#45;api&#45;&gt;safe_client_libs:K_safe_authenticator</title>
<path fill="none" stroke="#006400" d="M726,-301C726,-301 811,-337 811,-337 811,-337 863.6816,-353.374 880.1447,-358.4909"/>
<polygon fill="#006400" stroke="#006400" points="885,-360 879.5575,-360.6645 882.6127,-359.258 880.2253,-358.5159 880.2253,-358.5159 880.2253,-358.5159 882.6127,-359.258 880.8931,-356.3673 885,-360 885,-360"/>
</g>
<!-- safe&#45;api&#45;&gt;safe_client_libs -->
<g id="edge35" class="edge">
<title>safe&#45;api:K_safe&#45;api&#45;&gt;safe_client_libs:K_safe_core</title>
<path fill="none" stroke="#006400" d="M726,-301C726,-301 812,-299 812,-299 812,-299 863.0118,-289.9157 879.75,-286.9349"/>
<polygon fill="#006400" stroke="#006400" points="885,-286 880.472,-289.0918 882.5387,-286.4383 880.0774,-286.8767 880.0774,-286.8767 880.0774,-286.8767 882.5387,-286.4383 879.6829,-284.6615 885,-286 885,-286"/>
</g>
<!-- safe&#45;api&#45;&gt;safe&#45;api -->
<g id="edge13" class="edge">
<title>safe&#45;api:K_safe&#45;authd&#45;&gt;safe&#45;api:K_jsonrpc&#45;quic</title>
<path fill="none" stroke="#c0c0c0" d="M616.2808,-231.3564C580.7713,-231.4869 546.5,-225.1709 546.5,-207.5 546.5,-190.7265 577.379,-184.1839 610.8851,-183.6742"/>
<polygon fill="#c0c0c0" stroke="#c0c0c0" points="616.2808,-183.6436 611.2937,-185.922 613.7809,-183.6578 611.2809,-183.6721 611.2809,-183.6721 611.2809,-183.6721 613.7809,-183.6578 611.2681,-181.4221 616.2808,-183.6436 616.2808,-183.6436"/>
</g>
<!-- safe&#45;api&#45;&gt;safe&#45;api -->
<g id="edge14" class="edge">
<title>safe&#45;api:K_safe&#45;authd&#45;&gt;safe&#45;api:K_safe&#45;api</title>
<path fill="none" stroke="#c0c0c0" d="M616.2808,-221.5111C580.7713,-222.9404 546.5,-233.6201 546.5,-263.5 546.5,-291.8625 577.379,-302.9254 610.8851,-305.1982"/>
<polygon fill="#c0c0c0" stroke="#c0c0c0" points="616.2808,-305.4889 611.167,-307.4666 613.7844,-305.3544 611.2881,-305.2199 611.2881,-305.2199 611.2881,-305.2199 613.7844,-305.3544 611.4091,-302.9731 616.2808,-305.4889 616.2808,-305.4889"/>
</g>
<!-- safe&#45;api&#45;&gt;safe&#45;api -->
<g id="edge20" class="edge">
<title>safe&#45;api:K_safe&#45;ffi&#45;&gt;safe&#45;api:K_safe&#45;api</title>
<path fill="none" stroke="#c0c0c0" d="M616.2808,-257.6664C580.7713,-257.577 546.5,-264.0078 546.5,-282 546.5,-299.0785 577.379,-305.74 610.8851,-306.2961"/>
<polygon fill="#c0c0c0" stroke="#c0c0c0" points="616.2808,-306.3336 611.2653,-308.5487 613.7809,-306.3162 611.2809,-306.2988 611.2809,-306.2988 611.2809,-306.2988 613.7809,-306.3162 611.2966,-304.0488 616.2808,-306.3336 616.2808,-306.3336"/>
</g>
<!-- safe&#45;api&#45;&gt;safe&#45;api -->
<g id="edge30" class="edge">
<title>safe&#45;api:K_safe&#45;cli&#45;&gt;safe&#45;api:K_safe&#45;api</title>
<path fill="none" stroke="#c0c0c0" d="M616.2808,-343.3564C580.7713,-343.4869 546.5,-337.1709 546.5,-319.5 546.5,-302.7265 577.379,-296.1839 610.8851,-295.6742"/>
<polygon fill="#c0c0c0" stroke="#c0c0c0" points="616.2808,-295.6436 611.2937,-297.922 613.7809,-295.6578 611.2809,-295.6721 611.2809,-295.6721 611.2809,-295.6721 613.7809,-295.6578 611.2681,-293.4221 616.2808,-295.6436 616.2808,-295.6436"/>
</g>
<!-- safe&#45;api&#45;&gt;safe&#45;api -->
<g id="edge31" class="edge">
<title>safe&#45;api:K_safe&#45;api&#45;&gt;safe&#45;api:K_jsonrpc&#45;quic</title>
<path fill="none" stroke="#c0c0c0" d="M616.2808,-304.6441C580.7713,-301.6962 546.5,-286.7676 546.5,-245 546.5,-205.1903 577.6336,-189.7623 611.2989,-185.8509"/>
<polygon fill="#c0c0c0" stroke="#c0c0c0" points="616.2808,-185.3559 611.5278,-188.0893 613.7931,-185.6031 611.3053,-185.8504 611.3053,-185.8504 611.3053,-185.8504 613.7931,-185.6031 611.0828,-183.6114 616.2808,-185.3559 616.2808,-185.3559"/>
</g>
</g>
</svg>
