<?xml version="1.0" encoding="UTF-8" standalone="no"?>
<?xml-stylesheet href="./db.css" type="text/css"?>
<!DOCTYPE svg PUBLIC "-//W3C//DTD SVG 1.1//EN"
 "http://www.w3.org/Graphics/SVG/1.1/DTD/svg11.dtd">
<!-- Generated by graphviz version 2.40.1 (20161225.0304)
 -->
<!-- Title: g Pages: 1 -->
<svg width="1182pt" height="449pt"
 viewBox="0.00 0.00 1182.00 449.00" xmlns="http://www.w3.org/2000/svg" xmlns:xlink="http://www.w3.org/1999/xlink">
<g id="graph0" class="graph" transform="scale(1 1) rotate(0) translate(4 445)">
<title>g</title>
<polygon fill="#ffffff" stroke="transparent" points="-4,4 -4,-445 1178,-445 1178,4 -4,4"/>
<!-- safe&#45;mobile&#45;browser -->
<g id="node1" class="node">
<title>safe&#45;mobile&#45;browser</title>
<polygon fill="none" stroke="#000000" points="16,-294.5 16,-330.5 184,-330.5 184,-294.5 16,-294.5"/>
<text text-anchor="middle" x="100" y="-309.4" font-family="verdana" font-size="12.00" fill="#000000">safe&#45;mobile&#45;browser</text>
</g>
<!-- safe&#45;app&#45;csharp -->
<g id="node9" class="node">
<title>safe&#45;app&#45;csharp</title>
<polygon fill="none" stroke="#000000" points="310,-238.5 310,-322.5 482,-322.5 482,-238.5 310,-238.5"/>
<text text-anchor="middle" x="396" y="-308.9" font-family="verdana" font-size="12.00" fill="#000000">safe&#45;app&#45;csharp</text>
<polyline fill="none" stroke="#000000" points="310,-301.5 482,-301.5 "/>
<text text-anchor="middle" x="396" y="-287.9" font-family="verdana" font-size="12.00" fill="#000000">SafeApp</text>
<polyline fill="none" stroke="#000000" points="310,-280.5 482,-280.5 "/>
<text text-anchor="middle" x="396" y="-266.9" font-family="verdana" font-size="12.00" fill="#000000">SafeApp.AppBindings</text>
<polyline fill="none" stroke="#000000" points="310,-259.5 482,-259.5 "/>
<text text-anchor="middle" x="396" y="-245.9" font-family="verdana" font-size="12.00" fill="#000000">SafeApp.Core</text>
</g>
<!-- safe&#45;mobile&#45;browser&#45;&gt;safe&#45;app&#45;csharp -->
<g id="edge3" class="edge">
<title>safe&#45;mobile&#45;browser:K_safe&#45;mobile&#45;browser&#45;&gt;safe&#45;app&#45;csharp:K_safe&#45;app&#45;csharp</title>
<path fill="none" stroke="#006400" d="M184.0473,-312.5C220.8004,-312.5 264.583,-312.5 304.6295,-312.5"/>
<polygon fill="#006400" stroke="#006400" points="310,-312.5 305,-314.7501 307.5,-312.5 305,-312.5001 305,-312.5001 305,-312.5001 307.5,-312.5 305,-310.2501 310,-312.5 310,-312.5"/>
</g>
<!-- parsec -->
<g id="node2" class="node">
<title>parsec</title>
<polygon fill="none" stroke="#000000" points="1083.5,-161.5 1083.5,-197.5 1168.5,-197.5 1168.5,-161.5 1083.5,-161.5"/>
<text text-anchor="middle" x="1126" y="-176.4" font-family="verdana" font-size="12.00" fill="#000000">parsec</text>
</g>
<!-- routing -->
<g id="node3" class="node">
<title>routing</title>
<polygon fill="none" stroke="#000000" points="857,-161.5 857,-197.5 944,-197.5 944,-161.5 857,-161.5"/>
<text text-anchor="middle" x="900.5" y="-176.4" font-family="verdana" font-size="12.00" fill="#000000">routing</text>
</g>
<!-- routing&#45;&gt;parsec -->
<g id="edge4" class="edge">
<title>routing:K_routing&#45;&gt;parsec:K_parsec</title>
<path fill="none" stroke="#006400" d="M944.246,-179.5C982.6123,-179.5 1038.299,-179.5 1077.9065,-179.5"/>
<polygon fill="#006400" stroke="#006400" points="1083.1411,-179.5 1078.1412,-181.7501 1080.6411,-179.5 1078.1411,-179.5001 1078.1411,-179.5001 1078.1411,-179.5001 1080.6411,-179.5 1078.1411,-177.2501 1083.1411,-179.5 1083.1411,-179.5"/>
</g>
<!-- quic&#45;p2p -->
<g id="node7" class="node">
<title>quic&#45;p2p</title>
<polygon fill="none" stroke="#000000" points="1078,-85.5 1078,-121.5 1174,-121.5 1174,-85.5 1078,-85.5"/>
<text text-anchor="middle" x="1126" y="-100.4" font-family="verdana" font-size="12.00" fill="#000000">quic&#45;p2p</text>
</g>
<!-- routing&#45;&gt;quic&#45;p2p -->
<g id="edge5" class="edge">
<title>routing:K_routing&#45;&gt;quic&#45;p2p:K_quic&#45;p2p</title>
<path fill="none" stroke="#006400" d="M944.246,-164.7563C980.8963,-152.4041 1033.3521,-134.725 1072.4982,-121.5316"/>
<polygon fill="#006400" stroke="#006400" points="1077.6878,-119.7826 1073.6683,-123.5117 1075.3188,-120.5811 1072.9497,-121.3795 1072.9497,-121.3795 1072.9497,-121.3795 1075.3188,-120.5811 1072.2311,-119.2474 1077.6878,-119.7826 1077.6878,-119.7826"/>
</g>
<!-- safe&#45;client&#45;libs -->
<g id="node4" class="node">
<title>safe&#45;client&#45;libs</title>
<polygon fill="none" stroke="#000000" points="592,-47.5 592,-83.5 723,-83.5 723,-47.5 592,-47.5"/>
<text text-anchor="middle" x="657.5" y="-62.4" font-family="verdana" font-size="12.00" fill="#000000">safe&#45;client&#45;libs</text>
</g>
<!-- safe&#45;nd -->
<g id="node6" class="node">
<title>safe&#45;nd</title>
<polygon fill="none" stroke="#000000" points="855.5,-226.5 855.5,-262.5 945.5,-262.5 945.5,-226.5 855.5,-226.5"/>
<text text-anchor="middle" x="900.5" y="-241.4" font-family="verdana" font-size="12.00" fill="#000000">safe&#45;nd</text>
</g>
<!-- safe&#45;client&#45;libs&#45;&gt;safe&#45;nd -->
<g id="edge7" class="edge">
<title>safe&#45;client&#45;libs:K_safe&#45;client&#45;libs&#45;&gt;safe&#45;nd:K_safe&#45;nd</title>
<path fill="none" stroke="#006400" d="M723.4306,-83.7674C794.8849,-128.268 782.5778,-178.6215 850.4797,-223.299"/>
<polygon fill="#006400" stroke="#006400" points="855.07,-226.2335 849.6453,-225.4361 852.9636,-224.887 850.8572,-223.5404 850.8572,-223.5404 850.8572,-223.5404 852.9636,-224.887 852.0692,-221.6447 855.07,-226.2335 855.07,-226.2335"/>
</g>
<!-- safe&#45;client&#45;libs&#45;&gt;quic&#45;p2p -->
<g id="edge6" class="edge">
<title>safe&#45;client&#45;libs:K_safe&#45;client&#45;libs&#45;&gt;quic&#45;p2p:K_quic&#45;p2p</title>
<path fill="none" stroke="#006400" d="M723.2582,-65.5C746.409,-65.5 772.6094,-65.5 796.5,-65.5 796.5,-65.5 796.5,-65.5 1004.5,-65.5 1011.7602,-65.5 1043.5768,-75.5112 1072.8287,-85.2565"/>
<polygon fill="#006400" stroke="#006400" points="1077.8745,-86.9432 1072.419,-87.4919 1075.5034,-86.1506 1073.1324,-85.358 1073.1324,-85.358 1073.1324,-85.358 1075.5034,-86.1506 1073.8457,-83.224 1077.8745,-86.9432 1077.8745,-86.9432"/>
</g>
<!-- self_encryption -->
<g id="node10" class="node">
<title>self_encryption</title>
<polygon fill="none" stroke="#000000" points="833,-.5 833,-36.5 968,-36.5 968,-.5 833,-.5"/>
<text text-anchor="middle" x="900.5" y="-15.4" font-family="verdana" font-size="12.00" fill="#000000">self_encryption</text>
</g>
<!-- safe&#45;client&#45;libs&#45;&gt;self_encryption -->
<g id="edge8" class="edge">
<title>safe&#45;client&#45;libs:K_safe&#45;client&#45;libs&#45;&gt;self_encryption:K_self_encryption</title>
<path fill="none" stroke="#006400" d="M723.2593,-52.7811C755.5469,-46.5362 794.5395,-38.9944 827.7214,-32.5765"/>
<polygon fill="#006400" stroke="#006400" points="832.995,-31.5565 828.5133,-34.7151 830.5405,-32.0313 828.086,-32.5061 828.086,-32.5061 828.086,-32.5061 830.5405,-32.0313 827.6587,-30.297 832.995,-31.5565 832.995,-31.5565"/>
</g>
<!-- safe&#45;vault -->
<g id="node5" class="node">
<title>safe&#45;vault</title>
<polygon fill="none" stroke="#000000" points="605.5,-161.5 605.5,-197.5 709.5,-197.5 709.5,-161.5 605.5,-161.5"/>
<text text-anchor="middle" x="657.5" y="-176.4" font-family="verdana" font-size="12.00" fill="#000000">safe&#45;vault</text>
</g>
<!-- safe&#45;vault&#45;&gt;routing -->
<g id="edge14" class="edge">
<title>safe&#45;vault:K_safe&#45;vault&#45;&gt;routing:K_routing</title>
<path fill="none" stroke="#006400" d="M709.6296,-179.5C751.7564,-179.5 810.6156,-179.5 851.7986,-179.5"/>
<polygon fill="#006400" stroke="#006400" points="856.9831,-179.5 851.9831,-181.7501 854.4831,-179.5 851.9831,-179.5001 851.9831,-179.5001 851.9831,-179.5001 854.4831,-179.5 851.983,-177.2501 856.9831,-179.5 856.9831,-179.5"/>
</g>
<!-- safe&#45;vault&#45;&gt;safe&#45;nd -->
<g id="edge15" class="edge">
<title>safe&#45;vault:K_safe&#45;vault&#45;&gt;safe&#45;nd:K_safe&#45;nd</title>
<path fill="none" stroke="#006400" d="M709.6296,-193.4441C751.3062,-204.5922 809.3594,-220.1208 850.4721,-231.1181"/>
<polygon fill="#006400" stroke="#006400" points="855.3997,-232.4361 849.988,-233.3176 852.9846,-231.7901 850.5695,-231.144 850.5695,-231.144 850.5695,-231.144 852.9846,-231.7901 851.1509,-228.9704 855.3997,-232.4361 855.3997,-232.4361"/>
</g>
<!-- safe&#45;vault&#45;&gt;quic&#45;p2p -->
<g id="edge13" class="edge">
<title>safe&#45;vault:K_safe&#45;vault&#45;&gt;quic&#45;p2p:K_quic&#45;p2p</title>
<path fill="none" stroke="#006400" d="M709.9859,-161.2572C751.1202,-140.5519 750.21,-103.5 796.5,-103.5 796.5,-103.5 796.5,-103.5 1004.5,-103.5 1026.8598,-103.5 1051.5342,-103.5 1072.7727,-103.5"/>
<polygon fill="#006400" stroke="#006400" points="1077.8115,-103.5 1072.8116,-105.7501 1075.3115,-103.5 1072.8115,-103.5001 1072.8115,-103.5001 1072.8115,-103.5001 1075.3115,-103.5 1072.8115,-101.2501 1077.8115,-103.5 1077.8115,-103.5"/>
</g>
<!-- safe&#45;nodejs -->
<g id="node8" class="node">
<title>safe&#45;nodejs</title>
<polygon fill="none" stroke="#000000" points="339,-349.5 339,-385.5 453,-385.5 453,-349.5 339,-349.5"/>
<text text-anchor="middle" x="396" y="-364.4" font-family="verdana" font-size="12.00" fill="#000000">safe&#45;nodejs</text>
</g>
<!-- safe&#45;app&#45;csharp&#45;&gt;safe&#45;app&#45;csharp -->
<g id="edge1" class="edge">
<title>safe&#45;app&#45;csharp:K_SafeApp.AppBindings&#45;&gt;safe&#45;app&#45;csharp:K_SafeApp.Core</title>
<path fill="none" stroke="#c0c0c0" d="M309.9345,-275.1422C276.6582,-274.2153 249,-269.3594 249,-259 249,-249.1667 273.9205,-244.292 304.9114,-243.0296"/>
<polygon fill="#c0c0c0" stroke="#c0c0c0" points="309.9345,-242.8578 305.0144,-245.2775 307.4359,-242.9433 304.9374,-243.0288 304.9374,-243.0288 304.9374,-243.0288 307.4359,-242.9433 304.8604,-240.7802 309.9345,-242.8578 309.9345,-242.8578"/>
</g>
<!-- safe&#45;app&#45;csharp&#45;&gt;safe&#45;app&#45;csharp -->
<g id="edge11" class="edge">
<title>safe&#45;app&#45;csharp:K_SafeApp&#45;&gt;safe&#45;app&#45;csharp:K_SafeApp.AppBindings</title>
<path fill="none" stroke="#c0c0c0" d="M309.9345,-297.0907C276.6582,-296.1055 249,-291.125 249,-280.5 249,-270.4146 273.9205,-265.4149 304.9114,-264.0905"/>
<polygon fill="#c0c0c0" stroke="#c0c0c0" points="309.9345,-263.9093 305.0189,-266.3382 307.4361,-263.9995 304.9377,-264.0897 304.9377,-264.0897 304.9377,-264.0897 307.4361,-263.9995 304.8566,-261.8412 309.9345,-263.9093 309.9345,-263.9093"/>
</g>
<!-- safe&#45;app&#45;csharp&#45;&gt;safe&#45;app&#45;csharp -->
<g id="edge12" class="edge">
<title>safe&#45;app&#45;csharp:K_SafeApp&#45;&gt;safe&#45;app&#45;csharp:K_SafeApp.Core</title>
<path fill="none" stroke="#c0c0c0" d="M309.9345,-296.0092C276.6582,-293.7983 249,-286.2031 249,-270 249,-254.6197 273.9205,-246.9952 304.9114,-244.3697"/>
<polygon fill="#c0c0c0" stroke="#c0c0c0" points="309.9345,-243.9908 305.1179,-246.6106 307.4416,-244.1789 304.9486,-244.367 304.9486,-244.367 304.9486,-244.367 307.4416,-244.1789 304.7794,-242.1233 309.9345,-243.9908 309.9345,-243.9908"/>
</g>
<!-- safe&#45;api -->
<g id="node12" class="node">
<title>safe&#45;api</title>
<polygon fill="none" stroke="#000000" points="599,-217.5 599,-343.5 716,-343.5 716,-217.5 599,-217.5"/>
<text text-anchor="middle" x="657.5" y="-329.9" font-family="verdana" font-size="12.00" fill="#000000">safe&#45;api</text>
<polyline fill="none" stroke="#000000" points="599,-322.5 716,-322.5 "/>
<text text-anchor="middle" x="657.5" y="-308.9" font-family="verdana" font-size="12.00" fill="#000000">safe&#45;cli</text>
<polyline fill="none" stroke="#000000" points="599,-301.5 716,-301.5 "/>
<text text-anchor="middle" x="657.5" y="-287.9" font-family="verdana" font-size="12.00" fill="#000000">safe&#45;api</text>
<polyline fill="none" stroke="#000000" points="599,-280.5 716,-280.5 "/>
<text text-anchor="middle" x="657.5" y="-266.9" font-family="verdana" font-size="12.00" fill="#000000">safe&#45;ffi</text>
<polyline fill="none" stroke="#000000" points="599,-259.5 716,-259.5 "/>
<text text-anchor="middle" x="657.5" y="-245.9" font-family="verdana" font-size="12.00" fill="#000000">safe&#45;authd</text>
<polyline fill="none" stroke="#000000" points="599,-238.5 716,-238.5 "/>
<text text-anchor="middle" x="657.5" y="-224.9" font-family="verdana" font-size="12.00" fill="#000000">jsonrpc&#45;quic</text>
</g>
<!-- safe&#45;app&#45;csharp&#45;&gt;safe&#45;api -->
<g id="edge2" class="edge">
<title>safe&#45;app&#45;csharp:K_SafeApp.AppBindings&#45;&gt;safe&#45;api:K_safe&#45;ffi</title>
<path fill="none" stroke="#006400" d="M482,-269.5C532.0586,-269.5 545.8198,-269.5 593.468,-269.5"/>
<polygon fill="#006400" stroke="#006400" points="598.5,-269.5 593.5,-271.7501 596,-269.5 593.5,-269.5001 593.5,-269.5001 593.5,-269.5001 596,-269.5 593.5,-267.2501 598.5,-269.5 598.5,-269.5"/>
</g>
<!-- safe&#45;authenticator&#45;mobile -->
<g id="node11" class="node">
<title>safe&#45;authenticator&#45;mobile</title>
<polygon fill="none" stroke="#000000" points="0,-404.5 0,-440.5 200,-440.5 200,-404.5 0,-404.5"/>
<text text-anchor="middle" x="100" y="-419.4" font-family="verdana" font-size="12.00" fill="#000000">safe&#45;authenticator&#45;mobile</text>
</g>
<!-- safe&#45;api&#45;&gt;safe&#45;nd -->
<g id="edge17" class="edge">
<title>safe&#45;api:K_safe&#45;ffi&#45;&gt;safe&#45;nd:K_safe&#45;nd</title>
<path fill="none" stroke="#006400" d="M716.5,-269.5C761.9757,-269.5 813.2026,-261.9093 850.0348,-255.0932"/>
<polygon fill="#006400" stroke="#006400" points="855.3622,-254.0942 850.8626,-257.2273 852.9051,-254.555 850.4479,-255.0158 850.4479,-255.0158 850.4479,-255.0158 852.9051,-254.555 850.0332,-252.8043 855.3622,-254.0942 855.3622,-254.0942"/>
</g>
<!-- safe&#45;api&#45;&gt;safe&#45;nd -->
<g id="edge20" class="edge">
<title>safe&#45;api:K_safe&#45;api&#45;&gt;safe&#45;nd:K_safe&#45;nd</title>
<path fill="none" stroke="#006400" d="M716.5,-291.5C752.7413,-291.5 761.7867,-287.0707 797,-278.5 814.5701,-274.2235 833.4527,-268.3989 850.2167,-262.7791"/>
<polygon fill="#006400" stroke="#006400" points="855.3476,-261.0435 851.3322,-264.7771 852.9794,-261.8446 850.6112,-262.6457 850.6112,-262.6457 850.6112,-262.6457 852.9794,-261.8446 849.8902,-260.5144 855.3476,-261.0435 855.3476,-261.0435"/>
</g>
<!-- safe&#45;api&#45;&gt;safe&#45;api -->
<g id="edge9" class="edge">
<title>safe&#45;api:K_safe&#45;authd&#45;&gt;safe&#45;api:K_jsonrpc&#45;quic</title>
<path fill="none" stroke="#c0c0c0" d="M598.9191,-254.2835C571.7437,-253.8997 548,-249.1211 548,-238 548,-227.574 568.8685,-222.7224 593.8689,-221.8404"/>
<polygon fill="#c0c0c0" stroke="#c0c0c0" points="598.9191,-221.7165 593.9759,-224.0886 596.4199,-221.7779 593.9206,-221.8393 593.9206,-221.8393 593.9206,-221.8393 596.4199,-221.7779 593.8654,-219.5899 598.9191,-221.7165 598.9191,-221.7165"/>
</g>
<!-- safe&#45;api&#45;&gt;safe&#45;api -->
<g id="edge10" class="edge">
<title>safe&#45;api:K_safe&#45;authd&#45;&gt;safe&#45;api:K_safe&#45;api</title>
<path fill="none" stroke="#c0c0c0" d="M598.9191,-243.5892C571.7437,-245.1313 548,-252.6055 548,-270 548,-286.3074 568.8685,-293.8957 593.8689,-296.0512"/>
<polygon fill="#c0c0c0" stroke="#c0c0c0" points="598.9191,-296.4108 593.7719,-298.2999 596.4255,-296.2332 593.9318,-296.0556 593.9318,-296.0556 593.9318,-296.0556 596.4255,-296.2332 594.0916,-293.8113 598.9191,-296.4108 598.9191,-296.4108"/>
</g>
<!-- safe&#45;api&#45;&gt;safe&#45;api -->
<g id="edge16" class="edge">
<title>safe&#45;api:K_safe&#45;ffi&#45;&gt;safe&#45;api:K_safe&#45;api</title>
<path fill="none" stroke="#c0c0c0" d="M598.9191,-263.7562C571.7437,-264.1926 548,-269.0938 548,-280.5 548,-291.1934 568.8685,-296.1693 593.8689,-297.1092"/>
<polygon fill="#c0c0c0" stroke="#c0c0c0" points="598.9191,-297.2438 593.8609,-299.3597 596.42,-297.1772 593.9209,-297.1105 593.9209,-297.1105 593.9209,-297.1105 596.42,-297.1772 593.9809,-294.8613 598.9191,-297.2438 598.9191,-297.2438"/>
</g>
<!-- safe&#45;api&#45;&gt;safe&#45;api -->
<g id="edge18" class="edge">
<title>safe&#45;api:K_safe&#45;cli&#45;&gt;safe&#45;api:K_safe&#45;api</title>
<path fill="none" stroke="#c0c0c0" d="M598.9191,-318.2835C571.7437,-317.8997 548,-313.1211 548,-302 548,-291.574 568.8685,-286.7224 593.8689,-285.8404"/>
<polygon fill="#c0c0c0" stroke="#c0c0c0" points="598.9191,-285.7165 593.9759,-288.0886 596.4199,-285.7779 593.9206,-285.8393 593.9206,-285.8393 593.9206,-285.8393 596.4199,-285.7779 593.8654,-283.5899 598.9191,-285.7165 598.9191,-285.7165"/>
</g>
<!-- safe&#45;api&#45;&gt;safe&#45;api -->
<g id="edge19" class="edge">
<title>safe&#45;api:K_safe&#45;api&#45;&gt;safe&#45;api:K_jsonrpc&#45;quic</title>
<path fill="none" stroke="#c0c0c0" d="M598.9191,-295.5778C571.7437,-292.9301 548,-282.8828 548,-259.5 548,-237.5786 568.8685,-227.3779 593.8689,-224.0068"/>
<polygon fill="#c0c0c0" stroke="#c0c0c0" points="598.9191,-223.4222 594.2111,-226.2323 596.4357,-223.7097 593.9523,-223.9972 593.9523,-223.9972 593.9523,-223.9972 596.4357,-223.7097 593.6935,-221.7621 598.9191,-223.4222 598.9191,-223.4222"/>
</g>
<!-- safe&#45;browser -->
<g id="node13" class="node">
<title>safe&#45;browser</title>
<polygon fill="none" stroke="#000000" points="38.5,-349.5 38.5,-385.5 161.5,-385.5 161.5,-349.5 38.5,-349.5"/>
<text text-anchor="middle" x="100" y="-364.4" font-family="verdana" font-size="12.00" fill="#000000">safe&#45;browser</text>
</g>
<!-- safe&#45;browser&#45;&gt;safe&#45;nodejs -->
<g id="edge21" class="edge">
<title>safe&#45;browser:K_safe&#45;browser&#45;&gt;safe&#45;nodejs:K_safe&#45;nodejs</title>
<path fill="none" stroke="#006400" d="M161.691,-367.5C212.1433,-367.5 283.1646,-367.5 333.7642,-367.5"/>
<polygon fill="#006400" stroke="#006400" points="338.9036,-367.5 333.9036,-369.7501 336.4036,-367.5 333.9036,-367.5001 333.9036,-367.5001 333.9036,-367.5001 336.4036,-367.5 333.9035,-365.2501 338.9036,-367.5 338.9036,-367.5"/>
</g>
</g>
</svg>
