<?xml version="1.0" encoding="UTF-8" standalone="no"?>
<?xml-stylesheet href="./db.css" type="text/css"?>
<!DOCTYPE svg PUBLIC "-//W3C//DTD SVG 1.1//EN"
 "http://www.w3.org/Graphics/SVG/1.1/DTD/svg11.dtd">
<!-- Generated by graphviz version 2.40.1 (20161225.0304)
 -->
<!-- Title: g Pages: 1 -->
<svg width="1153pt" height="293pt"
 viewBox="0.00 0.00 1153.00 293.00" xmlns="http://www.w3.org/2000/svg" xmlns:xlink="http://www.w3.org/1999/xlink">
<g id="graph0" class="graph" transform="scale(1 1) rotate(0) translate(4 289)">
<title>g</title>
<polygon fill="#ffffff" stroke="transparent" points="-4,4 -4,-289 1149,-289 1149,4 -4,4"/>
<!-- sn_browser -->
<g id="node1" class="node">
<title>sn_browser</title>
<polygon fill="none" stroke="#000000" points="39.5,-248.5 39.5,-284.5 152.5,-284.5 152.5,-248.5 39.5,-248.5"/>
<text text-anchor="middle" x="96" y="-263.4" font-family="verdana" font-size="12.00" fill="#000000">sn_browser</text>
</g>
<!-- sn_nodejs -->
<g id="node6" class="node">
<title>sn_nodejs</title>
<polygon fill="none" stroke="#000000" points="336.5,-234.5 336.5,-276.5 439.5,-276.5 439.5,-234.5 336.5,-234.5"/>
<text text-anchor="middle" x="388" y="-262.9" font-family="verdana" font-size="12.00" fill="#000000">sn_nodejs</text>
<polyline fill="none" stroke="#000000" points="336.5,-255.5 439.5,-255.5 "/>
<text text-anchor="middle" x="388" y="-241.9" font-family="verdana" font-size="12.00" fill="#000000">native</text>
</g>
<!-- sn_browser&#45;&gt;sn_nodejs -->
<g id="edge6" class="edge">
<title>sn_browser:K_sn_browser&#45;&gt;sn_nodejs:K_sn_nodejs</title>
<path fill="none" stroke="#006400" d="M152.7352,-266.5C200.0371,-266.5 269.3757,-266.5 330.8359,-266.5"/>
<polygon fill="#006400" stroke="#006400" points="336,-266.5 331,-268.7501 333.5,-266.5 331,-266.5001 331,-266.5001 331,-266.5001 333.5,-266.5 331,-264.2501 336,-266.5 336,-266.5"/>
</g>
<!-- bls_dkg -->
<g id="node2" class="node">
<title>bls_dkg</title>
<polygon fill="none" stroke="#000000" points="1033,-.5 1033,-36.5 1122,-36.5 1122,-.5 1033,-.5"/>
<text text-anchor="middle" x="1077.5" y="-15.4" font-family="verdana" font-size="12.00" fill="#000000">bls_dkg</text>
</g>
<!-- sn_routing -->
<g id="node3" class="node">
<title>sn_routing</title>
<polygon fill="none" stroke="#000000" points="793,-29.5 793,-65.5 900,-65.5 900,-29.5 793,-29.5"/>
<text text-anchor="middle" x="846.5" y="-44.4" font-family="verdana" font-size="12.00" fill="#000000">sn_routing</text>
</g>
<!-- sn_routing&#45;&gt;bls_dkg -->
<g id="edge13" class="edge">
<title>sn_routing:K_sn_routing&#45;&gt;bls_dkg:K_bls_dkg</title>
<path fill="none" stroke="#006400" d="M900.0767,-40.7739C938.5979,-35.9379 990.1663,-29.464 1027.7765,-24.7423"/>
<polygon fill="#006400" stroke="#006400" points="1032.7555,-24.1173 1028.0748,-26.9727 1030.275,-24.4287 1027.7944,-24.7402 1027.7944,-24.7402 1027.7944,-24.7402 1030.275,-24.4287 1027.5141,-22.5077 1032.7555,-24.1173 1032.7555,-24.1173"/>
</g>
<!-- qp2p -->
<g id="node4" class="node">
<title>qp2p</title>
<polygon fill="none" stroke="#000000" points="1040,-66.5 1040,-102.5 1115,-102.5 1115,-66.5 1040,-66.5"/>
<text text-anchor="middle" x="1077.5" y="-81.4" font-family="verdana" font-size="12.00" fill="#000000">qp2p</text>
</g>
<!-- sn_routing&#45;&gt;qp2p -->
<g id="edge14" class="edge">
<title>sn_routing:K_sn_routing&#45;&gt;qp2p:K_qp2p</title>
<path fill="none" stroke="#006400" d="M900.0767,-56.0815C941.0214,-62.6398 996.7067,-71.5591 1034.7026,-77.645"/>
<polygon fill="#006400" stroke="#006400" points="1039.7106,-78.4471 1034.4176,-79.878 1037.242,-78.0517 1034.7735,-77.6563 1034.7735,-77.6563 1034.7735,-77.6563 1037.242,-78.0517 1035.1294,-75.4346 1039.7106,-78.4471 1039.7106,-78.4471"/>
</g>
<!-- sn_client -->
<g id="node5" class="node">
<title>sn_client</title>
<polygon fill="none" stroke="#000000" points="798.5,-178.5 798.5,-214.5 894.5,-214.5 894.5,-178.5 798.5,-178.5"/>
<text text-anchor="middle" x="846.5" y="-193.4" font-family="verdana" font-size="12.00" fill="#000000">sn_client</text>
</g>
<!-- sn_client&#45;&gt;qp2p -->
<g id="edge15" class="edge">
<title>sn_client:K_sn_client&#45;&gt;qp2p:K_qp2p</title>
<path fill="none" stroke="#006400" d="M894.8117,-178.356C947.8243,-153.8562 957.5708,-140.6139 1010,-114.5 1018.0389,-110.496 1026.7309,-106.4376 1035.1171,-102.6543"/>
<polygon fill="#006400" stroke="#006400" points="1039.7385,-100.5828 1036.0962,-104.6811 1037.4572,-101.6054 1035.1759,-102.628 1035.1759,-102.628 1035.1759,-102.628 1037.4572,-101.6054 1034.2556,-100.5748 1039.7385,-100.5828 1039.7385,-100.5828"/>
</g>
<!-- sn_data_types -->
<g id="node7" class="node">
<title>sn_data_types</title>
<polygon fill="none" stroke="#000000" points="1013,-123.5 1013,-159.5 1142,-159.5 1142,-123.5 1013,-123.5"/>
<text text-anchor="middle" x="1077.5" y="-138.4" font-family="verdana" font-size="12.00" fill="#000000">sn_data_types</text>
</g>
<!-- sn_client&#45;&gt;sn_data_types -->
<g id="edge17" class="edge">
<title>sn_client:K_sn_client&#45;&gt;sn_data_types:K_sn_data_types</title>
<path fill="none" stroke="#006400" d="M894.644,-185.0371C927.4189,-177.2336 971.3165,-166.7818 1007.8857,-158.0748"/>
<polygon fill="#006400" stroke="#006400" points="1012.7654,-156.913 1008.4225,-160.26 1010.3334,-157.4921 1007.9014,-158.0712 1007.9014,-158.0712 1007.9014,-158.0712 1010.3334,-157.4921 1007.3802,-155.8824 1012.7654,-156.913 1012.7654,-156.913"/>
</g>
<!-- self_encryption -->
<g id="node14" class="node">
<title>self_encryption</title>
<polygon fill="none" stroke="#000000" points="1010,-190.5 1010,-226.5 1145,-226.5 1145,-190.5 1010,-190.5"/>
<text text-anchor="middle" x="1077.5" y="-205.4" font-family="verdana" font-size="12.00" fill="#000000">self_encryption</text>
</g>
<!-- sn_client&#45;&gt;self_encryption -->
<g id="edge16" class="edge">
<title>sn_client:K_sn_client&#45;&gt;self_encryption:K_self_encryption</title>
<path fill="none" stroke="#006400" d="M894.644,-199.001C926.4029,-200.6508 968.6057,-202.8432 1004.4644,-204.7059"/>
<polygon fill="#006400" stroke="#006400" points="1009.707,-204.9783 1004.597,-206.9658 1007.2104,-204.8485 1004.7137,-204.7188 1004.7137,-204.7188 1004.7137,-204.7188 1007.2104,-204.8485 1004.8305,-202.4718 1009.707,-204.9783 1009.707,-204.9783"/>
</g>
<!-- sn_api -->
<g id="node13" class="node">
<title>sn_api</title>
<polygon fill="none" stroke="#000000" points="584,-127.5 584,-253.5 683,-253.5 683,-127.5 584,-127.5"/>
<text text-anchor="middle" x="633.5" y="-239.9" font-family="verdana" font-size="12.00" fill="#000000">sn_api</text>
<polyline fill="none" stroke="#000000" points="584,-232.5 683,-232.5 "/>
<text text-anchor="middle" x="633.5" y="-218.9" font-family="verdana" font-size="12.00" fill="#000000">sn_cli</text>
<polyline fill="none" stroke="#000000" points="584,-211.5 683,-211.5 "/>
<text text-anchor="middle" x="633.5" y="-197.9" font-family="verdana" font-size="12.00" fill="#000000">sn_api</text>
<polyline fill="none" stroke="#000000" points="584,-190.5 683,-190.5 "/>
<text text-anchor="middle" x="633.5" y="-176.9" font-family="verdana" font-size="12.00" fill="#000000">sn_ffi</text>
<polyline fill="none" stroke="#000000" points="584,-169.5 683,-169.5 "/>
<text text-anchor="middle" x="633.5" y="-155.9" font-family="verdana" font-size="12.00" fill="#000000">sn_authd</text>
<polyline fill="none" stroke="#000000" points="584,-148.5 683,-148.5 "/>
<text text-anchor="middle" x="633.5" y="-134.9" font-family="verdana" font-size="12.00" fill="#000000">qjsonrpc</text>
</g>
<!-- sn_nodejs&#45;&gt;sn_api -->
<g id="edge20" class="edge">
<title>sn_nodejs:K_native&#45;&gt;sn_api:K_sn_api</title>
<path fill="none" stroke="#006400" d="M440,-244.5C504.9661,-244.5 516.5958,-203.8194 578.6451,-201.5947"/>
<polygon fill="#006400" stroke="#006400" points="584,-201.5 579.0406,-203.8381 581.5004,-201.5442 579.0008,-201.5885 579.0008,-201.5885 579.0008,-201.5885 581.5004,-201.5442 578.961,-199.3388 584,-201.5 584,-201.5"/>
</g>
<!-- sn_mobile_browser -->
<g id="node8" class="node">
<title>sn_mobile_browser</title>
<polygon fill="none" stroke="#000000" points="16.5,-190.5 16.5,-226.5 175.5,-226.5 175.5,-190.5 16.5,-190.5"/>
<text text-anchor="middle" x="96" y="-205.4" font-family="verdana" font-size="12.00" fill="#000000">sn_mobile_browser</text>
</g>
<!-- sn_csharp -->
<g id="node9" class="node">
<title>sn_csharp</title>
<polygon fill="none" stroke="#000000" points="302,-110 302,-215 474,-215 474,-110 302,-110"/>
<text text-anchor="middle" x="388" y="-201.4" font-family="verdana" font-size="12.00" fill="#000000">sn_csharp</text>
<polyline fill="none" stroke="#000000" points="302,-194 474,-194 "/>
<text text-anchor="middle" x="388" y="-180.4" font-family="verdana" font-size="12.00" fill="#000000">SafeApp</text>
<polyline fill="none" stroke="#000000" points="302,-173 474,-173 "/>
<text text-anchor="middle" x="388" y="-159.4" font-family="verdana" font-size="12.00" fill="#000000">SafeApp.AppBindings</text>
<polyline fill="none" stroke="#000000" points="302,-152 474,-152 "/>
<text text-anchor="middle" x="388" y="-138.4" font-family="verdana" font-size="12.00" fill="#000000">SafeAuthenticator</text>
<polyline fill="none" stroke="#000000" points="302,-131 474,-131 "/>
<text text-anchor="middle" x="388" y="-117.4" font-family="verdana" font-size="12.00" fill="#000000">SafeApp.Core</text>
</g>
<!-- sn_mobile_browser&#45;&gt;sn_csharp -->
<g id="edge19" class="edge">
<title>sn_mobile_browser:K_sn_mobile_browser&#45;&gt;sn_csharp:K_sn_csharp</title>
<path fill="none" stroke="#006400" d="M175.7206,-206.2312C212.2799,-205.3672 256.3544,-204.5713 296.6029,-204.5045"/>
<polygon fill="#006400" stroke="#006400" points="302,-204.5 297.0019,-206.7543 299.5,-204.5021 297,-204.5043 297,-204.5043 297,-204.5043 299.5,-204.5021 296.9981,-202.2543 302,-204.5 302,-204.5"/>
</g>
<!-- sn_csharp&#45;&gt;sn_csharp -->
<g id="edge1" class="edge">
<title>sn_csharp:K_SafeApp.AppBindings&#45;&gt;sn_csharp:K_SafeApp.Core</title>
<path fill="none" stroke="#c0c0c0" d="M301.9345,-167.0607C268.6582,-164.9082 241,-157.4375 241,-141.5 241,-126.3718 265.9205,-118.8724 296.9114,-116.3088"/>
<polygon fill="#c0c0c0" stroke="#c0c0c0" points="301.9345,-115.9393 297.113,-118.5501 299.4412,-116.1227 296.9479,-116.3062 296.9479,-116.3062 296.9479,-116.3062 299.4412,-116.1227 296.7829,-114.0622 301.9345,-115.9393 301.9345,-115.9393"/>
</g>
<!-- sn_csharp&#45;&gt;sn_csharp -->
<g id="edge9" class="edge">
<title>sn_csharp:K_SafeAuthenticator&#45;&gt;sn_csharp:K_SafeApp.Core</title>
<path fill="none" stroke="#c0c0c0" d="M301.9345,-147.1422C268.6582,-146.2153 241,-141.3594 241,-131 241,-121.1667 265.9205,-116.292 296.9114,-115.0296"/>
<polygon fill="#c0c0c0" stroke="#c0c0c0" points="301.9345,-114.8578 297.0144,-117.2775 299.4359,-114.9433 296.9374,-115.0288 296.9374,-115.0288 296.9374,-115.0288 299.4359,-114.9433 296.8604,-112.7802 301.9345,-114.8578 301.9345,-114.8578"/>
</g>
<!-- sn_csharp&#45;&gt;sn_csharp -->
<g id="edge11" class="edge">
<title>sn_csharp:K_SafeApp&#45;&gt;sn_csharp:K_SafeApp.AppBindings</title>
<path fill="none" stroke="#c0c0c0" d="M301.9345,-189.1422C268.6582,-188.2153 241,-183.3594 241,-173 241,-163.1667 265.9205,-158.292 296.9114,-157.0296"/>
<polygon fill="#c0c0c0" stroke="#c0c0c0" points="301.9345,-156.8578 297.0144,-159.2775 299.4359,-156.9433 296.9374,-157.0288 296.9374,-157.0288 296.9374,-157.0288 299.4359,-156.9433 296.8604,-154.7802 301.9345,-156.8578 301.9345,-156.8578"/>
</g>
<!-- sn_csharp&#45;&gt;sn_csharp -->
<g id="edge12" class="edge">
<title>sn_csharp:K_SafeApp&#45;&gt;sn_csharp:K_SafeApp.Core</title>
<path fill="none" stroke="#c0c0c0" d="M301.9345,-186.9792C268.6582,-183.6011 241,-173.5156 241,-152 241,-131.577 265.9205,-121.4527 296.9114,-117.5879"/>
<polygon fill="#c0c0c0" stroke="#c0c0c0" points="301.9345,-117.0208 297.2185,-119.8176 299.4503,-117.3013 296.966,-117.5818 296.966,-117.5818 296.966,-117.5818 299.4503,-117.3013 296.7136,-115.346 301.9345,-117.0208 301.9345,-117.0208"/>
</g>
<!-- sn_csharp&#45;&gt;sn_api -->
<g id="edge2" class="edge">
<title>sn_csharp:K_SafeApp.AppBindings&#45;&gt;sn_api:K_sn_ffi</title>
<path fill="none" stroke="#006400" d="M474,-162.5C521.7301,-162.5 533.7055,-178.3257 578.9216,-179.4384"/>
<polygon fill="#006400" stroke="#006400" points="584,-179.5 578.9731,-181.6891 581.5002,-179.4697 579.0004,-179.4393 579.0004,-179.4393 579.0004,-179.4393 581.5002,-179.4697 579.0277,-177.1895 584,-179.5 584,-179.5"/>
</g>
<!-- sn_csharp&#45;&gt;sn_api -->
<g id="edge10" class="edge">
<title>sn_csharp:K_SafeAuthenticator&#45;&gt;sn_api:K_sn_ffi</title>
<path fill="none" stroke="#006400" d="M474,-141.5C498.2456,-141.5 550.9802,-174.8984 578.7869,-179.0732"/>
<polygon fill="#006400" stroke="#006400" points="584,-179.5 578.8331,-181.3345 581.5083,-179.296 579.0167,-179.092 579.0167,-179.092 579.0167,-179.092 581.5083,-179.296 579.2003,-176.8495 584,-179.5 584,-179.5"/>
</g>
<!-- sn_ffi_utils -->
<g id="node10" class="node">
<title>sn_ffi_utils</title>
<polygon fill="none" stroke="#000000" points="794,-123.5 794,-159.5 899,-159.5 899,-123.5 794,-123.5"/>
<text text-anchor="middle" x="846.5" y="-138.4" font-family="verdana" font-size="12.00" fill="#000000">sn_ffi_utils</text>
</g>
<!-- sn_authenticator_mobile -->
<g id="node11" class="node">
<title>sn_authenticator_mobile</title>
<polygon fill="none" stroke="#000000" points="0,-135.5 0,-171.5 192,-171.5 192,-135.5 0,-135.5"/>
<text text-anchor="middle" x="96" y="-150.4" font-family="verdana" font-size="12.00" fill="#000000">sn_authenticator_mobile</text>
</g>
<!-- sn_authenticator_mobile&#45;&gt;sn_csharp -->
<g id="edge21" class="edge">
<title>sn_authenticator_mobile:K_sn_authenticator_mobile&#45;&gt;sn_csharp:K_sn_csharp</title>
<path fill="none" stroke="#006400" d="M192.3567,-171.5924C200.2523,-173.7217 276.0726,-198.1609 297.0007,-203.4815"/>
<polygon fill="#006400" stroke="#006400" points="302,-204.5 296.6514,-205.7065 299.5503,-204.0009 297.1006,-203.5018 297.1006,-203.5018 297.1006,-203.5018 299.5503,-204.0009 297.5498,-201.2971 302,-204.5 302,-204.5"/>
</g>
<!-- sn_node -->
<g id="node12" class="node">
<title>sn_node</title>
<polygon fill="none" stroke="#000000" points="586.5,-53.5 586.5,-89.5 680.5,-89.5 680.5,-53.5 586.5,-53.5"/>
<text text-anchor="middle" x="633.5" y="-68.4" font-family="verdana" font-size="12.00" fill="#000000">sn_node</text>
</g>
<!-- sn_node&#45;&gt;sn_routing -->
<g id="edge25" class="edge">
<title>sn_node:K_sn_node&#45;&gt;sn_routing:K_sn_routing</title>
<path fill="none" stroke="#006400" d="M680.5074,-66.2034C712.0223,-62.6524 753.7704,-57.9484 787.5139,-54.1463"/>
<polygon fill="#006400" stroke="#006400" points="792.858,-53.5442 788.1414,-56.3399 790.3737,-53.8241 787.8895,-54.1041 787.8895,-54.1041 787.8895,-54.1041 790.3737,-53.8241 787.6375,-51.8682 792.858,-53.5442 792.858,-53.5442"/>
</g>
<!-- sn_node&#45;&gt;sn_data_types -->
<g id="edge24" class="edge">
<title>sn_node:K_sn_node&#45;&gt;sn_data_types:K_sn_data_types</title>
<path fill="none" stroke="#006400" d="M680.7202,-84.5456C703.4445,-89.7368 731.1912,-94.5 756.5,-94.5 756.5,-94.5 756.5,-94.5 846.5,-94.5 877.2883,-94.5 951.6798,-110.7351 1007.7855,-124.1215"/>
<polygon fill="#006400" stroke="#006400" points="1012.8139,-125.3253 1007.4274,-126.3493 1010.3826,-124.7432 1007.9513,-124.1611 1007.9513,-124.1611 1007.9513,-124.1611 1010.3826,-124.7432 1008.4751,-121.9729 1012.8139,-125.3253 1012.8139,-125.3253"/>
</g>
<!-- sn_api&#45;&gt;sn_client -->
<g id="edge4" class="edge">
<title>sn_api:K_sn_ffi&#45;&gt;sn_client:K_sn_client</title>
<path fill="none" stroke="#006400" d="M683,-179.5C719.9768,-179.5 761.4065,-183.8548 793.3096,-188.1562"/>
<polygon fill="#006400" stroke="#006400" points="798.3459,-188.8454 793.0869,-190.3966 795.869,-188.5064 793.3921,-188.1674 793.3921,-188.1674 793.3921,-188.1674 795.869,-188.5064 793.6972,-185.9382 798.3459,-188.8454 798.3459,-188.8454"/>
</g>
<!-- sn_api&#45;&gt;sn_client -->
<g id="edge23" class="edge">
<title>sn_api:K_sn_api&#45;&gt;sn_client:K_sn_client</title>
<path fill="none" stroke="#006400" d="M683,-201.5C719.7957,-201.5 761.2277,-200.2192 793.1771,-198.9541"/>
<polygon fill="#006400" stroke="#006400" points="798.2212,-198.7513 793.3156,-201.2004 795.7232,-198.8518 793.2252,-198.9522 793.2252,-198.9522 793.2252,-198.9522 795.7232,-198.8518 793.1348,-196.704 798.2212,-198.7513 798.2212,-198.7513"/>
</g>
<!-- sn_api&#45;&gt;sn_ffi_utils -->
<g id="edge5" class="edge">
<title>sn_api:K_sn_ffi&#45;&gt;sn_ffi_utils:K_sn_ffi_utils</title>
<path fill="none" stroke="#006400" d="M683,-179.5C703.3595,-179.5 750.2018,-168.1796 788.5527,-157.8963"/>
<polygon fill="#006400" stroke="#006400" points="793.6638,-156.5186 789.4217,-159.9924 791.25,-157.1693 788.8361,-157.82 788.8361,-157.82 788.8361,-157.82 791.25,-157.1693 788.2505,-155.6475 793.6638,-156.5186 793.6638,-156.5186"/>
</g>
<!-- sn_api&#45;&gt;sn_api -->
<g id="edge3" class="edge">
<title>sn_api:K_sn_ffi&#45;&gt;sn_api:K_sn_api</title>
<path fill="none" stroke="#c0c0c0" d="M583.5426,-173.7658C560.7837,-174.2601 541,-179.1719 541,-190.5 541,-200.9874 557.956,-205.9755 578.5312,-207.0504"/>
<polygon fill="#c0c0c0" stroke="#c0c0c0" points="583.5426,-207.2342 578.4634,-209.2993 581.0443,-207.1425 578.546,-207.0508 578.546,-207.0508 578.546,-207.0508 581.0443,-207.1425 578.6285,-204.8023 583.5426,-207.2342 583.5426,-207.2342"/>
</g>
<!-- sn_api&#45;&gt;sn_api -->
<g id="edge7" class="edge">
<title>sn_api:K_sn_authd&#45;&gt;sn_api:K_qjsonrpc</title>
<path fill="none" stroke="#c0c0c0" d="M583.5426,-164.275C560.7837,-163.8339 541,-159.0449 541,-148 541,-137.7748 557.956,-132.9114 578.5312,-131.8958"/>
<polygon fill="#c0c0c0" stroke="#c0c0c0" points="583.5426,-131.725 578.6222,-134.1441 581.044,-131.8102 578.5455,-131.8954 578.5455,-131.8954 578.5455,-131.8954 581.044,-131.8102 578.4688,-129.6467 583.5426,-131.725 583.5426,-131.725"/>
</g>
<!-- sn_api&#45;&gt;sn_api -->
<g id="edge8" class="edge">
<title>sn_api:K_sn_authd&#45;&gt;sn_api:K_sn_api</title>
<path fill="none" stroke="#c0c0c0" d="M583.5426,-153.6217C560.7837,-155.2341 541,-162.7246 541,-180 541,-195.9932 557.956,-203.6001 578.5312,-205.9206"/>
<polygon fill="#c0c0c0" stroke="#c0c0c0" points="583.5426,-206.3783 578.3586,-208.1641 581.053,-206.1509 578.5633,-205.9234 578.5633,-205.9234 578.5633,-205.9234 581.053,-206.1509 578.768,-203.6827 583.5426,-206.3783 583.5426,-206.3783"/>
</g>
<!-- sn_api&#45;&gt;sn_api -->
<g id="edge18" class="edge">
<title>sn_api:K_sn_cli&#45;&gt;sn_api:K_sn_api</title>
<path fill="none" stroke="#c0c0c0" d="M583.5426,-228.275C560.7837,-227.8339 541,-223.0449 541,-212 541,-201.7748 557.956,-196.9114 578.5312,-195.8958"/>
<polygon fill="#c0c0c0" stroke="#c0c0c0" points="583.5426,-195.725 578.6222,-198.1441 581.044,-195.8102 578.5455,-195.8954 578.5455,-195.8954 578.5455,-195.8954 581.044,-195.8102 578.4688,-193.6467 583.5426,-195.725 583.5426,-195.725"/>
</g>
<!-- sn_api&#45;&gt;sn_api -->
<g id="edge22" class="edge">
<title>sn_api:K_sn_api&#45;&gt;sn_api:K_qjsonrpc</title>
<path fill="none" stroke="#c0c0c0" d="M583.5426,-205.5224C560.7837,-202.7919 541,-192.7227 541,-169.5 541,-148.0009 557.956,-137.7752 578.5312,-134.2092"/>
<polygon fill="#c0c0c0" stroke="#c0c0c0" points="583.5426,-133.4776 578.9201,-136.4264 581.0688,-133.8388 578.595,-134.2 578.595,-134.2 578.595,-134.2 581.0688,-133.8388 578.27,-131.9736 583.5426,-133.4776 583.5426,-133.4776"/>
</g>
</g>
</svg>
