<?xml version="1.0" encoding="UTF-8" standalone="no"?>
<?xml-stylesheet href="./db.css" type="text/css"?>
<!DOCTYPE svg PUBLIC "-//W3C//DTD SVG 1.1//EN"
 "http://www.w3.org/Graphics/SVG/1.1/DTD/svg11.dtd">
<!-- Generated by graphviz version 2.40.1 (20161225.0304)
 -->
<!-- Title: g Pages: 1 -->
<svg width="696pt" height="486pt"
 viewBox="0.00 0.00 696.00 486.00" xmlns="http://www.w3.org/2000/svg" xmlns:xlink="http://www.w3.org/1999/xlink">
<g id="graph0" class="graph" transform="scale(1 1) rotate(0) translate(4 482)">
<title>g</title>
<polygon fill="#ffffff" stroke="transparent" points="-4,4 -4,-482 692,-482 692,4 -4,4"/>
<!-- safe&#45;mobile&#45;browser -->
<g id="node1" class="node">
<title>safe&#45;mobile&#45;browser</title>
<polygon fill="none" stroke="#000000" points="16,-56.5 16,-92.5 184,-92.5 184,-56.5 16,-56.5"/>
<text text-anchor="middle" x="100" y="-71.4" font-family="verdana" font-size="12.00" fill="#000000">safe&#45;mobile&#45;browser</text>
</g>
<!-- safe&#45;app&#45;csharp -->
<g id="node9" class="node">
<title>safe&#45;app&#45;csharp</title>
<polygon fill="none" stroke="#000000" points="310,-.5 310,-84.5 482,-84.5 482,-.5 310,-.5"/>
<text text-anchor="middle" x="396" y="-70.9" font-family="verdana" font-size="12.00" fill="#000000">safe&#45;app&#45;csharp</text>
<polyline fill="none" stroke="#000000" points="310,-63.5 482,-63.5 "/>
<text text-anchor="middle" x="396" y="-49.9" font-family="verdana" font-size="12.00" fill="#000000">SafeApp</text>
<polyline fill="none" stroke="#000000" points="310,-42.5 482,-42.5 "/>
<text text-anchor="middle" x="396" y="-28.9" font-family="verdana" font-size="12.00" fill="#000000">SafeApp.AppBindings</text>
<polyline fill="none" stroke="#000000" points="310,-21.5 482,-21.5 "/>
<text text-anchor="middle" x="396" y="-7.9" font-family="verdana" font-size="12.00" fill="#000000">SafeApp.Core</text>
</g>
<!-- safe&#45;mobile&#45;browser&#45;&gt;safe&#45;app&#45;csharp -->
<g id="edge2" class="edge">
<title>safe&#45;mobile&#45;browser:K_safe&#45;mobile&#45;browser&#45;&gt;safe&#45;app&#45;csharp:K_safe&#45;app&#45;csharp</title>
<path fill="none" stroke="#006400" d="M184.0473,-74.5C220.8004,-74.5 264.583,-74.5 304.6295,-74.5"/>
<polygon fill="#006400" stroke="#006400" points="310,-74.5 305,-76.7501 307.5,-74.5 305,-74.5001 305,-74.5001 305,-74.5001 307.5,-74.5 305,-72.2501 310,-74.5 310,-74.5"/>
</g>
<!-- parsec -->
<g id="node2" class="node">
<title>parsec</title>
<polygon fill="none" stroke="#000000" points="57.5,-111.5 57.5,-147.5 142.5,-147.5 142.5,-111.5 57.5,-111.5"/>
<text text-anchor="middle" x="100" y="-126.4" font-family="verdana" font-size="12.00" fill="#000000">parsec</text>
</g>
<!-- routing -->
<g id="node3" class="node">
<title>routing</title>
<polygon fill="none" stroke="#000000" points="352.5,-166.5 352.5,-202.5 439.5,-202.5 439.5,-166.5 352.5,-166.5"/>
<text text-anchor="middle" x="396" y="-181.4" font-family="verdana" font-size="12.00" fill="#000000">routing</text>
</g>
<!-- quic&#45;p2p -->
<g id="node7" class="node">
<title>quic&#45;p2p</title>
<polygon fill="none" stroke="#000000" points="592,-166.5 592,-202.5 688,-202.5 688,-166.5 592,-166.5"/>
<text text-anchor="middle" x="640" y="-181.4" font-family="verdana" font-size="12.00" fill="#000000">quic&#45;p2p</text>
</g>
<!-- routing&#45;&gt;quic&#45;p2p -->
<g id="edge3" class="edge">
<title>routing:K_routing&#45;&gt;quic&#45;p2p:K_quic&#45;p2p</title>
<path fill="none" stroke="#006400" d="M439.6223,-184.5C480.803,-184.5 542.6451,-184.5 586.7238,-184.5"/>
<polygon fill="#006400" stroke="#006400" points="591.7388,-184.5 586.7388,-186.7501 589.2388,-184.5 586.7388,-184.5001 586.7388,-184.5001 586.7388,-184.5001 589.2388,-184.5 586.7388,-182.2501 591.7388,-184.5 591.7388,-184.5"/>
</g>
<!-- safe&#45;client&#45;libs -->
<g id="node4" class="node">
<title>safe&#45;client&#45;libs</title>
<polygon fill="none" stroke="#000000" points="34.5,-221.5 34.5,-257.5 165.5,-257.5 165.5,-221.5 34.5,-221.5"/>
<text text-anchor="middle" x="100" y="-236.4" font-family="verdana" font-size="12.00" fill="#000000">safe&#45;client&#45;libs</text>
</g>
<!-- self_encryption -->
<g id="node10" class="node">
<title>self_encryption</title>
<polygon fill="none" stroke="#000000" points="328.5,-221.5 328.5,-257.5 463.5,-257.5 463.5,-221.5 328.5,-221.5"/>
<text text-anchor="middle" x="396" y="-236.4" font-family="verdana" font-size="12.00" fill="#000000">self_encryption</text>
</g>
<!-- safe&#45;client&#45;libs&#45;&gt;self_encryption -->
<g id="edge4" class="edge">
<title>safe&#45;client&#45;libs:K_safe&#45;client&#45;libs&#45;&gt;self_encryption:K_self_encryption</title>
<path fill="none" stroke="#006400" d="M165.692,-239.5C212.3624,-239.5 275.044,-239.5 323.2312,-239.5"/>
<polygon fill="#006400" stroke="#006400" points="328.4395,-239.5 323.4395,-241.7501 325.9395,-239.5 323.4395,-239.5001 323.4395,-239.5001 323.4395,-239.5001 325.9395,-239.5 323.4394,-237.2501 328.4395,-239.5 328.4395,-239.5"/>
</g>
<!-- safe&#45;vault -->
<g id="node5" class="node">
<title>safe&#45;vault</title>
<polygon fill="none" stroke="#000000" points="48,-166.5 48,-202.5 152,-202.5 152,-166.5 48,-166.5"/>
<text text-anchor="middle" x="100" y="-181.4" font-family="verdana" font-size="12.00" fill="#000000">safe&#45;vault</text>
</g>
<!-- safe&#45;vault&#45;&gt;routing -->
<g id="edge7" class="edge">
<title>safe&#45;vault:K_safe&#45;vault&#45;&gt;routing:K_routing</title>
<path fill="none" stroke="#006400" d="M152.2375,-184.5C207.3856,-184.5 293.6218,-184.5 347.367,-184.5"/>
<polygon fill="#006400" stroke="#006400" points="352.4646,-184.5 347.4646,-186.7501 349.9646,-184.5 347.4646,-184.5001 347.4646,-184.5001 347.4646,-184.5001 349.9646,-184.5 347.4646,-182.2501 352.4646,-184.5 352.4646,-184.5"/>
</g>
<!-- safe&#45;nd -->
<g id="node6" class="node">
<title>safe&#45;nd</title>
<polygon fill="none" stroke="#000000" points="55,-276.5 55,-312.5 145,-312.5 145,-276.5 55,-276.5"/>
<text text-anchor="middle" x="100" y="-291.4" font-family="verdana" font-size="12.00" fill="#000000">safe&#45;nd</text>
</g>
<!-- safe&#45;nodejs -->
<g id="node8" class="node">
<title>safe&#45;nodejs</title>
<polygon fill="none" stroke="#000000" points="339,-331.5 339,-367.5 453,-367.5 453,-331.5 339,-331.5"/>
<text text-anchor="middle" x="396" y="-346.4" font-family="verdana" font-size="12.00" fill="#000000">safe&#45;nodejs</text>
</g>
<!-- safe&#45;app&#45;csharp&#45;&gt;safe&#45;app&#45;csharp -->
<g id="edge1" class="edge">
<title>safe&#45;app&#45;csharp:K_SafeApp.AppBindings&#45;&gt;safe&#45;app&#45;csharp:K_SafeApp.Core</title>
<path fill="none" stroke="#c0c0c0" d="M309.9345,-37.1422C276.6582,-36.2153 249,-31.3594 249,-21 249,-11.1667 273.9205,-6.292 304.9114,-5.0296"/>
<polygon fill="#c0c0c0" stroke="#c0c0c0" points="309.9345,-4.8578 305.0144,-7.2775 307.4359,-4.9433 304.9374,-5.0288 304.9374,-5.0288 304.9374,-5.0288 307.4359,-4.9433 304.8604,-2.7802 309.9345,-4.8578 309.9345,-4.8578"/>
</g>
<!-- safe&#45;app&#45;csharp&#45;&gt;safe&#45;app&#45;csharp -->
<g id="edge5" class="edge">
<title>safe&#45;app&#45;csharp:K_SafeApp&#45;&gt;safe&#45;app&#45;csharp:K_SafeApp.AppBindings</title>
<path fill="none" stroke="#c0c0c0" d="M309.9345,-59.0907C276.6582,-58.1055 249,-53.125 249,-42.5 249,-32.4146 273.9205,-27.4149 304.9114,-26.0905"/>
<polygon fill="#c0c0c0" stroke="#c0c0c0" points="309.9345,-25.9093 305.0189,-28.3382 307.4361,-25.9995 304.9377,-26.0897 304.9377,-26.0897 304.9377,-26.0897 307.4361,-25.9995 304.8566,-23.8412 309.9345,-25.9093 309.9345,-25.9093"/>
</g>
<!-- safe&#45;app&#45;csharp&#45;&gt;safe&#45;app&#45;csharp -->
<g id="edge6" class="edge">
<title>safe&#45;app&#45;csharp:K_SafeApp&#45;&gt;safe&#45;app&#45;csharp:K_SafeApp.Core</title>
<path fill="none" stroke="#c0c0c0" d="M309.9345,-58.0092C276.6582,-55.7983 249,-48.2031 249,-32 249,-16.6197 273.9205,-8.9952 304.9114,-6.3697"/>
<polygon fill="#c0c0c0" stroke="#c0c0c0" points="309.9345,-5.9908 305.1179,-8.6106 307.4416,-6.1789 304.9486,-6.367 304.9486,-6.367 304.9486,-6.367 307.4416,-6.1789 304.7794,-4.1233 309.9345,-5.9908 309.9345,-5.9908"/>
</g>
<!-- safe&#45;authenticator&#45;mobile -->
<g id="node11" class="node">
<title>safe&#45;authenticator&#45;mobile</title>
<polygon fill="none" stroke="#000000" points="0,-386.5 0,-422.5 200,-422.5 200,-386.5 0,-386.5"/>
<text text-anchor="middle" x="100" y="-401.4" font-family="verdana" font-size="12.00" fill="#000000">safe&#45;authenticator&#45;mobile</text>
</g>
<!-- safe&#45;api -->
<g id="node12" class="node">
<title>safe&#45;api</title>
<polygon fill="none" stroke="#000000" points="53.5,-441.5 53.5,-477.5 146.5,-477.5 146.5,-441.5 53.5,-441.5"/>
<text text-anchor="middle" x="100" y="-456.4" font-family="verdana" font-size="12.00" fill="#000000">safe&#45;api</text>
</g>
<!-- safe&#45;browser -->
<g id="node13" class="node">
<title>safe&#45;browser</title>
<polygon fill="none" stroke="#000000" points="38.5,-331.5 38.5,-367.5 161.5,-367.5 161.5,-331.5 38.5,-331.5"/>
<text text-anchor="middle" x="100" y="-346.4" font-family="verdana" font-size="12.00" fill="#000000">safe&#45;browser</text>
</g>
<!-- safe&#45;browser&#45;&gt;safe&#45;nodejs -->
<g id="edge8" class="edge">
<title>safe&#45;browser:K_safe&#45;browser&#45;&gt;safe&#45;nodejs:K_safe&#45;nodejs</title>
<path fill="none" stroke="#006400" d="M161.691,-349.5C212.1433,-349.5 283.1646,-349.5 333.7642,-349.5"/>
<polygon fill="#006400" stroke="#006400" points="338.9036,-349.5 333.9036,-351.7501 336.4036,-349.5 333.9036,-349.5001 333.9036,-349.5001 333.9036,-349.5001 336.4036,-349.5 333.9035,-347.2501 338.9036,-349.5 338.9036,-349.5"/>
</g>
</g>
</svg>
