<?xml version="1.0" encoding="UTF-8" standalone="no"?>
<?xml-stylesheet href="./db.css" type="text/css"?>
<!DOCTYPE svg PUBLIC "-//W3C//DTD SVG 1.1//EN"
 "http://www.w3.org/Graphics/SVG/1.1/DTD/svg11.dtd">
<!-- Generated by graphviz version 2.40.1 (20161225.0304)
 -->
<!-- Title: g Pages: 1 -->
<svg width="1229pt" height="412pt"
 viewBox="0.00 0.00 1229.00 412.35" xmlns="http://www.w3.org/2000/svg" xmlns:xlink="http://www.w3.org/1999/xlink">
<g id="graph0" class="graph" transform="scale(1 1) rotate(0) translate(4 408.3514)">
<title>g</title>
<polygon fill="#ffffff" stroke="transparent" points="-4,4 -4,-408.3514 1225,-408.3514 1225,4 -4,4"/>
<!-- safe&#45;mobile&#45;browser -->
<g id="node1" class="node">
<title>safe&#45;mobile&#45;browser</title>
<polygon fill="none" stroke="#000000" points="16,-235.5 16,-271.5 184,-271.5 184,-235.5 16,-235.5"/>
<text text-anchor="middle" x="100" y="-250.4" font-family="verdana" font-size="12.00" fill="#000000">safe&#45;mobile&#45;browser</text>
</g>
<!-- safe&#45;app&#45;csharp -->
<g id="node9" class="node">
<title>safe&#45;app&#45;csharp</title>
<polygon fill="none" stroke="#000000" points="310,-179.5 310,-263.5 482,-263.5 482,-179.5 310,-179.5"/>
<text text-anchor="middle" x="396" y="-249.9" font-family="verdana" font-size="12.00" fill="#000000">safe&#45;app&#45;csharp</text>
<polyline fill="none" stroke="#000000" points="310,-242.5 482,-242.5 "/>
<text text-anchor="middle" x="396" y="-228.9" font-family="verdana" font-size="12.00" fill="#000000">SafeApp</text>
<polyline fill="none" stroke="#000000" points="310,-221.5 482,-221.5 "/>
<text text-anchor="middle" x="396" y="-207.9" font-family="verdana" font-size="12.00" fill="#000000">SafeApp.AppBindings</text>
<polyline fill="none" stroke="#000000" points="310,-200.5 482,-200.5 "/>
<text text-anchor="middle" x="396" y="-186.9" font-family="verdana" font-size="12.00" fill="#000000">SafeApp.Core</text>
</g>
<!-- safe&#45;mobile&#45;browser&#45;&gt;safe&#45;app&#45;csharp -->
<g id="edge3" class="edge">
<title>safe&#45;mobile&#45;browser:K_safe&#45;mobile&#45;browser&#45;&gt;safe&#45;app&#45;csharp:K_safe&#45;app&#45;csharp</title>
<path fill="none" stroke="#006400" d="M184.0473,-253.5C220.8004,-253.5 264.583,-253.5 304.6295,-253.5"/>
<polygon fill="#006400" stroke="#006400" points="310,-253.5 305,-255.7501 307.5,-253.5 305,-253.5001 305,-253.5001 305,-253.5001 307.5,-253.5 305,-251.2501 310,-253.5 310,-253.5"/>
</g>
<!-- parsec -->
<g id="node2" class="node">
<title>parsec</title>
<polygon fill="none" stroke="#000000" points="1111,-.5 1111,-36.5 1196,-36.5 1196,-.5 1111,-.5"/>
<text text-anchor="middle" x="1153.5" y="-15.4" font-family="verdana" font-size="12.00" fill="#000000">parsec</text>
</g>
<!-- routing -->
<g id="node3" class="node">
<title>routing</title>
<polygon fill="none" stroke="#000000" points="854,-29.5 854,-65.5 941,-65.5 941,-29.5 854,-29.5"/>
<text text-anchor="middle" x="897.5" y="-44.4" font-family="verdana" font-size="12.00" fill="#000000">routing</text>
</g>
<!-- routing&#45;&gt;parsec -->
<g id="edge11" class="edge">
<title>routing:K_routing&#45;&gt;parsec:K_parsec</title>
<path fill="none" stroke="#006400" d="M941.2171,-42.5477C986.9619,-37.3656 1058.5602,-29.2549 1105.7563,-23.9085"/>
<polygon fill="#006400" stroke="#006400" points="1110.8157,-23.3353 1106.1008,-26.1339 1108.3316,-23.6168 1105.8475,-23.8982 1105.8475,-23.8982 1105.8475,-23.8982 1108.3316,-23.6168 1105.5942,-21.6625 1110.8157,-23.3353 1110.8157,-23.3353"/>
</g>
<!-- quic&#45;p2p -->
<g id="node7" class="node">
<title>quic&#45;p2p</title>
<polygon fill="none" stroke="#000000" points="1105.5,-129.5 1105.5,-165.5 1201.5,-165.5 1201.5,-129.5 1105.5,-129.5"/>
<text text-anchor="middle" x="1153.5" y="-144.4" font-family="verdana" font-size="12.00" fill="#000000">quic&#45;p2p</text>
</g>
<!-- routing&#45;&gt;quic&#45;p2p -->
<g id="edge12" class="edge">
<title>routing:K_routing&#45;&gt;quic&#45;p2p:K_quic&#45;p2p</title>
<path fill="none" stroke="#006400" d="M941.2038,-51.0185C972.8112,-54.9449 1015.7947,-63.2026 1050,-80.5 1077.6494,-94.4821 1077.4292,-110.5529 1100.8574,-126.5299"/>
<polygon fill="#006400" stroke="#006400" points="1105.1709,-129.3014 1099.748,-128.4915 1103.0676,-127.95 1100.9643,-126.5986 1100.9643,-126.5986 1100.9643,-126.5986 1103.0676,-127.95 1102.1806,-124.7056 1105.1709,-129.3014 1105.1709,-129.3014"/>
</g>
<!-- safe&#45;client&#45;libs -->
<g id="node4" class="node">
<title>safe&#45;client&#45;libs</title>
<polygon fill="none" stroke="#000000" points="819,-278.5 819,-362.5 976,-362.5 976,-278.5 819,-278.5"/>
<text text-anchor="middle" x="897.5" y="-348.9" font-family="verdana" font-size="12.00" fill="#000000">safe&#45;client&#45;libs</text>
<polyline fill="none" stroke="#000000" points="819,-341.5 976,-341.5 "/>
<text text-anchor="middle" x="897.5" y="-327.9" font-family="verdana" font-size="12.00" fill="#000000">safe_app</text>
<polyline fill="none" stroke="#000000" points="819,-320.5 976,-320.5 "/>
<text text-anchor="middle" x="897.5" y="-306.9" font-family="verdana" font-size="12.00" fill="#000000">safe_authenticator</text>
<polyline fill="none" stroke="#000000" points="819,-299.5 976,-299.5 "/>
<text text-anchor="middle" x="897.5" y="-285.9" font-family="verdana" font-size="12.00" fill="#000000">safe_core</text>
</g>
<!-- safe&#45;client&#45;libs&#45;&gt;safe&#45;client&#45;libs -->
<g id="edge5" class="edge">
<title>safe&#45;client&#45;libs:K_safe_app&#45;&gt;safe&#45;client&#45;libs:K_safe_authenticator</title>
<path fill="none" stroke="#c0c0c0" d="M818.8449,-337.1118C787.8708,-336.1784 762,-331.2031 762,-320.5 762,-310.3822 785.1185,-305.3829 813.8124,-304.0779"/>
<polygon fill="#c0c0c0" stroke="#c0c0c0" points="818.8449,-303.8882 813.9333,-306.3251 816.3467,-303.9824 813.8485,-304.0767 813.8485,-304.0767 813.8485,-304.0767 816.3467,-303.9824 813.7637,-301.8282 818.8449,-303.8882 818.8449,-303.8882"/>
</g>
<!-- safe&#45;client&#45;libs&#45;&gt;safe&#45;client&#45;libs -->
<g id="edge6" class="edge">
<title>safe&#45;client&#45;libs:K_safe_app&#45;&gt;safe&#45;client&#45;libs:K_safe_core</title>
<path fill="none" stroke="#c0c0c0" d="M818.8449,-336.0571C787.8708,-333.9096 762,-326.3223 762,-310 762,-294.5704 785.1185,-286.9464 813.8124,-284.3446"/>
<polygon fill="#c0c0c0" stroke="#c0c0c0" points="818.8449,-283.9429 814.0398,-286.5837 816.3529,-284.1419 813.8608,-284.3408 813.8608,-284.3408 813.8608,-284.3408 816.3529,-284.1419 813.6817,-282.0979 818.8449,-283.9429 818.8449,-283.9429"/>
</g>
<!-- safe&#45;client&#45;libs&#45;&gt;safe&#45;client&#45;libs -->
<g id="edge25" class="edge">
<title>safe&#45;client&#45;libs:K_safe_authenticator&#45;&gt;safe&#45;client&#45;libs:K_safe_core</title>
<path fill="none" stroke="#c0c0c0" d="M818.8449,-315.162C787.8708,-314.2864 762,-309.4355 762,-299 762,-289.1351 785.1185,-284.2608 813.8124,-283.0176"/>
<polygon fill="#c0c0c0" stroke="#c0c0c0" points="818.8449,-282.838 813.9284,-285.265 816.3465,-282.9272 813.8481,-283.0164 813.8481,-283.0164 813.8481,-283.0164 816.3465,-282.9272 813.7678,-280.7679 818.8449,-282.838 818.8449,-282.838"/>
</g>
<!-- safe&#45;nd -->
<g id="node6" class="node">
<title>safe&#45;nd</title>
<polygon fill="none" stroke="#000000" points="1108.5,-215.5 1108.5,-251.5 1198.5,-251.5 1198.5,-215.5 1108.5,-215.5"/>
<text text-anchor="middle" x="1153.5" y="-230.4" font-family="verdana" font-size="12.00" fill="#000000">safe&#45;nd</text>
</g>
<!-- safe&#45;client&#45;libs&#45;&gt;safe&#45;nd -->
<g id="edge4" class="edge">
<title>safe&#45;client&#45;libs:K_safe_app&#45;&gt;safe&#45;nd:K_safe&#45;nd</title>
<path fill="none" stroke="#006400" d="M976,-331.5C1009.0805,-331.5 1020.9388,-339.304 1050,-323.5 1084.5296,-304.7221 1076.2116,-278.5254 1104.1266,-254.9458"/>
<polygon fill="#006400" stroke="#006400" points="1108.1129,-251.7866 1105.5918,-256.6556 1106.1536,-253.3394 1104.1943,-254.8922 1104.1943,-254.8922 1104.1943,-254.8922 1106.1536,-253.3394 1102.7968,-253.1289 1108.1129,-251.7866 1108.1129,-251.7866"/>
</g>
<!-- safe&#45;client&#45;libs&#45;&gt;safe&#45;nd -->
<g id="edge9" class="edge">
<title>safe&#45;client&#45;libs:K_safe_core&#45;&gt;safe&#45;nd:K_safe&#45;nd</title>
<path fill="none" stroke="#006400" d="M976,-288.5C1000.8514,-288.5 1060.0767,-268.5806 1103.3026,-252.717"/>
<polygon fill="#006400" stroke="#006400" points="1108.2261,-250.9023 1104.3128,-254.7427 1105.8804,-251.7669 1103.5346,-252.6316 1103.5346,-252.6316 1103.5346,-252.6316 1105.8804,-251.7669 1102.7565,-250.5204 1108.2261,-250.9023 1108.2261,-250.9023"/>
</g>
<!-- safe&#45;client&#45;libs&#45;&gt;safe&#45;nd -->
<g id="edge24" class="edge">
<title>safe&#45;client&#45;libs:K_safe_authenticator&#45;&gt;safe&#45;nd:K_safe&#45;nd</title>
<path fill="none" stroke="#006400" d="M976,-309.5C1038.4038,-309.5 1050.0578,-281.3827 1103.5494,-253.9743"/>
<polygon fill="#006400" stroke="#006400" points="1108.162,-251.665 1104.6982,-255.9154 1105.9264,-252.7842 1103.6909,-253.9034 1103.6909,-253.9034 1103.6909,-253.9034 1105.9264,-252.7842 1102.6837,-251.8915 1108.162,-251.665 1108.162,-251.665"/>
</g>
<!-- safe&#45;client&#45;libs&#45;&gt;quic&#45;p2p -->
<g id="edge8" class="edge">
<title>safe&#45;client&#45;libs:K_safe_core&#45;&gt;quic&#45;p2p:K_quic&#45;p2p</title>
<path fill="none" stroke="#006400" d="M976,-288.5C1013.8359,-288.5 1066.6454,-195.8569 1100.6424,-168.9612"/>
<polygon fill="#006400" stroke="#006400" points="1105.1047,-165.7504 1102.3602,-170.4971 1103.0754,-167.2106 1101.0461,-168.6707 1101.0461,-168.6707 1101.0461,-168.6707 1103.0754,-167.2106 1099.732,-166.8443 1105.1047,-165.7504 1105.1047,-165.7504"/>
</g>
<!-- self_encryption -->
<g id="node10" class="node">
<title>self_encryption</title>
<polygon fill="none" stroke="#000000" points="1086,-367.5 1086,-403.5 1221,-403.5 1221,-367.5 1086,-367.5"/>
<text text-anchor="middle" x="1153.5" y="-382.4" font-family="verdana" font-size="12.00" fill="#000000">self_encryption</text>
</g>
<!-- safe&#45;client&#45;libs&#45;&gt;self_encryption -->
<g id="edge7" class="edge">
<title>safe&#45;client&#45;libs:K_safe_app&#45;&gt;self_encryption:K_self_encryption</title>
<path fill="none" stroke="#006400" d="M976,-331.5C1010.1962,-331.5 982.7039,-381.8614 1012,-399.5 1023.7963,-406.6023 1052.1817,-404.8562 1080.4581,-400.6247"/>
<polygon fill="#006400" stroke="#006400" points="1085.7327,-399.8072 1081.1363,-402.7965 1083.2621,-400.1902 1080.7916,-400.5731 1080.7916,-400.5731 1080.7916,-400.5731 1083.2621,-400.1902 1080.447,-398.3496 1085.7327,-399.8072 1085.7327,-399.8072"/>
</g>
<!-- safe&#45;client&#45;libs&#45;&gt;self_encryption -->
<g id="edge10" class="edge">
<title>safe&#45;client&#45;libs:K_safe_core&#45;&gt;self_encryption:K_self_encryption</title>
<path fill="none" stroke="#006400" d="M976,-288.5C998.3154,-288.5 994.2876,-309.9263 1012,-323.5 1040.8343,-345.5968 1049.8322,-352.0124 1080.8472,-365.3116"/>
<polygon fill="#006400" stroke="#006400" points="1085.588,-367.3264 1080.1062,-367.4414 1083.2871,-366.3485 1080.9863,-365.3706 1080.9863,-365.3706 1080.9863,-365.3706 1083.2871,-366.3485 1081.8664,-363.2999 1085.588,-367.3264 1085.588,-367.3264"/>
</g>
<!-- safe&#45;vault -->
<g id="node5" class="node">
<title>safe&#45;vault</title>
<polygon fill="none" stroke="#000000" points="598.5,-55.5 598.5,-91.5 702.5,-91.5 702.5,-55.5 598.5,-55.5"/>
<text text-anchor="middle" x="650.5" y="-70.4" font-family="verdana" font-size="12.00" fill="#000000">safe&#45;vault</text>
</g>
<!-- safe&#45;vault&#45;&gt;routing -->
<g id="edge17" class="edge">
<title>safe&#45;vault:K_safe&#45;vault&#45;&gt;routing:K_routing</title>
<path fill="none" stroke="#006400" d="M702.5805,-68.0178C745.6952,-63.4795 806.5033,-57.0786 848.6898,-52.6379"/>
<polygon fill="#006400" stroke="#006400" points="853.7397,-52.1063 849.0028,-54.8675 851.2535,-52.3681 848.7672,-52.6299 848.7672,-52.6299 848.7672,-52.6299 851.2535,-52.3681 848.5316,-50.3922 853.7397,-52.1063 853.7397,-52.1063"/>
</g>
<!-- safe&#45;vault&#45;&gt;safe&#45;nd -->
<g id="edge18" class="edge">
<title>safe&#45;vault:K_safe&#45;vault&#45;&gt;safe&#45;nd:K_safe&#45;nd</title>
<path fill="none" stroke="#006400" d="M702.5505,-85.655C726.722,-90.299 755.9304,-94.5 782.5,-94.5 782.5,-94.5 782.5,-94.5 1012.5,-94.5 1079.2739,-94.5 1054.9246,-170.1349 1104.1765,-212.0534"/>
<polygon fill="#006400" stroke="#006400" points="1108.1786,-215.259 1102.8695,-213.8893 1106.2273,-213.696 1104.2761,-212.1331 1104.2761,-212.1331 1104.2761,-212.1331 1106.2273,-213.696 1105.6827,-210.377 1108.1786,-215.259 1108.1786,-215.259"/>
</g>
<!-- safe&#45;nodejs -->
<g id="node8" class="node">
<title>safe&#45;nodejs</title>
<polygon fill="none" stroke="#000000" points="339,-282.5 339,-324.5 453,-324.5 453,-282.5 339,-282.5"/>
<text text-anchor="middle" x="396" y="-310.9" font-family="verdana" font-size="12.00" fill="#000000">safe&#45;nodejs</text>
<polyline fill="none" stroke="#000000" points="339,-303.5 453,-303.5 "/>
<text text-anchor="middle" x="396" y="-289.9" font-family="verdana" font-size="12.00" fill="#000000">native</text>
</g>
<!-- safe&#45;api -->
<g id="node12" class="node">
<title>safe&#45;api</title>
<polygon fill="none" stroke="#000000" points="592,-194.5 592,-320.5 709,-320.5 709,-194.5 592,-194.5"/>
<text text-anchor="middle" x="650.5" y="-306.9" font-family="verdana" font-size="12.00" fill="#000000">safe&#45;api</text>
<polyline fill="none" stroke="#000000" points="592,-299.5 709,-299.5 "/>
<text text-anchor="middle" x="650.5" y="-285.9" font-family="verdana" font-size="12.00" fill="#000000">safe&#45;cli</text>
<polyline fill="none" stroke="#000000" points="592,-278.5 709,-278.5 "/>
<text text-anchor="middle" x="650.5" y="-264.9" font-family="verdana" font-size="12.00" fill="#000000">safe&#45;api</text>
<polyline fill="none" stroke="#000000" points="592,-257.5 709,-257.5 "/>
<text text-anchor="middle" x="650.5" y="-243.9" font-family="verdana" font-size="12.00" fill="#000000">safe&#45;ffi</text>
<polyline fill="none" stroke="#000000" points="592,-236.5 709,-236.5 "/>
<text text-anchor="middle" x="650.5" y="-222.9" font-family="verdana" font-size="12.00" fill="#000000">safe&#45;authd</text>
<polyline fill="none" stroke="#000000" points="592,-215.5 709,-215.5 "/>
<text text-anchor="middle" x="650.5" y="-201.9" font-family="verdana" font-size="12.00" fill="#000000">jsonrpc&#45;quic</text>
</g>
<!-- safe&#45;nodejs&#45;&gt;safe&#45;api -->
<g id="edge23" class="edge">
<title>safe&#45;nodejs:K_native&#45;&gt;safe&#45;api:K_safe&#45;api</title>
<path fill="none" stroke="#006400" d="M453,-292.5C513.9776,-292.5 528.5268,-269.7946 586.9654,-268.5529"/>
<polygon fill="#006400" stroke="#006400" points="592,-268.5 587.0239,-270.8025 589.5001,-268.5263 587.0003,-268.5526 587.0003,-268.5526 587.0003,-268.5526 589.5001,-268.5263 586.9766,-266.3027 592,-268.5 592,-268.5"/>
</g>
<!-- safe&#45;app&#45;csharp&#45;&gt;safe&#45;app&#45;csharp -->
<g id="edge1" class="edge">
<title>safe&#45;app&#45;csharp:K_SafeApp.AppBindings&#45;&gt;safe&#45;app&#45;csharp:K_SafeApp.Core</title>
<path fill="none" stroke="#c0c0c0" d="M309.9345,-216.1422C276.6582,-215.2153 249,-210.3594 249,-200 249,-190.1667 273.9205,-185.292 304.9114,-184.0296"/>
<polygon fill="#c0c0c0" stroke="#c0c0c0" points="309.9345,-183.8578 305.0144,-186.2775 307.4359,-183.9433 304.9374,-184.0288 304.9374,-184.0288 304.9374,-184.0288 307.4359,-183.9433 304.8604,-181.7802 309.9345,-183.8578 309.9345,-183.8578"/>
</g>
<!-- safe&#45;app&#45;csharp&#45;&gt;safe&#45;app&#45;csharp -->
<g id="edge15" class="edge">
<title>safe&#45;app&#45;csharp:K_SafeApp&#45;&gt;safe&#45;app&#45;csharp:K_SafeApp.AppBindings</title>
<path fill="none" stroke="#c0c0c0" d="M309.9345,-238.0907C276.6582,-237.1055 249,-232.125 249,-221.5 249,-211.4146 273.9205,-206.4149 304.9114,-205.0905"/>
<polygon fill="#c0c0c0" stroke="#c0c0c0" points="309.9345,-204.9093 305.0189,-207.3382 307.4361,-204.9995 304.9377,-205.0897 304.9377,-205.0897 304.9377,-205.0897 307.4361,-204.9995 304.8566,-202.8412 309.9345,-204.9093 309.9345,-204.9093"/>
</g>
<!-- safe&#45;app&#45;csharp&#45;&gt;safe&#45;app&#45;csharp -->
<g id="edge16" class="edge">
<title>safe&#45;app&#45;csharp:K_SafeApp&#45;&gt;safe&#45;app&#45;csharp:K_SafeApp.Core</title>
<path fill="none" stroke="#c0c0c0" d="M309.9345,-237.0092C276.6582,-234.7983 249,-227.2031 249,-211 249,-195.6197 273.9205,-187.9952 304.9114,-185.3697"/>
<polygon fill="#c0c0c0" stroke="#c0c0c0" points="309.9345,-184.9908 305.1179,-187.6106 307.4416,-185.1789 304.9486,-185.367 304.9486,-185.367 304.9486,-185.367 307.4416,-185.1789 304.7794,-183.1233 309.9345,-184.9908 309.9345,-184.9908"/>
</g>
<!-- safe&#45;app&#45;csharp&#45;&gt;safe&#45;api -->
<g id="edge2" class="edge">
<title>safe&#45;app&#45;csharp:K_SafeApp.AppBindings&#45;&gt;safe&#45;api:K_safe&#45;ffi</title>
<path fill="none" stroke="#006400" d="M482,-210.5C531.632,-210.5 540.0042,-244.0132 586.7351,-246.3696"/>
<polygon fill="#006400" stroke="#006400" points="592,-246.5 586.9458,-248.6255 589.5008,-246.4381 587.0015,-246.3761 587.0015,-246.3761 587.0015,-246.3761 589.5008,-246.4381 587.0573,-244.1268 592,-246.5 592,-246.5"/>
</g>
<!-- safe&#45;authenticator&#45;mobile -->
<g id="node11" class="node">
<title>safe&#45;authenticator&#45;mobile</title>
<polygon fill="none" stroke="#000000" points="0,-351.5 0,-387.5 200,-387.5 200,-351.5 0,-351.5"/>
<text text-anchor="middle" x="100" y="-366.4" font-family="verdana" font-size="12.00" fill="#000000">safe&#45;authenticator&#45;mobile</text>
</g>
<!-- safe&#45;api&#45;&gt;safe&#45;client&#45;libs -->
<g id="edge21" class="edge">
<title>safe&#45;api:K_safe&#45;ffi&#45;&gt;safe&#45;client&#45;libs:K_safe_authenticator</title>
<path fill="none" stroke="#006400" d="M709,-246.5C743.5754,-246.5 753.8816,-251.8566 783,-270.5 801.314,-282.2258 796.409,-305.4764 814.0119,-309.0378"/>
<polygon fill="#006400" stroke="#006400" points="819,-309.5 813.8137,-311.279 816.5107,-309.2693 814.0213,-309.0386 814.0213,-309.0386 814.0213,-309.0386 816.5107,-309.2693 814.229,-306.7982 819,-309.5 819,-309.5"/>
</g>
<!-- safe&#45;api&#45;&gt;safe&#45;client&#45;libs -->
<g id="edge22" class="edge">
<title>safe&#45;api:K_safe&#45;ffi&#45;&gt;safe&#45;client&#45;libs:K_safe_core</title>
<path fill="none" stroke="#006400" d="M709,-246.5C725.4504,-246.5 730.0638,-243.4188 746,-247.5 763.908,-252.0862 766.8799,-257.4518 783,-266.5 797.6907,-274.7459 799.9072,-285.9331 813.8044,-288.1205"/>
<polygon fill="#006400" stroke="#006400" points="819,-288.5 813.8493,-290.3797 816.5066,-288.3178 814.0133,-288.1356 814.0133,-288.1356 814.0133,-288.1356 816.5066,-288.3178 814.1772,-285.8916 819,-288.5 819,-288.5"/>
</g>
<!-- safe&#45;api&#45;&gt;safe&#45;client&#45;libs -->
<g id="edge29" class="edge">
<title>safe&#45;api:K_safe&#45;api&#45;&gt;safe&#45;client&#45;libs:K_safe_app</title>
<path fill="none" stroke="#006400" d="M709,-268.5C743.1962,-268.5 715.7039,-318.8614 745,-336.5 771.6959,-352.5731 784.5904,-333.7899 813.767,-331.6874"/>
<polygon fill="#006400" stroke="#006400" points="819,-331.5 814.0838,-333.9276 816.5016,-331.5895 814.0032,-331.6791 814.0032,-331.6791 814.0032,-331.6791 816.5016,-331.5895 813.9226,-329.4305 819,-331.5 819,-331.5"/>
</g>
<!-- safe&#45;api&#45;&gt;safe&#45;client&#45;libs -->
<g id="edge30" class="edge">
<title>safe&#45;api:K_safe&#45;api&#45;&gt;safe&#45;client&#45;libs:K_safe_authenticator</title>
<path fill="none" stroke="#006400" d="M709,-268.5C729.8273,-268.5 725.9926,-289.9855 745,-298.5 773.6853,-311.3498 784.5521,-309.7352 813.7429,-309.5202"/>
<polygon fill="#006400" stroke="#006400" points="819,-309.5 814.0087,-311.7693 816.5,-309.5097 814,-309.5193 814,-309.5193 814,-309.5193 816.5,-309.5097 813.9914,-307.2693 819,-309.5 819,-309.5"/>
</g>
<!-- safe&#45;api&#45;&gt;safe&#45;client&#45;libs -->
<g id="edge31" class="edge">
<title>safe&#45;api:K_safe&#45;api&#45;&gt;safe&#45;client&#45;libs:K_safe_core</title>
<path fill="none" stroke="#006400" d="M709,-268.5C756.9435,-268.5 768.5146,-287.1185 813.9007,-288.4276"/>
<polygon fill="#006400" stroke="#006400" points="819,-288.5 813.9685,-290.6787 816.5003,-288.4645 814.0005,-288.4289 814.0005,-288.4289 814.0005,-288.4289 816.5003,-288.4645 814.0325,-286.1791 819,-288.5 819,-288.5"/>
</g>
<!-- safe&#45;api&#45;&gt;safe&#45;nd -->
<g id="edge20" class="edge">
<title>safe&#45;api:K_safe&#45;ffi&#45;&gt;safe&#45;nd:K_safe&#45;nd</title>
<path fill="none" stroke="#006400" d="M709,-246.5C769.2845,-246.5 722.2155,-132.5 782.5,-132.5 782.5,-132.5 782.5,-132.5 1012.5,-132.5 1067.0331,-132.5 1060.8162,-182.6788 1103.8921,-212.5072"/>
<polygon fill="#006400" stroke="#006400" points="1108.2183,-215.3279 1102.801,-214.4818 1106.1241,-213.9625 1104.0299,-212.597 1104.0299,-212.597 1104.0299,-212.597 1106.1241,-213.9625 1105.2588,-210.7122 1108.2183,-215.3279 1108.2183,-215.3279"/>
</g>
<!-- safe&#45;api&#45;&gt;safe&#45;nd -->
<g id="edge28" class="edge">
<title>safe&#45;api:K_safe&#45;api&#45;&gt;safe&#45;nd:K_safe&#45;nd</title>
<path fill="none" stroke="#006400" d="M709,-268.5C727.5233,-268.5 727.2041,-252.6398 745,-247.5 869.7488,-211.4704 1024.867,-219.7942 1103.2054,-227.4737"/>
<polygon fill="#006400" stroke="#006400" points="1108.2532,-227.9782 1103.0542,-229.7198 1105.7656,-227.7295 1103.278,-227.4809 1103.278,-227.4809 1103.278,-227.4809 1105.7656,-227.7295 1103.5018,-225.2421 1108.2532,-227.9782 1108.2532,-227.9782"/>
</g>
<!-- safe&#45;api&#45;&gt;safe&#45;api -->
<g id="edge13" class="edge">
<title>safe&#45;api:K_safe&#45;authd&#45;&gt;safe&#45;api:K_jsonrpc&#45;quic</title>
<path fill="none" stroke="#c0c0c0" d="M591.9149,-231.242C566.64,-230.6331 545,-225.8164 545,-215 545,-204.9441 563.7039,-200.0739 586.6437,-198.9495"/>
<polygon fill="#c0c0c0" stroke="#c0c0c0" points="591.9149,-198.758 586.9999,-201.1881 589.4166,-198.8488 586.9182,-198.9396 586.9182,-198.9396 586.9182,-198.9396 589.4166,-198.8488 586.8365,-196.6911 591.9149,-198.758 591.9149,-198.758"/>
</g>
<!-- safe&#45;api&#45;&gt;safe&#45;api -->
<g id="edge14" class="edge">
<title>safe&#45;api:K_safe&#45;authd&#45;&gt;safe&#45;api:K_safe&#45;api</title>
<path fill="none" stroke="#c0c0c0" d="M591.9149,-220.7293C566.64,-222.5482 545,-230.082 545,-247 545,-262.7945 563.8614,-270.4098 586.933,-272.8316"/>
<polygon fill="#c0c0c0" stroke="#c0c0c0" points="591.9149,-273.2707 586.7367,-275.0729 589.4246,-273.0511 586.9342,-272.8316 586.9342,-272.8316 586.9342,-272.8316 589.4246,-273.0511 587.1318,-270.5903 591.9149,-273.2707 591.9149,-273.2707"/>
</g>
<!-- safe&#45;api&#45;&gt;safe&#45;api -->
<g id="edge19" class="edge">
<title>safe&#45;api:K_safe&#45;ffi&#45;&gt;safe&#45;api:K_safe&#45;api</title>
<path fill="none" stroke="#c0c0c0" d="M591.9149,-240.8021C566.64,-241.4661 545,-246.4063 545,-257.5 545,-267.8137 563.7039,-272.8088 586.6437,-273.9937"/>
<polygon fill="#c0c0c0" stroke="#c0c0c0" points="591.9149,-274.1979 586.8316,-276.2526 589.4168,-274.1011 586.9187,-274.0043 586.9187,-274.0043 586.9187,-274.0043 589.4168,-274.1011 587.0058,-271.756 591.9149,-274.1979 591.9149,-274.1979"/>
</g>
<!-- safe&#45;api&#45;&gt;safe&#45;api -->
<g id="edge26" class="edge">
<title>safe&#45;api:K_safe&#45;cli&#45;&gt;safe&#45;api:K_safe&#45;api</title>
<path fill="none" stroke="#c0c0c0" d="M591.9149,-295.242C566.64,-294.6331 545,-289.8164 545,-279 545,-268.9441 563.7039,-264.0739 586.6437,-262.9495"/>
<polygon fill="#c0c0c0" stroke="#c0c0c0" points="591.9149,-262.758 586.9999,-265.1881 589.4166,-262.8488 586.9182,-262.9396 586.9182,-262.9396 586.9182,-262.9396 589.4166,-262.8488 586.8365,-260.6911 591.9149,-262.758 591.9149,-262.758"/>
</g>
<!-- safe&#45;api&#45;&gt;safe&#45;api -->
<g id="edge27" class="edge">
<title>safe&#45;api:K_safe&#45;api&#45;&gt;safe&#45;api:K_jsonrpc&#45;quic</title>
<path fill="none" stroke="#c0c0c0" d="M591.9149,-272.3434C566.64,-269.3696 545,-259.2422 545,-236.5 545,-215.268 563.8614,-205.0311 586.933,-201.3453"/>
<polygon fill="#c0c0c0" stroke="#c0c0c0" points="591.9149,-200.6566 587.2702,-203.5701 589.4385,-200.999 586.962,-201.3413 586.962,-201.3413 586.962,-201.3413 589.4385,-200.999 586.6539,-199.1125 591.9149,-200.6566 591.9149,-200.6566"/>
</g>
<!-- safe&#45;browser -->
<g id="node13" class="node">
<title>safe&#45;browser</title>
<polygon fill="none" stroke="#000000" points="38.5,-296.5 38.5,-332.5 161.5,-332.5 161.5,-296.5 38.5,-296.5"/>
<text text-anchor="middle" x="100" y="-311.4" font-family="verdana" font-size="12.00" fill="#000000">safe&#45;browser</text>
</g>
<!-- safe&#45;browser&#45;&gt;safe&#45;nodejs -->
<g id="edge32" class="edge">
<title>safe&#45;browser:K_safe&#45;browser&#45;&gt;safe&#45;nodejs:K_safe&#45;nodejs</title>
<path fill="none" stroke="#006400" d="M161.8997,-314.5C208.7371,-314.5 274.8281,-314.5 333.6909,-314.5"/>
<polygon fill="#006400" stroke="#006400" points="339,-314.5 334,-316.7501 336.5,-314.5 334,-314.5001 334,-314.5001 334,-314.5001 336.5,-314.5 334,-312.2501 339,-314.5 339,-314.5"/>
</g>
</g>
</svg>
