<?xml version="1.0" encoding="UTF-8" standalone="no"?>
<?xml-stylesheet href="./db.css" type="text/css"?>
<!DOCTYPE svg PUBLIC "-//W3C//DTD SVG 1.1//EN"
 "http://www.w3.org/Graphics/SVG/1.1/DTD/svg11.dtd">
<!-- Generated by graphviz version 2.40.1 (20161225.0304)
 -->
<!-- Title: g Pages: 1 -->
<svg width="917pt" height="511pt"
 viewBox="0.00 0.00 917.00 511.00" xmlns="http://www.w3.org/2000/svg" xmlns:xlink="http://www.w3.org/1999/xlink">
<g id="graph0" class="graph" transform="scale(1 1) rotate(0) translate(4 507)">
<title>g</title>
<polygon fill="#ffffff" stroke="transparent" points="-4,4 -4,-507 913,-507 913,4 -4,4"/>
<!-- safe&#45;mobile&#45;browser -->
<g id="node1" class="node">
<title>safe&#45;mobile&#45;browser</title>
<polygon fill="none" stroke="#000000" points="16,-56.5 16,-92.5 184,-92.5 184,-56.5 16,-56.5"/>
<text text-anchor="middle" x="100" y="-71.4" font-family="verdana" font-size="12.00" fill="#000000">safe&#45;mobile&#45;browser</text>
</g>
<!-- safe_app_csharp -->
<g id="node9" class="node">
<title>safe_app_csharp</title>
<polygon fill="none" stroke="#000000" points="310,-.5 310,-84.5 482,-84.5 482,-.5 310,-.5"/>
<text text-anchor="middle" x="396" y="-70.9" font-family="verdana" font-size="12.00" fill="#000000">safe_app_csharp</text>
<polyline fill="none" stroke="#000000" points="310,-63.5 482,-63.5 "/>
<text text-anchor="middle" x="396" y="-49.9" font-family="verdana" font-size="12.00" fill="#000000">SafeApp</text>
<polyline fill="none" stroke="#000000" points="310,-42.5 482,-42.5 "/>
<text text-anchor="middle" x="396" y="-28.9" font-family="verdana" font-size="12.00" fill="#000000">SafeApp.AppBindings</text>
<polyline fill="none" stroke="#000000" points="310,-21.5 482,-21.5 "/>
<text text-anchor="middle" x="396" y="-7.9" font-family="verdana" font-size="12.00" fill="#000000">SafeApp.Core</text>
</g>
<!-- safe&#45;mobile&#45;browser&#45;&gt;safe_app_csharp -->
<g id="edge3" class="edge">
<title>safe&#45;mobile&#45;browser:K_safe&#45;mobile&#45;browser&#45;&gt;safe_app_csharp:K_safe_app_csharp</title>
<path fill="none" stroke="#006400" d="M184.0473,-74.5C220.8004,-74.5 264.583,-74.5 304.6295,-74.5"/>
<polygon fill="#006400" stroke="#006400" points="310,-74.5 305,-76.7501 307.5,-74.5 305,-74.5001 305,-74.5001 305,-74.5001 307.5,-74.5 305,-72.2501 310,-74.5 310,-74.5"/>
</g>
<!-- parsec -->
<g id="node2" class="node">
<title>parsec</title>
<polygon fill="none" stroke="#000000" points="353.5,-219.5 353.5,-255.5 438.5,-255.5 438.5,-219.5 353.5,-219.5"/>
<text text-anchor="middle" x="396" y="-234.4" font-family="verdana" font-size="12.00" fill="#000000">parsec</text>
</g>
<!-- routing -->
<g id="node3" class="node">
<title>routing</title>
<polygon fill="none" stroke="#000000" points="56.5,-191.5 56.5,-227.5 143.5,-227.5 143.5,-191.5 56.5,-191.5"/>
<text text-anchor="middle" x="100" y="-206.4" font-family="verdana" font-size="12.00" fill="#000000">routing</text>
</g>
<!-- routing&#45;&gt;parsec -->
<g id="edge4" class="edge">
<title>routing:K_routing&#45;&gt;parsec:K_parsec</title>
<path fill="none" stroke="#006400" d="M143.6758,-213.6315C198.3121,-218.7998 291.5423,-227.6189 348.0897,-232.9679"/>
<polygon fill="#006400" stroke="#006400" points="353.1074,-233.4426 347.9176,-235.2116 350.6185,-233.2071 348.1296,-232.9716 348.1296,-232.9716 348.1296,-232.9716 350.6185,-233.2071 348.3415,-230.7316 353.1074,-233.4426 353.1074,-233.4426"/>
</g>
<!-- quic&#45;p2p -->
<g id="node7" class="node">
<title>quic&#45;p2p</title>
<polygon fill="none" stroke="#000000" points="348,-164.5 348,-200.5 444,-200.5 444,-164.5 348,-164.5"/>
<text text-anchor="middle" x="396" y="-179.4" font-family="verdana" font-size="12.00" fill="#000000">quic&#45;p2p</text>
</g>
<!-- routing&#45;&gt;quic&#45;p2p -->
<g id="edge5" class="edge">
<title>routing:K_routing&#45;&gt;quic&#45;p2p:K_quic&#45;p2p</title>
<path fill="none" stroke="#006400" d="M143.6758,-205.5161C196.6731,-200.6818 285.9833,-192.5353 342.9034,-187.3433"/>
<polygon fill="#006400" stroke="#006400" points="347.9667,-186.8814 343.1918,-189.5764 345.4771,-187.1086 342.9874,-187.3357 342.9874,-187.3357 342.9874,-187.3357 345.4771,-187.1086 342.783,-185.095 347.9667,-186.8814 347.9667,-186.8814"/>
</g>
<!-- safe&#45;nd -->
<g id="node4" class="node">
<title>safe&#45;nd</title>
<polygon fill="none" stroke="#000000" points="819,-54.5 819,-90.5 909,-90.5 909,-54.5 819,-54.5"/>
<text text-anchor="middle" x="864" y="-69.4" font-family="verdana" font-size="12.00" fill="#000000">safe&#45;nd</text>
</g>
<!-- safe_vault -->
<g id="node5" class="node">
<title>safe_vault</title>
<polygon fill="none" stroke="#000000" points="47.5,-246.5 47.5,-282.5 152.5,-282.5 152.5,-246.5 47.5,-246.5"/>
<text text-anchor="middle" x="100" y="-261.4" font-family="verdana" font-size="12.00" fill="#000000">safe_vault</text>
</g>
<!-- safe_browser -->
<g id="node6" class="node">
<title>safe_browser</title>
<polygon fill="none" stroke="#000000" points="37.5,-301.5 37.5,-337.5 162.5,-337.5 162.5,-301.5 37.5,-301.5"/>
<text text-anchor="middle" x="100" y="-316.4" font-family="verdana" font-size="12.00" fill="#000000">safe_browser</text>
</g>
<!-- safe&#45;nodejs -->
<g id="node8" class="node">
<title>safe&#45;nodejs</title>
<polygon fill="none" stroke="#000000" points="339,-103.5 339,-145.5 453,-145.5 453,-103.5 339,-103.5"/>
<text text-anchor="middle" x="396" y="-131.9" font-family="verdana" font-size="12.00" fill="#000000">safe&#45;nodejs</text>
<polyline fill="none" stroke="#000000" points="339,-124.5 453,-124.5 "/>
<text text-anchor="middle" x="396" y="-110.9" font-family="verdana" font-size="12.00" fill="#000000">native</text>
</g>
<!-- safe&#45;api -->
<g id="node13" class="node">
<title>safe&#45;api</title>
<polygon fill="none" stroke="#000000" points="592,-9.5 592,-135.5 709,-135.5 709,-9.5 592,-9.5"/>
<text text-anchor="middle" x="650.5" y="-121.9" font-family="verdana" font-size="12.00" fill="#000000">safe&#45;api</text>
<polyline fill="none" stroke="#000000" points="592,-114.5 709,-114.5 "/>
<text text-anchor="middle" x="650.5" y="-100.9" font-family="verdana" font-size="12.00" fill="#000000">safe&#45;cli</text>
<polyline fill="none" stroke="#000000" points="592,-93.5 709,-93.5 "/>
<text text-anchor="middle" x="650.5" y="-79.9" font-family="verdana" font-size="12.00" fill="#000000">safe&#45;api</text>
<polyline fill="none" stroke="#000000" points="592,-72.5 709,-72.5 "/>
<text text-anchor="middle" x="650.5" y="-58.9" font-family="verdana" font-size="12.00" fill="#000000">safe&#45;ffi</text>
<polyline fill="none" stroke="#000000" points="592,-51.5 709,-51.5 "/>
<text text-anchor="middle" x="650.5" y="-37.9" font-family="verdana" font-size="12.00" fill="#000000">safe&#45;authd</text>
<polyline fill="none" stroke="#000000" points="592,-30.5 709,-30.5 "/>
<text text-anchor="middle" x="650.5" y="-16.9" font-family="verdana" font-size="12.00" fill="#000000">jsonrpc&#45;quic</text>
</g>
<!-- safe&#45;nodejs&#45;&gt;safe&#45;api -->
<g id="edge12" class="edge">
<title>safe&#45;nodejs:K_native&#45;&gt;safe&#45;api:K_safe&#45;api</title>
<path fill="none" stroke="#006400" d="M453,-113.5C514.4721,-113.5 528.0729,-85.1182 586.927,-83.5661"/>
<polygon fill="#006400" stroke="#006400" points="592,-83.5 587.0298,-85.815 589.5002,-83.5326 587.0004,-83.5652 587.0004,-83.5652 587.0004,-83.5652 589.5002,-83.5326 586.9711,-81.3154 592,-83.5 592,-83.5"/>
</g>
<!-- safe_app_csharp&#45;&gt;safe_app_csharp -->
<g id="edge1" class="edge">
<title>safe_app_csharp:K_SafeApp.AppBindings&#45;&gt;safe_app_csharp:K_SafeApp.Core</title>
<path fill="none" stroke="#c0c0c0" d="M309.9345,-37.1422C276.6582,-36.2153 249,-31.3594 249,-21 249,-11.1667 273.9205,-6.292 304.9114,-5.0296"/>
<polygon fill="#c0c0c0" stroke="#c0c0c0" points="309.9345,-4.8578 305.0144,-7.2775 307.4359,-4.9433 304.9374,-5.0288 304.9374,-5.0288 304.9374,-5.0288 307.4359,-4.9433 304.8604,-2.7802 309.9345,-4.8578 309.9345,-4.8578"/>
</g>
<!-- safe_app_csharp&#45;&gt;safe_app_csharp -->
<g id="edge8" class="edge">
<title>safe_app_csharp:K_SafeApp&#45;&gt;safe_app_csharp:K_SafeApp.AppBindings</title>
<path fill="none" stroke="#c0c0c0" d="M309.9345,-59.0907C276.6582,-58.1055 249,-53.125 249,-42.5 249,-32.4146 273.9205,-27.4149 304.9114,-26.0905"/>
<polygon fill="#c0c0c0" stroke="#c0c0c0" points="309.9345,-25.9093 305.0189,-28.3382 307.4361,-25.9995 304.9377,-26.0897 304.9377,-26.0897 304.9377,-26.0897 307.4361,-25.9995 304.8566,-23.8412 309.9345,-25.9093 309.9345,-25.9093"/>
</g>
<!-- safe_app_csharp&#45;&gt;safe_app_csharp -->
<g id="edge9" class="edge">
<title>safe_app_csharp:K_SafeApp&#45;&gt;safe_app_csharp:K_SafeApp.Core</title>
<path fill="none" stroke="#c0c0c0" d="M309.9345,-58.0092C276.6582,-55.7983 249,-48.2031 249,-32 249,-16.6197 273.9205,-8.9952 304.9114,-6.3697"/>
<polygon fill="#c0c0c0" stroke="#c0c0c0" points="309.9345,-5.9908 305.1179,-8.6106 307.4416,-6.1789 304.9486,-6.367 304.9486,-6.367 304.9486,-6.367 307.4416,-6.1789 304.7794,-4.1233 309.9345,-5.9908 309.9345,-5.9908"/>
</g>
<!-- safe_app_csharp&#45;&gt;safe&#45;api -->
<g id="edge2" class="edge">
<title>safe_app_csharp:K_SafeApp.AppBindings&#45;&gt;safe&#45;api:K_safe&#45;ffi</title>
<path fill="none" stroke="#006400" d="M482,-31.5C530.8929,-31.5 540.6653,-59.4277 586.8076,-61.3914"/>
<polygon fill="#006400" stroke="#006400" points="592,-61.5 586.954,-63.6448 589.5005,-61.4477 587.0011,-61.3953 587.0011,-61.3953 587.0011,-61.3953 589.5005,-61.4477 587.0482,-59.1458 592,-61.5 592,-61.5"/>
</g>
<!-- safe_client_libs -->
<g id="node10" class="node">
<title>safe_client_libs</title>
<polygon fill="none" stroke="#000000" points="33,-356.5 33,-392.5 167,-392.5 167,-356.5 33,-356.5"/>
<text text-anchor="middle" x="100" y="-371.4" font-family="verdana" font-size="12.00" fill="#000000">safe_client_libs</text>
</g>
<!-- self_encryption -->
<g id="node11" class="node">
<title>self_encryption</title>
<polygon fill="none" stroke="#000000" points="32.5,-411.5 32.5,-447.5 167.5,-447.5 167.5,-411.5 32.5,-411.5"/>
<text text-anchor="middle" x="100" y="-426.4" font-family="verdana" font-size="12.00" fill="#000000">self_encryption</text>
</g>
<!-- safe&#45;authenticator&#45;mobile -->
<g id="node12" class="node">
<title>safe&#45;authenticator&#45;mobile</title>
<polygon fill="none" stroke="#000000" points="0,-466.5 0,-502.5 200,-502.5 200,-466.5 0,-466.5"/>
<text text-anchor="middle" x="100" y="-481.4" font-family="verdana" font-size="12.00" fill="#000000">safe&#45;authenticator&#45;mobile</text>
</g>
<!-- safe&#45;api&#45;&gt;safe&#45;nd -->
<g id="edge11" class="edge">
<title>safe&#45;api:K_safe&#45;ffi&#45;&gt;safe&#45;nd:K_safe&#45;nd</title>
<path fill="none" stroke="#006400" d="M709,-61.5C744.0654,-61.5 783.4812,-64.3358 813.79,-67.1276"/>
<polygon fill="#006400" stroke="#006400" points="818.9562,-67.6112 813.7682,-69.3853 816.4671,-67.3782 813.9779,-67.1451 813.9779,-67.1451 813.9779,-67.1451 816.4671,-67.3782 814.1877,-64.9049 818.9562,-67.6112 818.9562,-67.6112"/>
</g>
<!-- safe&#45;api&#45;&gt;safe&#45;nd -->
<g id="edge15" class="edge">
<title>safe&#45;api:K_safe&#45;api&#45;&gt;safe&#45;nd:K_safe&#45;nd</title>
<path fill="none" stroke="#006400" d="M709,-83.5C744.0654,-83.5 783.4812,-80.6642 813.79,-77.8724"/>
<polygon fill="#006400" stroke="#006400" points="818.9562,-77.3888 814.1877,-80.0951 816.4671,-77.6218 813.9779,-77.8549 813.9779,-77.8549 813.9779,-77.8549 816.4671,-77.6218 813.7682,-75.6147 818.9562,-77.3888 818.9562,-77.3888"/>
</g>
<!-- safe&#45;api&#45;&gt;safe&#45;api -->
<g id="edge6" class="edge">
<title>safe&#45;api:K_safe&#45;authd&#45;&gt;safe&#45;api:K_jsonrpc&#45;quic</title>
<path fill="none" stroke="#c0c0c0" d="M591.9149,-46.242C566.64,-45.6331 545,-40.8164 545,-30 545,-19.9441 563.7039,-15.0739 586.6437,-13.9495"/>
<polygon fill="#c0c0c0" stroke="#c0c0c0" points="591.9149,-13.758 586.9999,-16.1881 589.4166,-13.8488 586.9182,-13.9396 586.9182,-13.9396 586.9182,-13.9396 589.4166,-13.8488 586.8365,-11.6911 591.9149,-13.758 591.9149,-13.758"/>
</g>
<!-- safe&#45;api&#45;&gt;safe&#45;api -->
<g id="edge7" class="edge">
<title>safe&#45;api:K_safe&#45;authd&#45;&gt;safe&#45;api:K_safe&#45;api</title>
<path fill="none" stroke="#c0c0c0" d="M591.9149,-35.7293C566.64,-37.5482 545,-45.082 545,-62 545,-77.7945 563.8614,-85.4098 586.933,-87.8316"/>
<polygon fill="#c0c0c0" stroke="#c0c0c0" points="591.9149,-88.2707 586.7367,-90.0729 589.4246,-88.0511 586.9342,-87.8316 586.9342,-87.8316 586.9342,-87.8316 589.4246,-88.0511 587.1318,-85.5903 591.9149,-88.2707 591.9149,-88.2707"/>
</g>
<!-- safe&#45;api&#45;&gt;safe&#45;api -->
<g id="edge10" class="edge">
<title>safe&#45;api:K_safe&#45;ffi&#45;&gt;safe&#45;api:K_safe&#45;api</title>
<path fill="none" stroke="#c0c0c0" d="M591.9149,-55.8021C566.64,-56.4661 545,-61.4063 545,-72.5 545,-82.8137 563.7039,-87.8088 586.6437,-88.9937"/>
<polygon fill="#c0c0c0" stroke="#c0c0c0" points="591.9149,-89.1979 586.8316,-91.2526 589.4168,-89.1011 586.9187,-89.0043 586.9187,-89.0043 586.9187,-89.0043 589.4168,-89.1011 587.0058,-86.756 591.9149,-89.1979 591.9149,-89.1979"/>
</g>
<!-- safe&#45;api&#45;&gt;safe&#45;api -->
<g id="edge13" class="edge">
<title>safe&#45;api:K_safe&#45;cli&#45;&gt;safe&#45;api:K_safe&#45;api</title>
<path fill="none" stroke="#c0c0c0" d="M591.9149,-110.242C566.64,-109.6331 545,-104.8164 545,-94 545,-83.9441 563.7039,-79.0739 586.6437,-77.9495"/>
<polygon fill="#c0c0c0" stroke="#c0c0c0" points="591.9149,-77.758 586.9999,-80.1881 589.4166,-77.8488 586.9182,-77.9396 586.9182,-77.9396 586.9182,-77.9396 589.4166,-77.8488 586.8365,-75.6911 591.9149,-77.758 591.9149,-77.758"/>
</g>
<!-- safe&#45;api&#45;&gt;safe&#45;api -->
<g id="edge14" class="edge">
<title>safe&#45;api:K_safe&#45;api&#45;&gt;safe&#45;api:K_jsonrpc&#45;quic</title>
<path fill="none" stroke="#c0c0c0" d="M591.9149,-87.3434C566.64,-84.3696 545,-74.2422 545,-51.5 545,-30.268 563.8614,-20.0311 586.933,-16.3453"/>
<polygon fill="#c0c0c0" stroke="#c0c0c0" points="591.9149,-15.6566 587.2702,-18.5701 589.4385,-15.999 586.962,-16.3413 586.962,-16.3413 586.962,-16.3413 589.4385,-15.999 586.6539,-14.1125 591.9149,-15.6566 591.9149,-15.6566"/>
</g>
</g>
</svg>
