<?xml version="1.0" encoding="UTF-8" standalone="no"?>
<?xml-stylesheet href="./db.css" type="text/css"?>
<!DOCTYPE svg PUBLIC "-//W3C//DTD SVG 1.1//EN"
 "http://www.w3.org/Graphics/SVG/1.1/DTD/svg11.dtd">
<!-- Generated by graphviz version 2.40.1 (20161225.0304)
 -->
<!-- Title: g Pages: 1 -->
<svg width="1368pt" height="426pt"
 viewBox="0.00 0.00 1368.00 426.00" xmlns="http://www.w3.org/2000/svg" xmlns:xlink="http://www.w3.org/1999/xlink">
<g id="graph0" class="graph" transform="scale(1 1) rotate(0) translate(4 422)">
<title>g</title>
<polygon fill="#ffffff" stroke="transparent" points="-4,4 -4,-422 1364,-422 1364,4 -4,4"/>
<!-- xor_name -->
<g id="node1" class="node">
<title>xor_name</title>
<polygon fill="none" stroke="#000000" points="1255,-172 1255,-208 1360,-208 1360,-172 1255,-172"/>
<text text-anchor="middle" x="1307.5" y="-186.9" font-family="verdana" font-size="12.00" fill="#000000">xor_name</text>
</g>
<!-- sn_browser -->
<g id="node2" class="node">
<title>sn_browser</title>
<polygon fill="none" stroke="#000000" points="39.5,-177 39.5,-213 152.5,-213 152.5,-177 39.5,-177"/>
<text text-anchor="middle" x="96" y="-191.9" font-family="verdana" font-size="12.00" fill="#000000">sn_browser</text>
</g>
<!-- sn_nodejs -->
<g id="node7" class="node">
<title>sn_nodejs</title>
<polygon fill="none" stroke="#000000" points="336.5,-163 336.5,-205 439.5,-205 439.5,-163 336.5,-163"/>
<text text-anchor="middle" x="388" y="-191.4" font-family="verdana" font-size="12.00" fill="#000000">sn_nodejs</text>
<polyline fill="none" stroke="#000000" points="336.5,-184 439.5,-184 "/>
<text text-anchor="middle" x="388" y="-170.4" font-family="verdana" font-size="12.00" fill="#000000">native</text>
</g>
<!-- sn_browser&#45;&gt;sn_nodejs -->
<g id="edge3" class="edge">
<title>sn_browser:K_sn_browser&#45;&gt;sn_nodejs:K_sn_nodejs</title>
<path fill="none" stroke="#006400" d="M152.7352,-195C200.0371,-195 269.3757,-195 330.8359,-195"/>
<polygon fill="#006400" stroke="#006400" points="336,-195 331,-197.2501 333.5,-195 331,-195.0001 331,-195.0001 331,-195.0001 333.5,-195 331,-192.7501 336,-195 336,-195"/>
</g>
<!-- bls_dkg -->
<g id="node3" class="node">
<title>bls_dkg</title>
<polygon fill="none" stroke="#000000" points="1033,-305 1033,-341 1122,-341 1122,-305 1033,-305"/>
<text text-anchor="middle" x="1077.5" y="-319.9" font-family="verdana" font-size="12.00" fill="#000000">bls_dkg</text>
</g>
<!-- bls_dkg&#45;&gt;xor_name -->
<g id="edge7" class="edge">
<title>bls_dkg:K_bls_dkg&#45;&gt;xor_name:K_xor_name</title>
<path fill="none" stroke="#006400" d="M1122.374,-304.7918C1184.3544,-270.2495 1189.9849,-243.1378 1250.1906,-210.5533"/>
<polygon fill="#006400" stroke="#006400" points="1254.6212,-208.1976 1251.2627,-212.5316 1252.4138,-209.3712 1250.2064,-210.5449 1250.2064,-210.5449 1250.2064,-210.5449 1252.4138,-209.3712 1249.1501,-208.5583 1254.6212,-208.1976 1254.6212,-208.1976"/>
</g>
<!-- sn_routing -->
<g id="node4" class="node">
<title>sn_routing</title>
<polygon fill="none" stroke="#000000" points="793,-324 793,-360 900,-360 900,-324 793,-324"/>
<text text-anchor="middle" x="846.5" y="-338.9" font-family="verdana" font-size="12.00" fill="#000000">sn_routing</text>
</g>
<!-- sn_routing&#45;&gt;xor_name -->
<g id="edge12" class="edge">
<title>sn_routing:K_sn_routing&#45;&gt;xor_name:K_xor_name</title>
<path fill="none" stroke="#006400" d="M900.2854,-359.665C931.3552,-369.5885 965.7902,-380 973.5,-380 973.5,-380 973.5,-380 1181.5,-380 1262.6867,-380 1197.3121,-269.9195 1250.9375,-212.0657"/>
<polygon fill="#006400" stroke="#006400" points="1254.6446,-208.3322 1252.7183,-213.4656 1252.8831,-210.1062 1251.1216,-211.8803 1251.1216,-211.8803 1251.1216,-211.8803 1252.8831,-210.1062 1249.525,-210.2949 1254.6446,-208.3322 1254.6446,-208.3322"/>
</g>
<!-- sn_routing&#45;&gt;bls_dkg -->
<g id="edge10" class="edge">
<title>sn_routing:K_sn_routing&#45;&gt;bls_dkg:K_bls_dkg</title>
<path fill="none" stroke="#006400" d="M900.0767,-337.5933C938.4407,-334.4378 989.7456,-330.2179 1027.3153,-327.1277"/>
<polygon fill="#006400" stroke="#006400" points="1032.7555,-326.6803 1027.9568,-329.3327 1030.2639,-326.8853 1027.7723,-327.0902 1027.7723,-327.0902 1027.7723,-327.0902 1030.2639,-326.8853 1027.5879,-324.8478 1032.7555,-326.6803 1032.7555,-326.6803"/>
</g>
<!-- qp2p -->
<g id="node5" class="node">
<title>qp2p</title>
<polygon fill="none" stroke="#000000" points="1040,-230 1040,-266 1115,-266 1115,-230 1040,-230"/>
<text text-anchor="middle" x="1077.5" y="-244.9" font-family="verdana" font-size="12.00" fill="#000000">qp2p</text>
</g>
<!-- sn_routing&#45;&gt;qp2p -->
<g id="edge11" class="edge">
<title>sn_routing:K_sn_routing&#45;&gt;qp2p:K_qp2p</title>
<path fill="none" stroke="#006400" d="M900.47,-323.8206C947.1756,-305.9785 999.6146,-283.1597 1035.2146,-267.2371"/>
<polygon fill="#006400" stroke="#006400" points="1039.9058,-265.1353 1036.2628,-269.233 1037.6243,-266.1575 1035.3428,-267.1797 1035.3428,-267.1797 1035.3428,-267.1797 1037.6243,-266.1575 1034.4228,-265.1264 1039.9058,-265.1353 1039.9058,-265.1353"/>
</g>
<!-- sn_client -->
<g id="node6" class="node">
<title>sn_client</title>
<polygon fill="none" stroke="#000000" points="798.5,-87 798.5,-123 894.5,-123 894.5,-87 798.5,-87"/>
<text text-anchor="middle" x="846.5" y="-101.9" font-family="verdana" font-size="12.00" fill="#000000">sn_client</text>
</g>
<!-- sn_client&#45;&gt;xor_name -->
<g id="edge16" class="edge">
<title>sn_client:K_sn_client&#45;&gt;xor_name:K_xor_name</title>
<path fill="none" stroke="#006400" d="M894.9328,-86.7858C931.5825,-68.5297 932.3448,-38 973.5,-38 973.5,-38 973.5,-38 1181.5,-38 1247.5723,-38 1205.4813,-123.3967 1250.9604,-168.317"/>
<polygon fill="#006400" stroke="#006400" points="1254.6966,-171.7432 1249.4908,-170.0221 1252.854,-170.0535 1251.0115,-168.3638 1251.0115,-168.3638 1251.0115,-168.3638 1252.854,-170.0535 1252.5322,-166.7055 1254.6966,-171.7432 1254.6966,-171.7432"/>
</g>
<!-- sn_client&#45;&gt;qp2p -->
<g id="edge13" class="edge">
<title>sn_client:K_sn_client&#45;&gt;qp2p:K_qp2p</title>
<path fill="none" stroke="#006400" d="M894.9128,-123.2239C963.4626,-160.4474 970.9934,-187.4668 1035.2805,-227.1276"/>
<polygon fill="#006400" stroke="#006400" points="1039.5983,-229.7585 1034.1577,-229.0782 1037.4634,-228.4576 1035.3285,-227.1568 1035.3285,-227.1568 1035.3285,-227.1568 1037.4634,-228.4576 1036.4992,-225.2354 1039.5983,-229.7585 1039.5983,-229.7585"/>
</g>
<!-- sn_data_types -->
<g id="node8" class="node">
<title>sn_data_types</title>
<polygon fill="none" stroke="#000000" points="1013,-125 1013,-161 1142,-161 1142,-125 1013,-125"/>
<text text-anchor="middle" x="1077.5" y="-139.9" font-family="verdana" font-size="12.00" fill="#000000">sn_data_types</text>
</g>
<!-- sn_client&#45;&gt;sn_data_types -->
<g id="edge15" class="edge">
<title>sn_client:K_sn_client&#45;&gt;sn_data_types:K_sn_data_types</title>
<path fill="none" stroke="#006400" d="M894.644,-112.9198C927.2851,-118.2893 970.9584,-125.4737 1007.4376,-131.4746"/>
<polygon fill="#006400" stroke="#006400" points="1012.7654,-132.351 1007.4664,-133.7595 1010.2986,-131.9452 1007.8317,-131.5393 1007.8317,-131.5393 1007.8317,-131.5393 1010.2986,-131.9452 1008.197,-129.3192 1012.7654,-132.351 1012.7654,-132.351"/>
</g>
<!-- self_encryption -->
<g id="node14" class="node">
<title>self_encryption</title>
<polygon fill="none" stroke="#000000" points="1010,-67 1010,-103 1145,-103 1145,-67 1010,-67"/>
<text text-anchor="middle" x="1077.5" y="-81.9" font-family="verdana" font-size="12.00" fill="#000000">self_encryption</text>
</g>
<!-- sn_client&#45;&gt;self_encryption -->
<g id="edge14" class="edge">
<title>sn_client:K_sn_client&#45;&gt;self_encryption:K_self_encryption</title>
<path fill="none" stroke="#006400" d="M894.644,-100.8317C926.4029,-98.082 968.6057,-94.4281 1004.4644,-91.3234"/>
<polygon fill="#006400" stroke="#006400" points="1009.707,-90.8695 1004.9198,-93.5425 1007.2163,-91.0852 1004.7256,-91.3009 1004.7256,-91.3009 1004.7256,-91.3009 1007.2163,-91.0852 1004.5315,-89.0593 1009.707,-90.8695 1009.707,-90.8695"/>
</g>
<!-- sn_api -->
<g id="node13" class="node">
<title>sn_api</title>
<polygon fill="none" stroke="#000000" points="584,-79.5 584,-184.5 683,-184.5 683,-79.5 584,-79.5"/>
<text text-anchor="middle" x="633.5" y="-170.9" font-family="verdana" font-size="12.00" fill="#000000">sn_api</text>
<polyline fill="none" stroke="#000000" points="584,-163.5 683,-163.5 "/>
<text text-anchor="middle" x="633.5" y="-149.9" font-family="verdana" font-size="12.00" fill="#000000">sn_cli</text>
<polyline fill="none" stroke="#000000" points="584,-142.5 683,-142.5 "/>
<text text-anchor="middle" x="633.5" y="-128.9" font-family="verdana" font-size="12.00" fill="#000000">sn_api</text>
<polyline fill="none" stroke="#000000" points="584,-121.5 683,-121.5 "/>
<text text-anchor="middle" x="633.5" y="-107.9" font-family="verdana" font-size="12.00" fill="#000000">sn_authd</text>
<polyline fill="none" stroke="#000000" points="584,-100.5 683,-100.5 "/>
<text text-anchor="middle" x="633.5" y="-86.9" font-family="verdana" font-size="12.00" fill="#000000">qjsonrpc</text>
</g>
<!-- sn_nodejs&#45;&gt;sn_api -->
<g id="edge21" class="edge">
<title>sn_nodejs:K_native&#45;&gt;sn_api:K_sn_api</title>
<path fill="none" stroke="#006400" d="M440,-173C471.5822,-173 542.9755,-136.0583 578.601,-132.3064"/>
<polygon fill="#006400" stroke="#006400" points="584,-132 579.1356,-134.5298 581.504,-132.1417 579.008,-132.2834 579.008,-132.2834 579.008,-132.2834 581.504,-132.1417 578.8805,-130.037 584,-132 584,-132"/>
</g>
<!-- sn_data_types&#45;&gt;xor_name -->
<g id="edge19" class="edge">
<title>sn_data_types:K_sn_data_types&#45;&gt;xor_name:K_xor_name</title>
<path fill="none" stroke="#006400" d="M1142.1799,-156.2172C1175.9802,-163.1242 1217.0047,-171.5075 1249.7304,-178.1949"/>
<polygon fill="#006400" stroke="#006400" points="1254.9091,-179.2532 1249.5598,-180.4565 1252.4597,-178.7526 1250.0103,-178.252 1250.0103,-178.252 1250.0103,-178.252 1252.4597,-178.7526 1250.4608,-176.0476 1254.9091,-179.2532 1254.9091,-179.2532"/>
</g>
<!-- sn_mobile_browser -->
<g id="node9" class="node">
<title>sn_mobile_browser</title>
<polygon fill="none" stroke="#000000" points="16.5,-64 16.5,-100 175.5,-100 175.5,-64 16.5,-64"/>
<text text-anchor="middle" x="96" y="-78.9" font-family="verdana" font-size="12.00" fill="#000000">sn_mobile_browser</text>
</g>
<!-- sn_csharp -->
<g id="node10" class="node">
<title>sn_csharp</title>
<polygon fill="none" stroke="#000000" points="302,-38.5 302,-143.5 474,-143.5 474,-38.5 302,-38.5"/>
<text text-anchor="middle" x="388" y="-129.9" font-family="verdana" font-size="12.00" fill="#000000">sn_csharp</text>
<polyline fill="none" stroke="#000000" points="302,-122.5 474,-122.5 "/>
<text text-anchor="middle" x="388" y="-108.9" font-family="verdana" font-size="12.00" fill="#000000">SafeApp</text>
<polyline fill="none" stroke="#000000" points="302,-101.5 474,-101.5 "/>
<text text-anchor="middle" x="388" y="-87.9" font-family="verdana" font-size="12.00" fill="#000000">SafeApp.AppBindings</text>
<polyline fill="none" stroke="#000000" points="302,-80.5 474,-80.5 "/>
<text text-anchor="middle" x="388" y="-66.9" font-family="verdana" font-size="12.00" fill="#000000">SafeAuthenticator</text>
<polyline fill="none" stroke="#000000" points="302,-59.5 474,-59.5 "/>
<text text-anchor="middle" x="388" y="-45.9" font-family="verdana" font-size="12.00" fill="#000000">SafeApp.Core</text>
</g>
<!-- sn_mobile_browser&#45;&gt;sn_csharp -->
<g id="edge20" class="edge">
<title>sn_mobile_browser:K_sn_mobile_browser&#45;&gt;sn_csharp:K_sn_csharp</title>
<path fill="none" stroke="#006400" d="M175.9715,-100.1133C215.9316,-109.7149 226.0497,-112.3762 266,-123 280.2928,-126.8008 284.5103,-131.7636 296.9931,-132.8037"/>
<polygon fill="#006400" stroke="#006400" points="302,-133 296.9156,-135.0523 299.5019,-132.902 297.0038,-132.804 297.0038,-132.804 297.0038,-132.804 299.5019,-132.902 297.092,-130.5557 302,-133 302,-133"/>
</g>
<!-- sn_csharp&#45;&gt;sn_csharp -->
<g id="edge1" class="edge">
<title>sn_csharp:K_SafeApp.AppBindings&#45;&gt;sn_csharp:K_SafeApp.Core</title>
<path fill="none" stroke="#c0c0c0" d="M301.9345,-95.5607C268.6582,-93.4082 241,-85.9375 241,-70 241,-54.8718 265.9205,-47.3724 296.9114,-44.8088"/>
<polygon fill="#c0c0c0" stroke="#c0c0c0" points="301.9345,-44.4393 297.113,-47.0501 299.4412,-44.6227 296.9479,-44.8062 296.9479,-44.8062 296.9479,-44.8062 299.4412,-44.6227 296.7829,-42.5622 301.9345,-44.4393 301.9345,-44.4393"/>
</g>
<!-- sn_csharp&#45;&gt;sn_csharp -->
<g id="edge6" class="edge">
<title>sn_csharp:K_SafeAuthenticator&#45;&gt;sn_csharp:K_SafeApp.Core</title>
<path fill="none" stroke="#c0c0c0" d="M301.9345,-75.6422C268.6582,-74.7153 241,-69.8594 241,-59.5 241,-49.6667 265.9205,-44.792 296.9114,-43.5296"/>
<polygon fill="#c0c0c0" stroke="#c0c0c0" points="301.9345,-43.3578 297.0144,-45.7775 299.4359,-43.4433 296.9374,-43.5288 296.9374,-43.5288 296.9374,-43.5288 299.4359,-43.4433 296.8604,-41.2802 301.9345,-43.3578 301.9345,-43.3578"/>
</g>
<!-- sn_csharp&#45;&gt;sn_csharp -->
<g id="edge8" class="edge">
<title>sn_csharp:K_SafeApp&#45;&gt;sn_csharp:K_SafeApp.AppBindings</title>
<path fill="none" stroke="#c0c0c0" d="M301.9345,-117.6422C268.6582,-116.7153 241,-111.8594 241,-101.5 241,-91.6667 265.9205,-86.792 296.9114,-85.5296"/>
<polygon fill="#c0c0c0" stroke="#c0c0c0" points="301.9345,-85.3578 297.0144,-87.7775 299.4359,-85.4433 296.9374,-85.5288 296.9374,-85.5288 296.9374,-85.5288 299.4359,-85.4433 296.8604,-83.2802 301.9345,-85.3578 301.9345,-85.3578"/>
</g>
<!-- sn_csharp&#45;&gt;sn_csharp -->
<g id="edge9" class="edge">
<title>sn_csharp:K_SafeApp&#45;&gt;sn_csharp:K_SafeApp.Core</title>
<path fill="none" stroke="#c0c0c0" d="M301.9345,-115.4792C268.6582,-112.1011 241,-102.0156 241,-80.5 241,-60.077 265.9205,-49.9527 296.9114,-46.0879"/>
<polygon fill="#c0c0c0" stroke="#c0c0c0" points="301.9345,-45.5208 297.2185,-48.3176 299.4503,-45.8013 296.966,-46.0818 296.966,-46.0818 296.966,-46.0818 299.4503,-45.8013 296.7136,-43.846 301.9345,-45.5208 301.9345,-45.5208"/>
</g>
<!-- sn_csharp&#45;&gt;sn_api -->
<g id="edge2" class="edge">
<title>sn_csharp:K_SafeApp.AppBindings&#45;&gt;sn_api:K_sn_api</title>
<path fill="none" stroke="#006400" d="M474,-91C524.4421,-91 531.399,-129.3225 578.9534,-131.8674"/>
<polygon fill="#006400" stroke="#006400" points="584,-132 578.9426,-134.1178 581.5009,-131.9343 579.0017,-131.8686 579.0017,-131.8686 579.0017,-131.8686 581.5009,-131.9343 579.0609,-129.6194 584,-132 584,-132"/>
</g>
<!-- sn_authenticator_mobile -->
<g id="node11" class="node">
<title>sn_authenticator_mobile</title>
<polygon fill="none" stroke="#000000" points="0,-119 0,-155 192,-155 192,-119 0,-119"/>
<text text-anchor="middle" x="96" y="-133.9" font-family="verdana" font-size="12.00" fill="#000000">sn_authenticator_mobile</text>
</g>
<!-- sn_authenticator_mobile&#45;&gt;sn_csharp -->
<g id="edge22" class="edge">
<title>sn_authenticator_mobile:K_sn_authenticator_mobile&#45;&gt;sn_csharp:K_sn_csharp</title>
<path fill="none" stroke="#006400" d="M192.1497,-134.3598C225.1521,-133.6484 262.4599,-133.0578 296.9349,-133.004"/>
<polygon fill="#006400" stroke="#006400" points="302,-133 297.0018,-135.254 299.5,-133.002 297,-133.004 297,-133.004 297,-133.004 299.5,-133.002 296.9982,-130.754 302,-133 302,-133"/>
</g>
<!-- sn_node -->
<g id="node12" class="node">
<title>sn_node</title>
<polygon fill="none" stroke="#000000" points="586.5,-324 586.5,-360 680.5,-360 680.5,-324 586.5,-324"/>
<text text-anchor="middle" x="633.5" y="-338.9" font-family="verdana" font-size="12.00" fill="#000000">sn_node</text>
</g>
<!-- sn_node&#45;&gt;xor_name -->
<g id="edge29" class="edge">
<title>sn_node:K_sn_node&#45;&gt;xor_name:K_xor_name</title>
<path fill="none" stroke="#006400" d="M680.933,-360.2433C717.5805,-380.9895 714.1756,-418 756.5,-418 756.5,-418 756.5,-418 1181.5,-418 1206.5244,-418 1207.6674,-398.3113 1219,-376 1252.7049,-309.643 1206.7597,-267.3022 1251.3359,-212.3159"/>
<polygon fill="#006400" stroke="#006400" points="1254.7042,-208.3345 1253.1925,-213.605 1253.0895,-210.2431 1251.4748,-212.1517 1251.4748,-212.1517 1251.4748,-212.1517 1253.0895,-210.2431 1249.757,-210.6985 1254.7042,-208.3345 1254.7042,-208.3345"/>
</g>
<!-- sn_node&#45;&gt;sn_routing -->
<g id="edge28" class="edge">
<title>sn_node:K_sn_node&#45;&gt;sn_routing:K_sn_routing</title>
<path fill="none" stroke="#006400" d="M680.5074,-342C712.0223,-342 753.7704,-342 787.5139,-342"/>
<polygon fill="#006400" stroke="#006400" points="792.858,-342 787.8581,-344.2501 790.358,-342 787.858,-342.0001 787.858,-342.0001 787.858,-342.0001 790.358,-342 787.858,-339.7501 792.858,-342 792.858,-342"/>
</g>
<!-- sn_node&#45;&gt;sn_data_types -->
<g id="edge27" class="edge">
<title>sn_node:K_sn_node&#45;&gt;sn_data_types:K_sn_data_types</title>
<path fill="none" stroke="#006400" d="M680.933,-323.7567C717.5805,-303.0105 714.1756,-266 756.5,-266 756.5,-266 756.5,-266 936.5,-266 992.3253,-266 967.3696,-198.6167 1008.5285,-164.3979"/>
<polygon fill="#006400" stroke="#006400" points="1012.7229,-161.1933 1010.1158,-166.0168 1010.7364,-162.7111 1008.7498,-164.2289 1008.7498,-164.2289 1008.7498,-164.2289 1010.7364,-162.7111 1007.3838,-162.4409 1012.7229,-161.1933 1012.7229,-161.1933"/>
</g>
<!-- sn_api&#45;&gt;xor_name -->
<g id="edge18" class="edge">
<title>sn_api:K_sn_cli&#45;&gt;xor_name:K_xor_name</title>
<path fill="none" stroke="#006400" d="M683,-153C719.5723,-153 719.9277,-190 756.5,-190 756.5,-190 756.5,-190 1181.5,-190 1203.7766,-190 1228.2686,-190 1249.6884,-190"/>
<polygon fill="#006400" stroke="#006400" points="1254.778,-190 1249.778,-192.2501 1252.278,-190 1249.778,-190.0001 1249.778,-190.0001 1249.778,-190.0001 1252.278,-190 1249.7779,-187.7501 1254.778,-190 1254.778,-190"/>
</g>
<!-- sn_api&#45;&gt;xor_name -->
<g id="edge26" class="edge">
<title>sn_api:K_sn_api&#45;&gt;xor_name:K_xor_name</title>
<path fill="none" stroke="#006400" d="M683,-132C750.1483,-132 689.3517,0 756.5,0 756.5,0 756.5,0 1181.5,0 1212.1964,0 1205.9276,-30.2262 1219,-58 1240.7465,-104.2028 1219.6685,-131.7709 1250.9368,-167.6037"/>
<polygon fill="#006400" stroke="#006400" points="1254.5679,-171.5548 1249.5279,-169.3958 1252.8763,-169.7141 1251.1846,-167.8733 1251.1846,-167.8733 1251.1846,-167.8733 1252.8763,-169.7141 1252.8413,-166.3508 1254.5679,-171.5548 1254.5679,-171.5548"/>
</g>
<!-- sn_api&#45;&gt;sn_client -->
<g id="edge24" class="edge">
<title>sn_api:K_sn_api&#45;&gt;sn_client:K_sn_client</title>
<path fill="none" stroke="#006400" d="M683,-132C720.1401,-132 761.3993,-125.1342 793.1789,-118.327"/>
<polygon fill="#006400" stroke="#006400" points="798.1958,-117.236 793.7881,-120.4972 795.7529,-117.7673 793.31,-118.2985 793.31,-118.2985 793.31,-118.2985 795.7529,-117.7673 792.8319,-116.0999 798.1958,-117.236 798.1958,-117.236"/>
</g>
<!-- sn_api&#45;&gt;sn_data_types -->
<g id="edge25" class="edge">
<title>sn_api:K_sn_api&#45;&gt;sn_data_types:K_sn_data_types</title>
<path fill="none" stroke="#006400" d="M683,-132C716.8544,-132 722.6456,-152 756.5,-152 756.5,-152 756.5,-152 936.5,-152 959.7604,-152 985.1354,-150.7651 1007.8669,-149.2101"/>
<polygon fill="#006400" stroke="#006400" points="1012.977,-148.8522 1008.1465,-151.4462 1010.4831,-149.0269 1007.9892,-149.2017 1007.9892,-149.2017 1007.9892,-149.2017 1010.4831,-149.0269 1007.832,-146.9572 1012.977,-148.8522 1012.977,-148.8522"/>
</g>
<!-- sn_api&#45;&gt;sn_api -->
<g id="edge4" class="edge">
<title>sn_api:K_sn_authd&#45;&gt;sn_api:K_qjsonrpc</title>
<path fill="none" stroke="#c0c0c0" d="M583.5426,-116.775C560.7837,-116.3339 541,-111.5449 541,-100.5 541,-90.2748 557.956,-85.4114 578.5312,-84.3958"/>
<polygon fill="#c0c0c0" stroke="#c0c0c0" points="583.5426,-84.225 578.6222,-86.6441 581.044,-84.3102 578.5455,-84.3954 578.5455,-84.3954 578.5455,-84.3954 581.044,-84.3102 578.4688,-82.1467 583.5426,-84.225 583.5426,-84.225"/>
</g>
<!-- sn_api&#45;&gt;sn_api -->
<g id="edge5" class="edge">
<title>sn_api:K_sn_authd&#45;&gt;sn_api:K_sn_api</title>
<path fill="none" stroke="#c0c0c0" d="M583.5426,-105.225C560.7837,-105.6661 541,-110.4551 541,-121.5 541,-131.7252 557.956,-136.5886 578.5312,-137.6042"/>
<polygon fill="#c0c0c0" stroke="#c0c0c0" points="583.5426,-137.775 578.4688,-139.8533 581.044,-137.6898 578.5455,-137.6046 578.5455,-137.6046 578.5455,-137.6046 581.044,-137.6898 578.6222,-135.3559 583.5426,-137.775 583.5426,-137.775"/>
</g>
<!-- sn_api&#45;&gt;sn_api -->
<g id="edge17" class="edge">
<title>sn_api:K_sn_cli&#45;&gt;sn_api:K_sn_api</title>
<path fill="none" stroke="#c0c0c0" d="M583.5426,-158.775C560.7837,-158.3339 541,-153.5449 541,-142.5 541,-132.2748 557.956,-127.4114 578.5312,-126.3958"/>
<polygon fill="#c0c0c0" stroke="#c0c0c0" points="583.5426,-126.225 578.6222,-128.6441 581.044,-126.3102 578.5455,-126.3954 578.5455,-126.3954 578.5455,-126.3954 581.044,-126.3102 578.4688,-124.1467 583.5426,-126.225 583.5426,-126.225"/>
</g>
<!-- sn_api&#45;&gt;sn_api -->
<g id="edge23" class="edge">
<title>sn_api:K_sn_api&#45;&gt;sn_api:K_qjsonrpc</title>
<path fill="none" stroke="#c0c0c0" d="M583.5426,-136.9191C560.7837,-135.3599 541,-127.9922 541,-111 541,-95.269 557.956,-87.7868 578.5312,-85.5256"/>
<polygon fill="#c0c0c0" stroke="#c0c0c0" points="583.5426,-85.0809 578.7611,-87.7642 581.0524,-85.302 578.5622,-85.523 578.5622,-85.523 578.5622,-85.523 581.0524,-85.302 578.3632,-83.2818 583.5426,-85.0809 583.5426,-85.0809"/>
</g>
</g>
</svg>
