<?xml version="1.0" encoding="UTF-8" standalone="no"?>
<?xml-stylesheet href="./db.css" type="text/css"?>
<!DOCTYPE svg PUBLIC "-//W3C//DTD SVG 1.1//EN"
 "http://www.w3.org/Graphics/SVG/1.1/DTD/svg11.dtd">
<!-- Generated by graphviz version 2.43.0 (0)
 -->
<!-- Title: g Pages: 1 -->
<svg width="1367pt" height="507pt"
 viewBox="0.00 0.00 1367.00 506.50" xmlns="http://www.w3.org/2000/svg" xmlns:xlink="http://www.w3.org/1999/xlink">
<g id="graph0" class="graph" transform="scale(1 1) rotate(0) translate(4 502.5)">
<title>g</title>
<polygon fill="white" stroke="transparent" points="-4,4 -4,-502.5 1363,-502.5 1363,4 -4,4"/>
<!-- sn_authenticator_mobile -->
<g id="node1" class="node">
<title>sn_authenticator_mobile</title>
<polygon fill="none" stroke="black" points="0,-407 0,-443 192,-443 192,-407 0,-407"/>
<text text-anchor="middle" x="96" y="-421.9" font-family="verdana" font-size="12.00">sn_authenticator_mobile</text>
</g>
<!-- sn_csharp -->
<g id="node5" class="node">
<title>sn_csharp</title>
<polygon fill="none" stroke="black" points="302,-358.5 302,-463.5 474,-463.5 474,-358.5 302,-358.5"/>
<text text-anchor="middle" x="388" y="-449.9" font-family="verdana" font-size="12.00">sn_csharp</text>
<polyline fill="none" stroke="black" points="302,-442.5 474,-442.5 "/>
<text text-anchor="middle" x="388" y="-428.9" font-family="verdana" font-size="12.00">SafeApp</text>
<polyline fill="none" stroke="black" points="302,-421.5 474,-421.5 "/>
<text text-anchor="middle" x="388" y="-407.9" font-family="verdana" font-size="12.00">SafeApp.AppBindings</text>
<polyline fill="none" stroke="black" points="302,-400.5 474,-400.5 "/>
<text text-anchor="middle" x="388" y="-386.9" font-family="verdana" font-size="12.00">SafeAuthenticator</text>
<polyline fill="none" stroke="black" points="302,-379.5 474,-379.5 "/>
<text text-anchor="middle" x="388" y="-365.9" font-family="verdana" font-size="12.00">SafeApp.Core</text>
</g>
<!-- sn_authenticator_mobile&#45;&gt;sn_csharp -->
<g id="edge1" class="edge">
<title>sn_authenticator_mobile:K_sn_authenticator_mobile&#45;&gt;sn_csharp:K_sn_csharp</title>
<path fill="none" stroke="DarkGreen" d="M192.21,-440.6C231.9,-446.55 273.91,-452.11 296.86,-452.9"/>
<polygon fill="DarkGreen" stroke="DarkGreen" points="302,-453 296.96,-455.16 299.5,-452.95 297,-452.91 297,-452.91 297,-452.91 299.5,-452.95 297.04,-450.66 302,-453 302,-453"/>
</g>
<!-- sn_api -->
<g id="node2" class="node">
<title>sn_api</title>
<polygon fill="none" stroke="black" points="584,-314.5 584,-419.5 683,-419.5 683,-314.5 584,-314.5"/>
<text text-anchor="middle" x="633.5" y="-405.9" font-family="verdana" font-size="12.00">sn_api</text>
<polyline fill="none" stroke="black" points="584,-398.5 683,-398.5 "/>
<text text-anchor="middle" x="633.5" y="-384.9" font-family="verdana" font-size="12.00">sn_cli</text>
<polyline fill="none" stroke="black" points="584,-377.5 683,-377.5 "/>
<text text-anchor="middle" x="633.5" y="-363.9" font-family="verdana" font-size="12.00">sn_api</text>
<polyline fill="none" stroke="black" points="584,-356.5 683,-356.5 "/>
<text text-anchor="middle" x="633.5" y="-342.9" font-family="verdana" font-size="12.00">sn_authd</text>
<polyline fill="none" stroke="black" points="584,-335.5 683,-335.5 "/>
<text text-anchor="middle" x="633.5" y="-321.9" font-family="verdana" font-size="12.00">qjsonrpc</text>
</g>
<!-- sn_api&#45;&gt;sn_api -->
<g id="edge3" class="edge">
<title>sn_api:K_sn_api&#45;&gt;sn_api:K_qjsonrpc</title>
<path fill="none" stroke="grey" d="M583.54,-371.92C560.78,-370.36 541,-362.99 541,-346 541,-330.27 557.96,-322.79 578.53,-320.53"/>
<polygon fill="grey" stroke="grey" points="583.54,-320.08 578.76,-322.76 581.05,-320.3 578.56,-320.52 578.56,-320.52 578.56,-320.52 581.05,-320.3 578.36,-318.28 583.54,-320.08 583.54,-320.08"/>
</g>
<!-- sn_api&#45;&gt;sn_api -->
<g id="edge7" class="edge">
<title>sn_api:K_sn_cli&#45;&gt;sn_api:K_sn_api</title>
<path fill="none" stroke="grey" d="M583.54,-393.78C560.78,-393.33 541,-388.54 541,-377.5 541,-367.27 557.96,-362.41 578.53,-361.4"/>
<polygon fill="grey" stroke="grey" points="583.54,-361.22 578.62,-363.64 581.04,-361.31 578.55,-361.4 578.55,-361.4 578.55,-361.4 581.04,-361.31 578.47,-359.15 583.54,-361.22 583.54,-361.22"/>
</g>
<!-- sn_api&#45;&gt;sn_api -->
<g id="edge16" class="edge">
<title>sn_api:K_sn_authd&#45;&gt;sn_api:K_qjsonrpc</title>
<path fill="none" stroke="grey" d="M583.54,-351.78C560.78,-351.33 541,-346.54 541,-335.5 541,-325.27 557.96,-320.41 578.53,-319.4"/>
<polygon fill="grey" stroke="grey" points="583.54,-319.22 578.62,-321.64 581.04,-319.31 578.55,-319.4 578.55,-319.4 578.55,-319.4 581.04,-319.31 578.47,-317.15 583.54,-319.22 583.54,-319.22"/>
</g>
<!-- sn_api&#45;&gt;sn_api -->
<g id="edge17" class="edge">
<title>sn_api:K_sn_authd&#45;&gt;sn_api:K_sn_api</title>
<path fill="none" stroke="grey" d="M583.54,-340.22C560.78,-340.67 541,-345.46 541,-356.5 541,-366.73 557.96,-371.59 578.53,-372.6"/>
<polygon fill="grey" stroke="grey" points="583.54,-372.78 578.47,-374.85 581.04,-372.69 578.55,-372.6 578.55,-372.6 578.55,-372.6 581.04,-372.69 578.62,-370.36 583.54,-372.78 583.54,-372.78"/>
</g>
<!-- sn_client -->
<g id="node8" class="node">
<title>sn_client</title>
<polygon fill="none" stroke="black" points="798,-286 798,-322 894,-322 894,-286 798,-286"/>
<text text-anchor="middle" x="846" y="-300.9" font-family="verdana" font-size="12.00">sn_client</text>
</g>
<!-- sn_api&#45;&gt;sn_client -->
<g id="edge4" class="edge">
<title>sn_api:K_sn_api&#45;&gt;sn_client:K_sn_client</title>
<path fill="none" stroke="DarkGreen" d="M683,-367C736.07,-367 746.11,-343.29 793.04,-323.97"/>
<polygon fill="DarkGreen" stroke="DarkGreen" points="797.7,-322.12 793.89,-326.05 795.38,-323.04 793.05,-323.96 793.05,-323.96 793.05,-323.96 795.38,-323.04 792.22,-321.87 797.7,-322.12 797.7,-322.12"/>
</g>
<!-- sn_data_types -->
<g id="node12" class="node">
<title>sn_data_types</title>
<polygon fill="none" stroke="black" points="1012,-177 1012,-213 1141,-213 1141,-177 1012,-177"/>
<text text-anchor="middle" x="1076.5" y="-191.9" font-family="verdana" font-size="12.00">sn_data_types</text>
</g>
<!-- sn_api&#45;&gt;sn_data_types -->
<g id="edge5" class="edge">
<title>sn_api:K_sn_api&#45;&gt;sn_data_types:K_sn_data_types</title>
<path fill="none" stroke="DarkGreen" d="M683,-367C768.09,-367 670.91,-190 756,-190 756,-190 756,-190 936,-190 959.03,-190 984.17,-190.68 1006.74,-191.54"/>
<polygon fill="DarkGreen" stroke="DarkGreen" points="1011.82,-191.73 1006.73,-193.79 1009.32,-191.64 1006.82,-191.54 1006.82,-191.54 1006.82,-191.54 1009.32,-191.64 1006.91,-189.29 1011.82,-191.73 1011.82,-191.73"/>
</g>
<!-- xor_name -->
<g id="node14" class="node">
<title>xor_name</title>
<polygon fill="none" stroke="black" points="1254,-177 1254,-213 1359,-213 1359,-177 1254,-177"/>
<text text-anchor="middle" x="1306.5" y="-191.9" font-family="verdana" font-size="12.00">xor_name</text>
</g>
<!-- sn_api&#45;&gt;xor_name -->
<g id="edge6" class="edge">
<title>sn_api:K_sn_api&#45;&gt;xor_name:K_xor_name</title>
<path fill="none" stroke="DarkGreen" d="M683,-367C716.89,-367 722.11,-389 756,-389 756,-389 756,-389 1181,-389 1263.7,-389 1195.62,-276.43 1249.89,-217.16"/>
<polygon fill="DarkGreen" stroke="DarkGreen" points="1253.64,-213.34 1251.74,-218.48 1251.89,-215.12 1250.14,-216.91 1250.14,-216.91 1250.14,-216.91 1251.89,-215.12 1248.53,-215.33 1253.64,-213.34 1253.64,-213.34"/>
</g>
<!-- sn_api&#45;&gt;xor_name -->
<g id="edge8" class="edge">
<title>sn_api:K_sn_cli&#45;&gt;xor_name:K_xor_name</title>
<path fill="none" stroke="DarkGreen" d="M683,-388C719.78,-388 719.22,-427 756,-427 756,-427 756,-427 1181,-427 1204.89,-427 1206.95,-409.18 1218,-388 1253.81,-319.39 1204.18,-274.91 1250.21,-217.5"/>
<polygon fill="DarkGreen" stroke="DarkGreen" points="1253.69,-213.35 1252.21,-218.63 1252.09,-215.27 1250.48,-217.18 1250.48,-217.18 1250.48,-217.18 1252.09,-215.27 1248.76,-215.74 1253.69,-213.35 1253.69,-213.35"/>
</g>
<!-- sn_routing -->
<g id="node3" class="node">
<title>sn_routing</title>
<polygon fill="none" stroke="black" points="793,-58 793,-94 899,-94 899,-58 793,-58"/>
<text text-anchor="middle" x="846" y="-72.9" font-family="verdana" font-size="12.00">sn_routing</text>
</g>
<!-- qp2p -->
<g id="node7" class="node">
<title>qp2p</title>
<polygon fill="none" stroke="black" points="1039,-122 1039,-158 1114,-158 1114,-122 1039,-122"/>
<text text-anchor="middle" x="1076.5" y="-136.9" font-family="verdana" font-size="12.00">qp2p</text>
</g>
<!-- sn_routing&#45;&gt;qp2p -->
<g id="edge12" class="edge">
<title>sn_routing:K_sn_routing&#45;&gt;qp2p:K_qp2p</title>
<path fill="none" stroke="DarkGreen" d="M899.17,-90.76C940.02,-102.1 995.69,-117.56 1033.69,-128.11"/>
<polygon fill="DarkGreen" stroke="DarkGreen" points="1038.7,-129.5 1033.28,-130.33 1036.29,-128.83 1033.88,-128.17 1033.88,-128.17 1033.88,-128.17 1036.29,-128.83 1034.48,-126 1038.7,-129.5 1038.7,-129.5"/>
</g>
<!-- bls_dkg -->
<g id="node10" class="node">
<title>bls_dkg</title>
<polygon fill="none" stroke="black" points="1032,-67 1032,-103 1121,-103 1121,-67 1032,-67"/>
<text text-anchor="middle" x="1076.5" y="-81.9" font-family="verdana" font-size="12.00">bls_dkg</text>
</g>
<!-- sn_routing&#45;&gt;bls_dkg -->
<g id="edge11" class="edge">
<title>sn_routing:K_sn_routing&#45;&gt;bls_dkg:K_bls_dkg</title>
<path fill="none" stroke="DarkGreen" d="M899.17,-78.08C937.44,-79.57 988.73,-81.57 1026.3,-83.04"/>
<polygon fill="DarkGreen" stroke="DarkGreen" points="1031.74,-83.25 1026.66,-85.31 1029.24,-83.15 1026.74,-83.06 1026.74,-83.06 1026.74,-83.06 1029.24,-83.15 1026.83,-80.81 1031.74,-83.25 1031.74,-83.25"/>
</g>
<!-- sn_routing&#45;&gt;xor_name -->
<g id="edge13" class="edge">
<title>sn_routing:K_sn_routing&#45;&gt;xor_name:K_xor_name</title>
<path fill="none" stroke="DarkGreen" d="M899.01,-58.45C929.93,-48.49 964.32,-38 972,-38 972,-38 972,-38 1181,-38 1248.87,-38 1203.65,-126.54 1249.89,-173.18"/>
<polygon fill="DarkGreen" stroke="DarkGreen" points="1253.69,-176.73 1248.5,-174.96 1251.86,-175.03 1250.04,-173.32 1250.04,-173.32 1250.04,-173.32 1251.86,-175.03 1251.58,-171.67 1253.69,-176.73 1253.69,-176.73"/>
</g>
<!-- sn_browser -->
<g id="node4" class="node">
<title>sn_browser</title>
<polygon fill="none" stroke="black" points="40,-311 40,-347 152,-347 152,-311 40,-311"/>
<text text-anchor="middle" x="96" y="-325.9" font-family="verdana" font-size="12.00">sn_browser</text>
</g>
<!-- sn_nodejs -->
<g id="node6" class="node">
<title>sn_nodejs</title>
<polygon fill="none" stroke="black" points="336.5,-297 336.5,-339 439.5,-339 439.5,-297 336.5,-297"/>
<text text-anchor="middle" x="388" y="-325.4" font-family="verdana" font-size="12.00">sn_nodejs</text>
<polyline fill="none" stroke="black" points="336.5,-318 439.5,-318 "/>
<text text-anchor="middle" x="388" y="-304.4" font-family="verdana" font-size="12.00">native</text>
</g>
<!-- sn_browser&#45;&gt;sn_nodejs -->
<g id="edge14" class="edge">
<title>sn_browser:K_sn_browser&#45;&gt;sn_nodejs:K_sn_nodejs</title>
<path fill="none" stroke="DarkGreen" d="M152.02,-329C199.13,-329 268.43,-329 329.84,-329"/>
<polygon fill="DarkGreen" stroke="DarkGreen" points="335,-329 330,-331.25 332.5,-329 330,-329 330,-329 330,-329 332.5,-329 330,-326.75 335,-329 335,-329"/>
</g>
<!-- sn_csharp&#45;&gt;sn_api -->
<g id="edge10" class="edge">
<title>sn_csharp:K_SafeApp.AppBindings&#45;&gt;sn_api:K_sn_api</title>
<path fill="none" stroke="DarkGreen" d="M474,-411C524.91,-411 530.98,-369.87 578.91,-367.14"/>
<polygon fill="DarkGreen" stroke="DarkGreen" points="584,-367 579.06,-369.39 581.5,-367.07 579,-367.14 579,-367.14 579,-367.14 581.5,-367.07 578.94,-364.89 584,-367 584,-367"/>
</g>
<!-- sn_csharp&#45;&gt;sn_csharp -->
<g id="edge2" class="edge">
<title>sn_csharp:K_SafeAuthenticator&#45;&gt;sn_csharp:K_SafeApp.Core</title>
<path fill="none" stroke="grey" d="M301.93,-395.64C268.66,-394.72 241,-389.86 241,-379.5 241,-369.67 265.92,-364.79 296.91,-363.53"/>
<polygon fill="grey" stroke="grey" points="301.93,-363.36 297.01,-365.78 299.44,-363.44 296.94,-363.53 296.94,-363.53 296.94,-363.53 299.44,-363.44 296.86,-361.28 301.93,-363.36 301.93,-363.36"/>
</g>
<!-- sn_csharp&#45;&gt;sn_csharp -->
<g id="edge9" class="edge">
<title>sn_csharp:K_SafeApp.AppBindings&#45;&gt;sn_csharp:K_SafeApp.Core</title>
<path fill="none" stroke="grey" d="M301.93,-415.56C268.66,-413.41 241,-405.94 241,-390 241,-374.87 265.92,-367.37 296.91,-364.81"/>
<polygon fill="grey" stroke="grey" points="301.93,-364.44 297.11,-367.05 299.44,-364.62 296.95,-364.81 296.95,-364.81 296.95,-364.81 299.44,-364.62 296.78,-362.56 301.93,-364.44 301.93,-364.44"/>
</g>
<!-- sn_csharp&#45;&gt;sn_csharp -->
<g id="edge25" class="edge">
<title>sn_csharp:K_SafeApp&#45;&gt;sn_csharp:K_SafeApp.AppBindings</title>
<path fill="none" stroke="grey" d="M301.93,-437.64C268.66,-436.72 241,-431.86 241,-421.5 241,-411.67 265.92,-406.79 296.91,-405.53"/>
<polygon fill="grey" stroke="grey" points="301.93,-405.36 297.01,-407.78 299.44,-405.44 296.94,-405.53 296.94,-405.53 296.94,-405.53 299.44,-405.44 296.86,-403.28 301.93,-405.36 301.93,-405.36"/>
</g>
<!-- sn_csharp&#45;&gt;sn_csharp -->
<g id="edge26" class="edge">
<title>sn_csharp:K_SafeApp&#45;&gt;sn_csharp:K_SafeApp.Core</title>
<path fill="none" stroke="grey" d="M301.93,-435.48C268.66,-432.1 241,-422.02 241,-400.5 241,-380.08 265.92,-369.95 296.91,-366.09"/>
<polygon fill="grey" stroke="grey" points="301.93,-365.52 297.22,-368.32 299.45,-365.8 296.97,-366.08 296.97,-366.08 296.97,-366.08 299.45,-365.8 296.71,-363.85 301.93,-365.52 301.93,-365.52"/>
</g>
<!-- sn_nodejs&#45;&gt;sn_api -->
<g id="edge15" class="edge">
<title>sn_nodejs:K_native&#45;&gt;sn_api:K_sn_api</title>
<path fill="none" stroke="DarkGreen" d="M441,-307C508.17,-307 514.77,-363.99 578.87,-366.89"/>
<polygon fill="DarkGreen" stroke="DarkGreen" points="584,-367 578.95,-369.14 581.5,-366.94 579,-366.89 579,-366.89 579,-366.89 581.5,-366.94 579.05,-364.64 584,-367 584,-367"/>
</g>
<!-- sn_client&#45;&gt;qp2p -->
<g id="edge18" class="edge">
<title>sn_client:K_sn_client&#45;&gt;qp2p:K_qp2p</title>
<path fill="none" stroke="DarkGreen" d="M894.36,-285.76C955.47,-245.51 948.07,-207.93 1009,-167 1016.6,-161.89 1025.32,-157.51 1033.91,-153.86"/>
<polygon fill="DarkGreen" stroke="DarkGreen" points="1038.65,-151.9 1034.89,-155.88 1036.34,-152.85 1034.03,-153.8 1034.03,-153.8 1034.03,-153.8 1036.34,-152.85 1033.17,-151.72 1038.65,-151.9 1038.65,-151.9"/>
</g>
<!-- sn_client&#45;&gt;sn_data_types -->
<g id="edge20" class="edge">
<title>sn_client:K_sn_client&#45;&gt;sn_data_types:K_sn_data_types</title>
<path fill="none" stroke="DarkGreen" d="M894.43,-285.8C930.54,-269.08 939.38,-263.73 973,-242 989.45,-231.37 992.19,-223.99 1007.02,-215.61"/>
<polygon fill="DarkGreen" stroke="DarkGreen" points="1011.55,-213.22 1008.18,-217.55 1009.34,-214.39 1007.13,-215.56 1007.13,-215.56 1007.13,-215.56 1009.34,-214.39 1006.08,-213.57 1011.55,-213.22 1011.55,-213.22"/>
</g>
<!-- self_encryption -->
<g id="node13" class="node">
<title>self_encryption</title>
<polygon fill="none" stroke="black" points="1009,-324 1009,-360 1144,-360 1144,-324 1009,-324"/>
<text text-anchor="middle" x="1076.5" y="-338.9" font-family="verdana" font-size="12.00">self_encryption</text>
</g>
<!-- sn_client&#45;&gt;self_encryption -->
<g id="edge19" class="edge">
<title>sn_client:K_sn_client&#45;&gt;self_encryption:K_self_encryption</title>
<path fill="none" stroke="DarkGreen" d="M894.04,-311.92C925.73,-317.14 967.84,-324.09 1003.62,-329.99"/>
<polygon fill="DarkGreen" stroke="DarkGreen" points="1008.85,-330.85 1003.55,-332.25 1006.39,-330.44 1003.92,-330.03 1003.92,-330.03 1003.92,-330.03 1006.39,-330.44 1004.29,-327.81 1008.85,-330.85 1008.85,-330.85"/>
</g>
<!-- sn_client&#45;&gt;xor_name -->
<g id="edge21" class="edge">
<title>sn_client:K_sn_client&#45;&gt;xor_name:K_xor_name</title>
<path fill="none" stroke="DarkGreen" d="M894.41,-292.54C979.85,-272.32 1157.01,-230.38 1248.71,-208.68"/>
<polygon fill="DarkGreen" stroke="DarkGreen" points="1253.82,-207.47 1249.47,-210.81 1251.38,-208.05 1248.95,-208.62 1248.95,-208.62 1248.95,-208.62 1251.38,-208.05 1248.43,-206.43 1253.82,-207.47 1253.82,-207.47"/>
</g>
<!-- sn_node -->
<g id="node9" class="node">
<title>sn_node</title>
<polygon fill="none" stroke="black" points="586.5,-58 586.5,-94 680.5,-94 680.5,-58 586.5,-58"/>
<text text-anchor="middle" x="633.5" y="-72.9" font-family="verdana" font-size="12.00">sn_node</text>
</g>
<!-- sn_node&#45;&gt;sn_routing -->
<g id="edge23" class="edge">
<title>sn_node:K_sn_node&#45;&gt;sn_routing:K_sn_routing</title>
<path fill="none" stroke="DarkGreen" d="M680.66,-76C712.23,-76 754,-76 787.66,-76"/>
<polygon fill="DarkGreen" stroke="DarkGreen" points="792.99,-76 787.99,-78.25 790.49,-76 787.99,-76 787.99,-76 787.99,-76 790.49,-76 787.99,-73.75 792.99,-76 792.99,-76"/>
</g>
<!-- sn_node&#45;&gt;sn_data_types -->
<g id="edge22" class="edge">
<title>sn_node:K_sn_node&#45;&gt;sn_data_types:K_sn_data_types</title>
<path fill="none" stroke="DarkGreen" d="M680.93,-94.24C717.39,-114.96 713.85,-152 756,-152 756,-152 756,-152 936,-152 969.62,-152 977.19,-165.11 1006.68,-175.27"/>
<polygon fill="DarkGreen" stroke="DarkGreen" points="1011.6,-176.88 1006.15,-177.47 1009.23,-176.1 1006.85,-175.33 1006.85,-175.33 1006.85,-175.33 1009.23,-176.1 1007.54,-173.19 1011.6,-176.88 1011.6,-176.88"/>
</g>
<!-- sn_node&#45;&gt;xor_name -->
<g id="edge24" class="edge">
<title>sn_node:K_sn_node&#45;&gt;xor_name:K_xor_name</title>
<path fill="none" stroke="DarkGreen" d="M680.93,-57.76C717.39,-37.04 713.85,0 756,0 756,0 756,0 1181,0 1210.83,0 1205.39,-28.97 1218,-56 1240.89,-105.06 1216.95,-134.41 1250.15,-172.78"/>
<polygon fill="DarkGreen" stroke="DarkGreen" points="1253.55,-176.53 1248.52,-174.33 1251.87,-174.67 1250.19,-172.82 1250.19,-172.82 1250.19,-172.82 1251.87,-174.67 1251.85,-171.31 1253.55,-176.53 1253.55,-176.53"/>
</g>
<!-- bls_dkg&#45;&gt;xor_name -->
<g id="edge27" class="edge">
<title>bls_dkg:K_bls_dkg&#45;&gt;xor_name:K_xor_name</title>
<path fill="none" stroke="DarkGreen" d="M1121.22,-101.77C1128.91,-104.96 1136.75,-108.43 1144,-112 1193.27,-136.23 1201.89,-152.14 1249.01,-174.66"/>
<polygon fill="DarkGreen" stroke="DarkGreen" points="1253.7,-176.86 1248.22,-176.77 1251.44,-175.8 1249.17,-174.73 1249.17,-174.73 1249.17,-174.73 1251.44,-175.8 1250.13,-172.7 1253.7,-176.86 1253.7,-176.86"/>
</g>
<!-- sn_mobile_browser -->
<g id="node11" class="node">
<title>sn_mobile_browser</title>
<polygon fill="none" stroke="black" points="16.5,-462 16.5,-498 175.5,-498 175.5,-462 16.5,-462"/>
<text text-anchor="middle" x="96" y="-476.9" font-family="verdana" font-size="12.00">sn_mobile_browser</text>
</g>
<!-- sn_mobile_browser&#45;&gt;sn_csharp -->
<g id="edge28" class="edge">
<title>sn_mobile_browser:K_sn_mobile_browser&#45;&gt;sn_csharp:K_sn_csharp</title>
<path fill="none" stroke="DarkGreen" d="M175.7,-476.83C204.38,-474.67 236.85,-471.06 266,-465 280.71,-461.94 284.39,-454.81 296.94,-453.29"/>
<polygon fill="DarkGreen" stroke="DarkGreen" points="302,-453 297.14,-455.53 299.5,-453.14 297.01,-453.29 297.01,-453.29 297.01,-453.29 299.5,-453.14 296.88,-451.04 302,-453 302,-453"/>
</g>
<!-- sn_data_types&#45;&gt;xor_name -->
<g id="edge29" class="edge">
<title>sn_data_types:K_sn_data_types&#45;&gt;xor_name:K_xor_name</title>
<path fill="none" stroke="DarkGreen" d="M1141.18,-195C1174.98,-195 1216,-195 1248.73,-195"/>
<polygon fill="DarkGreen" stroke="DarkGreen" points="1253.91,-195 1248.91,-197.25 1251.41,-195 1248.91,-195 1248.91,-195 1248.91,-195 1251.41,-195 1248.91,-192.75 1253.91,-195 1253.91,-195"/>
</g>
</g>
</svg>
