<?xml version="1.0" encoding="UTF-8" standalone="no"?>
<?xml-stylesheet href="./db.css" type="text/css"?>
<!DOCTYPE svg PUBLIC "-//W3C//DTD SVG 1.1//EN"
 "http://www.w3.org/Graphics/SVG/1.1/DTD/svg11.dtd">
<!-- Generated by graphviz version 2.43.0 (0)
 -->
<!-- Title: g Pages: 1 -->
<svg width="1367pt" height="482pt"
 viewBox="0.00 0.00 1367.00 482.00" xmlns="http://www.w3.org/2000/svg" xmlns:xlink="http://www.w3.org/1999/xlink">
<g id="graph0" class="graph" transform="scale(1 1) rotate(0) translate(4 478)">
<title>g</title>
<polygon fill="white" stroke="transparent" points="-4,4 -4,-478 1363,-478 1363,4 -4,4"/>
<!-- sn_authenticator_mobile -->
<g id="node1" class="node">
<title>sn_authenticator_mobile</title>
<polygon fill="none" stroke="black" points="0,-365 0,-401 192,-401 192,-365 0,-365"/>
<text text-anchor="middle" x="96" y="-379.9" font-family="verdana" font-size="12.00">sn_authenticator_mobile</text>
</g>
<!-- sn_csharp -->
<g id="node5" class="node">
<title>sn_csharp</title>
<polygon fill="none" stroke="black" points="302,-316.5 302,-421.5 474,-421.5 474,-316.5 302,-316.5"/>
<text text-anchor="middle" x="388" y="-407.9" font-family="verdana" font-size="12.00">sn_csharp</text>
<polyline fill="none" stroke="black" points="302,-400.5 474,-400.5 "/>
<text text-anchor="middle" x="388" y="-386.9" font-family="verdana" font-size="12.00">SafeApp</text>
<polyline fill="none" stroke="black" points="302,-379.5 474,-379.5 "/>
<text text-anchor="middle" x="388" y="-365.9" font-family="verdana" font-size="12.00">SafeApp.AppBindings</text>
<polyline fill="none" stroke="black" points="302,-358.5 474,-358.5 "/>
<text text-anchor="middle" x="388" y="-344.9" font-family="verdana" font-size="12.00">SafeAuthenticator</text>
<polyline fill="none" stroke="black" points="302,-337.5 474,-337.5 "/>
<text text-anchor="middle" x="388" y="-323.9" font-family="verdana" font-size="12.00">SafeApp.Core</text>
</g>
<!-- sn_authenticator_mobile&#45;&gt;sn_csharp -->
<g id="edge1" class="edge">
<title>sn_authenticator_mobile:K_sn_authenticator_mobile&#45;&gt;sn_csharp:K_sn_csharp</title>
<path fill="none" stroke="DarkGreen" d="M192.21,-398.6C231.9,-404.55 273.91,-410.11 296.86,-410.9"/>
<polygon fill="DarkGreen" stroke="DarkGreen" points="302,-411 296.96,-413.16 299.5,-410.95 297,-410.91 297,-410.91 297,-410.91 299.5,-410.95 297.04,-408.66 302,-411 302,-411"/>
</g>
<!-- sn_api -->
<g id="node2" class="node">
<title>sn_api</title>
<polygon fill="none" stroke="black" points="584,-272.5 584,-377.5 683,-377.5 683,-272.5 584,-272.5"/>
<text text-anchor="middle" x="633.5" y="-363.9" font-family="verdana" font-size="12.00">sn_api</text>
<polyline fill="none" stroke="black" points="584,-356.5 683,-356.5 "/>
<text text-anchor="middle" x="633.5" y="-342.9" font-family="verdana" font-size="12.00">sn_cli</text>
<polyline fill="none" stroke="black" points="584,-335.5 683,-335.5 "/>
<text text-anchor="middle" x="633.5" y="-321.9" font-family="verdana" font-size="12.00">sn_api</text>
<polyline fill="none" stroke="black" points="584,-314.5 683,-314.5 "/>
<text text-anchor="middle" x="633.5" y="-300.9" font-family="verdana" font-size="12.00">sn_authd</text>
<polyline fill="none" stroke="black" points="584,-293.5 683,-293.5 "/>
<text text-anchor="middle" x="633.5" y="-279.9" font-family="verdana" font-size="12.00">qjsonrpc</text>
</g>
<!-- sn_api&#45;&gt;sn_api -->
<g id="edge3" class="edge">
<title>sn_api:K_sn_api&#45;&gt;sn_api:K_qjsonrpc</title>
<path fill="none" stroke="grey" d="M583.54,-329.92C560.78,-328.36 541,-320.99 541,-304 541,-288.27 557.96,-280.79 578.53,-278.53"/>
<polygon fill="grey" stroke="grey" points="583.54,-278.08 578.76,-280.76 581.05,-278.3 578.56,-278.52 578.56,-278.52 578.56,-278.52 581.05,-278.3 578.36,-276.28 583.54,-278.08 583.54,-278.08"/>
</g>
<!-- sn_api&#45;&gt;sn_api -->
<g id="edge7" class="edge">
<title>sn_api:K_sn_cli&#45;&gt;sn_api:K_sn_api</title>
<path fill="none" stroke="grey" d="M583.54,-351.78C560.78,-351.33 541,-346.54 541,-335.5 541,-325.27 557.96,-320.41 578.53,-319.4"/>
<polygon fill="grey" stroke="grey" points="583.54,-319.22 578.62,-321.64 581.04,-319.31 578.55,-319.4 578.55,-319.4 578.55,-319.4 581.04,-319.31 578.47,-317.15 583.54,-319.22 583.54,-319.22"/>
</g>
<!-- sn_api&#45;&gt;sn_api -->
<g id="edge17" class="edge">
<title>sn_api:K_sn_authd&#45;&gt;sn_api:K_qjsonrpc</title>
<path fill="none" stroke="grey" d="M583.54,-309.78C560.78,-309.33 541,-304.54 541,-293.5 541,-283.27 557.96,-278.41 578.53,-277.4"/>
<polygon fill="grey" stroke="grey" points="583.54,-277.22 578.62,-279.64 581.04,-277.31 578.55,-277.4 578.55,-277.4 578.55,-277.4 581.04,-277.31 578.47,-275.15 583.54,-277.22 583.54,-277.22"/>
</g>
<!-- sn_api&#45;&gt;sn_api -->
<g id="edge18" class="edge">
<title>sn_api:K_sn_authd&#45;&gt;sn_api:K_sn_api</title>
<path fill="none" stroke="grey" d="M583.54,-298.22C560.78,-298.67 541,-303.46 541,-314.5 541,-324.73 557.96,-329.59 578.53,-330.6"/>
<polygon fill="grey" stroke="grey" points="583.54,-330.78 578.47,-332.85 581.04,-330.69 578.55,-330.6 578.55,-330.6 578.55,-330.6 581.04,-330.69 578.62,-328.36 583.54,-330.78 583.54,-330.78"/>
</g>
<!-- sn_client -->
<g id="node8" class="node">
<title>sn_client</title>
<polygon fill="none" stroke="black" points="798,-333 798,-369 894,-369 894,-333 798,-333"/>
<text text-anchor="middle" x="846" y="-347.9" font-family="verdana" font-size="12.00">sn_client</text>
</g>
<!-- sn_api&#45;&gt;sn_client -->
<g id="edge4" class="edge">
<title>sn_api:K_sn_api&#45;&gt;sn_client:K_sn_client</title>
<path fill="none" stroke="DarkGreen" d="M683,-325C719.99,-325 761.13,-331.61 792.82,-338.17"/>
<polygon fill="DarkGreen" stroke="DarkGreen" points="797.82,-339.22 792.46,-340.39 795.37,-338.7 792.93,-338.19 792.93,-338.19 792.93,-338.19 795.37,-338.7 793.39,-335.99 797.82,-339.22 797.82,-339.22"/>
</g>
<!-- sn_data_types -->
<g id="node12" class="node">
<title>sn_data_types</title>
<polygon fill="none" stroke="black" points="1012,-153 1012,-189 1141,-189 1141,-153 1012,-153"/>
<text text-anchor="middle" x="1076.5" y="-167.9" font-family="verdana" font-size="12.00">sn_data_types</text>
</g>
<!-- sn_api&#45;&gt;sn_data_types -->
<g id="edge5" class="edge">
<title>sn_api:K_sn_api&#45;&gt;sn_data_types:K_sn_data_types</title>
<path fill="none" stroke="DarkGreen" d="M683,-325C751.21,-325 687.79,-190 756,-190 756,-190 756,-190 936,-190 959.11,-190 984.17,-187.44 1006.64,-184.21"/>
<polygon fill="DarkGreen" stroke="DarkGreen" points="1011.69,-183.46 1007.08,-186.42 1009.22,-183.83 1006.75,-184.19 1006.75,-184.19 1006.75,-184.19 1009.22,-183.83 1006.42,-181.97 1011.69,-183.46 1011.69,-183.46"/>
</g>
<!-- xor_name -->
<g id="node14" class="node">
<title>xor_name</title>
<polygon fill="none" stroke="black" points="1254,-153 1254,-189 1359,-189 1359,-153 1254,-153"/>
<text text-anchor="middle" x="1306.5" y="-167.9" font-family="verdana" font-size="12.00">xor_name</text>
</g>
<!-- sn_api&#45;&gt;xor_name -->
<g id="edge6" class="edge">
<title>sn_api:K_sn_api&#45;&gt;xor_name:K_xor_name</title>
<path fill="none" stroke="DarkGreen" d="M683,-325C716.76,-325 722.24,-304 756,-304 756,-304 756,-304 936,-304 1084.38,-304 1111.57,-240.57 1248.66,-190.91"/>
<polygon fill="DarkGreen" stroke="DarkGreen" points="1253.59,-189.15 1249.63,-192.95 1251.23,-189.99 1248.88,-190.83 1248.88,-190.83 1248.88,-190.83 1251.23,-189.99 1248.12,-188.71 1253.59,-189.15 1253.59,-189.15"/>
</g>
<!-- sn_api&#45;&gt;xor_name -->
<g id="edge8" class="edge">
<title>sn_api:K_sn_cli&#45;&gt;xor_name:K_xor_name</title>
<path fill="none" stroke="DarkGreen" d="M683,-346C748.49,-346 690.51,-474 756,-474 756,-474 756,-474 1181,-474 1309.84,-474 1169.52,-290.55 1250.25,-193.28"/>
<polygon fill="DarkGreen" stroke="DarkGreen" points="1253.74,-189.28 1252.15,-194.53 1252.1,-191.17 1250.45,-193.05 1250.45,-193.05 1250.45,-193.05 1252.1,-191.17 1248.76,-191.57 1253.74,-189.28 1253.74,-189.28"/>
</g>
<!-- sn_routing -->
<g id="node3" class="node">
<title>sn_routing</title>
<polygon fill="none" stroke="black" points="793,-72 793,-108 899,-108 899,-72 793,-72"/>
<text text-anchor="middle" x="846" y="-86.9" font-family="verdana" font-size="12.00">sn_routing</text>
</g>
<!-- qp2p -->
<g id="node7" class="node">
<title>qp2p</title>
<polygon fill="none" stroke="black" points="1039,-315 1039,-351 1114,-351 1114,-315 1039,-315"/>
<text text-anchor="middle" x="1076.5" y="-329.9" font-family="verdana" font-size="12.00">qp2p</text>
</g>
<!-- sn_routing&#45;&gt;qp2p -->
<g id="edge12" class="edge">
<title>sn_routing:K_sn_routing&#45;&gt;qp2p:K_qp2p</title>
<path fill="none" stroke="DarkGreen" d="M899.26,-108.2C985.69,-174.32 956.08,-240.17 1034.68,-311.19"/>
<polygon fill="DarkGreen" stroke="DarkGreen" points="1038.51,-314.58 1033.27,-312.95 1036.64,-312.92 1034.76,-311.26 1034.76,-311.26 1034.76,-311.26 1036.64,-312.92 1036.26,-309.58 1038.51,-314.58 1038.51,-314.58"/>
</g>
<!-- bls_dkg -->
<g id="node10" class="node">
<title>bls_dkg</title>
<polygon fill="none" stroke="black" points="1032,-92 1032,-128 1121,-128 1121,-92 1032,-92"/>
<text text-anchor="middle" x="1076.5" y="-106.9" font-family="verdana" font-size="12.00">bls_dkg</text>
</g>
<!-- sn_routing&#45;&gt;bls_dkg -->
<g id="edge11" class="edge">
<title>sn_routing:K_sn_routing&#45;&gt;bls_dkg:K_bls_dkg</title>
<path fill="none" stroke="DarkGreen" d="M899.16,-93.97C921.91,-95.73 948.76,-97.88 973,-100 990.52,-101.54 1009.69,-103.35 1026.73,-105.01"/>
<polygon fill="DarkGreen" stroke="DarkGreen" points="1031.94,-105.52 1026.74,-107.27 1029.45,-105.28 1026.96,-105.03 1026.96,-105.03 1026.96,-105.03 1029.45,-105.28 1027.18,-102.79 1031.94,-105.52 1031.94,-105.52"/>
</g>
<!-- sn_routing&#45;&gt;sn_data_types -->
<g id="edge13" class="edge">
<title>sn_routing:K_sn_routing&#45;&gt;sn_data_types:K_sn_data_types</title>
<path fill="none" stroke="DarkGreen" d="M899.3,-108.11C923.25,-116.97 978.95,-141.11 1006.83,-151.19"/>
<polygon fill="DarkGreen" stroke="DarkGreen" points="1011.7,-152.9 1006.24,-153.36 1009.34,-152.07 1006.98,-151.24 1006.98,-151.24 1006.98,-151.24 1009.34,-152.07 1007.73,-149.12 1011.7,-152.9 1011.7,-152.9"/>
</g>
<!-- sn_routing&#45;&gt;xor_name -->
<g id="edge14" class="edge">
<title>sn_routing:K_sn_routing&#45;&gt;xor_name:K_xor_name</title>
<path fill="none" stroke="DarkGreen" d="M899.39,-71.84C932.25,-58.51 936.35,-38 972,-38 972,-38 972,-38 1181,-38 1239.65,-38 1208.56,-110.75 1249.79,-149.38"/>
<polygon fill="DarkGreen" stroke="DarkGreen" points="1253.72,-152.78 1248.47,-151.21 1251.83,-151.15 1249.94,-149.51 1249.94,-149.51 1249.94,-149.51 1251.83,-151.15 1251.41,-147.81 1253.72,-152.78 1253.72,-152.78"/>
</g>
<!-- sn_browser -->
<g id="node4" class="node">
<title>sn_browser</title>
<polygon fill="none" stroke="black" points="40,-269 40,-305 152,-305 152,-269 40,-269"/>
<text text-anchor="middle" x="96" y="-283.9" font-family="verdana" font-size="12.00">sn_browser</text>
</g>
<!-- sn_nodejs -->
<g id="node6" class="node">
<title>sn_nodejs</title>
<polygon fill="none" stroke="black" points="336.5,-255 336.5,-297 439.5,-297 439.5,-255 336.5,-255"/>
<text text-anchor="middle" x="388" y="-283.4" font-family="verdana" font-size="12.00">sn_nodejs</text>
<polyline fill="none" stroke="black" points="336.5,-276 439.5,-276 "/>
<text text-anchor="middle" x="388" y="-262.4" font-family="verdana" font-size="12.00">native</text>
</g>
<!-- sn_browser&#45;&gt;sn_nodejs -->
<g id="edge15" class="edge">
<title>sn_browser:K_sn_browser&#45;&gt;sn_nodejs:K_sn_nodejs</title>
<path fill="none" stroke="DarkGreen" d="M152.02,-287C199.13,-287 268.43,-287 329.84,-287"/>
<polygon fill="DarkGreen" stroke="DarkGreen" points="335,-287 330,-289.25 332.5,-287 330,-287 330,-287 330,-287 332.5,-287 330,-284.75 335,-287 335,-287"/>
</g>
<!-- sn_csharp&#45;&gt;sn_api -->
<g id="edge10" class="edge">
<title>sn_csharp:K_SafeApp.AppBindings&#45;&gt;sn_api:K_sn_api</title>
<path fill="none" stroke="DarkGreen" d="M474,-369C524.91,-369 530.98,-327.87 578.91,-325.14"/>
<polygon fill="DarkGreen" stroke="DarkGreen" points="584,-325 579.06,-327.39 581.5,-325.07 579,-325.14 579,-325.14 579,-325.14 581.5,-325.07 578.94,-322.89 584,-325 584,-325"/>
</g>
<!-- sn_csharp&#45;&gt;sn_csharp -->
<g id="edge2" class="edge">
<title>sn_csharp:K_SafeAuthenticator&#45;&gt;sn_csharp:K_SafeApp.Core</title>
<path fill="none" stroke="grey" d="M301.93,-353.64C268.66,-352.72 241,-347.86 241,-337.5 241,-327.67 265.92,-322.79 296.91,-321.53"/>
<polygon fill="grey" stroke="grey" points="301.93,-321.36 297.01,-323.78 299.44,-321.44 296.94,-321.53 296.94,-321.53 296.94,-321.53 299.44,-321.44 296.86,-319.28 301.93,-321.36 301.93,-321.36"/>
</g>
<!-- sn_csharp&#45;&gt;sn_csharp -->
<g id="edge9" class="edge">
<title>sn_csharp:K_SafeApp.AppBindings&#45;&gt;sn_csharp:K_SafeApp.Core</title>
<path fill="none" stroke="grey" d="M301.93,-373.56C268.66,-371.41 241,-363.94 241,-348 241,-332.87 265.92,-325.37 296.91,-322.81"/>
<polygon fill="grey" stroke="grey" points="301.93,-322.44 297.11,-325.05 299.44,-322.62 296.95,-322.81 296.95,-322.81 296.95,-322.81 299.44,-322.62 296.78,-320.56 301.93,-322.44 301.93,-322.44"/>
</g>
<!-- sn_csharp&#45;&gt;sn_csharp -->
<g id="edge26" class="edge">
<title>sn_csharp:K_SafeApp&#45;&gt;sn_csharp:K_SafeApp.AppBindings</title>
<path fill="none" stroke="grey" d="M301.93,-395.64C268.66,-394.72 241,-389.86 241,-379.5 241,-369.67 265.92,-364.79 296.91,-363.53"/>
<polygon fill="grey" stroke="grey" points="301.93,-363.36 297.01,-365.78 299.44,-363.44 296.94,-363.53 296.94,-363.53 296.94,-363.53 299.44,-363.44 296.86,-361.28 301.93,-363.36 301.93,-363.36"/>
</g>
<!-- sn_csharp&#45;&gt;sn_csharp -->
<g id="edge27" class="edge">
<title>sn_csharp:K_SafeApp&#45;&gt;sn_csharp:K_SafeApp.Core</title>
<path fill="none" stroke="grey" d="M301.93,-393.48C268.66,-390.1 241,-380.02 241,-358.5 241,-338.08 265.92,-327.95 296.91,-324.09"/>
<polygon fill="grey" stroke="grey" points="301.93,-323.52 297.22,-326.32 299.45,-323.8 296.97,-324.08 296.97,-324.08 296.97,-324.08 299.45,-323.8 296.71,-321.85 301.93,-323.52 301.93,-323.52"/>
</g>
<!-- sn_nodejs&#45;&gt;sn_api -->
<g id="edge16" class="edge">
<title>sn_nodejs:K_native&#45;&gt;sn_api:K_sn_api</title>
<path fill="none" stroke="DarkGreen" d="M441,-265C508.17,-265 514.77,-321.99 578.87,-324.89"/>
<polygon fill="DarkGreen" stroke="DarkGreen" points="584,-325 578.95,-327.14 581.5,-324.94 579,-324.89 579,-324.89 579,-324.89 581.5,-324.94 579.05,-322.64 584,-325 584,-325"/>
</g>
<!-- sn_client&#45;&gt;qp2p -->
<g id="edge19" class="edge">
<title>sn_client:K_sn_client&#45;&gt;qp2p:K_qp2p</title>
<path fill="none" stroke="DarkGreen" d="M894.04,-347.25C935.2,-344.03 993.95,-339.45 1033.57,-336.35"/>
<polygon fill="DarkGreen" stroke="DarkGreen" points="1038.79,-335.95 1033.98,-338.58 1036.29,-336.14 1033.8,-336.33 1033.8,-336.33 1033.8,-336.33 1036.29,-336.14 1033.63,-334.09 1038.79,-335.95 1038.79,-335.95"/>
</g>
<!-- sn_client&#45;&gt;sn_data_types -->
<g id="edge21" class="edge">
<title>sn_client:K_sn_client&#45;&gt;sn_data_types:K_sn_data_types</title>
<path fill="none" stroke="DarkGreen" d="M894.39,-332.72C959.63,-285.75 943.66,-236.5 1007.29,-192.18"/>
<polygon fill="DarkGreen" stroke="DarkGreen" points="1011.6,-189.26 1008.71,-193.93 1009.52,-190.66 1007.45,-192.06 1007.45,-192.06 1007.45,-192.06 1009.52,-190.66 1006.19,-190.2 1011.6,-189.26 1011.6,-189.26"/>
</g>
<!-- self_encryption -->
<g id="node13" class="node">
<title>self_encryption</title>
<polygon fill="none" stroke="black" points="1009,-409 1009,-445 1144,-445 1144,-409 1009,-409"/>
<text text-anchor="middle" x="1076.5" y="-423.9" font-family="verdana" font-size="12.00">self_encryption</text>
</g>
<!-- sn_client&#45;&gt;self_encryption -->
<g id="edge20" class="edge">
<title>sn_client:K_sn_client&#45;&gt;self_encryption:K_self_encryption</title>
<path fill="none" stroke="DarkGreen" d="M894.45,-369.22C913.22,-378.46 915.4,-385.98 935,-394 956.71,-402.88 981.31,-409.66 1003.84,-414.7"/>
<polygon fill="DarkGreen" stroke="DarkGreen" points="1008.91,-415.81 1003.55,-416.94 1006.47,-415.28 1004.03,-414.74 1004.03,-414.74 1004.03,-414.74 1006.47,-415.28 1004.51,-412.54 1008.91,-415.81 1008.91,-415.81"/>
</g>
<!-- sn_client&#45;&gt;xor_name -->
<g id="edge22" class="edge">
<title>sn_client:K_sn_client&#45;&gt;xor_name:K_xor_name</title>
<path fill="none" stroke="DarkGreen" d="M894.17,-367.45C917.41,-373.99 945.85,-380 972,-380 972,-380 972,-380 1181,-380 1220.17,-380 1203.71,-336.47 1218,-300 1236.18,-253.59 1219.08,-228.01 1250,-193.27"/>
<polygon fill="DarkGreen" stroke="DarkGreen" points="1253.58,-189.43 1251.81,-194.62 1251.87,-191.26 1250.17,-193.09 1250.17,-193.09 1250.17,-193.09 1251.87,-191.26 1248.52,-191.56 1253.58,-189.43 1253.58,-189.43"/>
</g>
<!-- sn_node -->
<g id="node9" class="node">
<title>sn_node</title>
<polygon fill="none" stroke="black" points="586.5,-72 586.5,-108 680.5,-108 680.5,-72 586.5,-72"/>
<text text-anchor="middle" x="633.5" y="-86.9" font-family="verdana" font-size="12.00">sn_node</text>
</g>
<!-- sn_node&#45;&gt;sn_routing -->
<g id="edge24" class="edge">
<title>sn_node:K_sn_node&#45;&gt;sn_routing:K_sn_routing</title>
<path fill="none" stroke="DarkGreen" d="M680.66,-90C712.23,-90 754,-90 787.66,-90"/>
<polygon fill="DarkGreen" stroke="DarkGreen" points="792.99,-90 787.99,-92.25 790.49,-90 787.99,-90 787.99,-90 787.99,-90 790.49,-90 787.99,-87.75 792.99,-90 792.99,-90"/>
</g>
<!-- sn_node&#45;&gt;sn_data_types -->
<g id="edge23" class="edge">
<title>sn_node:K_sn_node&#45;&gt;sn_data_types:K_sn_data_types</title>
<path fill="none" stroke="DarkGreen" d="M680.91,-108.2C715.54,-124.99 717.31,-152 756,-152 756,-152 756,-152 936,-152 959.11,-152 984.17,-154.56 1006.64,-157.79"/>
<polygon fill="DarkGreen" stroke="DarkGreen" points="1011.69,-158.54 1006.42,-160.03 1009.22,-158.17 1006.75,-157.81 1006.75,-157.81 1006.75,-157.81 1009.22,-158.17 1007.08,-155.58 1011.69,-158.54 1011.69,-158.54"/>
</g>
<!-- sn_node&#45;&gt;xor_name -->
<g id="edge25" class="edge">
<title>sn_node:K_sn_node&#45;&gt;xor_name:K_xor_name</title>
<path fill="none" stroke="DarkGreen" d="M680.96,-71.71C719.62,-46.86 709.81,0 756,0 756,0 756,0 1181,0 1211.95,0 1204.18,-31.31 1218,-59 1237.12,-97.31 1223.13,-119.94 1250.12,-149.05"/>
<polygon fill="DarkGreen" stroke="DarkGreen" points="1253.62,-152.64 1248.52,-150.63 1251.88,-150.85 1250.13,-149.06 1250.13,-149.06 1250.13,-149.06 1251.88,-150.85 1251.74,-147.49 1253.62,-152.64 1253.62,-152.64"/>
</g>
<!-- bls_dkg&#45;&gt;xor_name -->
<g id="edge28" class="edge">
<title>bls_dkg:K_bls_dkg&#45;&gt;xor_name:K_xor_name</title>
<path fill="none" stroke="DarkGreen" d="M1121.12,-121.83C1157.5,-131.48 1209.15,-145.18 1248.7,-155.67"/>
<polygon fill="DarkGreen" stroke="DarkGreen" points="1253.95,-157.06 1248.54,-157.96 1251.53,-156.42 1249.12,-155.78 1249.12,-155.78 1249.12,-155.78 1251.53,-156.42 1249.69,-153.61 1253.95,-157.06 1253.95,-157.06"/>
</g>
<!-- sn_mobile_browser -->
<g id="node11" class="node">
<title>sn_mobile_browser</title>
<polygon fill="none" stroke="black" points="16.5,-420 16.5,-456 175.5,-456 175.5,-420 16.5,-420"/>
<text text-anchor="middle" x="96" y="-434.9" font-family="verdana" font-size="12.00">sn_mobile_browser</text>
</g>
<!-- sn_mobile_browser&#45;&gt;sn_csharp -->
<g id="edge29" class="edge">
<title>sn_mobile_browser:K_sn_mobile_browser&#45;&gt;sn_csharp:K_sn_csharp</title>
<path fill="none" stroke="DarkGreen" d="M175.7,-434.83C204.38,-432.67 236.85,-429.06 266,-423 280.71,-419.94 284.39,-412.81 296.94,-411.29"/>
<polygon fill="DarkGreen" stroke="DarkGreen" points="302,-411 297.14,-413.53 299.5,-411.14 297.01,-411.29 297.01,-411.29 297.01,-411.29 299.5,-411.14 296.88,-409.04 302,-411 302,-411"/>
</g>
<!-- sn_data_types&#45;&gt;xor_name -->
<g id="edge30" class="edge">
<title>sn_data_types:K_sn_data_types&#45;&gt;xor_name:K_xor_name</title>
<path fill="none" stroke="DarkGreen" d="M1141.18,-171C1174.98,-171 1216,-171 1248.73,-171"/>
<polygon fill="DarkGreen" stroke="DarkGreen" points="1253.91,-171 1248.91,-173.25 1251.41,-171 1248.91,-171 1248.91,-171 1248.91,-171 1251.41,-171 1248.91,-168.75 1253.91,-171 1253.91,-171"/>
</g>
</g>
</svg>
