<?xml version="1.0" encoding="UTF-8" standalone="no"?>
<?xml-stylesheet href="./db.css" type="text/css"?>
<!DOCTYPE svg PUBLIC "-//W3C//DTD SVG 1.1//EN"
 "http://www.w3.org/Graphics/SVG/1.1/DTD/svg11.dtd">
<!-- Generated by graphviz version 2.40.1 (20161225.0304)
 -->
<!-- Title: g Pages: 1 -->
<svg width="1368pt" height="468pt"
 viewBox="0.00 0.00 1368.00 468.00" xmlns="http://www.w3.org/2000/svg" xmlns:xlink="http://www.w3.org/1999/xlink">
<g id="graph0" class="graph" transform="scale(1 1) rotate(0) translate(4 464)">
<title>g</title>
<polygon fill="#ffffff" stroke="transparent" points="-4,4 -4,-464 1364,-464 1364,4 -4,4"/>
<!-- xor_name -->
<g id="node1" class="node">
<title>xor_name</title>
<polygon fill="none" stroke="#000000" points="1255,-176 1255,-212 1360,-212 1360,-176 1255,-176"/>
<text text-anchor="middle" x="1307.5" y="-190.9" font-family="verdana" font-size="12.00" fill="#000000">xor_name</text>
</g>
<!-- sn_browser -->
<g id="node2" class="node">
<title>sn_browser</title>
<polygon fill="none" stroke="#000000" points="39.5,-139 39.5,-175 152.5,-175 152.5,-139 39.5,-139"/>
<text text-anchor="middle" x="96" y="-153.9" font-family="verdana" font-size="12.00" fill="#000000">sn_browser</text>
</g>
<!-- sn_nodejs -->
<g id="node7" class="node">
<title>sn_nodejs</title>
<polygon fill="none" stroke="#000000" points="336.5,-125 336.5,-167 439.5,-167 439.5,-125 336.5,-125"/>
<text text-anchor="middle" x="388" y="-153.4" font-family="verdana" font-size="12.00" fill="#000000">sn_nodejs</text>
<polyline fill="none" stroke="#000000" points="336.5,-146 439.5,-146 "/>
<text text-anchor="middle" x="388" y="-132.4" font-family="verdana" font-size="12.00" fill="#000000">native</text>
</g>
<!-- sn_browser&#45;&gt;sn_nodejs -->
<g id="edge3" class="edge">
<title>sn_browser:K_sn_browser&#45;&gt;sn_nodejs:K_sn_nodejs</title>
<path fill="none" stroke="#006400" d="M152.7352,-157C200.0371,-157 269.3757,-157 330.8359,-157"/>
<polygon fill="#006400" stroke="#006400" points="336,-157 331,-159.2501 333.5,-157 331,-157.0001 331,-157.0001 331,-157.0001 333.5,-157 331,-154.7501 336,-157 336,-157"/>
</g>
<!-- bls_dkg -->
<g id="node3" class="node">
<title>bls_dkg</title>
<polygon fill="none" stroke="#000000" points="1033,-351 1033,-387 1122,-387 1122,-351 1033,-351"/>
<text text-anchor="middle" x="1077.5" y="-365.9" font-family="verdana" font-size="12.00" fill="#000000">bls_dkg</text>
</g>
<!-- bls_dkg&#45;&gt;xor_name -->
<g id="edge7" class="edge">
<title>bls_dkg:K_bls_dkg&#45;&gt;xor_name:K_xor_name</title>
<path fill="none" stroke="#006400" d="M1122.1744,-352.9753C1130.1899,-349.0597 1138.1591,-344.408 1145,-339 1202.0947,-293.8643 1193.5897,-255.7491 1250.4309,-215.1708"/>
<polygon fill="#006400" stroke="#006400" points="1254.6381,-212.2447 1251.8179,-216.9468 1252.5857,-213.6721 1250.5332,-215.0996 1250.5332,-215.0996 1250.5332,-215.0996 1252.5857,-213.6721 1249.2486,-213.2524 1254.6381,-212.2447 1254.6381,-212.2447"/>
</g>
<!-- sn_routing -->
<g id="node4" class="node">
<title>sn_routing</title>
<polygon fill="none" stroke="#000000" points="793,-352 793,-388 900,-388 900,-352 793,-352"/>
<text text-anchor="middle" x="846.5" y="-366.9" font-family="verdana" font-size="12.00" fill="#000000">sn_routing</text>
</g>
<!-- sn_routing&#45;&gt;xor_name -->
<g id="edge12" class="edge">
<title>sn_routing:K_sn_routing&#45;&gt;xor_name:K_xor_name</title>
<path fill="none" stroke="#006400" d="M900.3905,-388.1564C933.4717,-401.4752 937.6481,-422 973.5,-422 973.5,-422 973.5,-422 1181.5,-422 1278.4569,-422 1188.5064,-287.1164 1251.0834,-216.1557"/>
<polygon fill="#006400" stroke="#006400" points="1254.5909,-212.4092 1252.8162,-217.597 1252.8823,-214.2342 1251.1737,-216.0593 1251.1737,-216.0593 1251.1737,-216.0593 1252.8823,-214.2342 1249.5311,-214.5215 1254.5909,-212.4092 1254.5909,-212.4092"/>
</g>
<!-- sn_routing&#45;&gt;bls_dkg -->
<g id="edge10" class="edge">
<title>sn_routing:K_sn_routing&#45;&gt;bls_dkg:K_bls_dkg</title>
<path fill="none" stroke="#006400" d="M900.0767,-369.7681C938.4407,-369.602 989.7456,-369.3799 1027.3153,-369.2172"/>
<polygon fill="#006400" stroke="#006400" points="1032.7555,-369.1937 1027.7653,-371.4654 1030.2555,-369.2046 1027.7556,-369.2154 1027.7556,-369.2154 1027.7556,-369.2154 1030.2555,-369.2046 1027.7458,-366.9655 1032.7555,-369.1937 1032.7555,-369.1937"/>
</g>
<!-- qp2p -->
<g id="node5" class="node">
<title>qp2p</title>
<polygon fill="none" stroke="#000000" points="1040,-293 1040,-329 1115,-329 1115,-293 1040,-293"/>
<text text-anchor="middle" x="1077.5" y="-307.9" font-family="verdana" font-size="12.00" fill="#000000">qp2p</text>
</g>
<!-- sn_routing&#45;&gt;qp2p -->
<g id="edge11" class="edge">
<title>sn_routing:K_sn_routing&#45;&gt;qp2p:K_qp2p</title>
<path fill="none" stroke="#006400" d="M900.0767,-356.3159C941.0214,-345.8582 996.7067,-331.6355 1034.7026,-321.9309"/>
<polygon fill="#006400" stroke="#006400" points="1039.7106,-320.6519 1035.4229,-324.0693 1037.2883,-321.2706 1034.8661,-321.8893 1034.8661,-321.8893 1034.8661,-321.8893 1037.2883,-321.2706 1034.3092,-319.7092 1039.7106,-320.6519 1039.7106,-320.6519"/>
</g>
<!-- sn_client -->
<g id="node6" class="node">
<title>sn_client</title>
<polygon fill="none" stroke="#000000" points="798.5,-138 798.5,-174 894.5,-174 894.5,-138 798.5,-138"/>
<text text-anchor="middle" x="846.5" y="-152.9" font-family="verdana" font-size="12.00" fill="#000000">sn_client</text>
</g>
<!-- sn_client&#45;&gt;xor_name -->
<g id="edge16" class="edge">
<title>sn_client:K_sn_client&#45;&gt;xor_name:K_xor_name</title>
<path fill="none" stroke="#006400" d="M894.7452,-156C918.4672,-156 947.4826,-156 973.5,-156 973.5,-156 973.5,-156 1181.5,-156 1188.7895,-156 1220.1232,-165.4433 1249.7173,-174.9148"/>
<polygon fill="#006400" stroke="#006400" points="1254.831,-176.557 1249.3824,-177.1704 1252.4507,-175.7926 1250.0705,-175.0281 1250.0705,-175.0281 1250.0705,-175.0281 1252.4507,-175.7926 1250.7585,-172.8859 1254.831,-176.557 1254.831,-176.557"/>
</g>
<!-- sn_client&#45;&gt;qp2p -->
<g id="edge13" class="edge">
<title>sn_client:K_sn_client&#45;&gt;qp2p:K_qp2p</title>
<path fill="none" stroke="#006400" d="M894.8562,-174.2183C910.4903,-184.0254 996.3271,-265.042 1010,-275 1017.7901,-280.6736 1026.5872,-286.0232 1035.1945,-290.7766"/>
<polygon fill="#006400" stroke="#006400" points="1039.9492,-293.3543 1034.4812,-292.9493 1037.7514,-292.1628 1035.5536,-290.9713 1035.5536,-290.9713 1035.5536,-290.9713 1037.7514,-292.1628 1036.626,-288.9932 1039.9492,-293.3543 1039.9492,-293.3543"/>
</g>
<!-- sn_data_types -->
<g id="node8" class="node">
<title>sn_data_types</title>
<polygon fill="none" stroke="#000000" points="1013,-77 1013,-113 1142,-113 1142,-77 1013,-77"/>
<text text-anchor="middle" x="1077.5" y="-91.9" font-family="verdana" font-size="12.00" fill="#000000">sn_data_types</text>
</g>
<!-- sn_client&#45;&gt;sn_data_types -->
<g id="edge15" class="edge">
<title>sn_client:K_sn_client&#45;&gt;sn_data_types:K_sn_data_types</title>
<path fill="none" stroke="#006400" d="M894.644,-143.2867C927.4189,-134.6318 971.3165,-123.0398 1007.8857,-113.383"/>
<polygon fill="#006400" stroke="#006400" points="1012.7654,-112.0944 1008.5056,-115.5465 1010.3483,-112.7327 1007.9311,-113.3711 1007.9311,-113.3711 1007.9311,-113.3711 1010.3483,-112.7327 1007.3566,-111.1956 1012.7654,-112.0944 1012.7654,-112.0944"/>
</g>
<!-- self_encryption -->
<g id="node14" class="node">
<title>self_encryption</title>
<polygon fill="none" stroke="#000000" points="1010,-229 1010,-265 1145,-265 1145,-229 1010,-229"/>
<text text-anchor="middle" x="1077.5" y="-243.9" font-family="verdana" font-size="12.00" fill="#000000">self_encryption</text>
</g>
<!-- sn_client&#45;&gt;self_encryption -->
<g id="edge14" class="edge">
<title>sn_client:K_sn_client&#45;&gt;self_encryption:K_self_encryption</title>
<path fill="none" stroke="#006400" d="M894.8062,-174.1301C945.1457,-195.5418 956.0433,-208.528 1004.8448,-227.0728"/>
<polygon fill="#006400" stroke="#006400" points="1009.6884,-228.8853 1004.217,-229.2402 1007.347,-228.0091 1005.0056,-227.1329 1005.0056,-227.1329 1005.0056,-227.1329 1007.347,-228.0091 1005.7941,-225.0256 1009.6884,-228.8853 1009.6884,-228.8853"/>
</g>
<!-- sn_api -->
<g id="node13" class="node">
<title>sn_api</title>
<polygon fill="none" stroke="#000000" points="584,-41.5 584,-146.5 683,-146.5 683,-41.5 584,-41.5"/>
<text text-anchor="middle" x="633.5" y="-132.9" font-family="verdana" font-size="12.00" fill="#000000">sn_api</text>
<polyline fill="none" stroke="#000000" points="584,-125.5 683,-125.5 "/>
<text text-anchor="middle" x="633.5" y="-111.9" font-family="verdana" font-size="12.00" fill="#000000">sn_cli</text>
<polyline fill="none" stroke="#000000" points="584,-104.5 683,-104.5 "/>
<text text-anchor="middle" x="633.5" y="-90.9" font-family="verdana" font-size="12.00" fill="#000000">sn_api</text>
<polyline fill="none" stroke="#000000" points="584,-83.5 683,-83.5 "/>
<text text-anchor="middle" x="633.5" y="-69.9" font-family="verdana" font-size="12.00" fill="#000000">sn_authd</text>
<polyline fill="none" stroke="#000000" points="584,-62.5 683,-62.5 "/>
<text text-anchor="middle" x="633.5" y="-48.9" font-family="verdana" font-size="12.00" fill="#000000">qjsonrpc</text>
</g>
<!-- sn_nodejs&#45;&gt;sn_api -->
<g id="edge21" class="edge">
<title>sn_nodejs:K_native&#45;&gt;sn_api:K_sn_api</title>
<path fill="none" stroke="#006400" d="M440,-135C471.5822,-135 542.9755,-98.0583 578.601,-94.3064"/>
<polygon fill="#006400" stroke="#006400" points="584,-94 579.1356,-96.5298 581.504,-94.1417 579.008,-94.2834 579.008,-94.2834 579.008,-94.2834 581.504,-94.1417 578.8805,-92.037 584,-94 584,-94"/>
</g>
<!-- sn_data_types&#45;&gt;xor_name -->
<g id="edge19" class="edge">
<title>sn_data_types:K_sn_data_types&#45;&gt;xor_name:K_xor_name</title>
<path fill="none" stroke="#006400" d="M1142.4062,-113.1326C1176.8443,-124.357 1188.1091,-122.6969 1219,-142 1235.9264,-152.577 1236.2686,-162.5722 1250.2362,-172.8318"/>
<polygon fill="#006400" stroke="#006400" points="1254.5622,-175.7333 1249.1564,-174.8168 1252.486,-174.3407 1250.4097,-172.9482 1250.4097,-172.9482 1250.4097,-172.9482 1252.486,-174.3407 1251.663,-171.0795 1254.5622,-175.7333 1254.5622,-175.7333"/>
</g>
<!-- sn_mobile_browser -->
<g id="node9" class="node">
<title>sn_mobile_browser</title>
<polygon fill="none" stroke="#000000" points="16.5,-26 16.5,-62 175.5,-62 175.5,-26 16.5,-26"/>
<text text-anchor="middle" x="96" y="-40.9" font-family="verdana" font-size="12.00" fill="#000000">sn_mobile_browser</text>
</g>
<!-- sn_csharp -->
<g id="node10" class="node">
<title>sn_csharp</title>
<polygon fill="none" stroke="#000000" points="302,-.5 302,-105.5 474,-105.5 474,-.5 302,-.5"/>
<text text-anchor="middle" x="388" y="-91.9" font-family="verdana" font-size="12.00" fill="#000000">sn_csharp</text>
<polyline fill="none" stroke="#000000" points="302,-84.5 474,-84.5 "/>
<text text-anchor="middle" x="388" y="-70.9" font-family="verdana" font-size="12.00" fill="#000000">SafeApp</text>
<polyline fill="none" stroke="#000000" points="302,-63.5 474,-63.5 "/>
<text text-anchor="middle" x="388" y="-49.9" font-family="verdana" font-size="12.00" fill="#000000">SafeApp.AppBindings</text>
<polyline fill="none" stroke="#000000" points="302,-42.5 474,-42.5 "/>
<text text-anchor="middle" x="388" y="-28.9" font-family="verdana" font-size="12.00" fill="#000000">SafeAuthenticator</text>
<polyline fill="none" stroke="#000000" points="302,-21.5 474,-21.5 "/>
<text text-anchor="middle" x="388" y="-7.9" font-family="verdana" font-size="12.00" fill="#000000">SafeApp.Core</text>
</g>
<!-- sn_mobile_browser&#45;&gt;sn_csharp -->
<g id="edge20" class="edge">
<title>sn_mobile_browser:K_sn_mobile_browser&#45;&gt;sn_csharp:K_sn_csharp</title>
<path fill="none" stroke="#006400" d="M175.9715,-62.1133C215.9316,-71.7149 226.0497,-74.3762 266,-85 280.2928,-88.8008 284.5103,-93.7636 296.9931,-94.8037"/>
<polygon fill="#006400" stroke="#006400" points="302,-95 296.9156,-97.0523 299.5019,-94.902 297.0038,-94.804 297.0038,-94.804 297.0038,-94.804 299.5019,-94.902 297.092,-92.5557 302,-95 302,-95"/>
</g>
<!-- sn_csharp&#45;&gt;sn_csharp -->
<g id="edge1" class="edge">
<title>sn_csharp:K_SafeApp.AppBindings&#45;&gt;sn_csharp:K_SafeApp.Core</title>
<path fill="none" stroke="#c0c0c0" d="M301.9345,-57.5607C268.6582,-55.4082 241,-47.9375 241,-32 241,-16.8718 265.9205,-9.3724 296.9114,-6.8088"/>
<polygon fill="#c0c0c0" stroke="#c0c0c0" points="301.9345,-6.4393 297.113,-9.0501 299.4412,-6.6227 296.9479,-6.8062 296.9479,-6.8062 296.9479,-6.8062 299.4412,-6.6227 296.7829,-4.5622 301.9345,-6.4393 301.9345,-6.4393"/>
</g>
<!-- sn_csharp&#45;&gt;sn_csharp -->
<g id="edge6" class="edge">
<title>sn_csharp:K_SafeAuthenticator&#45;&gt;sn_csharp:K_SafeApp.Core</title>
<path fill="none" stroke="#c0c0c0" d="M301.9345,-37.6422C268.6582,-36.7153 241,-31.8594 241,-21.5 241,-11.6667 265.9205,-6.792 296.9114,-5.5296"/>
<polygon fill="#c0c0c0" stroke="#c0c0c0" points="301.9345,-5.3578 297.0144,-7.7775 299.4359,-5.4433 296.9374,-5.5288 296.9374,-5.5288 296.9374,-5.5288 299.4359,-5.4433 296.8604,-3.2802 301.9345,-5.3578 301.9345,-5.3578"/>
</g>
<!-- sn_csharp&#45;&gt;sn_csharp -->
<g id="edge8" class="edge">
<title>sn_csharp:K_SafeApp&#45;&gt;sn_csharp:K_SafeApp.AppBindings</title>
<path fill="none" stroke="#c0c0c0" d="M301.9345,-79.6422C268.6582,-78.7153 241,-73.8594 241,-63.5 241,-53.6667 265.9205,-48.792 296.9114,-47.5296"/>
<polygon fill="#c0c0c0" stroke="#c0c0c0" points="301.9345,-47.3578 297.0144,-49.7775 299.4359,-47.4433 296.9374,-47.5288 296.9374,-47.5288 296.9374,-47.5288 299.4359,-47.4433 296.8604,-45.2802 301.9345,-47.3578 301.9345,-47.3578"/>
</g>
<!-- sn_csharp&#45;&gt;sn_csharp -->
<g id="edge9" class="edge">
<title>sn_csharp:K_SafeApp&#45;&gt;sn_csharp:K_SafeApp.Core</title>
<path fill="none" stroke="#c0c0c0" d="M301.9345,-77.4792C268.6582,-74.1011 241,-64.0156 241,-42.5 241,-22.077 265.9205,-11.9527 296.9114,-8.0879"/>
<polygon fill="#c0c0c0" stroke="#c0c0c0" points="301.9345,-7.5208 297.2185,-10.3176 299.4503,-7.8013 296.966,-8.0818 296.966,-8.0818 296.966,-8.0818 299.4503,-7.8013 296.7136,-5.846 301.9345,-7.5208 301.9345,-7.5208"/>
</g>
<!-- sn_csharp&#45;&gt;sn_api -->
<g id="edge2" class="edge">
<title>sn_csharp:K_SafeApp.AppBindings&#45;&gt;sn_api:K_sn_api</title>
<path fill="none" stroke="#006400" d="M474,-53C524.4421,-53 531.399,-91.3225 578.9534,-93.8674"/>
<polygon fill="#006400" stroke="#006400" points="584,-94 578.9426,-96.1178 581.5009,-93.9343 579.0017,-93.8686 579.0017,-93.8686 579.0017,-93.8686 581.5009,-93.9343 579.0609,-91.6194 584,-94 584,-94"/>
</g>
<!-- sn_authenticator_mobile -->
<g id="node11" class="node">
<title>sn_authenticator_mobile</title>
<polygon fill="none" stroke="#000000" points="0,-81 0,-117 192,-117 192,-81 0,-81"/>
<text text-anchor="middle" x="96" y="-95.9" font-family="verdana" font-size="12.00" fill="#000000">sn_authenticator_mobile</text>
</g>
<!-- sn_authenticator_mobile&#45;&gt;sn_csharp -->
<g id="edge22" class="edge">
<title>sn_authenticator_mobile:K_sn_authenticator_mobile&#45;&gt;sn_csharp:K_sn_csharp</title>
<path fill="none" stroke="#006400" d="M192.1497,-96.3598C225.1521,-95.6484 262.4599,-95.0578 296.9349,-95.004"/>
<polygon fill="#006400" stroke="#006400" points="302,-95 297.0018,-97.254 299.5,-95.002 297,-95.004 297,-95.004 297,-95.004 299.5,-95.002 296.9982,-92.754 302,-95 302,-95"/>
</g>
<!-- sn_node -->
<g id="node12" class="node">
<title>sn_node</title>
<polygon fill="none" stroke="#000000" points="586.5,-315 586.5,-351 680.5,-351 680.5,-315 586.5,-315"/>
<text text-anchor="middle" x="633.5" y="-329.9" font-family="verdana" font-size="12.00" fill="#000000">sn_node</text>
</g>
<!-- sn_node&#45;&gt;xor_name -->
<g id="edge30" class="edge">
<title>sn_node:K_sn_node&#45;&gt;xor_name:K_xor_name</title>
<path fill="none" stroke="#006400" d="M680.7717,-351.2136C726.9007,-387.6712 697.5577,-460 756.5,-460 756.5,-460 756.5,-460 1181.5,-460 1204.9136,-460 1208.1767,-443.7618 1219,-423 1262.0336,-340.4509 1196.3026,-286.8075 1251.2134,-216.6379"/>
<polygon fill="#006400" stroke="#006400" points="1254.6404,-212.4244 1253.231,-217.7231 1253.0629,-214.3639 1251.4854,-216.3034 1251.4854,-216.3034 1251.4854,-216.3034 1253.0629,-214.3639 1249.7399,-214.8837 1254.6404,-212.4244 1254.6404,-212.4244"/>
</g>
<!-- sn_node&#45;&gt;sn_routing -->
<g id="edge29" class="edge">
<title>sn_node:K_sn_node&#45;&gt;sn_routing:K_sn_routing</title>
<path fill="none" stroke="#006400" d="M680.5074,-341.1656C712.1519,-346.6625 754.1142,-353.9518 787.9301,-359.8259"/>
<polygon fill="#006400" stroke="#006400" points="792.858,-360.6819 787.5467,-362.0429 790.3949,-360.254 787.9318,-359.8261 787.9318,-359.8261 787.9318,-359.8261 790.3949,-360.254 788.3169,-357.6093 792.858,-360.6819 792.858,-360.6819"/>
</g>
<!-- sn_node&#45;&gt;sn_data_types -->
<g id="edge28" class="edge">
<title>sn_node:K_sn_node&#45;&gt;sn_data_types:K_sn_data_types</title>
<path fill="none" stroke="#006400" d="M680.933,-314.6368C754.4564,-252.7561 711.972,-181.2668 793,-129 857.0375,-87.6928 946.3119,-83.6478 1007.6874,-87.0606"/>
<polygon fill="#006400" stroke="#006400" points="1012.7964,-87.3654 1007.6712,-89.3135 1010.3008,-87.2165 1007.8052,-87.0675 1007.8052,-87.0675 1007.8052,-87.0675 1010.3008,-87.2165 1007.9393,-84.8215 1012.7964,-87.3654 1012.7964,-87.3654"/>
</g>
<!-- sn_node&#45;&gt;self_encryption -->
<g id="edge27" class="edge">
<title>sn_node:K_sn_node&#45;&gt;self_encryption:K_self_encryption</title>
<path fill="none" stroke="#006400" d="M680.6512,-318.82C703.3601,-313.1774 731.1137,-308 756.5,-308 756.5,-308 756.5,-308 846.5,-308 847.5359,-308 937.3277,-284.2207 1004.6404,-266.3558"/>
<polygon fill="#006400" stroke="#006400" points="1009.8536,-264.9721 1005.5982,-268.4296 1007.4373,-265.6135 1005.0209,-266.2548 1005.0209,-266.2548 1005.0209,-266.2548 1007.4373,-265.6135 1004.4437,-264.0801 1009.8536,-264.9721 1009.8536,-264.9721"/>
</g>
<!-- sn_api&#45;&gt;xor_name -->
<g id="edge18" class="edge">
<title>sn_api:K_sn_cli&#45;&gt;xor_name:K_xor_name</title>
<path fill="none" stroke="#006400" d="M683,-115C740.7111,-115 737.8271,-167.073 793,-184 913.9579,-221.1099 950.9775,-194 1077.5,-194 1077.5,-194 1077.5,-194 1181.5,-194 1203.7766,-194 1228.2686,-194 1249.6884,-194"/>
<polygon fill="#006400" stroke="#006400" points="1254.778,-194 1249.778,-196.2501 1252.278,-194 1249.778,-194.0001 1249.778,-194.0001 1249.778,-194.0001 1252.278,-194 1249.7779,-191.7501 1254.778,-194 1254.778,-194"/>
</g>
<!-- sn_api&#45;&gt;xor_name -->
<g id="edge26" class="edge">
<title>sn_api:K_sn_api&#45;&gt;xor_name:K_xor_name</title>
<path fill="none" stroke="#006400" d="M683,-94C734.6441,-94 704.8559,-4 756.5,-4 756.5,-4 756.5,-4 1181.5,-4 1262.6867,-4 1197.3121,-114.0805 1250.9375,-171.9343"/>
<polygon fill="#006400" stroke="#006400" points="1254.6446,-175.6678 1249.525,-173.7051 1252.8831,-173.8938 1251.1216,-172.1197 1251.1216,-172.1197 1251.1216,-172.1197 1252.8831,-173.8938 1252.7183,-170.5344 1254.6446,-175.6678 1254.6446,-175.6678"/>
</g>
<!-- sn_api&#45;&gt;sn_client -->
<g id="edge24" class="edge">
<title>sn_api:K_sn_api&#45;&gt;sn_client:K_sn_client</title>
<path fill="none" stroke="#006400" d="M683,-94C736.1115,-94 746.4569,-116.976 793.5269,-136.0531"/>
<polygon fill="#006400" stroke="#006400" points="798.1994,-137.8861 792.723,-138.1546 795.8721,-136.9731 793.5448,-136.06 793.5448,-136.06 793.5448,-136.06 795.8721,-136.9731 794.3665,-133.9654 798.1994,-137.8861 798.1994,-137.8861"/>
</g>
<!-- sn_api&#45;&gt;sn_data_types -->
<g id="edge25" class="edge">
<title>sn_api:K_sn_api&#45;&gt;sn_data_types:K_sn_data_types</title>
<path fill="none" stroke="#006400" d="M683,-94C723.0154,-94 716.4846,-42 756.5,-42 756.5,-42 756.5,-42 936.5,-42 971.9977,-42 977.3954,-61.972 1007.9004,-74.9831"/>
<polygon fill="#006400" stroke="#006400" points="1012.5899,-76.8491 1007.1123,-77.0911 1010.267,-75.9248 1007.9442,-75.0005 1007.9442,-75.0005 1007.9442,-75.0005 1010.267,-75.9248 1008.776,-72.9099 1012.5899,-76.8491 1012.5899,-76.8491"/>
</g>
<!-- sn_api&#45;&gt;sn_api -->
<g id="edge4" class="edge">
<title>sn_api:K_sn_authd&#45;&gt;sn_api:K_qjsonrpc</title>
<path fill="none" stroke="#c0c0c0" d="M583.5426,-78.775C560.7837,-78.3339 541,-73.5449 541,-62.5 541,-52.2748 557.956,-47.4114 578.5312,-46.3958"/>
<polygon fill="#c0c0c0" stroke="#c0c0c0" points="583.5426,-46.225 578.6222,-48.6441 581.044,-46.3102 578.5455,-46.3954 578.5455,-46.3954 578.5455,-46.3954 581.044,-46.3102 578.4688,-44.1467 583.5426,-46.225 583.5426,-46.225"/>
</g>
<!-- sn_api&#45;&gt;sn_api -->
<g id="edge5" class="edge">
<title>sn_api:K_sn_authd&#45;&gt;sn_api:K_sn_api</title>
<path fill="none" stroke="#c0c0c0" d="M583.5426,-67.225C560.7837,-67.6661 541,-72.4551 541,-83.5 541,-93.7252 557.956,-98.5886 578.5312,-99.6042"/>
<polygon fill="#c0c0c0" stroke="#c0c0c0" points="583.5426,-99.775 578.4688,-101.8533 581.044,-99.6898 578.5455,-99.6046 578.5455,-99.6046 578.5455,-99.6046 581.044,-99.6898 578.6222,-97.3559 583.5426,-99.775 583.5426,-99.775"/>
</g>
<!-- sn_api&#45;&gt;sn_api -->
<g id="edge17" class="edge">
<title>sn_api:K_sn_cli&#45;&gt;sn_api:K_sn_api</title>
<path fill="none" stroke="#c0c0c0" d="M583.5426,-120.775C560.7837,-120.3339 541,-115.5449 541,-104.5 541,-94.2748 557.956,-89.4114 578.5312,-88.3958"/>
<polygon fill="#c0c0c0" stroke="#c0c0c0" points="583.5426,-88.225 578.6222,-90.6441 581.044,-88.3102 578.5455,-88.3954 578.5455,-88.3954 578.5455,-88.3954 581.044,-88.3102 578.4688,-86.1467 583.5426,-88.225 583.5426,-88.225"/>
</g>
<!-- sn_api&#45;&gt;sn_api -->
<g id="edge23" class="edge">
<title>sn_api:K_sn_api&#45;&gt;sn_api:K_qjsonrpc</title>
<path fill="none" stroke="#c0c0c0" d="M583.5426,-98.9191C560.7837,-97.3599 541,-89.9922 541,-73 541,-57.269 557.956,-49.7868 578.5312,-47.5256"/>
<polygon fill="#c0c0c0" stroke="#c0c0c0" points="583.5426,-47.0809 578.7611,-49.7642 581.0524,-47.302 578.5622,-47.523 578.5622,-47.523 578.5622,-47.523 581.0524,-47.302 578.3632,-45.2818 583.5426,-47.0809 583.5426,-47.0809"/>
</g>
</g>
</svg>
