<?xml version="1.0" encoding="UTF-8" standalone="no"?>
<?xml-stylesheet href="./db.css" type="text/css"?>
<!DOCTYPE svg PUBLIC "-//W3C//DTD SVG 1.1//EN"
 "http://www.w3.org/Graphics/SVG/1.1/DTD/svg11.dtd">
<!-- Generated by graphviz version 2.40.1 (20161225.0304)
 -->
<!-- Title: g Pages: 1 -->
<svg width="1297pt" height="429pt"
 viewBox="0.00 0.00 1297.00 429.00" xmlns="http://www.w3.org/2000/svg" xmlns:xlink="http://www.w3.org/1999/xlink">
<g id="graph0" class="graph" transform="scale(1 1) rotate(0) translate(4 425)">
<title>g</title>
<polygon fill="#ffffff" stroke="transparent" points="-4,4 -4,-425 1293,-425 1293,4 -4,4"/>
<!-- safe&#45;mobile&#45;browser -->
<g id="node1" class="node">
<title>safe&#45;mobile&#45;browser</title>
<polygon fill="none" stroke="#000000" points="0,-213.5 0,-249.5 168,-249.5 168,-213.5 0,-213.5"/>
<text text-anchor="middle" x="84" y="-228.4" font-family="verdana" font-size="12.00" fill="#000000">safe&#45;mobile&#45;browser</text>
</g>
<!-- safe&#45;app&#45;csharp -->
<g id="node9" class="node">
<title>safe&#45;app&#45;csharp</title>
<polygon fill="none" stroke="#000000" points="278,-157.5 278,-241.5 450,-241.5 450,-157.5 278,-157.5"/>
<text text-anchor="middle" x="364" y="-227.9" font-family="verdana" font-size="12.00" fill="#000000">safe&#45;app&#45;csharp</text>
<polyline fill="none" stroke="#000000" points="278,-220.5 450,-220.5 "/>
<text text-anchor="middle" x="364" y="-206.9" font-family="verdana" font-size="12.00" fill="#000000">SafeApp</text>
<polyline fill="none" stroke="#000000" points="278,-199.5 450,-199.5 "/>
<text text-anchor="middle" x="364" y="-185.9" font-family="verdana" font-size="12.00" fill="#000000">SafeApp.AppBindings</text>
<polyline fill="none" stroke="#000000" points="278,-178.5 450,-178.5 "/>
<text text-anchor="middle" x="364" y="-164.9" font-family="verdana" font-size="12.00" fill="#000000">SafeApp.Core</text>
</g>
<!-- safe&#45;mobile&#45;browser&#45;&gt;safe&#45;app&#45;csharp -->
<g id="edge3" class="edge">
<title>safe&#45;mobile&#45;browser:K_safe&#45;mobile&#45;browser&#45;&gt;safe&#45;app&#45;csharp:K_safe&#45;app&#45;csharp</title>
<path fill="none" stroke="#006400" d="M168.032,-231.5C200.5582,-231.5 238.2427,-231.5 272.9083,-231.5"/>
<polygon fill="#006400" stroke="#006400" points="278,-231.5 273,-233.7501 275.5,-231.5 273,-231.5001 273,-231.5001 273,-231.5001 275.5,-231.5 273,-229.2501 278,-231.5 278,-231.5"/>
</g>
<!-- parsec -->
<g id="node2" class="node">
<title>parsec</title>
<polygon fill="none" stroke="#000000" points="1179,-.5 1179,-36.5 1264,-36.5 1264,-.5 1179,-.5"/>
<text text-anchor="middle" x="1221.5" y="-15.4" font-family="verdana" font-size="12.00" fill="#000000">parsec</text>
</g>
<!-- routing -->
<g id="node3" class="node">
<title>routing</title>
<polygon fill="none" stroke="#000000" points="913.5,-29.5 913.5,-65.5 1000.5,-65.5 1000.5,-29.5 913.5,-29.5"/>
<text text-anchor="middle" x="957" y="-44.4" font-family="verdana" font-size="12.00" fill="#000000">routing</text>
</g>
<!-- routing&#45;&gt;parsec -->
<g id="edge11" class="edge">
<title>routing:K_routing&#45;&gt;parsec:K_parsec</title>
<path fill="none" stroke="#006400" d="M1000.6768,-42.7112C1048.3409,-37.4853 1124.4132,-29.1447 1173.6593,-23.7453"/>
<polygon fill="#006400" stroke="#006400" points="1178.6359,-23.1997 1173.911,-25.9813 1176.1508,-23.4722 1173.6657,-23.7447 1173.6657,-23.7447 1173.6657,-23.7447 1176.1508,-23.4722 1173.4204,-21.5081 1178.6359,-23.1997 1178.6359,-23.1997"/>
</g>
<!-- quic&#45;p2p -->
<g id="node7" class="node">
<title>quic&#45;p2p</title>
<polygon fill="none" stroke="#000000" points="1173.5,-116.5 1173.5,-152.5 1269.5,-152.5 1269.5,-116.5 1173.5,-116.5"/>
<text text-anchor="middle" x="1221.5" y="-131.4" font-family="verdana" font-size="12.00" fill="#000000">quic&#45;p2p</text>
</g>
<!-- routing&#45;&gt;quic&#45;p2p -->
<g id="edge12" class="edge">
<title>routing:K_routing&#45;&gt;quic&#45;p2p:K_quic&#45;p2p</title>
<path fill="none" stroke="#006400" d="M1000.6529,-51.9789C1033.7908,-56.4305 1079.9797,-64.925 1118,-80.5 1143.407,-90.908 1146.8678,-101.7257 1168.593,-113.8932"/>
<polygon fill="#006400" stroke="#006400" points="1173.1935,-116.3449 1167.7227,-115.9789 1170.9872,-115.1691 1168.781,-113.9933 1168.781,-113.9933 1168.781,-113.9933 1170.9872,-115.1691 1169.8392,-112.0077 1173.1935,-116.3449 1173.1935,-116.3449"/>
</g>
<!-- safe&#45;client&#45;libs -->
<g id="node4" class="node">
<title>safe&#45;client&#45;libs</title>
<polygon fill="none" stroke="#000000" points="870,-270 870,-375 1044,-375 1044,-270 870,-270"/>
<text text-anchor="middle" x="957" y="-361.4" font-family="verdana" font-size="12.00" fill="#000000">safe&#45;client&#45;libs</text>
<polyline fill="none" stroke="#000000" points="870,-354 1044,-354 "/>
<text text-anchor="middle" x="957" y="-340.4" font-family="verdana" font-size="12.00" fill="#000000">safe_app</text>
<polyline fill="none" stroke="#000000" points="870,-333 1044,-333 "/>
<text text-anchor="middle" x="957" y="-319.4" font-family="verdana" font-size="12.00" fill="#000000">safe_authenticator</text>
<polyline fill="none" stroke="#000000" points="870,-312 1044,-312 "/>
<text text-anchor="middle" x="957" y="-298.4" font-family="verdana" font-size="12.00" fill="#000000">safe_authenticator_ffi</text>
<polyline fill="none" stroke="#000000" points="870,-291 1044,-291 "/>
<text text-anchor="middle" x="957" y="-277.4" font-family="verdana" font-size="12.00" fill="#000000">safe_core</text>
</g>
<!-- safe&#45;client&#45;libs&#45;&gt;safe&#45;client&#45;libs -->
<g id="edge5" class="edge">
<title>safe&#45;client&#45;libs:K_safe_app&#45;&gt;safe&#45;client&#45;libs:K_safe_authenticator</title>
<path fill="none" stroke="#c0c0c0" d="M869.9797,-349.1318C836.642,-348.1796 809,-343.3213 809,-333 809,-323.2028 833.9059,-318.328 864.9479,-317.0437"/>
<polygon fill="#c0c0c0" stroke="#c0c0c0" points="869.9797,-316.8682 865.0612,-319.2912 867.4812,-316.9554 864.9828,-317.0426 864.9828,-317.0426 864.9828,-317.0426 867.4812,-316.9554 864.9043,-314.7939 869.9797,-316.8682 869.9797,-316.8682"/>
</g>
<!-- safe&#45;client&#45;libs&#45;&gt;safe&#45;client&#45;libs -->
<g id="edge6" class="edge">
<title>safe&#45;client&#45;libs:K_safe_app&#45;&gt;safe&#45;client&#45;libs:K_safe_core</title>
<path fill="none" stroke="#c0c0c0" d="M869.9797,-346.9417C836.642,-343.5268 809,-333.4365 809,-312 809,-291.6521 833.9059,-281.5273 864.9479,-277.6308"/>
<polygon fill="#c0c0c0" stroke="#c0c0c0" points="869.9797,-277.0583 865.2662,-279.8592 867.4957,-277.341 865.0118,-277.6236 865.0118,-277.6236 865.0118,-277.6236 867.4957,-277.341 864.7574,-275.388 869.9797,-277.0583 869.9797,-277.0583"/>
</g>
<!-- safe&#45;client&#45;libs&#45;&gt;safe&#45;client&#45;libs -->
<g id="edge25" class="edge">
<title>safe&#45;client&#45;libs:K_safe_authenticator&#45;&gt;safe&#45;client&#45;libs:K_safe_core</title>
<path fill="none" stroke="#c0c0c0" d="M869.9797,-327.0367C836.642,-324.8532 809,-317.3789 809,-301.5 809,-286.4274 833.9059,-278.9276 864.9479,-276.3373"/>
<polygon fill="#c0c0c0" stroke="#c0c0c0" points="869.9797,-275.9633 865.1603,-278.5778 867.4866,-276.1486 864.9935,-276.334 864.9935,-276.334 864.9935,-276.334 867.4866,-276.1486 864.8267,-274.0901 869.9797,-275.9633 869.9797,-275.9633"/>
</g>
<!-- safe&#45;client&#45;libs&#45;&gt;safe&#45;client&#45;libs -->
<g id="edge27" class="edge">
<title>safe&#45;client&#45;libs:K_safe_authenticator_ffi&#45;&gt;safe&#45;client&#45;libs:K_safe_authenticator</title>
<path fill="none" stroke="#c0c0c0" d="M869.9797,-295.8682C836.642,-296.8204 809,-301.6787 809,-312 809,-321.7972 833.9059,-326.672 864.9479,-327.9563"/>
<polygon fill="#c0c0c0" stroke="#c0c0c0" points="869.9797,-328.1318 864.9043,-330.2061 867.4812,-328.0446 864.9828,-327.9574 864.9828,-327.9574 864.9828,-327.9574 867.4812,-328.0446 865.0612,-325.7088 869.9797,-328.1318 869.9797,-328.1318"/>
</g>
<!-- safe&#45;client&#45;libs&#45;&gt;safe&#45;client&#45;libs -->
<g id="edge28" class="edge">
<title>safe&#45;client&#45;libs:K_safe_authenticator_ffi&#45;&gt;safe&#45;client&#45;libs:K_safe_core</title>
<path fill="none" stroke="#c0c0c0" d="M869.9797,-307.1318C836.642,-306.1796 809,-301.3213 809,-291 809,-281.2028 833.9059,-276.328 864.9479,-275.0437"/>
<polygon fill="#c0c0c0" stroke="#c0c0c0" points="869.9797,-274.8682 865.0612,-277.2912 867.4812,-274.9554 864.9828,-275.0426 864.9828,-275.0426 864.9828,-275.0426 867.4812,-274.9554 864.9043,-272.7939 869.9797,-274.8682 869.9797,-274.8682"/>
</g>
<!-- safe&#45;nd -->
<g id="node6" class="node">
<title>safe&#45;nd</title>
<polygon fill="none" stroke="#000000" points="1176.5,-232.5 1176.5,-268.5 1266.5,-268.5 1266.5,-232.5 1176.5,-232.5"/>
<text text-anchor="middle" x="1221.5" y="-247.4" font-family="verdana" font-size="12.00" fill="#000000">safe&#45;nd</text>
</g>
<!-- safe&#45;client&#45;libs&#45;&gt;safe&#45;nd -->
<g id="edge4" class="edge">
<title>safe&#45;client&#45;libs:K_safe_app&#45;&gt;safe&#45;nd:K_safe&#45;nd</title>
<path fill="none" stroke="#006400" d="M1044,-343.5C1076.9159,-343.5 1088.5717,-355.2455 1118,-340.5 1153.1407,-322.8922 1144.2687,-295.6347 1172.1306,-271.9535"/>
<polygon fill="#006400" stroke="#006400" points="1176.1129,-268.7866 1173.5999,-273.6598 1174.1562,-270.3427 1172.1995,-271.8988 1172.1995,-271.8988 1172.1995,-271.8988 1174.1562,-270.3427 1170.799,-270.1377 1176.1129,-268.7866 1176.1129,-268.7866"/>
</g>
<!-- safe&#45;client&#45;libs&#45;&gt;safe&#45;nd -->
<g id="edge9" class="edge">
<title>safe&#45;client&#45;libs:K_safe_core&#45;&gt;safe&#45;nd:K_safe&#45;nd</title>
<path fill="none" stroke="#006400" d="M1044,-280.5C1044.4057,-280.5 1119.0449,-267.8645 1171.3937,-258.994"/>
<polygon fill="#006400" stroke="#006400" points="1176.3869,-258.1479 1171.8331,-261.2017 1173.922,-258.5656 1171.4571,-258.9833 1171.4571,-258.9833 1171.4571,-258.9833 1173.922,-258.5656 1171.0812,-256.765 1176.3869,-258.1479 1176.3869,-258.1479"/>
</g>
<!-- safe&#45;client&#45;libs&#45;&gt;safe&#45;nd -->
<g id="edge24" class="edge">
<title>safe&#45;client&#45;libs:K_safe_authenticator&#45;&gt;safe&#45;nd:K_safe&#45;nd</title>
<path fill="none" stroke="#006400" d="M1044,-322.5C1105.732,-322.5 1118.6048,-297.8665 1171.5991,-270.9391"/>
<polygon fill="#006400" stroke="#006400" points="1176.1656,-268.6632 1172.6942,-272.9074 1173.9281,-269.7784 1171.6906,-270.8936 1171.6906,-270.8936 1171.6906,-270.8936 1173.9281,-269.7784 1170.6869,-268.8798 1176.1656,-268.6632 1176.1656,-268.6632"/>
</g>
<!-- safe&#45;client&#45;libs&#45;&gt;safe&#45;nd -->
<g id="edge26" class="edge">
<title>safe&#45;client&#45;libs:K_safe_authenticator_ffi&#45;&gt;safe&#45;nd:K_safe&#45;nd</title>
<path fill="none" stroke="#006400" d="M1044,-301.5C1068.6983,-301.5 1127.9548,-283.0293 1171.2298,-268.3194"/>
<polygon fill="#006400" stroke="#006400" points="1176.1591,-266.6367 1172.1541,-270.3815 1173.7931,-267.4444 1171.4272,-268.2521 1171.4272,-268.2521 1171.4272,-268.2521 1173.7931,-267.4444 1170.7003,-266.1227 1176.1591,-266.6367 1176.1591,-266.6367"/>
</g>
<!-- safe&#45;client&#45;libs&#45;&gt;quic&#45;p2p -->
<g id="edge8" class="edge">
<title>safe&#45;client&#45;libs:K_safe_core&#45;&gt;quic&#45;p2p:K_quic&#45;p2p</title>
<path fill="none" stroke="#006400" d="M1044,-280.5C1082.7304,-280.5 1134.737,-183.2058 1169.01,-155.7502"/>
<polygon fill="#006400" stroke="#006400" points="1173.0996,-152.7594 1170.3919,-157.5271 1171.0817,-154.2352 1169.0637,-155.7109 1169.0637,-155.7109 1169.0637,-155.7109 1171.0817,-154.2352 1167.7355,-153.8948 1173.0996,-152.7594 1173.0996,-152.7594"/>
</g>
<!-- self_encryption -->
<g id="node10" class="node">
<title>self_encryption</title>
<polygon fill="none" stroke="#000000" points="1154,-384.5 1154,-420.5 1289,-420.5 1289,-384.5 1154,-384.5"/>
<text text-anchor="middle" x="1221.5" y="-399.4" font-family="verdana" font-size="12.00" fill="#000000">self_encryption</text>
</g>
<!-- safe&#45;client&#45;libs&#45;&gt;self_encryption -->
<g id="edge7" class="edge">
<title>safe&#45;client&#45;libs:K_safe_app&#45;&gt;self_encryption:K_self_encryption</title>
<path fill="none" stroke="#006400" d="M1044,-343.5C1061.6942,-343.5 1063.551,-353.9796 1080,-360.5 1110.3908,-372.5469 1119.8225,-374.5154 1148.7896,-382.9704"/>
<polygon fill="#006400" stroke="#006400" points="1153.6125,-384.3856 1148.1813,-385.1367 1151.2137,-383.6817 1148.8148,-382.9778 1148.8148,-382.9778 1148.8148,-382.9778 1151.2137,-383.6817 1149.4483,-380.8188 1153.6125,-384.3856 1153.6125,-384.3856"/>
</g>
<!-- safe&#45;client&#45;libs&#45;&gt;self_encryption -->
<g id="edge10" class="edge">
<title>safe&#45;client&#45;libs:K_safe_core&#45;&gt;self_encryption:K_self_encryption</title>
<path fill="none" stroke="#006400" d="M1044,-280.5C1072.1091,-280.5 1060.1935,-312.5545 1080,-332.5 1106.8909,-359.5796 1116.5883,-366.7911 1148.6734,-381.9966"/>
<polygon fill="#006400" stroke="#006400" points="1153.5744,-384.3013 1148.0922,-384.2096 1151.312,-383.2374 1149.0497,-382.1735 1149.0497,-382.1735 1149.0497,-382.1735 1151.312,-383.2374 1150.0072,-380.1374 1153.5744,-384.3013 1153.5744,-384.3013"/>
</g>
<!-- safe&#45;vault -->
<g id="node5" class="node">
<title>safe&#45;vault</title>
<polygon fill="none" stroke="#000000" points="608,-55.5 608,-91.5 712,-91.5 712,-55.5 608,-55.5"/>
<text text-anchor="middle" x="660" y="-70.4" font-family="verdana" font-size="12.00" fill="#000000">safe&#45;vault</text>
</g>
<!-- safe&#45;vault&#45;&gt;routing -->
<g id="edge17" class="edge">
<title>safe&#45;vault:K_safe&#45;vault&#45;&gt;routing:K_routing</title>
<path fill="none" stroke="#006400" d="M712.0733,-68.9414C767.3529,-64.1021 854.0402,-56.5133 908.086,-51.782"/>
<polygon fill="#006400" stroke="#006400" points="913.2122,-51.3333 908.4275,-54.0108 910.7217,-51.5513 908.2312,-51.7694 908.2312,-51.7694 908.2312,-51.7694 910.7217,-51.5513 908.035,-49.528 913.2122,-51.3333 913.2122,-51.3333"/>
</g>
<!-- safe&#45;vault&#45;&gt;safe&#45;nd -->
<g id="edge18" class="edge">
<title>safe&#45;vault:K_safe&#45;vault&#45;&gt;safe&#45;nd:K_safe&#45;nd</title>
<path fill="none" stroke="#006400" d="M712.1884,-83.1395C746.5303,-88.6601 792.5392,-94.5 833.5,-94.5 833.5,-94.5 833.5,-94.5 1080.5,-94.5 1153.3206,-94.5 1119.8322,-181.4217 1172.2344,-228.88"/>
<polygon fill="#006400" stroke="#006400" points="1176.1584,-232.227 1170.8941,-230.6941 1174.2564,-230.6046 1172.3543,-228.9822 1172.3543,-228.9822 1172.3543,-228.9822 1174.2564,-230.6046 1173.8144,-227.2703 1176.1584,-232.227 1176.1584,-232.227"/>
</g>
<!-- safe&#45;nodejs -->
<g id="node8" class="node">
<title>safe&#45;nodejs</title>
<polygon fill="none" stroke="#000000" points="307,-260.5 307,-302.5 421,-302.5 421,-260.5 307,-260.5"/>
<text text-anchor="middle" x="364" y="-288.9" font-family="verdana" font-size="12.00" fill="#000000">safe&#45;nodejs</text>
<polyline fill="none" stroke="#000000" points="307,-281.5 421,-281.5 "/>
<text text-anchor="middle" x="364" y="-267.9" font-family="verdana" font-size="12.00" fill="#000000">native</text>
</g>
<!-- safe&#45;api -->
<g id="node12" class="node">
<title>safe&#45;api</title>
<polygon fill="none" stroke="#000000" points="601.5,-172.5 601.5,-298.5 718.5,-298.5 718.5,-172.5 601.5,-172.5"/>
<text text-anchor="middle" x="660" y="-284.9" font-family="verdana" font-size="12.00" fill="#000000">safe&#45;api</text>
<polyline fill="none" stroke="#000000" points="601.5,-277.5 718.5,-277.5 "/>
<text text-anchor="middle" x="660" y="-263.9" font-family="verdana" font-size="12.00" fill="#000000">safe&#45;cli</text>
<polyline fill="none" stroke="#000000" points="601.5,-256.5 718.5,-256.5 "/>
<text text-anchor="middle" x="660" y="-242.9" font-family="verdana" font-size="12.00" fill="#000000">safe&#45;api</text>
<polyline fill="none" stroke="#000000" points="601.5,-235.5 718.5,-235.5 "/>
<text text-anchor="middle" x="660" y="-221.9" font-family="verdana" font-size="12.00" fill="#000000">safe&#45;ffi</text>
<polyline fill="none" stroke="#000000" points="601.5,-214.5 718.5,-214.5 "/>
<text text-anchor="middle" x="660" y="-200.9" font-family="verdana" font-size="12.00" fill="#000000">safe&#45;authd</text>
<polyline fill="none" stroke="#000000" points="601.5,-193.5 718.5,-193.5 "/>
<text text-anchor="middle" x="660" y="-179.9" font-family="verdana" font-size="12.00" fill="#000000">jsonrpc&#45;quic</text>
</g>
<!-- safe&#45;nodejs&#45;&gt;safe&#45;api -->
<g id="edge23" class="edge">
<title>safe&#45;nodejs:K_native&#45;&gt;safe&#45;api:K_safe&#45;api</title>
<path fill="none" stroke="#006400" d="M421,-270.5C499.974,-270.5 519.4648,-247.5202 595.8829,-246.5328"/>
<polygon fill="#006400" stroke="#006400" points="601,-246.5 596.0145,-248.7821 598.5001,-246.5161 596.0001,-246.5321 596.0001,-246.5321 596.0001,-246.5321 598.5001,-246.5161 595.9857,-244.2822 601,-246.5 601,-246.5"/>
</g>
<!-- safe&#45;app&#45;csharp&#45;&gt;safe&#45;app&#45;csharp -->
<g id="edge1" class="edge">
<title>safe&#45;app&#45;csharp:K_SafeApp.AppBindings&#45;&gt;safe&#45;app&#45;csharp:K_SafeApp.Core</title>
<path fill="none" stroke="#c0c0c0" d="M277.9345,-194.1422C244.6582,-193.2153 217,-188.3594 217,-178 217,-168.1667 241.9205,-163.292 272.9114,-162.0296"/>
<polygon fill="#c0c0c0" stroke="#c0c0c0" points="277.9345,-161.8578 273.0144,-164.2775 275.4359,-161.9433 272.9374,-162.0288 272.9374,-162.0288 272.9374,-162.0288 275.4359,-161.9433 272.8604,-159.7802 277.9345,-161.8578 277.9345,-161.8578"/>
</g>
<!-- safe&#45;app&#45;csharp&#45;&gt;safe&#45;app&#45;csharp -->
<g id="edge15" class="edge">
<title>safe&#45;app&#45;csharp:K_SafeApp&#45;&gt;safe&#45;app&#45;csharp:K_SafeApp.AppBindings</title>
<path fill="none" stroke="#c0c0c0" d="M277.9345,-216.0907C244.6582,-215.1055 217,-210.125 217,-199.5 217,-189.4146 241.9205,-184.4149 272.9114,-183.0905"/>
<polygon fill="#c0c0c0" stroke="#c0c0c0" points="277.9345,-182.9093 273.0189,-185.3382 275.4361,-182.9995 272.9377,-183.0897 272.9377,-183.0897 272.9377,-183.0897 275.4361,-182.9995 272.8566,-180.8412 277.9345,-182.9093 277.9345,-182.9093"/>
</g>
<!-- safe&#45;app&#45;csharp&#45;&gt;safe&#45;app&#45;csharp -->
<g id="edge16" class="edge">
<title>safe&#45;app&#45;csharp:K_SafeApp&#45;&gt;safe&#45;app&#45;csharp:K_SafeApp.Core</title>
<path fill="none" stroke="#c0c0c0" d="M277.9345,-215.0092C244.6582,-212.7983 217,-205.2031 217,-189 217,-173.6197 241.9205,-165.9952 272.9114,-163.3697"/>
<polygon fill="#c0c0c0" stroke="#c0c0c0" points="277.9345,-162.9908 273.1179,-165.6106 275.4416,-163.1789 272.9486,-163.367 272.9486,-163.367 272.9486,-163.367 275.4416,-163.1789 272.7794,-161.1233 277.9345,-162.9908 277.9345,-162.9908"/>
</g>
<!-- safe&#45;app&#45;csharp&#45;&gt;safe&#45;api -->
<g id="edge2" class="edge">
<title>safe&#45;app&#45;csharp:K_SafeApp.AppBindings&#45;&gt;safe&#45;api:K_safe&#45;ffi</title>
<path fill="none" stroke="#006400" d="M450,-188.5C517.2403,-188.5 531.3109,-222.6951 595.8512,-224.4316"/>
<polygon fill="#006400" stroke="#006400" points="601,-224.5 595.9705,-226.6832 598.5002,-224.4667 596.0004,-224.4334 596.0004,-224.4334 596.0004,-224.4334 598.5002,-224.4667 596.0304,-222.1836 601,-224.5 601,-224.5"/>
</g>
<!-- safe&#45;authenticator&#45;mobile -->
<g id="node11" class="node">
<title>safe&#45;authenticator&#45;mobile</title>
<polygon fill="none" stroke="#000000" points="560,-380.5 560,-416.5 760,-416.5 760,-380.5 560,-380.5"/>
<text text-anchor="middle" x="660" y="-395.4" font-family="verdana" font-size="12.00" fill="#000000">safe&#45;authenticator&#45;mobile</text>
</g>
<!-- safe&#45;authenticator&#45;mobile&#45;&gt;safe&#45;client&#45;libs -->
<g id="edge35" class="edge">
<title>safe&#45;authenticator&#45;mobile:K_safe&#45;authenticator&#45;mobile&#45;&gt;safe&#45;client&#45;libs:K_safe_authenticator_ffi</title>
<path fill="none" stroke="#006400" d="M760.1449,-401.1011C786.1144,-397.5835 812.7302,-389.8412 834,-374.5 861.8499,-354.4129 836.6707,-306.6857 864.9808,-301.8902"/>
<polygon fill="#006400" stroke="#006400" points="870,-301.5 865.1895,-304.1309 867.5075,-301.6938 865.015,-301.8877 865.015,-301.8877 865.015,-301.8877 867.5075,-301.6938 864.8406,-299.6444 870,-301.5 870,-301.5"/>
</g>
<!-- safe&#45;api&#45;&gt;safe&#45;client&#45;libs -->
<g id="edge21" class="edge">
<title>safe&#45;api:K_safe&#45;ffi&#45;&gt;safe&#45;client&#45;libs:K_safe_authenticator</title>
<path fill="none" stroke="#006400" d="M719,-224.5C757.2842,-224.5 823.9531,-314.2591 864.6766,-321.9727"/>
<polygon fill="#006400" stroke="#006400" points="870,-322.5 864.8025,-324.2461 867.5122,-322.2535 865.0243,-322.0071 865.0243,-322.0071 865.0243,-322.0071 867.5122,-322.2535 865.2462,-319.768 870,-322.5 870,-322.5"/>
</g>
<!-- safe&#45;api&#45;&gt;safe&#45;client&#45;libs -->
<g id="edge22" class="edge">
<title>safe&#45;api:K_safe&#45;ffi&#45;&gt;safe&#45;client&#45;libs:K_safe_core</title>
<path fill="none" stroke="#006400" d="M719,-224.5C770.2346,-224.5 788.9975,-208.0099 834,-232.5 855.776,-244.3504 845.1292,-275.6538 864.9523,-279.9972"/>
<polygon fill="#006400" stroke="#006400" points="870,-280.5 864.8016,-282.2433 867.5123,-280.2522 865.0246,-280.0043 865.0246,-280.0043 865.0246,-280.0043 867.5123,-280.2522 865.2477,-277.7654 870,-280.5 870,-280.5"/>
</g>
<!-- safe&#45;api&#45;&gt;safe&#45;client&#45;libs -->
<g id="edge32" class="edge">
<title>safe&#45;api:K_safe&#45;api&#45;&gt;safe&#45;client&#45;libs:K_safe_app</title>
<path fill="none" stroke="#006400" d="M719,-246.5C771.6418,-246.5 749.2754,-312.2518 796,-336.5 823.7188,-350.8849 835.6381,-344.3287 864.7656,-343.5685"/>
<polygon fill="#006400" stroke="#006400" points="870,-343.5 865.0299,-345.8154 867.5002,-343.5328 865.0004,-343.5656 865.0004,-343.5656 865.0004,-343.5656 867.5002,-343.5328 864.9709,-341.3158 870,-343.5 870,-343.5"/>
</g>
<!-- safe&#45;api&#45;&gt;safe&#45;client&#45;libs -->
<g id="edge33" class="edge">
<title>safe&#45;api:K_safe&#45;api&#45;&gt;safe&#45;client&#45;libs:K_safe_authenticator</title>
<path fill="none" stroke="#006400" d="M719,-246.5C758.1969,-246.5 761.4495,-270.989 796,-289.5 812.2946,-298.2301 816.1062,-300.9949 833,-308.5 847.3106,-314.8575 851.5328,-320.9957 864.7063,-322.2624"/>
<polygon fill="#006400" stroke="#006400" points="870,-322.5 864.9041,-324.5234 867.5025,-322.3878 865.005,-322.2757 865.005,-322.2757 865.005,-322.2757 867.5025,-322.3878 865.106,-320.0279 870,-322.5 870,-322.5"/>
</g>
<!-- safe&#45;api&#45;&gt;safe&#45;client&#45;libs -->
<g id="edge34" class="edge">
<title>safe&#45;api:K_safe&#45;api&#45;&gt;safe&#45;client&#45;libs:K_safe_core</title>
<path fill="none" stroke="#006400" d="M719,-246.5C786.0447,-246.5 800.4916,-278.7954 864.8653,-280.4354"/>
<polygon fill="#006400" stroke="#006400" points="870,-280.5 864.972,-282.6868 867.5002,-280.4685 865.0004,-280.437 865.0004,-280.437 865.0004,-280.437 867.5002,-280.4685 865.0288,-278.1871 870,-280.5 870,-280.5"/>
</g>
<!-- safe&#45;api&#45;&gt;safe&#45;nd -->
<g id="edge20" class="edge">
<title>safe&#45;api:K_safe&#45;ffi&#45;&gt;safe&#45;nd:K_safe&#45;nd</title>
<path fill="none" stroke="#006400" d="M719,-224.5C784.2808,-224.5 768.2192,-132.5 833.5,-132.5 833.5,-132.5 833.5,-132.5 1080.5,-132.5 1107.8932,-132.5 1153.9948,-208.4317 1172.4562,-228.6574"/>
<polygon fill="#006400" stroke="#006400" points="1176.1506,-232.2335 1170.9931,-230.3726 1174.3543,-230.4947 1172.558,-228.7559 1172.558,-228.7559 1172.558,-228.7559 1174.3543,-230.4947 1174.123,-227.1393 1176.1506,-232.2335 1176.1506,-232.2335"/>
</g>
<!-- safe&#45;api&#45;&gt;safe&#45;nd -->
<g id="edge31" class="edge">
<title>safe&#45;api:K_safe&#45;api&#45;&gt;safe&#45;nd:K_safe&#45;nd</title>
<path fill="none" stroke="#006400" d="M719,-246.5C884.6817,-246.5 1081.0816,-248.7013 1171.4464,-249.8379"/>
<polygon fill="#006400" stroke="#006400" points="1176.457,-249.9012 1171.4289,-252.0877 1173.9572,-249.8695 1171.4574,-249.8379 1171.4574,-249.8379 1171.4574,-249.8379 1173.9572,-249.8695 1171.4858,-247.5881 1176.457,-249.9012 1176.457,-249.9012"/>
</g>
<!-- safe&#45;api&#45;&gt;safe&#45;api -->
<g id="edge13" class="edge">
<title>safe&#45;api:K_safe&#45;authd&#45;&gt;safe&#45;api:K_jsonrpc&#45;quic</title>
<path fill="none" stroke="#c0c0c0" d="M601.4443,-209.2744C566.4427,-209.7578 533.5,-205.1875 533.5,-193 533.5,-181.4314 563.1819,-176.726 596.132,-176.6914"/>
<polygon fill="#c0c0c0" stroke="#c0c0c0" points="601.4443,-176.7256 596.4299,-178.9432 598.9444,-176.7094 596.4444,-176.6933 596.4444,-176.6933 596.4444,-176.6933 598.9444,-176.7094 596.459,-174.4433 601.4443,-176.7256 601.4443,-176.7256"/>
</g>
<!-- safe&#45;api&#45;&gt;safe&#45;api -->
<g id="edge14" class="edge">
<title>safe&#45;api:K_safe&#45;authd&#45;&gt;safe&#45;api:K_safe&#45;api</title>
<path fill="none" stroke="#c0c0c0" d="M601.4443,-198.3057C566.4427,-198.7891 533.5,-205.9375 533.5,-225 533.5,-243.0945 563.1819,-250.4542 596.132,-251.5684"/>
<polygon fill="#c0c0c0" stroke="#c0c0c0" points="601.4443,-251.6943 596.3924,-253.8252 598.945,-251.6351 596.4457,-251.5758 596.4457,-251.5758 596.4457,-251.5758 598.945,-251.6351 596.4991,-249.3264 601.4443,-251.6943 601.4443,-251.6943"/>
</g>
<!-- safe&#45;api&#45;&gt;safe&#45;api -->
<g id="edge19" class="edge">
<title>safe&#45;api:K_safe&#45;ffi&#45;&gt;safe&#45;api:K_safe&#45;api</title>
<path fill="none" stroke="#c0c0c0" d="M601.4443,-218.752C566.4427,-218.3125 533.5,-223 533.5,-235.5 533.5,-247.3652 563.1819,-252.1913 596.132,-252.275"/>
<polygon fill="#c0c0c0" stroke="#c0c0c0" points="601.4443,-252.248 596.4558,-254.5235 598.9444,-252.2608 596.4444,-252.2735 596.4444,-252.2735 596.4444,-252.2735 598.9444,-252.2608 596.433,-250.0235 601.4443,-252.248 601.4443,-252.248"/>
</g>
<!-- safe&#45;api&#45;&gt;safe&#45;api -->
<g id="edge29" class="edge">
<title>safe&#45;api:K_safe&#45;cli&#45;&gt;safe&#45;api:K_safe&#45;api</title>
<path fill="none" stroke="#c0c0c0" d="M601.4443,-273.2744C566.4427,-273.7578 533.5,-269.1875 533.5,-257 533.5,-245.4314 563.1819,-240.726 596.132,-240.6914"/>
<polygon fill="#c0c0c0" stroke="#c0c0c0" points="601.4443,-240.7256 596.4299,-242.9432 598.9444,-240.7094 596.4444,-240.6933 596.4444,-240.6933 596.4444,-240.6933 598.9444,-240.7094 596.459,-238.4433 601.4443,-240.7256 601.4443,-240.7256"/>
</g>
<!-- safe&#45;api&#45;&gt;safe&#45;api -->
<g id="edge30" class="edge">
<title>safe&#45;api:K_safe&#45;api&#45;&gt;safe&#45;api:K_jsonrpc&#45;quic</title>
<path fill="none" stroke="#c0c0c0" d="M601.4443,-251.1406C566.4427,-249.7344 533.5,-240.125 533.5,-214.5 533.5,-190.1763 563.1819,-180.2829 596.132,-178.1381"/>
<polygon fill="#c0c0c0" stroke="#c0c0c0" points="601.4443,-177.8594 596.5691,-180.3683 598.9478,-177.9904 596.4512,-178.1214 596.4512,-178.1214 596.4512,-178.1214 598.9478,-177.9904 596.3333,-175.8745 601.4443,-177.8594 601.4443,-177.8594"/>
</g>
<!-- safe&#45;browser -->
<g id="node13" class="node">
<title>safe&#45;browser</title>
<polygon fill="none" stroke="#000000" points="22.5,-274.5 22.5,-310.5 145.5,-310.5 145.5,-274.5 22.5,-274.5"/>
<text text-anchor="middle" x="84" y="-289.4" font-family="verdana" font-size="12.00" fill="#000000">safe&#45;browser</text>
</g>
<!-- safe&#45;browser&#45;&gt;safe&#45;nodejs -->
<g id="edge36" class="edge">
<title>safe&#45;browser:K_safe&#45;browser&#45;&gt;safe&#45;nodejs:K_safe&#45;nodejs</title>
<path fill="none" stroke="#006400" d="M145.5246,-292.5C188.9069,-292.5 248.5468,-292.5 301.8611,-292.5"/>
<polygon fill="#006400" stroke="#006400" points="307,-292.5 302,-294.7501 304.5,-292.5 302,-292.5001 302,-292.5001 302,-292.5001 304.5,-292.5 302,-290.2501 307,-292.5 307,-292.5"/>
</g>
</g>
</svg>
