<?xml version="1.0" encoding="UTF-8" standalone="no"?>
<?xml-stylesheet href="./db.css" type="text/css"?>
<!DOCTYPE svg PUBLIC "-//W3C//DTD SVG 1.1//EN"
 "http://www.w3.org/Graphics/SVG/1.1/DTD/svg11.dtd">
<!-- Generated by graphviz version 2.40.1 (20161225.0304)
 -->
<!-- Title: g Pages: 1 -->
<svg width="917pt" height="397pt"
 viewBox="0.00 0.00 917.00 397.00" xmlns="http://www.w3.org/2000/svg" xmlns:xlink="http://www.w3.org/1999/xlink">
<g id="graph0" class="graph" transform="scale(1 1) rotate(0) translate(4 393)">
<title>g</title>
<polygon fill="#ffffff" stroke="transparent" points="-4,4 -4,-393 913,-393 913,4 -4,4"/>
<!-- safe&#45;mobile&#45;browser -->
<g id="node1" class="node">
<title>safe&#45;mobile&#45;browser</title>
<polygon fill="none" stroke="#000000" points="16,-77.5 16,-113.5 184,-113.5 184,-77.5 16,-77.5"/>
<text text-anchor="middle" x="100" y="-92.4" font-family="verdana" font-size="12.00" fill="#000000">safe&#45;mobile&#45;browser</text>
</g>
<!-- safe&#45;app&#45;csharp -->
<g id="node9" class="node">
<title>safe&#45;app&#45;csharp</title>
<polygon fill="none" stroke="#000000" points="310,-21.5 310,-105.5 482,-105.5 482,-21.5 310,-21.5"/>
<text text-anchor="middle" x="396" y="-91.9" font-family="verdana" font-size="12.00" fill="#000000">safe&#45;app&#45;csharp</text>
<polyline fill="none" stroke="#000000" points="310,-84.5 482,-84.5 "/>
<text text-anchor="middle" x="396" y="-70.9" font-family="verdana" font-size="12.00" fill="#000000">SafeApp</text>
<polyline fill="none" stroke="#000000" points="310,-63.5 482,-63.5 "/>
<text text-anchor="middle" x="396" y="-49.9" font-family="verdana" font-size="12.00" fill="#000000">SafeApp.AppBindings</text>
<polyline fill="none" stroke="#000000" points="310,-42.5 482,-42.5 "/>
<text text-anchor="middle" x="396" y="-28.9" font-family="verdana" font-size="12.00" fill="#000000">SafeApp.Core</text>
</g>
<!-- safe&#45;mobile&#45;browser&#45;&gt;safe&#45;app&#45;csharp -->
<g id="edge3" class="edge">
<title>safe&#45;mobile&#45;browser:K_safe&#45;mobile&#45;browser&#45;&gt;safe&#45;app&#45;csharp:K_safe&#45;app&#45;csharp</title>
<path fill="none" stroke="#006400" d="M184.0473,-95.5C220.8004,-95.5 264.583,-95.5 304.6295,-95.5"/>
<polygon fill="#006400" stroke="#006400" points="310,-95.5 305,-97.7501 307.5,-95.5 305,-95.5001 305,-95.5001 305,-95.5001 307.5,-95.5 305,-93.2501 310,-95.5 310,-95.5"/>
</g>
<!-- parsec -->
<g id="node2" class="node">
<title>parsec</title>
<polygon fill="none" stroke="#000000" points="57.5,-132.5 57.5,-168.5 142.5,-168.5 142.5,-132.5 57.5,-132.5"/>
<text text-anchor="middle" x="100" y="-147.4" font-family="verdana" font-size="12.00" fill="#000000">parsec</text>
</g>
<!-- routing -->
<g id="node3" class="node">
<title>routing</title>
<polygon fill="none" stroke="#000000" points="352.5,-187.5 352.5,-223.5 439.5,-223.5 439.5,-187.5 352.5,-187.5"/>
<text text-anchor="middle" x="396" y="-202.4" font-family="verdana" font-size="12.00" fill="#000000">routing</text>
</g>
<!-- quic&#45;p2p -->
<g id="node7" class="node">
<title>quic&#45;p2p</title>
<polygon fill="none" stroke="#000000" points="602.5,-187.5 602.5,-223.5 698.5,-223.5 698.5,-187.5 602.5,-187.5"/>
<text text-anchor="middle" x="650.5" y="-202.4" font-family="verdana" font-size="12.00" fill="#000000">quic&#45;p2p</text>
</g>
<!-- routing&#45;&gt;quic&#45;p2p -->
<g id="edge4" class="edge">
<title>routing:K_routing&#45;&gt;quic&#45;p2p:K_quic&#45;p2p</title>
<path fill="none" stroke="#006400" d="M439.7501,-205.5C483.3553,-205.5 550.3815,-205.5 597.0991,-205.5"/>
<polygon fill="#006400" stroke="#006400" points="602.1229,-205.5 597.1229,-207.7501 599.6229,-205.5 597.1229,-205.5001 597.1229,-205.5001 597.1229,-205.5001 599.6229,-205.5 597.1228,-203.2501 602.1229,-205.5 602.1229,-205.5"/>
</g>
<!-- safe&#45;client&#45;libs -->
<g id="node4" class="node">
<title>safe&#45;client&#45;libs</title>
<polygon fill="none" stroke="#000000" points="34.5,-242.5 34.5,-278.5 165.5,-278.5 165.5,-242.5 34.5,-242.5"/>
<text text-anchor="middle" x="100" y="-257.4" font-family="verdana" font-size="12.00" fill="#000000">safe&#45;client&#45;libs</text>
</g>
<!-- self_encryption -->
<g id="node10" class="node">
<title>self_encryption</title>
<polygon fill="none" stroke="#000000" points="328.5,-242.5 328.5,-278.5 463.5,-278.5 463.5,-242.5 328.5,-242.5"/>
<text text-anchor="middle" x="396" y="-257.4" font-family="verdana" font-size="12.00" fill="#000000">self_encryption</text>
</g>
<!-- safe&#45;client&#45;libs&#45;&gt;self_encryption -->
<g id="edge5" class="edge">
<title>safe&#45;client&#45;libs:K_safe&#45;client&#45;libs&#45;&gt;self_encryption:K_self_encryption</title>
<path fill="none" stroke="#006400" d="M165.692,-260.5C212.3624,-260.5 275.044,-260.5 323.2312,-260.5"/>
<polygon fill="#006400" stroke="#006400" points="328.4395,-260.5 323.4395,-262.7501 325.9395,-260.5 323.4395,-260.5001 323.4395,-260.5001 323.4395,-260.5001 325.9395,-260.5 323.4394,-258.2501 328.4395,-260.5 328.4395,-260.5"/>
</g>
<!-- safe&#45;vault -->
<g id="node5" class="node">
<title>safe&#45;vault</title>
<polygon fill="none" stroke="#000000" points="48,-187.5 48,-223.5 152,-223.5 152,-187.5 48,-187.5"/>
<text text-anchor="middle" x="100" y="-202.4" font-family="verdana" font-size="12.00" fill="#000000">safe&#45;vault</text>
</g>
<!-- safe&#45;vault&#45;&gt;routing -->
<g id="edge10" class="edge">
<title>safe&#45;vault:K_safe&#45;vault&#45;&gt;routing:K_routing</title>
<path fill="none" stroke="#006400" d="M152.2375,-205.5C207.3856,-205.5 293.6218,-205.5 347.367,-205.5"/>
<polygon fill="#006400" stroke="#006400" points="352.4646,-205.5 347.4646,-207.7501 349.9646,-205.5 347.4646,-205.5001 347.4646,-205.5001 347.4646,-205.5001 349.9646,-205.5 347.4646,-203.2501 352.4646,-205.5 352.4646,-205.5"/>
</g>
<!-- safe&#45;nd -->
<g id="node6" class="node">
<title>safe&#45;nd</title>
<polygon fill="none" stroke="#000000" points="819,-45.5 819,-81.5 909,-81.5 909,-45.5 819,-45.5"/>
<text text-anchor="middle" x="864" y="-60.4" font-family="verdana" font-size="12.00" fill="#000000">safe&#45;nd</text>
</g>
<!-- safe&#45;nodejs -->
<g id="node8" class="node">
<title>safe&#45;nodejs</title>
<polygon fill="none" stroke="#000000" points="339,-297.5 339,-333.5 453,-333.5 453,-297.5 339,-297.5"/>
<text text-anchor="middle" x="396" y="-312.4" font-family="verdana" font-size="12.00" fill="#000000">safe&#45;nodejs</text>
</g>
<!-- safe&#45;app&#45;csharp&#45;&gt;safe&#45;app&#45;csharp -->
<g id="edge1" class="edge">
<title>safe&#45;app&#45;csharp:K_SafeApp.AppBindings&#45;&gt;safe&#45;app&#45;csharp:K_SafeApp.Core</title>
<path fill="none" stroke="#c0c0c0" d="M309.9345,-58.1422C276.6582,-57.2153 249,-52.3594 249,-42 249,-32.1667 273.9205,-27.292 304.9114,-26.0296"/>
<polygon fill="#c0c0c0" stroke="#c0c0c0" points="309.9345,-25.8578 305.0144,-28.2775 307.4359,-25.9433 304.9374,-26.0288 304.9374,-26.0288 304.9374,-26.0288 307.4359,-25.9433 304.8604,-23.7802 309.9345,-25.8578 309.9345,-25.8578"/>
</g>
<!-- safe&#45;app&#45;csharp&#45;&gt;safe&#45;app&#45;csharp -->
<g id="edge8" class="edge">
<title>safe&#45;app&#45;csharp:K_SafeApp&#45;&gt;safe&#45;app&#45;csharp:K_SafeApp.AppBindings</title>
<path fill="none" stroke="#c0c0c0" d="M309.9345,-80.0907C276.6582,-79.1055 249,-74.125 249,-63.5 249,-53.4146 273.9205,-48.4149 304.9114,-47.0905"/>
<polygon fill="#c0c0c0" stroke="#c0c0c0" points="309.9345,-46.9093 305.0189,-49.3382 307.4361,-46.9995 304.9377,-47.0897 304.9377,-47.0897 304.9377,-47.0897 307.4361,-46.9995 304.8566,-44.8412 309.9345,-46.9093 309.9345,-46.9093"/>
</g>
<!-- safe&#45;app&#45;csharp&#45;&gt;safe&#45;app&#45;csharp -->
<g id="edge9" class="edge">
<title>safe&#45;app&#45;csharp:K_SafeApp&#45;&gt;safe&#45;app&#45;csharp:K_SafeApp.Core</title>
<path fill="none" stroke="#c0c0c0" d="M309.9345,-79.0092C276.6582,-76.7983 249,-69.2031 249,-53 249,-37.6197 273.9205,-29.9952 304.9114,-27.3697"/>
<polygon fill="#c0c0c0" stroke="#c0c0c0" points="309.9345,-26.9908 305.1179,-29.6106 307.4416,-27.1789 304.9486,-27.367 304.9486,-27.367 304.9486,-27.367 307.4416,-27.1789 304.7794,-25.1233 309.9345,-26.9908 309.9345,-26.9908"/>
</g>
<!-- safe&#45;api -->
<g id="node12" class="node">
<title>safe&#45;api</title>
<polygon fill="none" stroke="#000000" points="592,-.5 592,-126.5 709,-126.5 709,-.5 592,-.5"/>
<text text-anchor="middle" x="650.5" y="-112.9" font-family="verdana" font-size="12.00" fill="#000000">safe&#45;api</text>
<polyline fill="none" stroke="#000000" points="592,-105.5 709,-105.5 "/>
<text text-anchor="middle" x="650.5" y="-91.9" font-family="verdana" font-size="12.00" fill="#000000">safe&#45;cli</text>
<polyline fill="none" stroke="#000000" points="592,-84.5 709,-84.5 "/>
<text text-anchor="middle" x="650.5" y="-70.9" font-family="verdana" font-size="12.00" fill="#000000">safe&#45;api</text>
<polyline fill="none" stroke="#000000" points="592,-63.5 709,-63.5 "/>
<text text-anchor="middle" x="650.5" y="-49.9" font-family="verdana" font-size="12.00" fill="#000000">safe&#45;ffi</text>
<polyline fill="none" stroke="#000000" points="592,-42.5 709,-42.5 "/>
<text text-anchor="middle" x="650.5" y="-28.9" font-family="verdana" font-size="12.00" fill="#000000">safe&#45;authd</text>
<polyline fill="none" stroke="#000000" points="592,-21.5 709,-21.5 "/>
<text text-anchor="middle" x="650.5" y="-7.9" font-family="verdana" font-size="12.00" fill="#000000">jsonrpc&#45;quic</text>
</g>
<!-- safe&#45;app&#45;csharp&#45;&gt;safe&#45;api -->
<g id="edge2" class="edge">
<title>safe&#45;app&#45;csharp:K_SafeApp.AppBindings&#45;&gt;safe&#45;api:K_safe&#45;ffi</title>
<path fill="none" stroke="#006400" d="M482,-52.5C529.1701,-52.5 542.2064,-52.5 586.9765,-52.5"/>
<polygon fill="#006400" stroke="#006400" points="592,-52.5 587,-54.7501 589.5,-52.5 587,-52.5001 587,-52.5001 587,-52.5001 589.5,-52.5 587,-50.2501 592,-52.5 592,-52.5"/>
</g>
<!-- safe&#45;authenticator&#45;mobile -->
<g id="node11" class="node">
<title>safe&#45;authenticator&#45;mobile</title>
<polygon fill="none" stroke="#000000" points="0,-352.5 0,-388.5 200,-388.5 200,-352.5 0,-352.5"/>
<text text-anchor="middle" x="100" y="-367.4" font-family="verdana" font-size="12.00" fill="#000000">safe&#45;authenticator&#45;mobile</text>
</g>
<!-- safe&#45;api&#45;&gt;safe&#45;nd -->
<g id="edge12" class="edge">
<title>safe&#45;api:K_safe&#45;ffi&#45;&gt;safe&#45;nd:K_safe&#45;nd</title>
<path fill="none" stroke="#006400" d="M709,-52.5C744.0654,-52.5 783.4812,-55.3358 813.79,-58.1276"/>
<polygon fill="#006400" stroke="#006400" points="818.9562,-58.6112 813.7682,-60.3853 816.4671,-58.3782 813.9779,-58.1451 813.9779,-58.1451 813.9779,-58.1451 816.4671,-58.3782 814.1877,-55.9049 818.9562,-58.6112 818.9562,-58.6112"/>
</g>
<!-- safe&#45;api&#45;&gt;safe&#45;nd -->
<g id="edge15" class="edge">
<title>safe&#45;api:K_safe&#45;api&#45;&gt;safe&#45;nd:K_safe&#45;nd</title>
<path fill="none" stroke="#006400" d="M709,-74.5C744.0654,-74.5 783.4812,-71.6642 813.79,-68.8724"/>
<polygon fill="#006400" stroke="#006400" points="818.9562,-68.3888 814.1877,-71.0951 816.4671,-68.6218 813.9779,-68.8549 813.9779,-68.8549 813.9779,-68.8549 816.4671,-68.6218 813.7682,-66.6147 818.9562,-68.3888 818.9562,-68.3888"/>
</g>
<!-- safe&#45;api&#45;&gt;safe&#45;api -->
<g id="edge6" class="edge">
<title>safe&#45;api:K_safe&#45;authd&#45;&gt;safe&#45;api:K_jsonrpc&#45;quic</title>
<path fill="none" stroke="#c0c0c0" d="M591.9149,-37.242C566.64,-36.6331 545,-31.8164 545,-21 545,-10.9441 563.7039,-6.0739 586.6437,-4.9495"/>
<polygon fill="#c0c0c0" stroke="#c0c0c0" points="591.9149,-4.758 586.9999,-7.1881 589.4166,-4.8488 586.9182,-4.9396 586.9182,-4.9396 586.9182,-4.9396 589.4166,-4.8488 586.8365,-2.6911 591.9149,-4.758 591.9149,-4.758"/>
</g>
<!-- safe&#45;api&#45;&gt;safe&#45;api -->
<g id="edge7" class="edge">
<title>safe&#45;api:K_safe&#45;authd&#45;&gt;safe&#45;api:K_safe&#45;api</title>
<path fill="none" stroke="#c0c0c0" d="M591.9149,-26.7293C566.64,-28.5482 545,-36.082 545,-53 545,-68.7945 563.8614,-76.4098 586.933,-78.8316"/>
<polygon fill="#c0c0c0" stroke="#c0c0c0" points="591.9149,-79.2707 586.7367,-81.0729 589.4246,-79.0511 586.9342,-78.8316 586.9342,-78.8316 586.9342,-78.8316 589.4246,-79.0511 587.1318,-76.5903 591.9149,-79.2707 591.9149,-79.2707"/>
</g>
<!-- safe&#45;api&#45;&gt;safe&#45;api -->
<g id="edge11" class="edge">
<title>safe&#45;api:K_safe&#45;ffi&#45;&gt;safe&#45;api:K_safe&#45;api</title>
<path fill="none" stroke="#c0c0c0" d="M591.9149,-46.8021C566.64,-47.4661 545,-52.4063 545,-63.5 545,-73.8137 563.7039,-78.8088 586.6437,-79.9937"/>
<polygon fill="#c0c0c0" stroke="#c0c0c0" points="591.9149,-80.1979 586.8316,-82.2526 589.4168,-80.1011 586.9187,-80.0043 586.9187,-80.0043 586.9187,-80.0043 589.4168,-80.1011 587.0058,-77.756 591.9149,-80.1979 591.9149,-80.1979"/>
</g>
<!-- safe&#45;api&#45;&gt;safe&#45;api -->
<g id="edge13" class="edge">
<title>safe&#45;api:K_safe&#45;cli&#45;&gt;safe&#45;api:K_safe&#45;api</title>
<path fill="none" stroke="#c0c0c0" d="M591.9149,-101.242C566.64,-100.6331 545,-95.8164 545,-85 545,-74.9441 563.7039,-70.0739 586.6437,-68.9495"/>
<polygon fill="#c0c0c0" stroke="#c0c0c0" points="591.9149,-68.758 586.9999,-71.1881 589.4166,-68.8488 586.9182,-68.9396 586.9182,-68.9396 586.9182,-68.9396 589.4166,-68.8488 586.8365,-66.6911 591.9149,-68.758 591.9149,-68.758"/>
</g>
<!-- safe&#45;api&#45;&gt;safe&#45;api -->
<g id="edge14" class="edge">
<title>safe&#45;api:K_safe&#45;api&#45;&gt;safe&#45;api:K_jsonrpc&#45;quic</title>
<path fill="none" stroke="#c0c0c0" d="M591.9149,-78.3434C566.64,-75.3696 545,-65.2422 545,-42.5 545,-21.268 563.8614,-11.0311 586.933,-7.3453"/>
<polygon fill="#c0c0c0" stroke="#c0c0c0" points="591.9149,-6.6566 587.2702,-9.5701 589.4385,-6.999 586.962,-7.3413 586.962,-7.3413 586.962,-7.3413 589.4385,-6.999 586.6539,-5.1125 591.9149,-6.6566 591.9149,-6.6566"/>
</g>
<!-- safe&#45;browser -->
<g id="node13" class="node">
<title>safe&#45;browser</title>
<polygon fill="none" stroke="#000000" points="38.5,-297.5 38.5,-333.5 161.5,-333.5 161.5,-297.5 38.5,-297.5"/>
<text text-anchor="middle" x="100" y="-312.4" font-family="verdana" font-size="12.00" fill="#000000">safe&#45;browser</text>
</g>
<!-- safe&#45;browser&#45;&gt;safe&#45;nodejs -->
<g id="edge16" class="edge">
<title>safe&#45;browser:K_safe&#45;browser&#45;&gt;safe&#45;nodejs:K_safe&#45;nodejs</title>
<path fill="none" stroke="#006400" d="M161.691,-315.5C212.1433,-315.5 283.1646,-315.5 333.7642,-315.5"/>
<polygon fill="#006400" stroke="#006400" points="338.9036,-315.5 333.9036,-317.7501 336.4036,-315.5 333.9036,-315.5001 333.9036,-315.5001 333.9036,-315.5001 336.4036,-315.5 333.9035,-313.2501 338.9036,-315.5 338.9036,-315.5"/>
</g>
</g>
</svg>
