<?xml version="1.0" encoding="UTF-8" standalone="no"?>
<?xml-stylesheet href="./db.css" type="text/css"?>
<!DOCTYPE svg PUBLIC "-//W3C//DTD SVG 1.1//EN"
 "http://www.w3.org/Graphics/SVG/1.1/DTD/svg11.dtd">
<!-- Generated by graphviz version 2.40.1 (20161225.0304)
 -->
<!-- Title: g Pages: 1 -->
<svg width="1279pt" height="461pt"
 viewBox="0.00 0.00 1279.00 461.00" xmlns="http://www.w3.org/2000/svg" xmlns:xlink="http://www.w3.org/1999/xlink">
<g id="graph0" class="graph" transform="scale(1 1) rotate(0) translate(4 457)">
<title>g</title>
<polygon fill="#ffffff" stroke="transparent" points="-4,4 -4,-457 1275,-457 1275,4 -4,4"/>
<!-- safe&#45;mobile&#45;browser -->
<g id="node1" class="node">
<title>safe&#45;mobile&#45;browser</title>
<polygon fill="none" stroke="#000000" points="0,-233.5 0,-270.5 171,-270.5 171,-233.5 0,-233.5"/>
<text text-anchor="middle" x="85.5" y="-248.3" font-family="verdana" font-size="14.00" fill="#000000">safe&#45;mobile&#45;browser</text>
</g>
<!-- safe_app_csharp -->
<g id="node9" class="node">
<title>safe_app_csharp</title>
<polygon fill="none" stroke="#000000" points="281,-233.5 281,-270.5 424,-270.5 424,-233.5 281,-233.5"/>
<text text-anchor="middle" x="352.5" y="-248.3" font-family="verdana" font-size="14.00" fill="#000000">safe_app_csharp</text>
</g>
<!-- safe&#45;mobile&#45;browser&#45;&gt;safe_app_csharp -->
<g id="edge1" class="edge">
<title>safe&#45;mobile&#45;browser:K_safe&#45;mobile&#45;browser&#45;&gt;safe_app_csharp:K_safe_app_csharp</title>
<path fill="none" stroke="#006400" d="M171.0822,-252C204.6726,-252 242.9296,-252 275.6247,-252"/>
<polygon fill="#006400" stroke="#006400" points="280.8227,-252 275.8228,-254.2501 278.3227,-252 275.8227,-252.0001 275.8227,-252.0001 275.8227,-252.0001 278.3227,-252 275.8227,-249.7501 280.8227,-252 280.8227,-252"/>
</g>
<!-- parsec -->
<g id="node2" class="node">
<title>parsec</title>
<polygon fill="none" stroke="#000000" points="1170,-.5 1170,-37.5 1241,-37.5 1241,-.5 1170,-.5"/>
<text text-anchor="middle" x="1205.5" y="-15.3" font-family="verdana" font-size="14.00" fill="#000000">parsec</text>
</g>
<!-- routing -->
<g id="node3" class="node">
<title>routing</title>
<polygon fill="none" stroke="#000000" points="904,-29.5 904,-66.5 978,-66.5 978,-29.5 904,-29.5"/>
<text text-anchor="middle" x="941" y="-44.3" font-family="verdana" font-size="14.00" fill="#000000">routing</text>
</g>
<!-- routing&#45;&gt;parsec -->
<g id="edge9" class="edge">
<title>routing:K_routing&#45;&gt;parsec:K_parsec</title>
<path fill="none" stroke="#006400" d="M978.0561,-43.9371C1027.2651,-38.5418 1113.8805,-29.0452 1164.8411,-23.4579"/>
<polygon fill="#006400" stroke="#006400" points="1169.9625,-22.8964 1165.2375,-25.678 1167.4774,-23.1689 1164.9922,-23.4414 1164.9922,-23.4414 1164.9922,-23.4414 1167.4774,-23.1689 1164.747,-21.2048 1169.9625,-22.8964 1169.9625,-22.8964"/>
</g>
<!-- quic&#45;p2p -->
<g id="node7" class="node">
<title>quic&#45;p2p</title>
<polygon fill="none" stroke="#000000" points="1163.5,-123.5 1163.5,-160.5 1247.5,-160.5 1247.5,-123.5 1163.5,-123.5"/>
<text text-anchor="middle" x="1205.5" y="-138.3" font-family="verdana" font-size="14.00" fill="#000000">quic&#45;p2p</text>
</g>
<!-- routing&#45;&gt;quic&#45;p2p -->
<g id="edge10" class="edge">
<title>routing:K_routing&#45;&gt;quic&#45;p2p:K_quic&#45;p2p</title>
<path fill="none" stroke="#006400" d="M978.3955,-55.5709C1026.5187,-65.3136 1104,-81 1104,-81 1104,-81 1145.2388,-110.4563 1159.0522,-120.323"/>
<polygon fill="#006400" stroke="#006400" points="1163.3293,-123.3781 1157.9528,-122.3028 1161.295,-121.925 1159.2606,-120.4719 1159.2606,-120.4719 1159.2606,-120.4719 1161.295,-121.925 1160.5684,-118.6409 1163.3293,-123.3781 1163.3293,-123.3781"/>
</g>
<!-- safe&#45;nd -->
<g id="node4" class="node">
<title>safe&#45;nd</title>
<polygon fill="none" stroke="#000000" points="1167,-266.5 1167,-303.5 1244,-303.5 1244,-266.5 1167,-266.5"/>
<text text-anchor="middle" x="1205.5" y="-281.3" font-family="verdana" font-size="14.00" fill="#000000">safe&#45;nd</text>
</g>
<!-- safe_vault -->
<g id="node5" class="node">
<title>safe_vault</title>
<polygon fill="none" stroke="#000000" points="590,-45.5 590,-82.5 686,-82.5 686,-45.5 590,-45.5"/>
<text text-anchor="middle" x="638" y="-60.3" font-family="verdana" font-size="14.00" fill="#000000">safe_vault</text>
</g>
<!-- safe_vault&#45;&gt;routing -->
<g id="edge14" class="edge">
<title>safe_vault:K_safe_vault&#45;&gt;routing:K_routing</title>
<path fill="none" stroke="#006400" d="M686.0113,-61.4648C744.5307,-58.3746 842.5109,-53.2007 898.4419,-50.2473"/>
<polygon fill="#006400" stroke="#006400" points="903.7205,-49.9686 898.8462,-52.4792 901.224,-50.1004 898.7275,-50.2323 898.7275,-50.2323 898.7275,-50.2323 901.224,-50.1004 898.6088,-47.9854 903.7205,-49.9686 903.7205,-49.9686"/>
</g>
<!-- safe_vault&#45;&gt;safe&#45;nd -->
<g id="edge15" class="edge">
<title>safe_vault:K_safe_vault&#45;&gt;safe&#45;nd:K_safe&#45;nd</title>
<path fill="none" stroke="#006400" d="M686.0341,-72.389C738.6014,-81.5698 815.5,-95 815.5,-95 815.5,-95 815.5,-95 1066.5,-95 1066.5,-95 1148.5622,-235.0364 1164.3796,-262.0283"/>
<polygon fill="#006400" stroke="#006400" points="1166.9272,-266.3757 1162.4579,-263.1994 1165.6632,-264.2188 1164.3992,-262.0618 1164.3992,-262.0618 1164.3992,-262.0618 1165.6632,-264.2188 1166.3404,-260.9242 1166.9272,-266.3757 1166.9272,-266.3757"/>
</g>
<!-- safe_browser -->
<g id="node6" class="node">
<title>safe_browser</title>
<polygon fill="none" stroke="#000000" points="26,-327.5 26,-364.5 145,-364.5 145,-327.5 26,-327.5"/>
<text text-anchor="middle" x="85.5" y="-342.3" font-family="verdana" font-size="14.00" fill="#000000">safe_browser</text>
</g>
<!-- safe&#45;nodejs -->
<g id="node8" class="node">
<title>safe&#45;nodejs</title>
<polygon fill="none" stroke="#000000" points="299.5,-290 299.5,-364 405.5,-364 405.5,-290 299.5,-290"/>
<text text-anchor="middle" x="352.5" y="-341.8" font-family="verdana" font-size="14.00" fill="#000000">safe&#45;nodejs</text>
<polyline fill="none" stroke="#000000" points="299.5,-327 405.5,-327 "/>
<text text-anchor="middle" x="352.5" y="-304.8" font-family="verdana" font-size="14.00" fill="#000000">native</text>
</g>
<!-- safe_browser&#45;&gt;safe&#45;nodejs -->
<g id="edge13" class="edge">
<title>safe_browser:K_safe_browser&#45;&gt;safe&#45;nodejs:K_safe&#45;nodejs</title>
<path fill="none" stroke="#006400" d="M145.1109,-346C199.5273,-346 274.4358,-346 294.4277,-346"/>
<polygon fill="#006400" stroke="#006400" points="299.5,-346 294.5,-348.2501 297,-346 294.5,-346.0001 294.5,-346.0001 294.5,-346.0001 297,-346 294.5,-343.7501 299.5,-346 299.5,-346"/>
</g>
<!-- safe&#45;api -->
<g id="node13" class="node">
<title>safe&#45;api</title>
<polygon fill="none" stroke="#000000" points="583.5,-171 583.5,-393 692.5,-393 692.5,-171 583.5,-171"/>
<text text-anchor="middle" x="638" y="-370.8" font-family="verdana" font-size="14.00" fill="#000000">safe&#45;api</text>
<polyline fill="none" stroke="#000000" points="583.5,-356 692.5,-356 "/>
<text text-anchor="middle" x="638" y="-333.8" font-family="verdana" font-size="14.00" fill="#000000">safe&#45;cli</text>
<polyline fill="none" stroke="#000000" points="583.5,-319 692.5,-319 "/>
<text text-anchor="middle" x="638" y="-296.8" font-family="verdana" font-size="14.00" fill="#000000">safe&#45;api</text>
<polyline fill="none" stroke="#000000" points="583.5,-282 692.5,-282 "/>
<text text-anchor="middle" x="638" y="-259.8" font-family="verdana" font-size="14.00" fill="#000000">safe&#45;ffi</text>
<polyline fill="none" stroke="#000000" points="583.5,-245 692.5,-245 "/>
<text text-anchor="middle" x="638" y="-222.8" font-family="verdana" font-size="14.00" fill="#000000">safe&#45;authd</text>
<polyline fill="none" stroke="#000000" points="583.5,-208 692.5,-208 "/>
<text text-anchor="middle" x="638" y="-185.8" font-family="verdana" font-size="14.00" fill="#000000">jsonrpc&#45;quic</text>
</g>
<!-- safe&#45;nodejs&#45;&gt;safe&#45;api -->
<g id="edge21" class="edge">
<title>safe&#45;nodejs:K_native&#45;&gt;safe&#45;api:K_safe&#45;api</title>
<path fill="none" stroke="#006400" d="M405.5,-308C405.5,-308 548.7762,-302.3497 577.8792,-301.2019"/>
<polygon fill="#006400" stroke="#006400" points="583,-301 578.0926,-303.4454 580.5019,-301.0986 578.0039,-301.1971 578.0039,-301.1971 578.0039,-301.1971 580.5019,-301.0986 577.9152,-298.9489 583,-301 583,-301"/>
</g>
<!-- safe_app_csharp&#45;&gt;safe&#45;api -->
<g id="edge16" class="edge">
<title>safe_app_csharp:K_safe_app_csharp&#45;&gt;safe&#45;api:K_safe&#45;ffi</title>
<path fill="none" stroke="#006400" d="M424.1681,-255.4202C482.3167,-258.1952 557.8238,-261.7985 577.9102,-262.7571"/>
<polygon fill="#006400" stroke="#006400" points="583,-263 577.8984,-265.009 580.5028,-262.8808 578.0057,-262.7616 578.0057,-262.7616 578.0057,-262.7616 580.5028,-262.8808 578.113,-260.5141 583,-263 583,-263"/>
</g>
<!-- safe_client_libs -->
<g id="node10" class="node">
<title>safe_client_libs</title>
<polygon fill="none" stroke="#000000" points="852,-267.5 852,-452.5 1030,-452.5 1030,-267.5 852,-267.5"/>
<text text-anchor="middle" x="941" y="-430.3" font-family="verdana" font-size="14.00" fill="#000000">safe_client_libs</text>
<polyline fill="none" stroke="#000000" points="852,-415.5 1030,-415.5 "/>
<text text-anchor="middle" x="941" y="-393.3" font-family="verdana" font-size="14.00" fill="#000000">safe_app</text>
<polyline fill="none" stroke="#000000" points="852,-378.5 1030,-378.5 "/>
<text text-anchor="middle" x="941" y="-356.3" font-family="verdana" font-size="14.00" fill="#000000">safe_authenticator</text>
<polyline fill="none" stroke="#000000" points="852,-341.5 1030,-341.5 "/>
<text text-anchor="middle" x="941" y="-319.3" font-family="verdana" font-size="14.00" fill="#000000">safe_authenticator_ffi</text>
<polyline fill="none" stroke="#000000" points="852,-304.5 1030,-304.5 "/>
<text text-anchor="middle" x="941" y="-282.3" font-family="verdana" font-size="14.00" fill="#000000">safe_core</text>
</g>
<!-- safe_client_libs&#45;&gt;safe&#45;nd -->
<g id="edge2" class="edge">
<title>safe_client_libs:K_safe_app&#45;&gt;safe&#45;nd:K_safe&#45;nd</title>
<path fill="none" stroke="#006400" d="M1030,-397C1030,-397 1066,-413 1066,-413 1066,-413 1104,-413 1104,-413 1104,-413 1152.423,-328.8363 1164.3632,-308.083"/>
<polygon fill="#006400" stroke="#006400" points="1166.9543,-303.5794 1166.4111,-309.0354 1165.7076,-305.7463 1164.4608,-307.9133 1164.4608,-307.9133 1164.4608,-307.9133 1165.7076,-305.7463 1162.5106,-306.7912 1166.9543,-303.5794 1166.9543,-303.5794"/>
</g>
<!-- safe_client_libs&#45;&gt;safe&#45;nd -->
<g id="edge7" class="edge">
<title>safe_client_libs:K_safe_core&#45;&gt;safe&#45;nd:K_safe&#45;nd</title>
<path fill="none" stroke="#006400" d="M1030,-286C1030,-286 1109.7525,-285.5456 1161.7328,-285.2494"/>
<polygon fill="#006400" stroke="#006400" points="1166.9858,-285.2195 1161.9987,-287.498 1164.4858,-285.2337 1161.9859,-285.248 1161.9859,-285.248 1161.9859,-285.248 1164.4858,-285.2337 1161.973,-282.9981 1166.9858,-285.2195 1166.9858,-285.2195"/>
</g>
<!-- safe_client_libs&#45;&gt;safe&#45;nd -->
<g id="edge22" class="edge">
<title>safe_client_libs:K_safe_authenticator&#45;&gt;safe&#45;nd:K_safe&#45;nd</title>
<path fill="none" stroke="#006400" d="M1030,-360C1030,-360 1104,-337 1104,-337 1104,-337 1147.46,-313.8903 1162.1871,-306.0592"/>
<polygon fill="#006400" stroke="#006400" points="1166.9543,-303.5243 1163.596,-307.8584 1164.747,-304.698 1162.5397,-305.8718 1162.5397,-305.8718 1162.5397,-305.8718 1164.747,-304.698 1161.4833,-303.8852 1166.9543,-303.5243 1166.9543,-303.5243"/>
</g>
<!-- safe_client_libs&#45;&gt;safe&#45;nd -->
<g id="edge24" class="edge">
<title>safe_client_libs:K_safe_authenticator_ffi&#45;&gt;safe&#45;nd:K_safe&#45;nd</title>
<path fill="none" stroke="#006400" d="M1030,-323C1030,-323 1110.075,-305.6618 1162.0475,-294.4085"/>
<polygon fill="#006400" stroke="#006400" points="1166.9858,-293.3393 1162.5752,-296.5965 1164.5424,-293.8684 1162.099,-294.3974 1162.099,-294.3974 1162.099,-294.3974 1164.5424,-293.8684 1161.6228,-292.1984 1166.9858,-293.3393 1166.9858,-293.3393"/>
</g>
<!-- safe_client_libs&#45;&gt;quic&#45;p2p -->
<g id="edge6" class="edge">
<title>safe_client_libs:K_safe_core&#45;&gt;quic&#45;p2p:K_quic&#45;p2p</title>
<path fill="none" stroke="#006400" d="M1030,-286C1030,-286 1138.0822,-184.3946 1159.7461,-164.0289"/>
<polygon fill="#006400" stroke="#006400" points="1163.4032,-160.591 1161.3013,-165.6551 1161.5817,-162.3033 1159.7602,-164.0157 1159.7602,-164.0157 1159.7602,-164.0157 1161.5817,-162.3033 1158.2191,-162.3763 1163.4032,-160.591 1163.4032,-160.591"/>
</g>
<!-- safe_client_libs&#45;&gt;safe_client_libs -->
<g id="edge3" class="edge">
<title>safe_client_libs:K_safe_app&#45;&gt;safe_client_libs:K_safe_authenticator</title>
<path fill="none" stroke="#c0c0c0" d="M851.8395,-401.7763C817.9945,-399.8564 790,-393.002 790,-378.5 790,-364.7345 815.2235,-357.8595 846.7316,-355.5547"/>
<polygon fill="#c0c0c0" stroke="#c0c0c0" points="851.8395,-355.2237 846.9955,-357.7924 849.3447,-355.3854 846.85,-355.5471 846.85,-355.5471 846.85,-355.5471 849.3447,-355.3854 846.7044,-353.3018 851.8395,-355.2237 851.8395,-355.2237"/>
</g>
<!-- safe_client_libs&#45;&gt;safe_client_libs -->
<g id="edge4" class="edge">
<title>safe_client_libs:K_safe_app&#45;&gt;safe_client_libs:K_safe_core</title>
<path fill="none" stroke="#c0c0c0" d="M851.8395,-397.8694C817.9945,-391.5904 790,-375.5137 790,-341.5 790,-309.2136 815.2235,-293.0886 846.7316,-286.164"/>
<polygon fill="#c0c0c0" stroke="#c0c0c0" points="851.8395,-285.1306 847.385,-288.3275 849.3891,-285.6264 846.9388,-286.1222 846.9388,-286.1222 846.9388,-286.1222 849.3891,-285.6264 846.4926,-283.9169 851.8395,-285.1306 851.8395,-285.1306"/>
</g>
<!-- safe_client_libs&#45;&gt;safe_client_libs -->
<g id="edge23" class="edge">
<title>safe_client_libs:K_safe_authenticator&#45;&gt;safe_client_libs:K_safe_core</title>
<path fill="none" stroke="#c0c0c0" d="M851.8395,-362.8229C817.9945,-358.7234 790,-347.2578 790,-323 790,-299.974 815.2235,-288.474 846.7316,-283.8594"/>
<polygon fill="#c0c0c0" stroke="#c0c0c0" points="851.8395,-283.1771 847.1814,-286.0693 849.3615,-283.5081 846.8835,-283.8392 846.8835,-283.8392 846.8835,-283.8392 849.3615,-283.5081 846.5856,-281.609 851.8395,-283.1771 851.8395,-283.1771"/>
</g>
<!-- safe_client_libs&#45;&gt;safe_client_libs -->
<g id="edge25" class="edge">
<title>safe_client_libs:K_safe_authenticator_ffi&#45;&gt;safe_client_libs:K_safe_authenticator</title>
<path fill="none" stroke="#c0c0c0" d="M851.8395,-318.2237C817.9945,-320.1436 790,-326.998 790,-341.5 790,-355.2655 815.2235,-362.1405 846.7316,-364.4453"/>
<polygon fill="#c0c0c0" stroke="#c0c0c0" points="851.8395,-364.7763 846.7044,-366.6982 849.3447,-364.6146 846.85,-364.4529 846.85,-364.4529 846.85,-364.4529 849.3447,-364.6146 846.9955,-362.2076 851.8395,-364.7763 851.8395,-364.7763"/>
</g>
<!-- safe_client_libs&#45;&gt;safe_client_libs -->
<g id="edge26" class="edge">
<title>safe_client_libs:K_safe_authenticator_ffi&#45;&gt;safe_client_libs:K_safe_core</title>
<path fill="none" stroke="#c0c0c0" d="M851.8395,-327.7763C817.9945,-325.8564 790,-319.002 790,-304.5 790,-290.7345 815.2235,-283.8595 846.7316,-281.5547"/>
<polygon fill="#c0c0c0" stroke="#c0c0c0" points="851.8395,-281.2237 846.9955,-283.7924 849.3447,-281.3854 846.85,-281.5471 846.85,-281.5471 846.85,-281.5471 849.3447,-281.3854 846.7044,-279.3018 851.8395,-281.2237 851.8395,-281.2237"/>
</g>
<!-- self_encryption -->
<g id="node11" class="node">
<title>self_encryption</title>
<polygon fill="none" stroke="#000000" points="1140,-399.5 1140,-436.5 1271,-436.5 1271,-399.5 1140,-399.5"/>
<text text-anchor="middle" x="1205.5" y="-414.3" font-family="verdana" font-size="14.00" fill="#000000">self_encryption</text>
</g>
<!-- safe_client_libs&#45;&gt;self_encryption -->
<g id="edge5" class="edge">
<title>safe_client_libs:K_safe_app&#45;&gt;self_encryption:K_self_encryption</title>
<path fill="none" stroke="#006400" d="M1030,-397C1030,-397 1066,-451 1066,-451 1066,-451 1104,-451 1104,-451 1104,-451 1125.4539,-442.3588 1135.2381,-438.418"/>
<polygon fill="#006400" stroke="#006400" points="1139.8967,-436.5416 1136.0994,-440.4968 1137.5778,-437.4757 1135.2588,-438.4097 1135.2588,-438.4097 1135.2588,-438.4097 1137.5778,-437.4757 1134.4181,-436.3226 1139.8967,-436.5416 1139.8967,-436.5416"/>
</g>
<!-- safe_client_libs&#45;&gt;self_encryption -->
<g id="edge8" class="edge">
<title>safe_client_libs:K_safe_core&#45;&gt;self_encryption:K_self_encryption</title>
<path fill="none" stroke="#006400" d="M1030,-286C1030,-286 1066,-337 1066,-337 1066,-337 1120.8996,-383.3679 1136.1256,-396.2277"/>
<polygon fill="#006400" stroke="#006400" points="1139.9464,-399.4547 1134.6747,-397.9474 1138.0364,-397.8416 1136.1265,-396.2284 1136.1265,-396.2284 1136.1265,-396.2284 1138.0364,-397.8416 1137.5783,-394.5095 1139.9464,-399.4547 1139.9464,-399.4547"/>
</g>
<!-- safe&#45;authenticator&#45;mobile -->
<g id="node12" class="node">
<title>safe&#45;authenticator&#45;mobile</title>
<polygon fill="none" stroke="#000000" points="534,-114.5 534,-151.5 742,-151.5 742,-114.5 534,-114.5"/>
<text text-anchor="middle" x="638" y="-129.3" font-family="verdana" font-size="14.00" fill="#000000">safe&#45;authenticator&#45;mobile</text>
</g>
<!-- safe&#45;authenticator&#45;mobile&#45;&gt;safe_client_libs -->
<g id="edge33" class="edge">
<title>safe&#45;authenticator&#45;mobile:K_safe&#45;authenticator&#45;mobile&#45;&gt;safe_client_libs:K_safe_authenticator_ffi</title>
<path fill="none" stroke="#006400" d="M742.0797,-151.6243C745.0854,-156.3104 832.1665,-292.0778 849.1459,-318.5502"/>
<polygon fill="#006400" stroke="#006400" points="852,-323 847.4066,-320.0061 850.6503,-320.8957 849.3005,-318.7913 849.3005,-318.7913 849.3005,-318.7913 850.6503,-320.8957 851.1944,-317.5765 852,-323 852,-323"/>
</g>
<!-- safe&#45;api&#45;&gt;safe&#45;nd -->
<g id="edge18" class="edge">
<title>safe&#45;api:K_safe&#45;ffi&#45;&gt;safe&#45;nd:K_safe&#45;nd</title>
<path fill="none" stroke="#006400" d="M693,-263C693,-263 815.5,-171 815.5,-171 815.5,-171 815.5,-171 1066.5,-171 1066.5,-171 1145.1073,-245.6965 1163.2814,-262.9664"/>
<polygon fill="#006400" stroke="#006400" points="1166.9272,-266.4308 1161.7527,-264.6176 1165.1149,-264.7087 1163.3026,-262.9865 1163.3026,-262.9865 1163.3026,-262.9865 1165.1149,-264.7087 1164.8525,-261.3555 1166.9272,-266.4308 1166.9272,-266.4308"/>
</g>
<!-- safe&#45;api&#45;&gt;safe&#45;nd -->
<g id="edge29" class="edge">
<title>safe&#45;api:K_safe&#45;api&#45;&gt;safe&#45;nd:K_safe&#45;nd</title>
<path fill="none" stroke="#006400" d="M693,-301C693,-301 852,-258 852,-258 852,-258 1030,-258 1030,-258 1030,-258 1109.7525,-270.2696 1161.7328,-278.2666"/>
<polygon fill="#006400" stroke="#006400" points="1166.9858,-279.0747 1161.7018,-280.5382 1164.5149,-278.6946 1162.0439,-278.3144 1162.0439,-278.3144 1162.0439,-278.3144 1164.5149,-278.6946 1162.3861,-276.0905 1166.9858,-279.0747 1166.9858,-279.0747"/>
</g>
<!-- safe&#45;api&#45;&gt;safe_client_libs -->
<g id="edge19" class="edge">
<title>safe&#45;api:K_safe&#45;ffi&#45;&gt;safe_client_libs:K_safe_authenticator_ffi</title>
<path fill="none" stroke="#006400" d="M693,-263C693,-263 820.2296,-311.0112 847.0671,-321.1385"/>
<polygon fill="#006400" stroke="#006400" points="852,-323 846.5276,-323.3398 849.661,-322.1173 847.322,-321.2347 847.322,-321.2347 847.322,-321.2347 849.661,-322.1173 848.1164,-319.1295 852,-323 852,-323"/>
</g>
<!-- safe&#45;api&#45;&gt;safe_client_libs -->
<g id="edge20" class="edge">
<title>safe&#45;api:K_safe&#45;ffi&#45;&gt;safe_client_libs:K_safe_core</title>
<path fill="none" stroke="#006400" d="M693,-263C693,-263 816,-271 816,-271 816,-271 837.5354,-279.9731 847.2936,-284.039"/>
<polygon fill="#006400" stroke="#006400" points="852,-286 846.5192,-286.1538 849.6923,-285.0384 847.3846,-284.0769 847.3846,-284.0769 847.3846,-284.0769 849.6923,-285.0384 848.25,-281.9999 852,-286 852,-286"/>
</g>
<!-- safe&#45;api&#45;&gt;safe_client_libs -->
<g id="edge30" class="edge">
<title>safe&#45;api:K_safe&#45;api&#45;&gt;safe_client_libs:K_safe_app</title>
<path fill="none" stroke="#006400" d="M693,-301C693,-301 778,-375 778,-375 778,-375 830.6816,-390.6621 847.1447,-395.5565"/>
<polygon fill="#006400" stroke="#006400" points="852,-397 846.5661,-397.7318 849.6037,-396.2875 847.2073,-395.5751 847.2073,-395.5751 847.2073,-395.5751 849.6037,-396.2875 847.8485,-393.4184 852,-397 852,-397"/>
</g>
<!-- safe&#45;api&#45;&gt;safe_client_libs -->
<g id="edge31" class="edge">
<title>safe&#45;api:K_safe&#45;api&#45;&gt;safe_client_libs:K_safe_authenticator</title>
<path fill="none" stroke="#006400" d="M693,-301C693,-301 778,-337 778,-337 778,-337 830.6816,-353.374 847.1447,-358.4909"/>
<polygon fill="#006400" stroke="#006400" points="852,-360 846.5575,-360.6645 849.6127,-359.258 847.2253,-358.5159 847.2253,-358.5159 847.2253,-358.5159 849.6127,-359.258 847.8931,-356.3673 852,-360 852,-360"/>
</g>
<!-- safe&#45;api&#45;&gt;safe_client_libs -->
<g id="edge32" class="edge">
<title>safe&#45;api:K_safe&#45;api&#45;&gt;safe_client_libs:K_safe_core</title>
<path fill="none" stroke="#006400" d="M693,-301C693,-301 779,-299 779,-299 779,-299 830.0118,-289.9157 846.75,-286.9349"/>
<polygon fill="#006400" stroke="#006400" points="852,-286 847.472,-289.0918 849.5387,-286.4383 847.0774,-286.8767 847.0774,-286.8767 847.0774,-286.8767 849.5387,-286.4383 846.6829,-284.6615 852,-286 852,-286"/>
</g>
<!-- safe&#45;api&#45;&gt;safe&#45;api -->
<g id="edge11" class="edge">
<title>safe&#45;api:K_safe&#45;authd&#45;&gt;safe&#45;api:K_jsonrpc&#45;quic</title>
<path fill="none" stroke="#c0c0c0" d="M583.2808,-231.3564C547.7713,-231.4869 513.5,-225.1709 513.5,-207.5 513.5,-190.7265 544.379,-184.1839 577.8851,-183.6742"/>
<polygon fill="#c0c0c0" stroke="#c0c0c0" points="583.2808,-183.6436 578.2937,-185.922 580.7809,-183.6578 578.2809,-183.6721 578.2809,-183.6721 578.2809,-183.6721 580.7809,-183.6578 578.2681,-181.4221 583.2808,-183.6436 583.2808,-183.6436"/>
</g>
<!-- safe&#45;api&#45;&gt;safe&#45;api -->
<g id="edge12" class="edge">
<title>safe&#45;api:K_safe&#45;authd&#45;&gt;safe&#45;api:K_safe&#45;api</title>
<path fill="none" stroke="#c0c0c0" d="M583.2808,-221.5111C547.7713,-222.9404 513.5,-233.6201 513.5,-263.5 513.5,-291.8625 544.379,-302.9254 577.8851,-305.1982"/>
<polygon fill="#c0c0c0" stroke="#c0c0c0" points="583.2808,-305.4889 578.167,-307.4666 580.7844,-305.3544 578.2881,-305.2199 578.2881,-305.2199 578.2881,-305.2199 580.7844,-305.3544 578.4091,-302.9731 583.2808,-305.4889 583.2808,-305.4889"/>
</g>
<!-- safe&#45;api&#45;&gt;safe&#45;api -->
<g id="edge17" class="edge">
<title>safe&#45;api:K_safe&#45;ffi&#45;&gt;safe&#45;api:K_safe&#45;api</title>
<path fill="none" stroke="#c0c0c0" d="M583.2808,-257.6664C547.7713,-257.577 513.5,-264.0078 513.5,-282 513.5,-299.0785 544.379,-305.74 577.8851,-306.2961"/>
<polygon fill="#c0c0c0" stroke="#c0c0c0" points="583.2808,-306.3336 578.2653,-308.5487 580.7809,-306.3162 578.2809,-306.2988 578.2809,-306.2988 578.2809,-306.2988 580.7809,-306.3162 578.2966,-304.0488 583.2808,-306.3336 583.2808,-306.3336"/>
</g>
<!-- safe&#45;api&#45;&gt;safe&#45;api -->
<g id="edge27" class="edge">
<title>safe&#45;api:K_safe&#45;cli&#45;&gt;safe&#45;api:K_safe&#45;api</title>
<path fill="none" stroke="#c0c0c0" d="M583.2808,-343.3564C547.7713,-343.4869 513.5,-337.1709 513.5,-319.5 513.5,-302.7265 544.379,-296.1839 577.8851,-295.6742"/>
<polygon fill="#c0c0c0" stroke="#c0c0c0" points="583.2808,-295.6436 578.2937,-297.922 580.7809,-295.6578 578.2809,-295.6721 578.2809,-295.6721 578.2809,-295.6721 580.7809,-295.6578 578.2681,-293.4221 583.2808,-295.6436 583.2808,-295.6436"/>
</g>
<!-- safe&#45;api&#45;&gt;safe&#45;api -->
<g id="edge28" class="edge">
<title>safe&#45;api:K_safe&#45;api&#45;&gt;safe&#45;api:K_jsonrpc&#45;quic</title>
<path fill="none" stroke="#c0c0c0" d="M583.2808,-304.6441C547.7713,-301.6962 513.5,-286.7676 513.5,-245 513.5,-205.1903 544.6336,-189.7623 578.2989,-185.8509"/>
<polygon fill="#c0c0c0" stroke="#c0c0c0" points="583.2808,-185.3559 578.5278,-188.0893 580.7931,-185.6031 578.3053,-185.8504 578.3053,-185.8504 578.3053,-185.8504 580.7931,-185.6031 578.0828,-183.6114 583.2808,-185.3559 583.2808,-185.3559"/>
</g>
</g>
</svg>
