<?xml version="1.0" encoding="UTF-8" standalone="no"?>
<?xml-stylesheet href="./db.css" type="text/css"?>
<!DOCTYPE svg PUBLIC "-//W3C//DTD SVG 1.1//EN"
 "http://www.w3.org/Graphics/SVG/1.1/DTD/svg11.dtd">
<!-- Generated by graphviz version 2.43.0 (0)
 -->
<!-- Title: g Pages: 1 -->
<svg width="674pt" height="644pt"
 viewBox="0.00 0.00 674.00 643.50" xmlns="http://www.w3.org/2000/svg" xmlns:xlink="http://www.w3.org/1999/xlink">
<g id="graph0" class="graph" transform="scale(1 1) rotate(0) translate(4 639.5)">
<title>g</title>
<polygon fill="white" stroke="transparent" points="-4,4 -4,-639.5 670,-639.5 670,4 -4,4"/>
<!-- sn_authenticator_mobile -->
<g id="node1" class="node">
<title>sn_authenticator_mobile</title>
<polygon fill="none" stroke="black" points="0,-104 0,-140 192,-140 192,-104 0,-104"/>
<text text-anchor="middle" x="96" y="-118.9" font-family="verdana" font-size="12.00">sn_authenticator_mobile</text>
</g>
<!-- sn_csharp -->
<g id="node5" class="node">
<title>sn_csharp</title>
<polygon fill="none" stroke="black" points="302,-0.5 302,-105.5 474,-105.5 474,-0.5 302,-0.5"/>
<text text-anchor="middle" x="388" y="-91.9" font-family="verdana" font-size="12.00">sn_csharp</text>
<polyline fill="none" stroke="black" points="302,-84.5 474,-84.5 "/>
<text text-anchor="middle" x="388" y="-70.9" font-family="verdana" font-size="12.00">SafeApp</text>
<polyline fill="none" stroke="black" points="302,-63.5 474,-63.5 "/>
<text text-anchor="middle" x="388" y="-49.9" font-family="verdana" font-size="12.00">SafeApp.AppBindings</text>
<polyline fill="none" stroke="black" points="302,-42.5 474,-42.5 "/>
<text text-anchor="middle" x="388" y="-28.9" font-family="verdana" font-size="12.00">SafeAuthenticator</text>
<polyline fill="none" stroke="black" points="302,-21.5 474,-21.5 "/>
<text text-anchor="middle" x="388" y="-7.9" font-family="verdana" font-size="12.00">SafeApp.Core</text>
</g>
<!-- sn_authenticator_mobile&#45;&gt;sn_csharp -->
<g id="edge1" class="edge">
<title>sn_authenticator_mobile:K_sn_authenticator_mobile&#45;&gt;sn_csharp:K_sn_csharp</title>
<path fill="none" stroke="DarkGreen" d="M192.41,-118.51C216.62,-116.42 242.42,-113.13 266,-108 280.8,-104.78 284.3,-96.98 296.91,-95.32"/>
<polygon fill="DarkGreen" stroke="DarkGreen" points="302,-95 297.15,-97.56 299.5,-95.16 297.01,-95.31 297.01,-95.31 297.01,-95.31 299.5,-95.16 296.87,-93.06 302,-95 302,-95"/>
</g>
<!-- sn_api -->
<g id="node2" class="node">
<title>sn_api</title>
<polygon fill="none" stroke="black" points="584,-35 584,-71 666,-71 666,-35 584,-35"/>
<text text-anchor="middle" x="625" y="-49.9" font-family="verdana" font-size="12.00">sn_api</text>
</g>
<!-- sn_routing -->
<g id="node3" class="node">
<title>sn_routing</title>
<polygon fill="none" stroke="black" points="43,-159 43,-195 149,-195 149,-159 43,-159"/>
<text text-anchor="middle" x="96" y="-173.9" font-family="verdana" font-size="12.00">sn_routing</text>
</g>
<!-- sn_browser -->
<g id="node4" class="node">
<title>sn_browser</title>
<polygon fill="none" stroke="black" points="40,-214 40,-250 152,-250 152,-214 40,-214"/>
<text text-anchor="middle" x="96" y="-228.9" font-family="verdana" font-size="12.00">sn_browser</text>
</g>
<!-- sn_nodejs -->
<g id="node6" class="node">
<title>sn_nodejs</title>
<polygon fill="none" stroke="black" points="336.5,-200 336.5,-242 439.5,-242 439.5,-200 336.5,-200"/>
<text text-anchor="middle" x="388" y="-228.4" font-family="verdana" font-size="12.00">sn_nodejs</text>
<polyline fill="none" stroke="black" points="336.5,-221 439.5,-221 "/>
<text text-anchor="middle" x="388" y="-207.4" font-family="verdana" font-size="12.00">native</text>
</g>
<!-- sn_browser&#45;&gt;sn_nodejs -->
<g id="edge5" class="edge">
<title>sn_browser:K_sn_browser&#45;&gt;sn_nodejs:K_sn_nodejs</title>
<path fill="none" stroke="DarkGreen" d="M152.02,-232C199.13,-232 268.43,-232 329.84,-232"/>
<polygon fill="DarkGreen" stroke="DarkGreen" points="335,-232 330,-234.25 332.5,-232 330,-232 330,-232 330,-232 332.5,-232 330,-229.75 335,-232 335,-232"/>
</g>
<!-- sn_csharp&#45;&gt;sn_api -->
<g id="edge4" class="edge">
<title>sn_csharp:K_SafeApp.AppBindings&#45;&gt;sn_api:K_sn_api</title>
<path fill="none" stroke="DarkGreen" d="M474,-53C509.19,-53 548.99,-53 578.9,-53"/>
<polygon fill="DarkGreen" stroke="DarkGreen" points="583.98,-53 578.98,-55.25 581.48,-53 578.98,-53 578.98,-53 578.98,-53 581.48,-53 578.98,-50.75 583.98,-53 583.98,-53"/>
</g>
<!-- sn_csharp&#45;&gt;sn_csharp -->
<g id="edge2" class="edge">
<title>sn_csharp:K_SafeAuthenticator&#45;&gt;sn_csharp:K_SafeApp.Core</title>
<path fill="none" stroke="grey" d="M301.93,-37.64C268.66,-36.72 241,-31.86 241,-21.5 241,-11.67 265.92,-6.79 296.91,-5.53"/>
<polygon fill="grey" stroke="grey" points="301.93,-5.36 297.01,-7.78 299.44,-5.44 296.94,-5.53 296.94,-5.53 296.94,-5.53 299.44,-5.44 296.86,-3.28 301.93,-5.36 301.93,-5.36"/>
</g>
<!-- sn_csharp&#45;&gt;sn_csharp -->
<g id="edge3" class="edge">
<title>sn_csharp:K_SafeApp.AppBindings&#45;&gt;sn_csharp:K_SafeApp.Core</title>
<path fill="none" stroke="grey" d="M301.93,-57.56C268.66,-55.41 241,-47.94 241,-32 241,-16.87 265.92,-9.37 296.91,-6.81"/>
<polygon fill="grey" stroke="grey" points="301.93,-6.44 297.11,-9.05 299.44,-6.62 296.95,-6.81 296.95,-6.81 296.95,-6.81 299.44,-6.62 296.78,-4.56 301.93,-6.44 301.93,-6.44"/>
</g>
<!-- sn_csharp&#45;&gt;sn_csharp -->
<g id="edge6" class="edge">
<title>sn_csharp:K_SafeApp&#45;&gt;sn_csharp:K_SafeApp.AppBindings</title>
<path fill="none" stroke="grey" d="M301.93,-79.64C268.66,-78.72 241,-73.86 241,-63.5 241,-53.67 265.92,-48.79 296.91,-47.53"/>
<polygon fill="grey" stroke="grey" points="301.93,-47.36 297.01,-49.78 299.44,-47.44 296.94,-47.53 296.94,-47.53 296.94,-47.53 299.44,-47.44 296.86,-45.28 301.93,-47.36 301.93,-47.36"/>
</g>
<!-- sn_csharp&#45;&gt;sn_csharp -->
<g id="edge7" class="edge">
<title>sn_csharp:K_SafeApp&#45;&gt;sn_csharp:K_SafeApp.Core</title>
<path fill="none" stroke="grey" d="M301.93,-77.48C268.66,-74.1 241,-64.02 241,-42.5 241,-22.08 265.92,-11.95 296.91,-8.09"/>
<polygon fill="grey" stroke="grey" points="301.93,-7.52 297.22,-10.32 299.45,-7.8 296.97,-8.08 296.97,-8.08 296.97,-8.08 299.45,-7.8 296.71,-5.85 301.93,-7.52 301.93,-7.52"/>
</g>
<!-- qp2p -->
<g id="node7" class="node">
<title>qp2p</title>
<polygon fill="none" stroke="black" points="58.5,-269 58.5,-305 133.5,-305 133.5,-269 58.5,-269"/>
<text text-anchor="middle" x="96" y="-283.9" font-family="verdana" font-size="12.00">qp2p</text>
</g>
<!-- sn_client -->
<g id="node8" class="node">
<title>sn_client</title>
<polygon fill="none" stroke="black" points="48,-324 48,-360 144,-360 144,-324 48,-324"/>
<text text-anchor="middle" x="96" y="-338.9" font-family="verdana" font-size="12.00">sn_client</text>
</g>
<!-- sn_node -->
<g id="node9" class="node">
<title>sn_node</title>
<polygon fill="none" stroke="black" points="49,-379 49,-415 143,-415 143,-379 49,-379"/>
<text text-anchor="middle" x="96" y="-393.9" font-family="verdana" font-size="12.00">sn_node</text>
</g>
<!-- bls_dkg -->
<g id="node10" class="node">
<title>bls_dkg</title>
<polygon fill="none" stroke="black" points="51.5,-434 51.5,-470 140.5,-470 140.5,-434 51.5,-434"/>
<text text-anchor="middle" x="96" y="-448.9" font-family="verdana" font-size="12.00">bls_dkg</text>
</g>
<!-- sn_mobile_browser -->
<g id="node11" class="node">
<title>sn_mobile_browser</title>
<polygon fill="none" stroke="black" points="16.5,-49 16.5,-85 175.5,-85 175.5,-49 16.5,-49"/>
<text text-anchor="middle" x="96" y="-63.9" font-family="verdana" font-size="12.00">sn_mobile_browser</text>
</g>
<!-- sn_mobile_browser&#45;&gt;sn_csharp -->
<g id="edge8" class="edge">
<title>sn_mobile_browser:K_sn_mobile_browser&#45;&gt;sn_csharp:K_sn_csharp</title>
<path fill="none" stroke="DarkGreen" d="M175.88,-82.96C212.28,-88.98 256.18,-94.5 296.58,-94.97"/>
<polygon fill="DarkGreen" stroke="DarkGreen" points="302,-95 296.99,-97.22 299.5,-94.99 297,-94.97 297,-94.97 297,-94.97 299.5,-94.99 297.01,-92.72 302,-95 302,-95"/>
</g>
<!-- sn_data_types -->
<g id="node12" class="node">
<title>sn_data_types</title>
<polygon fill="none" stroke="black" points="31.5,-489 31.5,-525 160.5,-525 160.5,-489 31.5,-489"/>
<text text-anchor="middle" x="96" y="-503.9" font-family="verdana" font-size="12.00">sn_data_types</text>
</g>
<!-- self_encryption -->
<g id="node13" class="node">
<title>self_encryption</title>
<polygon fill="none" stroke="black" points="28.5,-544 28.5,-580 163.5,-580 163.5,-544 28.5,-544"/>
<text text-anchor="middle" x="96" y="-558.9" font-family="verdana" font-size="12.00">self_encryption</text>
</g>
<!-- xor_name -->
<g id="node14" class="node">
<title>xor_name</title>
<polygon fill="none" stroke="black" points="43.5,-599 43.5,-635 148.5,-635 148.5,-599 43.5,-599"/>
<text text-anchor="middle" x="96" y="-613.9" font-family="verdana" font-size="12.00">xor_name</text>
</g>
</g>
</svg>
