<?xml version="1.0" encoding="UTF-8" standalone="no"?>
<?xml-stylesheet href="./db.css" type="text/css"?>
<!DOCTYPE svg PUBLIC "-//W3C//DTD SVG 1.1//EN"
 "http://www.w3.org/Graphics/SVG/1.1/DTD/svg11.dtd">
<!-- Generated by graphviz version 2.40.1 (20161225.0304)
 -->
<!-- Title: g Pages: 1 -->
<svg width="1093pt" height="462pt"
 viewBox="0.00 0.00 1093.00 461.50" xmlns="http://www.w3.org/2000/svg" xmlns:xlink="http://www.w3.org/1999/xlink">
<g id="graph0" class="graph" transform="scale(1 1) rotate(0) translate(4 457.5)">
<title>g</title>
<polygon fill="#ffffff" stroke="transparent" points="-4,4 -4,-457.5 1089,-457.5 1089,4 -4,4"/>
<!-- parsec -->
<g id="node1" class="node">
<title>parsec</title>
<polygon fill="none" stroke="#000000" points="984,-416 984,-453 1055,-453 1055,-416 984,-416"/>
<text text-anchor="middle" x="1019.5" y="-430.8" font-family="verdana" font-size="14.00" fill="#000000">parsec</text>
</g>
<!-- routing -->
<g id="node2" class="node">
<title>routing</title>
<polygon fill="none" stroke="#000000" points="718,-387 718,-424 792,-424 792,-387 718,-387"/>
<text text-anchor="middle" x="755" y="-401.8" font-family="verdana" font-size="14.00" fill="#000000">routing</text>
</g>
<!-- routing&#45;&gt;parsec -->
<g id="edge8" class="edge">
<title>routing&#45;&gt;parsec</title>
<path fill="none" stroke="#006400" d="M792.0561,-409.5629C841.2651,-414.9582 927.8805,-424.4548 978.8411,-430.0421"/>
<polygon fill="#006400" stroke="#006400" points="983.9625,-430.6036 978.747,-432.2952 981.4774,-430.3311 978.9922,-430.0586 978.9922,-430.0586 978.9922,-430.0586 981.4774,-430.3311 979.2375,-427.822 983.9625,-430.6036 983.9625,-430.6036"/>
</g>
<!-- quic&#45;p2p -->
<g id="node7" class="node">
<title>quic&#45;p2p</title>
<polygon fill="none" stroke="#000000" points="977.5,-312 977.5,-349 1061.5,-349 1061.5,-312 977.5,-312"/>
<text text-anchor="middle" x="1019.5" y="-326.8" font-family="verdana" font-size="14.00" fill="#000000">quic&#45;p2p</text>
</g>
<!-- routing&#45;&gt;quic&#45;p2p -->
<g id="edge9" class="edge">
<title>routing&#45;&gt;quic&#45;p2p</title>
<path fill="none" stroke="#006400" d="M792.1227,-395.7774C829.2896,-386.0432 881,-372.5 881,-372.5 881,-372.5 932.2142,-356.9693 972.3565,-344.7962"/>
<polygon fill="#006400" stroke="#006400" points="977.1929,-343.3296 973.061,-346.9338 974.8005,-344.0551 972.408,-344.7807 972.408,-344.7807 972.408,-344.7807 974.8005,-344.0551 971.7551,-342.6275 977.1929,-343.3296 977.1929,-343.3296"/>
</g>
<!-- safe_nodejs -->
<g id="node3" class="node">
<title>safe_nodejs</title>
<polygon fill="none" stroke="#000000" points="229,-112.5 229,-186.5 337,-186.5 337,-112.5 229,-112.5"/>
<text text-anchor="middle" x="283" y="-164.3" font-family="verdana" font-size="14.00" fill="#000000">safe_nodejs</text>
<polyline fill="none" stroke="#000000" points="229,-149.5 337,-149.5 "/>
<text text-anchor="middle" x="283" y="-127.3" font-family="verdana" font-size="14.00" fill="#000000">native</text>
</g>
<!-- safe&#45;api -->
<g id="node10" class="node">
<title>safe&#45;api</title>
<polygon fill="none" stroke="#000000" points="447,-.5 447,-222.5 556,-222.5 556,-.5 447,-.5"/>
<text text-anchor="middle" x="501.5" y="-200.3" font-family="verdana" font-size="14.00" fill="#000000">safe&#45;api</text>
<polyline fill="none" stroke="#000000" points="447,-185.5 556,-185.5 "/>
<text text-anchor="middle" x="501.5" y="-163.3" font-family="verdana" font-size="14.00" fill="#000000">safe&#45;cli</text>
<polyline fill="none" stroke="#000000" points="447,-148.5 556,-148.5 "/>
<text text-anchor="middle" x="501.5" y="-126.3" font-family="verdana" font-size="14.00" fill="#000000">safe&#45;api</text>
<polyline fill="none" stroke="#000000" points="447,-111.5 556,-111.5 "/>
<text text-anchor="middle" x="501.5" y="-89.3" font-family="verdana" font-size="14.00" fill="#000000">safe&#45;ffi</text>
<polyline fill="none" stroke="#000000" points="447,-74.5 556,-74.5 "/>
<text text-anchor="middle" x="501.5" y="-52.3" font-family="verdana" font-size="14.00" fill="#000000">safe&#45;authd</text>
<polyline fill="none" stroke="#000000" points="447,-37.5 556,-37.5 "/>
<text text-anchor="middle" x="501.5" y="-15.3" font-family="verdana" font-size="14.00" fill="#000000">jsonrpc&#45;quic</text>
</g>
<!-- safe_nodejs&#45;&gt;safe&#45;api -->
<g id="edge19" class="edge">
<title>safe_nodejs:K_native&#45;&gt;safe&#45;api:K_safe&#45;api</title>
<path fill="none" stroke="#006400" d="M337,-130.5C337,-130.5 420.4685,-130.5 441.9877,-130.5"/>
<polygon fill="#006400" stroke="#006400" points="447,-130.5 442,-132.7501 444.5,-130.5 442,-130.5001 442,-130.5001 442,-130.5001 444.5,-130.5 442,-128.2501 447,-130.5 447,-130.5"/>
</g>
<!-- safe&#45;nd -->
<g id="node4" class="node">
<title>safe&#45;nd</title>
<polygon fill="none" stroke="#000000" points="981,-112 981,-149 1058,-149 1058,-112 981,-112"/>
<text text-anchor="middle" x="1019.5" y="-126.8" font-family="verdana" font-size="14.00" fill="#000000">safe&#45;nd</text>
</g>
<!-- safe_vault -->
<g id="node5" class="node">
<title>safe_vault</title>
<polygon fill="none" stroke="#000000" points="453.5,-361 453.5,-398 549.5,-398 549.5,-361 453.5,-361"/>
<text text-anchor="middle" x="501.5" y="-375.8" font-family="verdana" font-size="14.00" fill="#000000">safe_vault</text>
</g>
<!-- safe_vault&#45;&gt;routing -->
<g id="edge13" class="edge">
<title>safe_vault&#45;&gt;routing</title>
<path fill="none" stroke="#006400" d="M549.7781,-384.4516C596.8079,-389.2752 667.6006,-396.536 712.5388,-401.145"/>
<polygon fill="#006400" stroke="#006400" points="717.6165,-401.6658 712.413,-403.3938 715.1295,-401.4107 712.6426,-401.1556 712.6426,-401.1556 712.6426,-401.1556 715.1295,-401.4107 712.8722,-398.9173 717.6165,-401.6658 717.6165,-401.6658"/>
</g>
<!-- safe_vault&#45;&gt;safe&#45;nd -->
<g id="edge14" class="edge">
<title>safe_vault&#45;&gt;safe&#45;nd</title>
<path fill="none" stroke="#006400" d="M549.5266,-371.6206C585.8472,-365.6618 629.5,-358.5 629.5,-358.5 629.5,-358.5 629.5,-358.5 755,-358.5 755,-358.5 844,-308.5 844,-308.5 844,-308.5 950.3763,-200.6083 997.4914,-152.8221"/>
<polygon fill="#006400" stroke="#006400" points="1001.0501,-149.2127 999.1419,-154.3529 999.2949,-150.9929 997.5397,-152.7732 997.5397,-152.7732 997.5397,-152.7732 999.2949,-150.9929 995.9374,-151.1935 1001.0501,-149.2127 1001.0501,-149.2127"/>
</g>
<!-- safe_browser -->
<g id="node6" class="node">
<title>safe_browser</title>
<polygon fill="none" stroke="#000000" points="0,-112 0,-149 119,-149 119,-112 0,-112"/>
<text text-anchor="middle" x="59.5" y="-126.8" font-family="verdana" font-size="14.00" fill="#000000">safe_browser</text>
</g>
<!-- safe_browser&#45;&gt;safe_nodejs -->
<g id="edge12" class="edge">
<title>safe_browser&#45;&gt;safe_nodejs:K_native</title>
<path fill="none" stroke="#006400" d="M119.2594,-130.5C159.6719,-130.5 208.4103,-130.5 223.9703,-130.5"/>
<polygon fill="#006400" stroke="#006400" points="229,-130.5 224,-132.7501 226.5,-130.5 224,-130.5001 224,-130.5001 224,-130.5001 226.5,-130.5 224,-128.2501 229,-130.5 229,-130.5"/>
</g>
<!-- safe_client_libs -->
<g id="node8" class="node">
<title>safe_client_libs</title>
<polygon fill="none" stroke="#000000" points="666,-114 666,-299 844,-299 844,-114 666,-114"/>
<text text-anchor="middle" x="755" y="-276.8" font-family="verdana" font-size="14.00" fill="#000000">safe_client_libs</text>
<polyline fill="none" stroke="#000000" points="666,-262 844,-262 "/>
<text text-anchor="middle" x="755" y="-239.8" font-family="verdana" font-size="14.00" fill="#000000">safe_app</text>
<polyline fill="none" stroke="#000000" points="666,-225 844,-225 "/>
<text text-anchor="middle" x="755" y="-202.8" font-family="verdana" font-size="14.00" fill="#000000">safe_authenticator</text>
<polyline fill="none" stroke="#000000" points="666,-188 844,-188 "/>
<text text-anchor="middle" x="755" y="-165.8" font-family="verdana" font-size="14.00" fill="#000000">safe_authenticator_ffi</text>
<polyline fill="none" stroke="#000000" points="666,-151 844,-151 "/>
<text text-anchor="middle" x="755" y="-128.8" font-family="verdana" font-size="14.00" fill="#000000">safe_core</text>
</g>
<!-- safe_client_libs&#45;&gt;safe&#45;nd -->
<g id="edge1" class="edge">
<title>safe_client_libs:K_safe_app&#45;&gt;safe&#45;nd</title>
<path fill="none" stroke="#006400" d="M844,-243.5C844,-243.5 935.0914,-184.8486 986.0217,-152.0558"/>
<polygon fill="#006400" stroke="#006400" points="990.5197,-149.1597 987.5339,-153.7583 988.4178,-150.5131 986.3158,-151.8665 986.3158,-151.8665 986.3158,-151.8665 988.4178,-150.5131 985.0977,-149.9747 990.5197,-149.1597 990.5197,-149.1597"/>
</g>
<!-- safe_client_libs&#45;&gt;safe&#45;nd -->
<g id="edge6" class="edge">
<title>safe_client_libs:K_safe_core&#45;&gt;safe&#45;nd</title>
<path fill="none" stroke="#006400" d="M844,-132.5C844,-132.5 880,-116.5 880,-116.5 880,-116.5 918,-116.5 918,-116.5 918,-116.5 948.2687,-120.675 975.7472,-124.4651"/>
<polygon fill="#006400" stroke="#006400" points="980.8377,-125.1673 975.5771,-126.7129 978.3611,-124.8256 975.8845,-124.484 975.8845,-124.484 975.8845,-124.484 978.3611,-124.8256 976.192,-122.2551 980.8377,-125.1673 980.8377,-125.1673"/>
</g>
<!-- safe_client_libs&#45;&gt;safe&#45;nd -->
<g id="edge20" class="edge">
<title>safe_client_libs:K_safe_authenticator&#45;&gt;safe&#45;nd</title>
<path fill="none" stroke="#006400" d="M844,-206.5C844,-206.5 880,-182.5 880,-182.5 880,-182.5 934.8173,-162.0663 975.7262,-146.8171"/>
<polygon fill="#006400" stroke="#006400" points="980.6415,-144.9849 976.7423,-148.8397 978.2989,-145.8581 975.9564,-146.7314 975.9564,-146.7314 975.9564,-146.7314 978.2989,-145.8581 975.1705,-144.6231 980.6415,-144.9849 980.6415,-144.9849"/>
</g>
<!-- safe_client_libs&#45;&gt;safe&#45;nd -->
<g id="edge22" class="edge">
<title>safe_client_libs:K_safe_authenticator_ffi&#45;&gt;safe&#45;nd</title>
<path fill="none" stroke="#006400" d="M844,-169.5C844,-169.5 924.075,-151.7056 976.0475,-140.1561"/>
<polygon fill="#006400" stroke="#006400" points="980.9858,-139.0587 976.593,-142.3399 978.5453,-139.6011 976.1048,-140.1434 976.1048,-140.1434 976.1048,-140.1434 978.5453,-139.6011 975.6167,-137.947 980.9858,-139.0587 980.9858,-139.0587"/>
</g>
<!-- safe_client_libs&#45;&gt;quic&#45;p2p -->
<g id="edge5" class="edge">
<title>safe_client_libs:K_safe_core&#45;&gt;quic&#45;p2p</title>
<path fill="none" stroke="#006400" d="M844,-132.5C844,-132.5 880,-233.5 880,-233.5 880,-233.5 947.3597,-280.338 988.4646,-308.9199"/>
<polygon fill="#006400" stroke="#006400" points="992.603,-311.7974 987.2133,-310.7902 990.5504,-310.3702 988.4979,-308.9429 988.4979,-308.9429 988.4979,-308.9429 990.5504,-310.3702 989.7824,-307.0956 992.603,-311.7974 992.603,-311.7974"/>
</g>
<!-- safe_client_libs&#45;&gt;safe_client_libs -->
<g id="edge2" class="edge">
<title>safe_client_libs:K_safe_app&#45;&gt;safe_client_libs:K_safe_authenticator</title>
<path fill="none" stroke="#c0c0c0" d="M665.8395,-248.2763C631.9945,-246.3564 604,-239.502 604,-225 604,-211.2345 629.2235,-204.3595 660.7316,-202.0547"/>
<polygon fill="#c0c0c0" stroke="#c0c0c0" points="665.8395,-201.7237 660.9955,-204.2924 663.3447,-201.8854 660.85,-202.0471 660.85,-202.0471 660.85,-202.0471 663.3447,-201.8854 660.7044,-199.8018 665.8395,-201.7237 665.8395,-201.7237"/>
</g>
<!-- safe_client_libs&#45;&gt;safe_client_libs -->
<g id="edge3" class="edge">
<title>safe_client_libs:K_safe_app&#45;&gt;safe_client_libs:K_safe_core</title>
<path fill="none" stroke="#c0c0c0" d="M665.8395,-244.3694C631.9945,-238.0904 604,-222.0137 604,-188 604,-155.7136 629.2235,-139.5886 660.7316,-132.664"/>
<polygon fill="#c0c0c0" stroke="#c0c0c0" points="665.8395,-131.6306 661.385,-134.8275 663.3891,-132.1264 660.9388,-132.6222 660.9388,-132.6222 660.9388,-132.6222 663.3891,-132.1264 660.4926,-130.4169 665.8395,-131.6306 665.8395,-131.6306"/>
</g>
<!-- safe_client_libs&#45;&gt;safe_client_libs -->
<g id="edge21" class="edge">
<title>safe_client_libs:K_safe_authenticator&#45;&gt;safe_client_libs:K_safe_core</title>
<path fill="none" stroke="#c0c0c0" d="M665.8395,-209.3229C631.9945,-205.2234 604,-193.7578 604,-169.5 604,-146.474 629.2235,-134.974 660.7316,-130.3594"/>
<polygon fill="#c0c0c0" stroke="#c0c0c0" points="665.8395,-129.6771 661.1814,-132.5693 663.3615,-130.0081 660.8835,-130.3392 660.8835,-130.3392 660.8835,-130.3392 663.3615,-130.0081 660.5856,-128.109 665.8395,-129.6771 665.8395,-129.6771"/>
</g>
<!-- safe_client_libs&#45;&gt;safe_client_libs -->
<g id="edge23" class="edge">
<title>safe_client_libs:K_safe_authenticator_ffi&#45;&gt;safe_client_libs:K_safe_authenticator</title>
<path fill="none" stroke="#c0c0c0" d="M665.8395,-164.7237C631.9945,-166.6436 604,-173.498 604,-188 604,-201.7655 629.2235,-208.6405 660.7316,-210.9453"/>
<polygon fill="#c0c0c0" stroke="#c0c0c0" points="665.8395,-211.2763 660.7044,-213.1982 663.3447,-211.1146 660.85,-210.9529 660.85,-210.9529 660.85,-210.9529 663.3447,-211.1146 660.9955,-208.7076 665.8395,-211.2763 665.8395,-211.2763"/>
</g>
<!-- safe_client_libs&#45;&gt;safe_client_libs -->
<g id="edge24" class="edge">
<title>safe_client_libs:K_safe_authenticator_ffi&#45;&gt;safe_client_libs:K_safe_core</title>
<path fill="none" stroke="#c0c0c0" d="M665.8395,-174.2763C631.9945,-172.3564 604,-165.502 604,-151 604,-137.2345 629.2235,-130.3595 660.7316,-128.0547"/>
<polygon fill="#c0c0c0" stroke="#c0c0c0" points="665.8395,-127.7237 660.9955,-130.2924 663.3447,-127.8854 660.85,-128.0471 660.85,-128.0471 660.85,-128.0471 663.3447,-127.8854 660.7044,-125.8018 665.8395,-127.7237 665.8395,-127.7237"/>
</g>
<!-- self_encryption -->
<g id="node9" class="node">
<title>self_encryption</title>
<polygon fill="none" stroke="#000000" points="954,-222 954,-259 1085,-259 1085,-222 954,-222"/>
<text text-anchor="middle" x="1019.5" y="-236.8" font-family="verdana" font-size="14.00" fill="#000000">self_encryption</text>
</g>
<!-- safe_client_libs&#45;&gt;self_encryption -->
<g id="edge4" class="edge">
<title>safe_client_libs:K_safe_app&#45;&gt;self_encryption</title>
<path fill="none" stroke="#006400" d="M844,-243.5C844,-243.5 880,-258.5 880,-258.5 880,-258.5 918,-258.5 918,-258.5 918,-258.5 931.5952,-256.089 948.8344,-253.0318"/>
<polygon fill="#006400" stroke="#006400" points="953.7851,-252.1539 949.2548,-255.2425 951.3235,-252.5905 948.8619,-253.027 948.8619,-253.027 948.8619,-253.027 951.3235,-252.5905 948.469,-250.8116 953.7851,-252.1539 953.7851,-252.1539"/>
</g>
<!-- safe_client_libs&#45;&gt;self_encryption -->
<g id="edge7" class="edge">
<title>safe_client_libs:K_safe_core&#45;&gt;self_encryption</title>
<path fill="none" stroke="#006400" d="M844,-132.5C844,-132.5 880,-182.5 880,-182.5 880,-182.5 930.0041,-203.2903 970.1365,-219.9761"/>
<polygon fill="#006400" stroke="#006400" points="974.9778,-221.989 969.4971,-222.1469 972.6694,-221.0292 970.3609,-220.0694 970.3609,-220.0694 970.3609,-220.0694 972.6694,-221.0292 971.2247,-217.9918 974.9778,-221.989 974.9778,-221.989"/>
</g>
<!-- safe&#45;api&#45;&gt;safe&#45;nd -->
<g id="edge16" class="edge">
<title>safe&#45;api:K_safe&#45;ffi&#45;&gt;safe&#45;nd</title>
<path fill="none" stroke="#006400" d="M556,-92.5C556,-92.5 629.5,-16.5 629.5,-16.5 629.5,-16.5 629.5,-16.5 880.5,-16.5 880.5,-16.5 918,-40.5 918,-40.5 918,-40.5 964.4724,-81.7071 994.5261,-108.3556"/>
<polygon fill="#006400" stroke="#006400" points="998.4691,-111.8519 993.2352,-110.2182 996.5986,-110.1933 994.728,-108.5347 994.728,-108.5347 994.728,-108.5347 996.5986,-110.1933 996.2208,-106.8512 998.4691,-111.8519 998.4691,-111.8519"/>
</g>
<!-- safe&#45;api&#45;&gt;safe&#45;nd -->
<g id="edge27" class="edge">
<title>safe&#45;api:K_safe&#45;api&#45;&gt;safe&#45;nd</title>
<path fill="none" stroke="#006400" d="M556,-130.5C556,-130.5 755,-54.5 755,-54.5 755,-54.5 755,-54.5 880.5,-54.5 880.5,-54.5 939.9358,-86.9972 981.0763,-109.4913"/>
<polygon fill="#006400" stroke="#006400" points="985.4968,-111.9083 980.0303,-111.4838 983.3032,-110.7089 981.1097,-109.5096 981.1097,-109.5096 981.1097,-109.5096 983.3032,-110.7089 982.1891,-107.5354 985.4968,-111.9083 985.4968,-111.9083"/>
</g>
<!-- safe&#45;api&#45;&gt;safe_client_libs -->
<g id="edge17" class="edge">
<title>safe&#45;api:K_safe&#45;ffi&#45;&gt;safe_client_libs:K_safe_authenticator_ffi</title>
<path fill="none" stroke="#006400" d="M556,-92.5C556,-92.5 641.7294,-152.5106 661.8222,-166.5755"/>
<polygon fill="#006400" stroke="#006400" points="666,-169.5 660.6135,-168.4759 663.9519,-168.0663 661.9038,-166.6326 661.9038,-166.6326 661.9038,-166.6326 663.9519,-168.0663 663.1941,-164.7894 666,-169.5 666,-169.5"/>
</g>
<!-- safe&#45;api&#45;&gt;safe_client_libs -->
<g id="edge18" class="edge">
<title>safe&#45;api:K_safe&#45;ffi&#45;&gt;safe_client_libs:K_safe_core</title>
<path fill="none" stroke="#006400" d="M556,-92.5C556,-92.5 630,-116.5 630,-116.5 630,-116.5 651.5354,-126.0713 661.2936,-130.4083"/>
<polygon fill="#006400" stroke="#006400" points="666,-132.5 660.5171,-132.5253 663.7155,-131.4846 661.4309,-130.4693 661.4309,-130.4693 661.4309,-130.4693 663.7155,-131.4846 662.3448,-128.4132 666,-132.5 666,-132.5"/>
</g>
<!-- safe&#45;api&#45;&gt;safe_client_libs -->
<g id="edge28" class="edge">
<title>safe&#45;api:K_safe&#45;api&#45;&gt;safe_client_libs:K_safe_app</title>
<path fill="none" stroke="#006400" d="M556,-130.5C556,-130.5 592,-220.5 592,-220.5 592,-220.5 644.6816,-236.874 661.1447,-241.9909"/>
<polygon fill="#006400" stroke="#006400" points="666,-243.5 660.5575,-244.1645 663.6127,-242.758 661.2253,-242.0159 661.2253,-242.0159 661.2253,-242.0159 663.6127,-242.758 661.8931,-239.8673 666,-243.5 666,-243.5"/>
</g>
<!-- safe&#45;api&#45;&gt;safe_client_libs -->
<g id="edge29" class="edge">
<title>safe&#45;api:K_safe&#45;api&#45;&gt;safe_client_libs:K_safe_authenticator</title>
<path fill="none" stroke="#006400" d="M556,-130.5C556,-130.5 592,-182.5 592,-182.5 592,-182.5 644.6816,-199.5859 661.1447,-204.9253"/>
<polygon fill="#006400" stroke="#006400" points="666,-206.5 660.5497,-207.0977 663.6219,-205.7287 661.2439,-204.9574 661.2439,-204.9574 661.2439,-204.9574 663.6219,-205.7287 661.938,-202.8172 666,-206.5 666,-206.5"/>
</g>
<!-- safe&#45;api&#45;&gt;safe_client_libs -->
<g id="edge30" class="edge">
<title>safe&#45;api:K_safe&#45;api&#45;&gt;safe_client_libs:K_safe_core</title>
<path fill="none" stroke="#006400" d="M556,-130.5C556,-130.5 592,-144.5 592,-144.5 592,-144.5 593,-144.5 593,-144.5 593,-144.5 644.0118,-136.1145 660.75,-133.363"/>
<polygon fill="#006400" stroke="#006400" points="666,-132.5 661.4312,-135.5313 663.5331,-132.9056 661.0662,-133.3111 661.0662,-133.3111 661.0662,-133.3111 663.5331,-132.9056 660.7012,-131.0909 666,-132.5 666,-132.5"/>
</g>
<!-- safe&#45;api&#45;&gt;safe&#45;api -->
<g id="edge10" class="edge">
<title>safe&#45;api:K_safe&#45;authd&#45;&gt;safe&#45;api:K_jsonrpc&#45;quic</title>
<path fill="none" stroke="#c0c0c0" d="M446.7509,-60.5662C422.6978,-59.1419 402,-52.3613 402,-37 402,-22.7188 419.8895,-15.854 441.733,-13.8148"/>
<polygon fill="#c0c0c0" stroke="#c0c0c0" points="446.7509,-13.4338 441.9356,-16.056 444.2581,-13.6231 441.7652,-13.8124 441.7652,-13.8124 441.7652,-13.8124 444.2581,-13.6231 441.5948,-11.5689 446.7509,-13.4338 446.7509,-13.4338"/>
</g>
<!-- safe&#45;api&#45;&gt;safe&#45;api -->
<g id="edge11" class="edge">
<title>safe&#45;api:K_safe&#45;authd&#45;&gt;safe&#45;api:K_safe&#45;api</title>
<path fill="none" stroke="#c0c0c0" d="M446.7509,-52.0678C422.6978,-55.56 402,-67.0254 402,-93 402,-117.1483 419.8895,-128.7559 441.733,-133.075"/>
<polygon fill="#c0c0c0" stroke="#c0c0c0" points="446.7509,-133.9322 441.4434,-135.3081 444.2866,-133.5112 441.8223,-133.0902 441.8223,-133.0902 441.8223,-133.0902 444.2866,-133.5112 442.2012,-130.8723 446.7509,-133.9322 446.7509,-133.9322"/>
</g>
<!-- safe&#45;api&#45;&gt;safe&#45;api -->
<g id="edge15" class="edge">
<title>safe&#45;api:K_safe&#45;ffi&#45;&gt;safe&#45;api:K_safe&#45;api</title>
<path fill="none" stroke="#c0c0c0" d="M446.7509,-87.4768C422.6978,-88.9555 402,-95.8594 402,-111.5 402,-126.0409 419.8895,-133.0304 441.733,-135.1297"/>
<polygon fill="#c0c0c0" stroke="#c0c0c0" points="446.7509,-135.5232 441.5902,-137.3753 444.2585,-135.3277 441.7662,-135.1322 441.7662,-135.1322 441.7662,-135.1322 444.2585,-135.3277 441.9422,-132.8891 446.7509,-135.5232 446.7509,-135.5232"/>
</g>
<!-- safe&#45;api&#45;&gt;safe&#45;api -->
<g id="edge25" class="edge">
<title>safe&#45;api:K_safe&#45;cli&#45;&gt;safe&#45;api:K_safe&#45;api</title>
<path fill="none" stroke="#c0c0c0" d="M446.7509,-172.5662C422.6978,-171.1419 402,-164.3613 402,-149 402,-134.7188 419.8895,-127.854 441.733,-125.8148"/>
<polygon fill="#c0c0c0" stroke="#c0c0c0" points="446.7509,-125.4338 441.9356,-128.056 444.2581,-125.6231 441.7652,-125.8124 441.7652,-125.8124 441.7652,-125.8124 444.2581,-125.6231 441.5948,-123.5689 446.7509,-125.4338 446.7509,-125.4338"/>
</g>
<!-- safe&#45;api&#45;&gt;safe&#45;api -->
<g id="edge26" class="edge">
<title>safe&#45;api:K_safe&#45;api&#45;&gt;safe&#45;api:K_jsonrpc&#45;quic</title>
<path fill="none" stroke="#c0c0c0" d="M446.7509,-132.3411C422.6978,-126.8354 402,-110.8086 402,-74.5 402,-40.7444 419.8895,-24.5186 441.733,-17.9797"/>
<polygon fill="#c0c0c0" stroke="#c0c0c0" points="446.7509,-16.6589 442.4883,-20.1076 444.3332,-17.2953 441.9156,-17.9317 441.9156,-17.9317 441.9156,-17.9317 444.3332,-17.2953 441.3428,-15.7558 446.7509,-16.6589 446.7509,-16.6589"/>
</g>
</g>
</svg>
